solid AngleTest
facet normal 0.0 0.0 -1.0
  outer loop
    vertex 41.37979040142837 16.440784169286573 5.639932965095795e-15
    vertex 11.37979040142837 13.440784169286573 5.639932965095795e-15
    vertex 11.37979040142837 16.440784169286573 5.639932965095795e-15
  endloop
endfacet
facet normal 0.0 0.0 -1.0
  outer loop
    vertex 11.37979040142837 13.440784169286573 5.639932965095795e-15
    vertex 41.37979040142837 16.440784169286573 5.639932965095795e-15
    vertex 41.37979040142837 13.440784169286573 5.639932965095795e-15
  endloop
endfacet
facet normal 0.0 -1.0 0.0
  outer loop
    vertex 14.37979040142837 13.440784169286573 33.00000000000001
    vertex 37.343703187306254 13.440784169286573 3.0000000000000058
    vertex 41.37979040142837 13.440784169286573 3.0000000000000058
  endloop
endfacet
facet normal 0.0 -1.0 0.0
  outer loop
    vertex 37.343703187306254 13.440784169286573 3.0000000000000058
    vertex 14.37979040142837 13.440784169286573 33.00000000000001
    vertex 14.37979040142837 13.440784169286573 28.515458650975436
  endloop
endfacet
facet normal 0.0 -1.0 0.0
  outer loop
    vertex 41.37979040142837 13.440784169286573 3.0000000000000058
    vertex 11.37979040142837 13.440784169286573 5.639932965095795e-15
    vertex 41.37979040142837 13.440784169286573 5.639932965095795e-15
  endloop
endfacet
facet normal 0.0 -1.0 0.0
  outer loop
    vertex 11.37979040142837 13.440784169286573 5.639932965095795e-15
    vertex 41.37979040142837 13.440784169286573 3.0000000000000058
    vertex 11.37979040142837 13.440784169286573 3.0000000000000058
  endloop
endfacet
facet normal 0.0 -1.0 0.0
  outer loop
    vertex 11.37979040142837 13.440784169286573 3.0000000000000058
    vertex 41.37979040142837 13.440784169286573 3.0000000000000058
    vertex 37.343703187306254 13.440784169286573 3.0000000000000058
  endloop
endfacet
facet normal 0.0 -1.0 0.0
  outer loop
    vertex 11.37979040142837 13.440784169286573 3.0000000000000058
    vertex 37.343703187306254 13.440784169286573 3.0000000000000058
    vertex 14.37979040142837 13.440784169286573 3.0000000000000058
  endloop
endfacet
facet normal 0.0 -1.0 0.0
  outer loop
    vertex 11.37979040142837 13.440784169286573 3.0000000000000058
    vertex 14.37979040142837 13.440784169286573 3.0000000000000058
    vertex 14.37979040142837 13.440784169286573 28.515458650975436
  endloop
endfacet
facet normal 0.0 -1.0 0.0
  outer loop
    vertex 11.37979040142837 13.440784169286573 3.0000000000000058
    vertex 14.37979040142837 13.440784169286573 28.515458650975436
    vertex 11.37979040142837 13.440784169286573 33.00000000000001
  endloop
endfacet
facet normal 0.0 -1.0 0.0
  outer loop
    vertex 11.37979040142837 13.440784169286573 33.00000000000001
    vertex 14.37979040142837 13.440784169286573 28.515458650975436
    vertex 14.37979040142837 13.440784169286573 33.00000000000001
  endloop
endfacet
facet normal -1.0 0.0 0.0
  outer loop
    vertex 11.37979040142837 16.440784169286573 3.0000000000000058
    vertex 11.37979040142837 13.440784169286573 5.639932965095795e-15
    vertex 11.37979040142837 13.440784169286573 3.0000000000000058
  endloop
endfacet
facet normal -1.0 0.0 0.0
  outer loop
    vertex 11.37979040142837 13.440784169286573 5.639932965095795e-15
    vertex 11.37979040142837 16.440784169286573 3.0000000000000058
    vertex 11.37979040142837 16.440784169286573 5.639932965095795e-15
  endloop
endfacet
facet normal -0.0 1.0 -0.0
  outer loop
    vertex 11.37979040142837 16.440784169286573 33.00000000000001
    vertex 14.37979040142837 16.440784169286573 3.0000000000000058
    vertex 11.37979040142837 16.440784169286573 3.0000000000000058
  endloop
endfacet
facet normal -0.0 1.0 -0.0
  outer loop
    vertex 14.37979040142837 16.440784169286573 3.0000000000000058
    vertex 11.37979040142837 16.440784169286573 33.00000000000001
    vertex 14.37979040142837 16.440784169286573 28.515458650975436
  endloop
endfacet
facet normal -0.0 1.0 -0.0
  outer loop
    vertex 11.37979040142837 16.440784169286573 3.0000000000000058
    vertex 41.37979040142837 16.440784169286573 5.639932965095795e-15
    vertex 11.37979040142837 16.440784169286573 5.639932965095795e-15
  endloop
endfacet
facet normal -0.0 1.0 -0.0
  outer loop
    vertex 41.37979040142837 16.440784169286573 5.639932965095795e-15
    vertex 11.37979040142837 16.440784169286573 3.0000000000000058
    vertex 41.37979040142837 16.440784169286573 3.0000000000000058
  endloop
endfacet
facet normal -0.0 1.0 -0.0
  outer loop
    vertex 41.37979040142837 16.440784169286573 3.0000000000000058
    vertex 11.37979040142837 16.440784169286573 3.0000000000000058
    vertex 14.37979040142837 16.440784169286573 3.0000000000000058
  endloop
endfacet
facet normal -0.0 1.0 -0.0
  outer loop
    vertex 41.37979040142837 16.440784169286573 3.0000000000000058
    vertex 14.37979040142837 16.440784169286573 3.0000000000000058
    vertex 37.343703187306254 16.440784169286573 3.0000000000000058
  endloop
endfacet
facet normal -0.0 1.0 -0.0
  outer loop
    vertex 41.37979040142837 16.440784169286573 3.0000000000000058
    vertex 37.343703187306254 16.440784169286573 3.0000000000000058
    vertex 14.37979040142837 16.440784169286573 28.515458650975436
  endloop
endfacet
facet normal -0.0 1.0 -0.0
  outer loop
    vertex 41.37979040142837 16.440784169286573 3.0000000000000058
    vertex 14.37979040142837 16.440784169286573 28.515458650975436
    vertex 14.37979040142837 16.440784169286573 33.00000000000001
  endloop
endfacet
facet normal -0.0 1.0 -0.0
  outer loop
    vertex 14.37979040142837 16.440784169286573 33.00000000000001
    vertex 14.37979040142837 16.440784169286573 28.515458650975436
    vertex 11.37979040142837 16.440784169286573 33.00000000000001
  endloop
endfacet
facet normal 1.0 0.0 0.0
  outer loop
    vertex 41.37979040142837 16.440784169286573 5.639932965095795e-15
    vertex 41.37979040142837 13.440784169286573 3.0000000000000058
    vertex 41.37979040142837 13.440784169286573 5.639932965095795e-15
  endloop
endfacet
facet normal 1.0 0.0 0.0
  outer loop
    vertex 41.37979040142837 13.440784169286573 3.0000000000000058
    vertex 41.37979040142837 16.440784169286573 5.639932965095795e-15
    vertex 41.37979040142837 16.440784169286573 3.0000000000000058
  endloop
endfacet
facet normal -1.0 0.0 0.0
  outer loop
    vertex 11.37979040142837 16.440784169286573 33.00000000000001
    vertex 11.37979040142837 13.440784169286573 3.0000000000000058
    vertex 11.37979040142837 13.440784169286573 33.00000000000001
  endloop
endfacet
facet normal -1.0 0.0 0.0
  outer loop
    vertex 11.37979040142837 13.440784169286573 3.0000000000000058
    vertex 11.37979040142837 16.440784169286573 33.00000000000001
    vertex 11.37979040142837 16.440784169286573 3.0000000000000058
  endloop
endfacet
facet normal 0.0 -0.0 1.0
  outer loop
    vertex 14.37979040142837 13.440784169286573 33.00000000000001
    vertex 11.37979040142837 16.440784169286573 33.00000000000001
    vertex 11.37979040142837 13.440784169286573 33.00000000000001
  endloop
endfacet
facet normal 0.0 -0.0 1.0
  outer loop
    vertex 11.37979040142837 16.440784169286573 33.00000000000001
    vertex 14.37979040142837 13.440784169286573 33.00000000000001
    vertex 14.37979040142837 16.440784169286573 33.00000000000001
  endloop
endfacet
facet normal 0.7432941462471664 -0.0 0.6689647316224496
  outer loop
    vertex 41.37979040142837 16.440784169286573 3.0000000000000058
    vertex 14.37979040142837 13.440784169286573 33.00000000000001
    vertex 41.37979040142837 13.440784169286573 3.0000000000000058
  endloop
endfacet
facet normal 0.7432941462471664 -0.0 0.6689647316224496
  outer loop
    vertex 14.37979040142837 13.440784169286573 33.00000000000001
    vertex 41.37979040142837 16.440784169286573 3.0000000000000058
    vertex 14.37979040142837 16.440784169286573 33.00000000000001
  endloop
endfacet
facet normal -0.0 -0.0 1.0
  outer loop
    vertex 37.343703187306254 13.440784169286573 3.0000000000000058
    vertex 14.37979040142837 16.440784169286573 3.0000000000000058
    vertex 14.37979040142837 13.440784169286573 3.0000000000000058
  endloop
endfacet
facet normal -0.0 -0.0 1.0
  outer loop
    vertex 14.37979040142837 16.440784169286573 3.0000000000000058
    vertex 37.343703187306254 13.440784169286573 3.0000000000000058
    vertex 37.343703187306254 16.440784169286573 3.0000000000000058
  endloop
endfacet
facet normal 1.0 -0.0 -0.0
  outer loop
    vertex 14.37979040142837 16.440784169286573 3.0000000000000058
    vertex 14.37979040142837 13.440784169286573 28.515458650975436
    vertex 14.37979040142837 13.440784169286573 3.0000000000000058
  endloop
endfacet
facet normal 1.0 -0.0 -0.0
  outer loop
    vertex 14.37979040142837 13.440784169286573 28.515458650975436
    vertex 14.37979040142837 16.440784169286573 3.0000000000000058
    vertex 14.37979040142837 16.440784169286573 28.515458650975436
  endloop
endfacet
facet normal -0.7432941462471664 0.0 -0.6689647316224496
  outer loop
    vertex 14.37979040142837 16.440784169286573 28.515458650975436
    vertex 37.343703187306254 13.440784169286573 3.0000000000000058
    vertex 14.37979040142837 13.440784169286573 28.515458650975436
  endloop
endfacet
facet normal -0.7432941462471664 0.0 -0.6689647316224496
  outer loop
    vertex 37.343703187306254 13.440784169286573 3.0000000000000058
    vertex 14.37979040142837 16.440784169286573 28.515458650975436
    vertex 37.343703187306254 16.440784169286573 3.0000000000000058
  endloop
endfacet
endsolid AngleTest
