solid CameraStand3_plateonly
facet normal 0.0 0.0 -1.0
  outer loop
    vertex 81.55387889257509 80.41172176683105 0.0
    vertex 41.55387889257507 40.41172176683102 0.0
    vertex 41.55387889257507 80.41172176683105 0.0
  endloop
endfacet
facet normal 0.0 0.0 -1.0
  outer loop
    vertex 41.55387889257507 40.41172176683102 0.0
    vertex 81.55387889257509 80.41172176683105 0.0
    vertex 81.55387889257509 40.41172176683102 0.0
  endloop
endfacet
facet normal 0.0 0.0 1.0
  outer loop
    vertex 41.55387889257507 40.41172176683102 3.9999999999999996
    vertex 56.734022112896355 56.8383507220912 4.0
    vertex 41.55387889257507 80.41172176683105 3.9999999999999996
  endloop
endfacet
facet normal 0.0 0.0 1.0
  outer loop
    vertex 56.734022112896355 56.8383507220912 4.0
    vertex 41.55387889257507 40.41172176683102 3.9999999999999996
    vertex 57.82311123166549 55.71263965855591 4.0
  endloop
endfacet
facet normal 0.0 0.0 1.0
  outer loop
    vertex 57.82311123166549 55.71263965855591 4.0
    vertex 41.55387889257507 40.41172176683102 3.9999999999999996
    vertex 81.55387889257509 40.41172176683102 3.9999999999999996
  endloop
endfacet
facet normal 0.0 0.0 1.0
  outer loop
    vertex 41.55387889257507 80.41172176683105 3.9999999999999996
    vertex 56.734022112896355 56.8383507220912 4.0
    vertex 55.97339826847239 58.20758111705064 4.0
  endloop
endfacet
facet normal 0.0 0.0 1.0
  outer loop
    vertex 41.55387889257507 80.41172176683105 3.9999999999999996
    vertex 55.97339826847239 58.20758111705064 4.0
    vertex 55.59307495640075 59.72702005477796 4.0
  endloop
endfacet
facet normal 0.0 0.0 1.0
  outer loop
    vertex 57.82311123166549 55.71263965855591 4.0
    vertex 81.55387889257509 40.41172176683102 3.9999999999999996
    vertex 59.16644600114056 54.90716327509922 4.0
  endloop
endfacet
facet normal 0.0 0.0 1.0
  outer loop
    vertex 59.16644600114056 54.90716327509922 4.0
    vertex 81.55387889257509 40.41172176683102 3.9999999999999996
    vertex 60.67248037674747 54.47681345614102 4.0
  endloop
endfacet
facet normal 0.0 0.0 1.0
  outer loop
    vertex 60.67248037674747 54.47681345614102 4.0
    vertex 81.55387889257509 40.41172176683102 3.9999999999999996
    vertex 62.238580604628126 54.45091783065665 4.0
  endloop
endfacet
facet normal 0.0 0.0 1.0
  outer loop
    vertex 62.238580604628126 54.45091783065665 4.0
    vertex 81.55387889257509 40.41172176683102 3.9999999999999996
    vertex 63.75801954235545 54.83124114272829 4.0
  endloop
endfacet
facet normal 0.0 0.0 1.0
  outer loop
    vertex 63.75801954235545 54.83124114272829 4.0
    vertex 81.55387889257509 40.41172176683102 3.9999999999999996
    vertex 65.12724993731489 55.591864987152256 4.0
  endloop
endfacet
facet normal 0.0 0.0 1.0
  outer loop
    vertex 65.12724993731489 55.591864987152256 4.0
    vertex 81.55387889257509 40.41172176683102 3.9999999999999996
    vertex 66.25296100085018 56.680954105921394 4.0
  endloop
endfacet
facet normal 0.0 0.0 1.0
  outer loop
    vertex 66.25296100085018 56.680954105921394 4.0
    vertex 81.55387889257509 40.41172176683102 3.9999999999999996
    vertex 67.05843738430687 58.024288875396444 4.0
  endloop
endfacet
facet normal 0.0 0.0 1.0
  outer loop
    vertex 67.05843738430687 58.024288875396444 4.0
    vertex 81.55387889257509 40.41172176683102 3.9999999999999996
    vertex 67.48878720326505 59.530323251003374 4.0
  endloop
endfacet
facet normal 0.0 0.0 1.0
  outer loop
    vertex 67.48878720326505 59.530323251003374 4.0
    vertex 81.55387889257509 40.41172176683102 3.9999999999999996
    vertex 67.51468282874944 61.09642347888403 4.0
  endloop
endfacet
facet normal 0.0 0.0 1.0
  outer loop
    vertex 41.55387889257507 80.41172176683105 3.9999999999999996
    vertex 57.980507847835284 65.23157854650972 4.0
    vertex 81.55387889257509 80.41172176683105 3.9999999999999996
  endloop
endfacet
facet normal 0.0 0.0 1.0
  outer loop
    vertex 57.980507847835284 65.23157854650972 4.0
    vertex 41.55387889257507 80.41172176683105 3.9999999999999996
    vertex 56.85479678430001 64.1424894277406 4.0
  endloop
endfacet
facet normal 0.0 0.0 1.0
  outer loop
    vertex 56.85479678430001 64.1424894277406 4.0
    vertex 41.55387889257507 80.41172176683105 3.9999999999999996
    vertex 56.04932040084332 62.79915465826554 4.0
  endloop
endfacet
facet normal 0.0 0.0 1.0
  outer loop
    vertex 56.04932040084332 62.79915465826554 4.0
    vertex 41.55387889257507 80.41172176683105 3.9999999999999996
    vertex 55.61897058188514 61.29312028265861 4.0
  endloop
endfacet
facet normal 0.0 0.0 1.0
  outer loop
    vertex 55.61897058188514 61.29312028265861 4.0
    vertex 41.55387889257507 80.41172176683105 3.9999999999999996
    vertex 55.59307495640075 59.72702005477796 4.0
  endloop
endfacet
facet normal 0.0 0.0 1.0
  outer loop
    vertex 81.55387889257509 80.41172176683105 3.9999999999999996
    vertex 57.980507847835284 65.23157854650972 4.0
    vertex 59.34973824279473 65.9922023909337 4.0
  endloop
endfacet
facet normal 0.0 0.0 1.0
  outer loop
    vertex 81.55387889257509 80.41172176683105 3.9999999999999996
    vertex 59.34973824279473 65.9922023909337 4.0
    vertex 60.86917718052206 66.37252570300534 4.0
  endloop
endfacet
facet normal 0.0 0.0 1.0
  outer loop
    vertex 81.55387889257509 80.41172176683105 3.9999999999999996
    vertex 60.86917718052206 66.37252570300534 4.0
    vertex 62.43527740840271 66.34663007752096 4.0
  endloop
endfacet
facet normal 0.0 0.0 1.0
  outer loop
    vertex 81.55387889257509 80.41172176683105 3.9999999999999996
    vertex 62.43527740840271 66.34663007752096 4.0
    vertex 63.941311784009635 65.91628025856276 4.0
  endloop
endfacet
facet normal 0.0 0.0 1.0
  outer loop
    vertex 81.55387889257509 80.41172176683105 3.9999999999999996
    vertex 63.941311784009635 65.91628025856276 4.0
    vertex 65.28464655348469 65.11080387510609 4.0
  endloop
endfacet
facet normal 0.0 0.0 1.0
  outer loop
    vertex 81.55387889257509 80.41172176683105 3.9999999999999996
    vertex 65.28464655348469 65.11080387510609 4.0
    vertex 66.37373567225383 63.9850928115708 4.0
  endloop
endfacet
facet normal 0.0 0.0 1.0
  outer loop
    vertex 81.55387889257509 80.41172176683105 3.9999999999999996
    vertex 66.37373567225383 63.9850928115708 4.0
    vertex 67.1343595166778 62.61586241661136 4.0
  endloop
endfacet
facet normal 0.0 0.0 1.0
  outer loop
    vertex 81.55387889257509 80.41172176683105 3.9999999999999996
    vertex 67.1343595166778 62.61586241661136 4.0
    vertex 67.51468282874944 61.09642347888403 4.0
  endloop
endfacet
facet normal 0.0 0.0 1.0
  outer loop
    vertex 81.55387889257509 80.41172176683105 3.9999999999999996
    vertex 67.51468282874944 61.09642347888403 4.0
    vertex 81.55387889257509 40.41172176683102 3.9999999999999996
  endloop
endfacet
facet normal -1.0 0.0 0.0
  outer loop
    vertex 41.55387889257507 80.41172176683105 3.9999999999999996
    vertex 41.55387889257507 40.41172176683102 0.0
    vertex 41.55387889257507 40.41172176683102 3.9999999999999996
  endloop
endfacet
facet normal -1.0 0.0 0.0
  outer loop
    vertex 41.55387889257507 40.41172176683102 0.0
    vertex 41.55387889257507 80.41172176683105 3.9999999999999996
    vertex 41.55387889257507 80.41172176683105 0.0
  endloop
endfacet
facet normal -0.0 1.0 -0.0
  outer loop
    vertex 41.55387889257507 80.41172176683105 3.9999999999999996
    vertex 81.55387889257509 80.41172176683105 0.0
    vertex 41.55387889257507 80.41172176683105 0.0
  endloop
endfacet
facet normal -0.0 1.0 -0.0
  outer loop
    vertex 81.55387889257509 80.41172176683105 0.0
    vertex 41.55387889257507 80.41172176683105 3.9999999999999996
    vertex 81.55387889257509 80.41172176683105 3.9999999999999996
  endloop
endfacet
facet normal 1.0 -0.0 -0.0
  outer loop
    vertex 81.55387889257509 80.41172176683105 0.0
    vertex 81.55387889257509 40.41172176683102 3.9999999999999996
    vertex 81.55387889257509 40.41172176683102 0.0
  endloop
endfacet
facet normal 1.0 -0.0 -0.0
  outer loop
    vertex 81.55387889257509 40.41172176683102 3.9999999999999996
    vertex 81.55387889257509 80.41172176683105 0.0
    vertex 81.55387889257509 80.41172176683105 3.9999999999999996
  endloop
endfacet
facet normal 0.0 -1.0 0.0
  outer loop
    vertex 81.55387889257509 40.41172176683102 3.9999999999999996
    vertex 41.55387889257507 40.41172176683102 0.0
    vertex 81.55387889257509 40.41172176683102 0.0
  endloop
endfacet
facet normal 0.0 -1.0 0.0
  outer loop
    vertex 41.55387889257507 40.41172176683102 0.0
    vertex 81.55387889257509 40.41172176683102 3.9999999999999996
    vertex 41.55387889257507 40.41172176683102 3.9999999999999996
  endloop
endfacet
facet normal 0.0 0.0 1.0
  outer loop
    vertex 55.97339826847239 58.20758111705064 1.5000000000000004
    vertex 55.61897058188514 61.29312028265861 1.5000000000000004
    vertex 55.59307495640075 59.72702005477796 1.5000000000000004
  endloop
endfacet
facet normal 0.0 0.0 1.0
  outer loop
    vertex 55.61897058188514 61.29312028265861 1.5000000000000004
    vertex 55.97339826847239 58.20758111705064 1.5000000000000004
    vertex 56.04932040084332 62.79915465826554 1.5000000000000004
  endloop
endfacet
facet normal 0.0 0.0 1.0
  outer loop
    vertex 56.04932040084332 62.79915465826554 1.5000000000000004
    vertex 55.97339826847239 58.20758111705064 1.5000000000000004
    vertex 56.734022112896355 56.8383507220912 1.5000000000000004
  endloop
endfacet
facet normal 0.0 0.0 1.0
  outer loop
    vertex 56.04932040084332 62.79915465826554 1.5000000000000004
    vertex 56.734022112896355 56.8383507220912 1.5000000000000004
    vertex 56.85479678430001 64.1424894277406 1.5000000000000004
  endloop
endfacet
facet normal 0.0 0.0 1.0
  outer loop
    vertex 56.85479678430001 64.1424894277406 1.5000000000000004
    vertex 56.734022112896355 56.8383507220912 1.5000000000000004
    vertex 57.82311123166549 55.71263965855591 1.5000000000000004
  endloop
endfacet
facet normal 0.0 0.0 1.0
  outer loop
    vertex 56.85479678430001 64.1424894277406 1.5000000000000004
    vertex 57.82311123166549 55.71263965855591 1.5000000000000004
    vertex 57.980507847835284 65.23157854650972 1.5000000000000004
  endloop
endfacet
facet normal 0.0 0.0 1.0
  outer loop
    vertex 57.980507847835284 65.23157854650972 1.5000000000000004
    vertex 57.82311123166549 55.71263965855591 1.5000000000000004
    vertex 59.16644600114056 54.90716327509922 1.5000000000000004
  endloop
endfacet
facet normal 0.0 0.0 1.0
  outer loop
    vertex 57.980507847835284 65.23157854650972 1.5000000000000004
    vertex 59.16644600114056 54.90716327509922 1.5000000000000004
    vertex 59.34973824279473 65.9922023909337 1.5000000000000004
  endloop
endfacet
facet normal 0.0 0.0 1.0
  outer loop
    vertex 59.34973824279473 65.9922023909337 1.5000000000000004
    vertex 59.16644600114056 54.90716327509922 1.5000000000000004
    vertex 60.67248037674747 54.47681345614102 1.5000000000000004
  endloop
endfacet
facet normal 0.0 0.0 1.0
  outer loop
    vertex 59.34973824279473 65.9922023909337 1.5000000000000004
    vertex 60.67248037674747 54.47681345614102 1.5000000000000004
    vertex 60.86917718052206 66.37252570300534 1.5000000000000004
  endloop
endfacet
facet normal 0.0 0.0 1.0
  outer loop
    vertex 60.86917718052206 66.37252570300534 1.5000000000000004
    vertex 60.67248037674747 54.47681345614102 1.5000000000000004
    vertex 62.238580604628126 54.45091783065665 1.5000000000000004
  endloop
endfacet
facet normal 0.0 0.0 1.0
  outer loop
    vertex 60.86917718052206 66.37252570300534 1.5000000000000004
    vertex 62.238580604628126 54.45091783065665 1.5000000000000004
    vertex 62.43527740840271 66.34663007752096 1.5000000000000004
  endloop
endfacet
facet normal 0.0 0.0 1.0
  outer loop
    vertex 62.43527740840271 66.34663007752096 1.5000000000000004
    vertex 62.238580604628126 54.45091783065665 1.5000000000000004
    vertex 63.75801954235545 54.83124114272829 1.5000000000000004
  endloop
endfacet
facet normal 0.0 0.0 1.0
  outer loop
    vertex 62.43527740840271 66.34663007752096 1.5000000000000004
    vertex 63.75801954235545 54.83124114272829 1.5000000000000004
    vertex 63.941311784009635 65.91628025856276 1.5000000000000004
  endloop
endfacet
facet normal 0.0 0.0 1.0
  outer loop
    vertex 63.941311784009635 65.91628025856276 1.5000000000000004
    vertex 63.75801954235545 54.83124114272829 1.5000000000000004
    vertex 65.12724993731489 55.591864987152256 1.5000000000000004
  endloop
endfacet
facet normal 0.0 0.0 1.0
  outer loop
    vertex 63.941311784009635 65.91628025856276 1.5000000000000004
    vertex 65.12724993731489 55.591864987152256 1.5000000000000004
    vertex 65.28464655348469 65.11080387510609 1.5000000000000004
  endloop
endfacet
facet normal 0.0 0.0 1.0
  outer loop
    vertex 65.28464655348469 65.11080387510609 1.5000000000000004
    vertex 65.12724993731489 55.591864987152256 1.5000000000000004
    vertex 66.25296100085018 56.680954105921394 1.5000000000000004
  endloop
endfacet
facet normal 0.0 0.0 1.0
  outer loop
    vertex 65.28464655348469 65.11080387510609 1.5000000000000004
    vertex 66.25296100085018 56.680954105921394 1.5000000000000004
    vertex 66.37373567225383 63.9850928115708 1.5000000000000004
  endloop
endfacet
facet normal 0.0 0.0 1.0
  outer loop
    vertex 66.37373567225383 63.9850928115708 1.5000000000000004
    vertex 66.25296100085018 56.680954105921394 1.5000000000000004
    vertex 67.05843738430687 58.024288875396444 1.5000000000000004
  endloop
endfacet
facet normal 0.0 0.0 1.0
  outer loop
    vertex 66.37373567225383 63.9850928115708 1.5000000000000004
    vertex 67.05843738430687 58.024288875396444 1.5000000000000004
    vertex 67.1343595166778 62.61586241661136 1.5000000000000004
  endloop
endfacet
facet normal 0.0 0.0 1.0
  outer loop
    vertex 67.1343595166778 62.61586241661136 1.5000000000000004
    vertex 67.05843738430687 58.024288875396444 1.5000000000000004
    vertex 67.48878720326505 59.530323251003374 1.5000000000000004
  endloop
endfacet
facet normal 0.0 0.0 1.0
  outer loop
    vertex 67.1343595166778 62.61586241661136 1.5000000000000004
    vertex 67.48878720326505 59.530323251003374 1.5000000000000004
    vertex 67.51468282874944 61.09642347888403 1.5000000000000004
  endloop
endfacet
facet normal 0.48561380126529763 -0.8741734587715805 -0.0
  outer loop
    vertex 59.34973824279473 65.9922023909337 4.0
    vertex 57.980507847835284 65.23157854650972 1.5000000000000004
    vertex 59.34973824279473 65.9922023909337 1.5000000000000004
  endloop
endfacet
facet normal 0.48561380126529763 -0.8741734587715805 -0.0
  outer loop
    vertex 57.980507847835284 65.23157854650972 1.5000000000000004
    vertex 59.34973824279473 65.9922023909337 4.0
    vertex 57.980507847835284 65.23157854650972 4.0
  endloop
endfacet
facet normal 0.6953196520977853 -0.7187006201518228 -0.0
  outer loop
    vertex 57.980507847835284 65.23157854650972 4.0
    vertex 56.85479678430001 64.1424894277406 1.5000000000000004
    vertex 57.980507847835284 65.23157854650972 1.5000000000000004
  endloop
endfacet
facet normal 0.6953196520977853 -0.7187006201518228 -0.0
  outer loop
    vertex 56.85479678430001 64.1424894277406 1.5000000000000004
    vertex 57.980507847835284 65.23157854650972 4.0
    vertex 56.85479678430001 64.1424894277406 4.0
  endloop
endfacet
facet normal 0.8576406177098661 -0.5142495219776482 -0.0
  outer loop
    vertex 56.85479678430001 64.1424894277406 1.5000000000000004
    vertex 56.04932040084332 62.79915465826554 4.0
    vertex 56.04932040084332 62.79915465826554 1.5000000000000004
  endloop
endfacet
facet normal 0.8576406177098661 -0.5142495219776482 -0.0
  outer loop
    vertex 56.04932040084332 62.79915465826554 4.0
    vertex 56.85479678430001 64.1424894277406 1.5000000000000004
    vertex 56.85479678430001 64.1424894277406 4.0
  endloop
endfacet
facet normal 0.9615147925431518 -0.274753168718215 -0.0
  outer loop
    vertex 56.04932040084332 62.79915465826554 1.5000000000000004
    vertex 55.61897058188514 61.29312028265861 4.0
    vertex 55.61897058188514 61.29312028265861 1.5000000000000004
  endloop
endfacet
facet normal 0.9615147925431518 -0.274753168718215 -0.0
  outer loop
    vertex 55.61897058188514 61.29312028265861 4.0
    vertex 56.04932040084332 62.79915465826554 1.5000000000000004
    vertex 56.04932040084332 62.79915465826554 4.0
  endloop
endfacet
facet normal 0.9998633232429461 -0.016532841061720295 -0.0
  outer loop
    vertex 55.61897058188514 61.29312028265861 1.5000000000000004
    vertex 55.59307495640075 59.72702005477796 4.0
    vertex 55.59307495640075 59.72702005477796 1.5000000000000004
  endloop
endfacet
facet normal 0.9998633232429461 -0.016532841061720295 -0.0
  outer loop
    vertex 55.59307495640075 59.72702005477796 4.0
    vertex 55.61897058188514 61.29312028265861 1.5000000000000004
    vertex 55.61897058188514 61.29312028265861 4.0
  endloop
endfacet
facet normal 0.9700728208160017 0.24281417239132863 0.0
  outer loop
    vertex 55.59307495640075 59.72702005477796 1.5000000000000004
    vertex 55.97339826847239 58.20758111705064 4.0
    vertex 55.97339826847239 58.20758111705064 1.5000000000000004
  endloop
endfacet
facet normal 0.9700728208160017 0.24281417239132863 0.0
  outer loop
    vertex 55.97339826847239 58.20758111705064 4.0
    vertex 55.59307495640075 59.72702005477796 1.5000000000000004
    vertex 55.59307495640075 59.72702005477796 4.0
  endloop
endfacet
facet normal 0.8741734587715805 0.48561380126529763 0.0
  outer loop
    vertex 55.97339826847239 58.20758111705064 1.5000000000000004
    vertex 56.734022112896355 56.8383507220912 4.0
    vertex 56.734022112896355 56.8383507220912 1.5000000000000004
  endloop
endfacet
facet normal 0.8741734587715805 0.48561380126529763 0.0
  outer loop
    vertex 56.734022112896355 56.8383507220912 4.0
    vertex 55.97339826847239 58.20758111705064 1.5000000000000004
    vertex 55.97339826847239 58.20758111705064 4.0
  endloop
endfacet
facet normal 0.7187006201518263 0.6953196520977818 0.0
  outer loop
    vertex 56.734022112896355 56.8383507220912 1.5000000000000004
    vertex 57.82311123166549 55.71263965855591 4.0
    vertex 57.82311123166549 55.71263965855591 1.5000000000000004
  endloop
endfacet
facet normal 0.7187006201518263 0.6953196520977818 0.0
  outer loop
    vertex 57.82311123166549 55.71263965855591 4.0
    vertex 56.734022112896355 56.8383507220912 1.5000000000000004
    vertex 56.734022112896355 56.8383507220912 4.0
  endloop
endfacet
facet normal 0.5142495219776451 0.857640617709868 0.0
  outer loop
    vertex 57.82311123166549 55.71263965855591 4.0
    vertex 59.16644600114056 54.90716327509922 1.5000000000000004
    vertex 57.82311123166549 55.71263965855591 1.5000000000000004
  endloop
endfacet
facet normal 0.5142495219776451 0.857640617709868 0.0
  outer loop
    vertex 59.16644600114056 54.90716327509922 1.5000000000000004
    vertex 57.82311123166549 55.71263965855591 4.0
    vertex 59.16644600114056 54.90716327509922 4.0
  endloop
endfacet
facet normal 0.27475316871822353 0.9615147925431494 0.0
  outer loop
    vertex 59.16644600114056 54.90716327509922 4.0
    vertex 60.67248037674747 54.47681345614102 1.5000000000000004
    vertex 59.16644600114056 54.90716327509922 1.5000000000000004
  endloop
endfacet
facet normal 0.27475316871822353 0.9615147925431494 0.0
  outer loop
    vertex 60.67248037674747 54.47681345614102 1.5000000000000004
    vertex 59.16644600114056 54.90716327509922 4.0
    vertex 60.67248037674747 54.47681345614102 4.0
  endloop
endfacet
facet normal 0.016532841061713092 0.9998633232429461 0.0
  outer loop
    vertex 60.67248037674747 54.47681345614102 4.0
    vertex 62.238580604628126 54.45091783065665 1.5000000000000004
    vertex 60.67248037674747 54.47681345614102 1.5000000000000004
  endloop
endfacet
facet normal 0.016532841061713092 0.9998633232429461 0.0
  outer loop
    vertex 62.238580604628126 54.45091783065665 1.5000000000000004
    vertex 60.67248037674747 54.47681345614102 4.0
    vertex 62.238580604628126 54.45091783065665 4.0
  endloop
endfacet
facet normal -0.24281417239132863 0.9700728208160017 -0.0
  outer loop
    vertex 62.238580604628126 54.45091783065665 4.0
    vertex 63.75801954235545 54.83124114272829 1.5000000000000004
    vertex 62.238580604628126 54.45091783065665 1.5000000000000004
  endloop
endfacet
facet normal -0.24281417239132863 0.9700728208160017 -0.0
  outer loop
    vertex 63.75801954235545 54.83124114272829 1.5000000000000004
    vertex 62.238580604628126 54.45091783065665 4.0
    vertex 63.75801954235545 54.83124114272829 4.0
  endloop
endfacet
facet normal -0.48561380126529763 0.8741734587715805 -0.0
  outer loop
    vertex 63.75801954235545 54.83124114272829 4.0
    vertex 65.12724993731489 55.591864987152256 1.5000000000000004
    vertex 63.75801954235545 54.83124114272829 1.5000000000000004
  endloop
endfacet
facet normal -0.48561380126529763 0.8741734587715805 -0.0
  outer loop
    vertex 65.12724993731489 55.591864987152256 1.5000000000000004
    vertex 63.75801954235545 54.83124114272829 4.0
    vertex 65.12724993731489 55.591864987152256 4.0
  endloop
endfacet
facet normal -0.6953196520977818 0.7187006201518263 -0.0
  outer loop
    vertex 65.12724993731489 55.591864987152256 4.0
    vertex 66.25296100085018 56.680954105921394 1.5000000000000004
    vertex 65.12724993731489 55.591864987152256 1.5000000000000004
  endloop
endfacet
facet normal -0.6953196520977818 0.7187006201518263 -0.0
  outer loop
    vertex 66.25296100085018 56.680954105921394 1.5000000000000004
    vertex 65.12724993731489 55.591864987152256 4.0
    vertex 66.25296100085018 56.680954105921394 4.0
  endloop
endfacet
facet normal -0.8576406177098661 0.5142495219776482 -0.0
  outer loop
    vertex 67.05843738430687 58.024288875396444 4.0
    vertex 66.25296100085018 56.680954105921394 1.5000000000000004
    vertex 66.25296100085018 56.680954105921394 4.0
  endloop
endfacet
facet normal -0.8576406177098661 0.5142495219776482 -0.0
  outer loop
    vertex 66.25296100085018 56.680954105921394 1.5000000000000004
    vertex 67.05843738430687 58.024288875396444 4.0
    vertex 67.05843738430687 58.024288875396444 1.5000000000000004
  endloop
endfacet
facet normal -0.9615147925431518 0.274753168718215 -0.0
  outer loop
    vertex 67.48878720326505 59.530323251003374 4.0
    vertex 67.05843738430687 58.024288875396444 1.5000000000000004
    vertex 67.05843738430687 58.024288875396444 4.0
  endloop
endfacet
facet normal -0.9615147925431518 0.274753168718215 -0.0
  outer loop
    vertex 67.05843738430687 58.024288875396444 1.5000000000000004
    vertex 67.48878720326505 59.530323251003374 4.0
    vertex 67.48878720326505 59.530323251003374 1.5000000000000004
  endloop
endfacet
facet normal -0.9998633232429461 0.016532841061720295 -0.0
  outer loop
    vertex 67.51468282874944 61.09642347888403 4.0
    vertex 67.48878720326505 59.530323251003374 1.5000000000000004
    vertex 67.48878720326505 59.530323251003374 4.0
  endloop
endfacet
facet normal -0.9998633232429461 0.016532841061720295 -0.0
  outer loop
    vertex 67.48878720326505 59.530323251003374 1.5000000000000004
    vertex 67.51468282874944 61.09642347888403 4.0
    vertex 67.51468282874944 61.09642347888403 1.5000000000000004
  endloop
endfacet
facet normal -0.9700728208160021 -0.2428141723913269 -0.0
  outer loop
    vertex 67.1343595166778 62.61586241661136 4.0
    vertex 67.51468282874944 61.09642347888403 1.5000000000000004
    vertex 67.51468282874944 61.09642347888403 4.0
  endloop
endfacet
facet normal -0.9700728208160021 -0.2428141723913269 -0.0
  outer loop
    vertex 67.51468282874944 61.09642347888403 1.5000000000000004
    vertex 67.1343595166778 62.61586241661136 4.0
    vertex 67.1343595166778 62.61586241661136 1.5000000000000004
  endloop
endfacet
facet normal -0.8741734587715805 -0.48561380126529763 -0.0
  outer loop
    vertex 66.37373567225383 63.9850928115708 4.0
    vertex 67.1343595166778 62.61586241661136 1.5000000000000004
    vertex 67.1343595166778 62.61586241661136 4.0
  endloop
endfacet
facet normal -0.8741734587715805 -0.48561380126529763 -0.0
  outer loop
    vertex 67.1343595166778 62.61586241661136 1.5000000000000004
    vertex 66.37373567225383 63.9850928115708 4.0
    vertex 66.37373567225383 63.9850928115708 1.5000000000000004
  endloop
endfacet
facet normal -0.7187006201518228 -0.6953196520977853 -0.0
  outer loop
    vertex 65.28464655348469 65.11080387510609 4.0
    vertex 66.37373567225383 63.9850928115708 1.5000000000000004
    vertex 66.37373567225383 63.9850928115708 4.0
  endloop
endfacet
facet normal -0.7187006201518228 -0.6953196520977853 -0.0
  outer loop
    vertex 66.37373567225383 63.9850928115708 1.5000000000000004
    vertex 65.28464655348469 65.11080387510609 4.0
    vertex 65.28464655348469 65.11080387510609 1.5000000000000004
  endloop
endfacet
facet normal -0.5142495219776451 -0.857640617709868 -0.0
  outer loop
    vertex 65.28464655348469 65.11080387510609 4.0
    vertex 63.941311784009635 65.91628025856276 1.5000000000000004
    vertex 65.28464655348469 65.11080387510609 1.5000000000000004
  endloop
endfacet
facet normal -0.5142495219776451 -0.857640617709868 -0.0
  outer loop
    vertex 63.941311784009635 65.91628025856276 1.5000000000000004
    vertex 65.28464655348469 65.11080387510609 4.0
    vertex 63.941311784009635 65.91628025856276 4.0
  endloop
endfacet
facet normal -0.27475316871822353 -0.9615147925431494 -0.0
  outer loop
    vertex 63.941311784009635 65.91628025856276 4.0
    vertex 62.43527740840271 66.34663007752096 1.5000000000000004
    vertex 63.941311784009635 65.91628025856276 1.5000000000000004
  endloop
endfacet
facet normal -0.27475316871822353 -0.9615147925431494 -0.0
  outer loop
    vertex 62.43527740840271 66.34663007752096 1.5000000000000004
    vertex 63.941311784009635 65.91628025856276 4.0
    vertex 62.43527740840271 66.34663007752096 4.0
  endloop
endfacet
facet normal -0.016532841061713092 -0.9998633232429461 -0.0
  outer loop
    vertex 62.43527740840271 66.34663007752096 4.0
    vertex 60.86917718052206 66.37252570300534 1.5000000000000004
    vertex 62.43527740840271 66.34663007752096 1.5000000000000004
  endloop
endfacet
facet normal -0.016532841061713092 -0.9998633232429461 -0.0
  outer loop
    vertex 60.86917718052206 66.37252570300534 1.5000000000000004
    vertex 62.43527740840271 66.34663007752096 4.0
    vertex 60.86917718052206 66.37252570300534 4.0
  endloop
endfacet
facet normal 0.2428141723913269 -0.9700728208160021 -0.0
  outer loop
    vertex 60.86917718052206 66.37252570300534 4.0
    vertex 59.34973824279473 65.9922023909337 1.5000000000000004
    vertex 60.86917718052206 66.37252570300534 1.5000000000000004
  endloop
endfacet
facet normal 0.2428141723913269 -0.9700728208160021 -0.0
  outer loop
    vertex 59.34973824279473 65.9922023909337 1.5000000000000004
    vertex 60.86917718052206 66.37252570300534 4.0
    vertex 59.34973824279473 65.9922023909337 4.0
  endloop
endfacet
endsolid CameraStand3_plateonly
