solid CameraStand
facet normal 0.0 0.0 -1.0
  outer loop
    vertex 44.12427714073148 114.55197356340406 0.0
    vertex 46.32007738798672 111.41502816897416 0.0
    vertex 44.12427714073148 105.55197356340405 0.0
  endloop
endfacet
facet normal 0.0 0.0 -1.0
  outer loop
    vertex 46.32007738798672 111.41502816897416 0.0
    vertex 44.12427714073148 114.55197356340406 0.0
    vertex 46.604928972655955 111.85258155360155 0.0
  endloop
endfacet
facet normal 0.0 0.0 -1.0
  outer loop
    vertex 46.604928972655955 111.85258155360155 0.0
    vertex 44.12427714073148 114.55197356340406 0.0
    vertex 46.99332162413797 112.20150065305332 0.0
  endloop
endfacet
facet normal 0.0 0.0 -1.0
  outer loop
    vertex 46.99332162413797 112.20150065305332 0.0
    vertex 44.12427714073148 114.55197356340406 0.0
    vertex 47.458787025083474 112.43800720731788 0.0
  endloop
endfacet
facet normal 0.0 0.0 -1.0
  outer loop
    vertex 47.458787025083474 112.43800720731788 0.0
    vertex 44.12427714073148 114.55197356340406 0.0
    vertex 47.969604477635976 112.54598368556769 0.0
  endloop
endfacet
facet normal 0.0 0.0 -1.0
  outer loop
    vertex 47.969604477635976 112.54598368556769 0.0
    vertex 44.12427714073148 114.55197356340406 0.0
    vertex 60.12427714073148 114.55197356340406 0.0
  endloop
endfacet
facet normal 0.0 0.0 -1.0
  outer loop
    vertex 44.12427714073148 105.55197356340405 0.0
    vertex 46.32007738798672 111.41502816897416 0.0
    vertex 46.15817903488598 110.91865903924234 0.0
  endloop
endfacet
facet normal 0.0 0.0 -1.0
  outer loop
    vertex 44.12427714073148 105.55197356340405 0.0
    vertex 46.15817903488598 110.91865903924234 0.0
    vertex 46.130267018567864 110.39730090030855 0.0
  endloop
endfacet
facet normal 0.0 0.0 -1.0
  outer loop
    vertex 47.969604477635976 112.54598368556769 0.0
    vertex 60.12427714073148 114.55197356340406 0.0
    vertex 56.23540410605213 112.54888387625707 0.0
  endloop
endfacet
facet normal 0.0 0.0 -1.0
  outer loop
    vertex 56.23540410605213 112.54888387625707 0.0
    vertex 60.12427714073148 114.55197356340406 0.0
    vertex 56.7484559668598 112.45207903232232 0.0
  endloop
endfacet
facet normal 0.0 0.0 -1.0
  outer loop
    vertex 56.7484559668598 112.45207903232232 0.0
    vertex 60.12427714073148 114.55197356340406 0.0
    vertex 57.21897107217113 112.22578514075357 0.0
  endloop
endfacet
facet normal 0.0 0.0 -1.0
  outer loop
    vertex 57.21897107217113 112.22578514075357 0.0
    vertex 60.12427714073148 114.55197356340406 0.0
    vertex 57.614884595122085 111.88542375629285 0.0
  endloop
endfacet
facet normal 0.0 0.0 -1.0
  outer loop
    vertex 57.614884595122085 111.88542375629285 0.0
    vertex 60.12427714073148 114.55197356340406 0.0
    vertex 57.90921568340162 111.45418994481741 0.0
  endloop
endfacet
facet normal 0.0 0.0 -1.0
  outer loop
    vertex 57.90921568340162 111.45418994481741 0.0
    vertex 60.12427714073148 114.55197356340406 0.0
    vertex 58.08190615974859 110.96147157793172 0.0
  endloop
endfacet
facet normal 0.0 0.0 -1.0
  outer loop
    vertex 58.08190615974859 110.96147157793172 0.0
    vertex 60.12427714073148 114.55197356340406 0.0
    vertex 58.12118745358447 110.44084659808341 0.0
  endloop
endfacet
facet normal 0.0 0.0 -1.0
  outer loop
    vertex 44.12427714073148 105.55197356340405 0.0
    vertex 47.75759166489319 108.58587545755857 0.0
    vertex 60.12427714073148 105.55197356340405 0.0
  endloop
endfacet
facet normal 0.0 0.0 -1.0
  outer loop
    vertex 47.75759166489319 108.58587545755857 0.0
    vertex 44.12427714073148 105.55197356340405 0.0
    vertex 47.26122253516137 108.74777381065931 0.0
  endloop
endfacet
facet normal 0.0 0.0 -1.0
  outer loop
    vertex 47.26122253516137 108.74777381065931 0.0
    vertex 44.12427714073148 105.55197356340405 0.0
    vertex 46.82366915053399 109.03262539532854 0.0
  endloop
endfacet
facet normal 0.0 0.0 -1.0
  outer loop
    vertex 46.82366915053399 109.03262539532854 0.0
    vertex 44.12427714073148 105.55197356340405 0.0
    vertex 46.47475005108223 109.42101804681056 0.0
  endloop
endfacet
facet normal 0.0 0.0 -1.0
  outer loop
    vertex 46.47475005108223 109.42101804681056 0.0
    vertex 44.12427714073148 105.55197356340405 0.0
    vertex 46.23824349681767 109.88648344775606 0.0
  endloop
endfacet
facet normal 0.0 0.0 -1.0
  outer loop
    vertex 46.23824349681767 109.88648344775606 0.0
    vertex 44.12427714073148 105.55197356340405 0.0
    vertex 46.130267018567864 110.39730090030855 0.0
  endloop
endfacet
facet normal 0.0 0.0 -1.0
  outer loop
    vertex 60.12427714073148 105.55197356340405 0.0
    vertex 47.75759166489319 108.58587545755857 0.0
    vertex 56.12427714073148 108.56344780977663 0.0
  endloop
endfacet
facet normal 0.0 0.0 -1.0
  outer loop
    vertex 60.12427714073148 105.55197356340405 0.0
    vertex 56.12427714073148 108.56344780977663 0.0
    vertex 56.53377515525912 108.59434454438694 0.0
  endloop
endfacet
facet normal 0.0 0.0 -1.0
  outer loop
    vertex 60.12427714073148 105.55197356340405 0.0
    vertex 56.53377515525912 108.59434454438694 0.0
    vertex 57.02649352214482 108.76703502073391 0.0
  endloop
endfacet
facet normal 0.0 0.0 -1.0
  outer loop
    vertex 60.12427714073148 105.55197356340405 0.0
    vertex 57.02649352214482 108.76703502073391 0.0
    vertex 57.45772733362026 109.06136610901345 0.0
  endloop
endfacet
facet normal 0.0 0.0 -1.0
  outer loop
    vertex 60.12427714073148 105.55197356340405 0.0
    vertex 57.45772733362026 109.06136610901345 0.0
    vertex 57.798088718080976 109.45727963196441 0.0
  endloop
endfacet
facet normal 0.0 0.0 -1.0
  outer loop
    vertex 60.12427714073148 105.55197356340405 0.0
    vertex 57.798088718080976 109.45727963196441 0.0
    vertex 58.024382609649734 109.92779473727573 0.0
  endloop
endfacet
facet normal 0.0 0.0 -1.0
  outer loop
    vertex 60.12427714073148 105.55197356340405 0.0
    vertex 58.024382609649734 109.92779473727573 0.0
    vertex 58.12118745358447 110.44084659808341 0.0
  endloop
endfacet
facet normal 0.0 0.0 -1.0
  outer loop
    vertex 60.12427714073148 105.55197356340405 0.0
    vertex 58.12118745358447 110.44084659808341 0.0
    vertex 60.12427714073148 114.55197356340406 0.0
  endloop
endfacet
facet normal -0.0 -0.0 1.0
  outer loop
    vertex 44.12427714073148 106.55197356340405 0.9999999999999999
    vertex 46.23824349681767 109.88648344775606 0.9999999999999999
    vertex 44.12427714073148 114.55197356340406 0.9999999999999999
  endloop
endfacet
facet normal -0.0 -0.0 1.0
  outer loop
    vertex 46.23824349681767 109.88648344775606 0.9999999999999999
    vertex 44.12427714073148 106.55197356340405 0.9999999999999999
    vertex 46.47475005108223 109.42101804681056 0.9999999999999999
  endloop
endfacet
facet normal -0.0 -0.0 1.0
  outer loop
    vertex 46.47475005108223 109.42101804681056 0.9999999999999999
    vertex 44.12427714073148 106.55197356340405 0.9999999999999999
    vertex 46.82366915053399 109.03262539532854 0.9999999999999999
  endloop
endfacet
facet normal -0.0 -0.0 1.0
  outer loop
    vertex 46.82366915053399 109.03262539532854 0.9999999999999999
    vertex 44.12427714073148 106.55197356340405 0.9999999999999999
    vertex 47.26122253516137 108.74777381065931 0.9999999999999999
  endloop
endfacet
facet normal -0.0 -0.0 1.0
  outer loop
    vertex 47.26122253516137 108.74777381065931 0.9999999999999999
    vertex 44.12427714073148 106.55197356340405 0.9999999999999999
    vertex 47.75759166489319 108.58587545755857 0.9999999999999999
  endloop
endfacet
facet normal -0.0 -0.0 1.0
  outer loop
    vertex 47.75759166489319 108.58587545755857 0.9999999999999999
    vertex 44.12427714073148 106.55197356340405 0.9999999999999999
    vertex 60.12427714073148 106.55197356340405 0.9999999999999999
  endloop
endfacet
facet normal -0.0 -0.0 1.0
  outer loop
    vertex 44.12427714073148 114.55197356340406 0.9999999999999999
    vertex 46.23824349681767 109.88648344775606 0.9999999999999999
    vertex 46.130267018567864 110.39730090030855 0.9999999999999999
  endloop
endfacet
facet normal -0.0 -0.0 1.0
  outer loop
    vertex 47.75759166489319 108.58587545755857 0.9999999999999999
    vertex 60.12427714073148 106.55197356340405 0.9999999999999999
    vertex 56.12427714073148 108.56344780977663 0.9999999999999999
  endloop
endfacet
facet normal -0.0 -0.0 1.0
  outer loop
    vertex 56.12427714073148 108.56344780977663 0.9999999999999999
    vertex 60.12427714073148 106.55197356340405 0.9999999999999999
    vertex 56.53377515525912 108.59434454438694 0.9999999999999999
  endloop
endfacet
facet normal -0.0 -0.0 1.0
  outer loop
    vertex 56.53377515525912 108.59434454438694 0.9999999999999999
    vertex 60.12427714073148 106.55197356340405 0.9999999999999999
    vertex 57.02649352214482 108.76703502073391 0.9999999999999999
  endloop
endfacet
facet normal -0.0 -0.0 1.0
  outer loop
    vertex 57.02649352214482 108.76703502073391 0.9999999999999999
    vertex 60.12427714073148 106.55197356340405 0.9999999999999999
    vertex 57.45772733362026 109.06136610901345 0.9999999999999999
  endloop
endfacet
facet normal -0.0 -0.0 1.0
  outer loop
    vertex 57.45772733362026 109.06136610901345 0.9999999999999999
    vertex 60.12427714073148 106.55197356340405 0.9999999999999999
    vertex 57.798088718080976 109.45727963196441 0.9999999999999999
  endloop
endfacet
facet normal -0.0 -0.0 1.0
  outer loop
    vertex 57.798088718080976 109.45727963196441 0.9999999999999999
    vertex 60.12427714073148 106.55197356340405 0.9999999999999999
    vertex 58.024382609649734 109.92779473727573 0.9999999999999999
  endloop
endfacet
facet normal -0.0 -0.0 1.0
  outer loop
    vertex 58.024382609649734 109.92779473727573 0.9999999999999999
    vertex 60.12427714073148 106.55197356340405 0.9999999999999999
    vertex 58.12118745358447 110.44084659808341 0.9999999999999999
  endloop
endfacet
facet normal -0.0 -0.0 1.0
  outer loop
    vertex 44.12427714073148 114.55197356340406 0.9999999999999999
    vertex 47.969604477635976 112.54598368556769 0.9999999999999999
    vertex 60.12427714073148 114.55197356340406 0.9999999999999999
  endloop
endfacet
facet normal -0.0 -0.0 1.0
  outer loop
    vertex 47.969604477635976 112.54598368556769 0.9999999999999999
    vertex 44.12427714073148 114.55197356340406 0.9999999999999999
    vertex 47.458787025083474 112.43800720731788 0.9999999999999999
  endloop
endfacet
facet normal -0.0 -0.0 1.0
  outer loop
    vertex 47.458787025083474 112.43800720731788 0.9999999999999999
    vertex 44.12427714073148 114.55197356340406 0.9999999999999999
    vertex 46.99332162413797 112.20150065305332 0.9999999999999999
  endloop
endfacet
facet normal -0.0 -0.0 1.0
  outer loop
    vertex 46.99332162413797 112.20150065305332 0.9999999999999999
    vertex 44.12427714073148 114.55197356340406 0.9999999999999999
    vertex 46.604928972655955 111.85258155360155 0.9999999999999999
  endloop
endfacet
facet normal -0.0 -0.0 1.0
  outer loop
    vertex 46.604928972655955 111.85258155360155 0.9999999999999999
    vertex 44.12427714073148 114.55197356340406 0.9999999999999999
    vertex 46.32007738798672 111.41502816897416 0.9999999999999999
  endloop
endfacet
facet normal -0.0 -0.0 1.0
  outer loop
    vertex 46.32007738798672 111.41502816897416 0.9999999999999999
    vertex 44.12427714073148 114.55197356340406 0.9999999999999999
    vertex 46.15817903488598 110.91865903924234 0.9999999999999999
  endloop
endfacet
facet normal -0.0 -0.0 1.0
  outer loop
    vertex 46.15817903488598 110.91865903924234 0.9999999999999999
    vertex 44.12427714073148 114.55197356340406 0.9999999999999999
    vertex 46.130267018567864 110.39730090030855 0.9999999999999999
  endloop
endfacet
facet normal -0.0 -0.0 1.0
  outer loop
    vertex 60.12427714073148 114.55197356340406 0.9999999999999999
    vertex 47.969604477635976 112.54598368556769 0.9999999999999999
    vertex 56.23540410605213 112.54888387625707 0.9999999999999999
  endloop
endfacet
facet normal -0.0 -0.0 1.0
  outer loop
    vertex 60.12427714073148 114.55197356340406 0.9999999999999999
    vertex 56.23540410605213 112.54888387625707 0.9999999999999999
    vertex 56.7484559668598 112.45207903232232 0.9999999999999999
  endloop
endfacet
facet normal -0.0 -0.0 1.0
  outer loop
    vertex 60.12427714073148 114.55197356340406 0.9999999999999999
    vertex 56.7484559668598 112.45207903232232 0.9999999999999999
    vertex 57.21897107217113 112.22578514075357 0.9999999999999999
  endloop
endfacet
facet normal -0.0 -0.0 1.0
  outer loop
    vertex 60.12427714073148 114.55197356340406 0.9999999999999999
    vertex 57.21897107217113 112.22578514075357 0.9999999999999999
    vertex 57.614884595122085 111.88542375629285 0.9999999999999999
  endloop
endfacet
facet normal -0.0 -0.0 1.0
  outer loop
    vertex 60.12427714073148 114.55197356340406 0.9999999999999999
    vertex 57.614884595122085 111.88542375629285 0.9999999999999999
    vertex 57.90921568340162 111.45418994481741 0.9999999999999999
  endloop
endfacet
facet normal -0.0 -0.0 1.0
  outer loop
    vertex 60.12427714073148 114.55197356340406 0.9999999999999999
    vertex 57.90921568340162 111.45418994481741 0.9999999999999999
    vertex 58.08190615974859 110.96147157793172 0.9999999999999999
  endloop
endfacet
facet normal -0.0 -0.0 1.0
  outer loop
    vertex 60.12427714073148 114.55197356340406 0.9999999999999999
    vertex 58.08190615974859 110.96147157793172 0.9999999999999999
    vertex 58.12118745358447 110.44084659808341 0.9999999999999999
  endloop
endfacet
facet normal -0.0 -0.0 1.0
  outer loop
    vertex 60.12427714073148 114.55197356340406 0.9999999999999999
    vertex 58.12118745358447 110.44084659808341 0.9999999999999999
    vertex 60.12427714073148 106.55197356340405 0.9999999999999999
  endloop
endfacet
facet normal -0.0 1.0 0.0
  outer loop
    vertex 44.12427714073148 114.55197356340406 0.9999999999999999
    vertex 60.12427714073148 114.55197356340406 0.0
    vertex 44.12427714073148 114.55197356340406 0.0
  endloop
endfacet
facet normal -0.0 1.0 0.0
  outer loop
    vertex 60.12427714073148 114.55197356340406 0.0
    vertex 44.12427714073148 114.55197356340406 0.9999999999999999
    vertex 60.12427714073148 114.55197356340406 0.9999999999999999
  endloop
endfacet
facet normal 1.0 -0.0 -0.0
  outer loop
    vertex 60.12427714073148 105.55197356340405 0.0
    vertex 60.12427714073148 106.55197356340405 0.9999999999999999
    vertex 60.12427714073148 105.55197356340405 6.0
  endloop
endfacet
facet normal 1.0 -0.0 -0.0
  outer loop
    vertex 60.12427714073148 106.55197356340405 0.9999999999999999
    vertex 60.12427714073148 105.55197356340405 0.0
    vertex 60.12427714073148 114.55197356340406 0.0
  endloop
endfacet
facet normal 1.0 -0.0 -0.0
  outer loop
    vertex 60.12427714073148 105.55197356340405 6.0
    vertex 60.12427714073148 106.55197356340405 0.9999999999999999
    vertex 60.12427714073148 105.55197356340405 7.0
  endloop
endfacet
facet normal 1.0 -0.0 -0.0
  outer loop
    vertex 60.12427714073148 106.55197356340405 0.9999999999999999
    vertex 60.12427714073148 114.55197356340406 0.0
    vertex 60.12427714073148 114.55197356340406 0.9999999999999999
  endloop
endfacet
facet normal 1.0 -0.0 -0.0
  outer loop
    vertex 60.12427714073148 106.55197356340405 7.0
    vertex 60.12427714073148 105.55197356340405 7.0
    vertex 60.12427714073148 106.55197356340405 0.9999999999999999
  endloop
endfacet
facet normal 0.0 -1.0 0.0
  outer loop
    vertex 60.12427714073148 105.55197356340405 6.0
    vertex 44.12427714073148 105.55197356340405 0.0
    vertex 60.12427714073148 105.55197356340405 0.0
  endloop
endfacet
facet normal 0.0 -1.0 0.0
  outer loop
    vertex 44.12427714073148 105.55197356340405 0.0
    vertex 60.12427714073148 105.55197356340405 6.0
    vertex 44.12427714073148 105.55197356340405 6.0
  endloop
endfacet
facet normal -1.0 0.0 0.0
  outer loop
    vertex 44.12427714073148 106.55197356340405 7.0
    vertex 44.12427714073148 105.55197356340405 6.0
    vertex 44.12427714073148 105.55197356340405 7.0
  endloop
endfacet
facet normal -1.0 0.0 0.0
  outer loop
    vertex 44.12427714073148 105.55197356340405 6.0
    vertex 44.12427714073148 106.55197356340405 7.0
    vertex 44.12427714073148 105.55197356340405 0.0
  endloop
endfacet
facet normal -1.0 0.0 0.0
  outer loop
    vertex 44.12427714073148 105.55197356340405 0.0
    vertex 44.12427714073148 106.55197356340405 7.0
    vertex 44.12427714073148 106.55197356340405 0.9999999999999999
  endloop
endfacet
facet normal -1.0 0.0 0.0
  outer loop
    vertex 44.12427714073148 105.55197356340405 0.0
    vertex 44.12427714073148 106.55197356340405 0.9999999999999999
    vertex 44.12427714073148 114.55197356340406 0.0
  endloop
endfacet
facet normal -1.0 0.0 0.0
  outer loop
    vertex 44.12427714073148 114.55197356340406 0.0
    vertex 44.12427714073148 106.55197356340405 0.9999999999999999
    vertex 44.12427714073148 114.55197356340406 0.9999999999999999
  endloop
endfacet
facet normal 0.0026805796954531298 0.9999964072397943 0.0
  outer loop
    vertex 47.75759166489319 108.58587545755857 0.9999999999999999
    vertex 56.12427714073148 108.56344780977663 0.0
    vertex 47.75759166489319 108.58587545755857 0.0
  endloop
endfacet
facet normal 0.0026805796954531298 0.9999964072397943 0.0
  outer loop
    vertex 56.12427714073148 108.56344780977663 0.0
    vertex 47.75759166489319 108.58587545755857 0.9999999999999999
    vertex 56.12427714073148 108.56344780977663 0.9999999999999999
  endloop
endfacet
facet normal -0.07523642030722884 0.9971657239693681 0.0
  outer loop
    vertex 56.12427714073148 108.56344780977663 0.9999999999999999
    vertex 56.53377515525912 108.59434454438694 0.0
    vertex 56.12427714073148 108.56344780977663 0.0
  endloop
endfacet
facet normal -0.07523642030722884 0.9971657239693681 0.0
  outer loop
    vertex 56.53377515525912 108.59434454438694 0.0
    vertex 56.12427714073148 108.56344780977663 0.9999999999999999
    vertex 56.53377515525912 108.59434454438694 0.9999999999999999
  endloop
endfacet
facet normal -0.33075828193899687 0.9437155074114038 0.0
  outer loop
    vertex 56.53377515525912 108.59434454438694 0.9999999999999999
    vertex 57.02649352214482 108.76703502073391 0.0
    vertex 56.53377515525912 108.59434454438694 0.0
  endloop
endfacet
facet normal -0.33075828193899687 0.9437155074114038 0.0
  outer loop
    vertex 57.02649352214482 108.76703502073391 0.0
    vertex 56.53377515525912 108.59434454438694 0.9999999999999999
    vertex 57.02649352214482 108.76703502073391 0.9999999999999999
  endloop
endfacet
facet normal -0.5637395132605298 0.825952638586972 0.0
  outer loop
    vertex 57.02649352214482 108.76703502073391 0.9999999999999999
    vertex 57.45772733362026 109.06136610901345 0.0
    vertex 57.02649352214482 108.76703502073391 0.0
  endloop
endfacet
facet normal -0.5637395132605298 0.825952638586972 0.0
  outer loop
    vertex 57.45772733362026 109.06136610901345 0.0
    vertex 57.02649352214482 108.76703502073391 0.9999999999999999
    vertex 57.45772733362026 109.06136610901345 0.9999999999999999
  endloop
endfacet
facet normal -0.7583028283769715 0.6519024623940959 0.0
  outer loop
    vertex 57.798088718080976 109.45727963196441 0.9999999999999999
    vertex 57.45772733362026 109.06136610901345 0.0
    vertex 57.45772733362026 109.06136610901345 0.9999999999999999
  endloop
endfacet
facet normal -0.7583028283769715 0.6519024623940959 0.0
  outer loop
    vertex 57.45772733362026 109.06136610901345 0.0
    vertex 57.798088718080976 109.45727963196441 0.9999999999999999
    vertex 57.798088718080976 109.45727963196441 0.0
  endloop
endfacet
facet normal -0.9011890588941822 0.43342621070883386 0.0
  outer loop
    vertex 58.024382609649734 109.92779473727573 0.9999999999999999
    vertex 57.798088718080976 109.45727963196441 0.0
    vertex 57.798088718080976 109.45727963196441 0.9999999999999999
  endloop
endfacet
facet normal -0.9011890588941822 0.43342621070883386 0.0
  outer loop
    vertex 57.798088718080976 109.45727963196441 0.0
    vertex 58.024382609649734 109.92779473727573 0.9999999999999999
    vertex 58.024382609649734 109.92779473727573 0.0
  endloop
endfacet
facet normal -0.9826607443330969 0.18541267903442932 0.0
  outer loop
    vertex 58.12118745358447 110.44084659808341 0.9999999999999999
    vertex 58.024382609649734 109.92779473727573 0.0
    vertex 58.024382609649734 109.92779473727573 0.9999999999999999
  endloop
endfacet
facet normal -0.9826607443330969 0.18541267903442932 0.0
  outer loop
    vertex 58.024382609649734 109.92779473727573 0.0
    vertex 58.12118745358447 110.44084659808341 0.9999999999999999
    vertex 58.12118745358447 110.44084659808341 0.0
  endloop
endfacet
facet normal -0.9971657239693688 -0.07523642030721978 -0.0
  outer loop
    vertex 58.08190615974859 110.96147157793172 0.9999999999999999
    vertex 58.12118745358447 110.44084659808341 0.0
    vertex 58.12118745358447 110.44084659808341 0.9999999999999999
  endloop
endfacet
facet normal -0.9971657239693688 -0.07523642030721978 -0.0
  outer loop
    vertex 58.12118745358447 110.44084659808341 0.0
    vertex 58.08190615974859 110.96147157793172 0.9999999999999999
    vertex 58.08190615974859 110.96147157793172 0.0
  endloop
endfacet
facet normal -0.9437155074114062 -0.33075828193899015 -0.0
  outer loop
    vertex 57.90921568340162 111.45418994481741 0.9999999999999999
    vertex 58.08190615974859 110.96147157793172 0.0
    vertex 58.08190615974859 110.96147157793172 0.9999999999999999
  endloop
endfacet
facet normal -0.9437155074114062 -0.33075828193899015 -0.0
  outer loop
    vertex 58.08190615974859 110.96147157793172 0.0
    vertex 57.90921568340162 111.45418994481741 0.9999999999999999
    vertex 57.90921568340162 111.45418994481741 0.0
  endloop
endfacet
facet normal -0.825952638586965 -0.5637395132605398 -0.0
  outer loop
    vertex 57.614884595122085 111.88542375629285 0.9999999999999999
    vertex 57.90921568340162 111.45418994481741 0.0
    vertex 57.90921568340162 111.45418994481741 0.9999999999999999
  endloop
endfacet
facet normal -0.825952638586965 -0.5637395132605398 -0.0
  outer loop
    vertex 57.90921568340162 111.45418994481741 0.0
    vertex 57.614884595122085 111.88542375629285 0.9999999999999999
    vertex 57.614884595122085 111.88542375629285 0.0
  endloop
endfacet
facet normal -0.6519024623941064 -0.7583028283769622 -0.0
  outer loop
    vertex 57.614884595122085 111.88542375629285 0.9999999999999999
    vertex 57.21897107217113 112.22578514075357 0.0
    vertex 57.614884595122085 111.88542375629285 0.0
  endloop
endfacet
facet normal -0.6519024623941064 -0.7583028283769622 -0.0
  outer loop
    vertex 57.21897107217113 112.22578514075357 0.0
    vertex 57.614884595122085 111.88542375629285 0.9999999999999999
    vertex 57.21897107217113 112.22578514075357 0.9999999999999999
  endloop
endfacet
facet normal -0.4334262107088079 -0.9011890588941947 -0.0
  outer loop
    vertex 57.21897107217113 112.22578514075357 0.9999999999999999
    vertex 56.7484559668598 112.45207903232232 0.0
    vertex 57.21897107217113 112.22578514075357 0.0
  endloop
endfacet
facet normal -0.4334262107088079 -0.9011890588941947 -0.0
  outer loop
    vertex 56.7484559668598 112.45207903232232 0.0
    vertex 57.21897107217113 112.22578514075357 0.9999999999999999
    vertex 56.7484559668598 112.45207903232232 0.9999999999999999
  endloop
endfacet
facet normal -0.18541267903447495 -0.9826607443330881 -0.0
  outer loop
    vertex 56.7484559668598 112.45207903232232 0.9999999999999999
    vertex 56.23540410605213 112.54888387625707 0.0
    vertex 56.7484559668598 112.45207903232232 0.0
  endloop
endfacet
facet normal -0.18541267903447495 -0.9826607443330881 -0.0
  outer loop
    vertex 56.23540410605213 112.54888387625707 0.0
    vertex 56.7484559668598 112.45207903232232 0.9999999999999999
    vertex 56.23540410605213 112.54888387625707 0.9999999999999999
  endloop
endfacet
facet normal 0.00035086629742273295 -0.9999999384464188 0.0
  outer loop
    vertex 56.23540410605213 112.54888387625707 0.9999999999999999
    vertex 47.969604477635976 112.54598368556769 0.0
    vertex 56.23540410605213 112.54888387625707 0.0
  endloop
endfacet
facet normal 0.00035086629742273295 -0.9999999384464188 0.0
  outer loop
    vertex 47.969604477635976 112.54598368556769 0.0
    vertex 56.23540410605213 112.54888387625707 0.9999999999999999
    vertex 47.969604477635976 112.54598368556769 0.9999999999999999
  endloop
endfacet
facet normal 0.20680998275765716 -0.9783811276960415 0.0
  outer loop
    vertex 47.969604477635976 112.54598368556769 0.9999999999999999
    vertex 47.458787025083474 112.43800720731788 0.0
    vertex 47.969604477635976 112.54598368556769 0.0
  endloop
endfacet
facet normal 0.20680998275765716 -0.9783811276960415 0.0
  outer loop
    vertex 47.458787025083474 112.43800720731788 0.0
    vertex 47.969604477635976 112.54598368556769 0.9999999999999999
    vertex 47.458787025083474 112.43800720731788 0.9999999999999999
  endloop
endfacet
facet normal 0.4529867726966238 -0.8915172369404294 0.0
  outer loop
    vertex 47.458787025083474 112.43800720731788 0.9999999999999999
    vertex 46.99332162413797 112.20150065305332 0.0
    vertex 47.458787025083474 112.43800720731788 0.0
  endloop
endfacet
facet normal 0.4529867726966238 -0.8915172369404294 0.0
  outer loop
    vertex 46.99332162413797 112.20150065305332 0.0
    vertex 47.458787025083474 112.43800720731788 0.9999999999999999
    vertex 46.99332162413797 112.20150065305332 0.9999999999999999
  endloop
endfacet
facet normal 0.6682932626723757 -0.7438979197892082 0.0
  outer loop
    vertex 46.99332162413797 112.20150065305332 0.9999999999999999
    vertex 46.604928972655955 111.85258155360155 0.0
    vertex 46.99332162413797 112.20150065305332 0.0
  endloop
endfacet
facet normal 0.6682932626723757 -0.7438979197892082 0.0
  outer loop
    vertex 46.604928972655955 111.85258155360155 0.0
    vertex 46.99332162413797 112.20150065305332 0.9999999999999999
    vertex 46.604928972655955 111.85258155360155 0.9999999999999999
  endloop
endfacet
facet normal 0.8380566712038275 -0.5455831887537955 0.0
  outer loop
    vertex 46.604928972655955 111.85258155360155 0.0
    vertex 46.32007738798672 111.41502816897416 0.9999999999999999
    vertex 46.32007738798672 111.41502816897416 0.0
  endloop
endfacet
facet normal 0.8380566712038275 -0.5455831887537955 0.0
  outer loop
    vertex 46.32007738798672 111.41502816897416 0.9999999999999999
    vertex 46.604928972655955 111.85258155360155 0.0
    vertex 46.604928972655955 111.85258155360155 0.9999999999999999
  endloop
endfacet
facet normal 0.9507079025468645 -0.3100878650236767 0.0
  outer loop
    vertex 46.32007738798672 111.41502816897416 0.0
    vertex 46.15817903488598 110.91865903924234 0.9999999999999999
    vertex 46.15817903488598 110.91865903924234 0.0
  endloop
endfacet
facet normal 0.9507079025468645 -0.3100878650236767 0.0
  outer loop
    vertex 46.15817903488598 110.91865903924234 0.9999999999999999
    vertex 46.32007738798672 111.41502816897416 0.0
    vertex 46.32007738798672 111.41502816897416 0.9999999999999999
  endloop
endfacet
facet normal 0.9985699614504342 -0.05346056573661118 0.0
  outer loop
    vertex 46.15817903488598 110.91865903924234 0.0
    vertex 46.130267018567864 110.39730090030855 0.9999999999999999
    vertex 46.130267018567864 110.39730090030855 0.0
  endloop
endfacet
facet normal 0.9985699614504342 -0.05346056573661118 0.0
  outer loop
    vertex 46.130267018567864 110.39730090030855 0.9999999999999999
    vertex 46.15817903488598 110.91865903924234 0.0
    vertex 46.15817903488598 110.91865903924234 0.9999999999999999
  endloop
endfacet
facet normal 0.9783811276960406 0.20680998275766155 0.0
  outer loop
    vertex 46.130267018567864 110.39730090030855 0.0
    vertex 46.23824349681767 109.88648344775606 0.9999999999999999
    vertex 46.23824349681767 109.88648344775606 0.0
  endloop
endfacet
facet normal 0.9783811276960406 0.20680998275766155 0.0
  outer loop
    vertex 46.23824349681767 109.88648344775606 0.9999999999999999
    vertex 46.130267018567864 110.39730090030855 0.0
    vertex 46.130267018567864 110.39730090030855 0.9999999999999999
  endloop
endfacet
facet normal 0.891517236940427 0.452986772696628 0.0
  outer loop
    vertex 46.23824349681767 109.88648344775606 0.0
    vertex 46.47475005108223 109.42101804681056 0.9999999999999999
    vertex 46.47475005108223 109.42101804681056 0.0
  endloop
endfacet
facet normal 0.891517236940427 0.452986772696628 0.0
  outer loop
    vertex 46.47475005108223 109.42101804681056 0.9999999999999999
    vertex 46.23824349681767 109.88648344775606 0.0
    vertex 46.23824349681767 109.88648344775606 0.9999999999999999
  endloop
endfacet
facet normal 0.7438979197892231 0.6682932626723589 0.0
  outer loop
    vertex 46.47475005108223 109.42101804681056 0.0
    vertex 46.82366915053399 109.03262539532854 0.9999999999999999
    vertex 46.82366915053399 109.03262539532854 0.0
  endloop
endfacet
facet normal 0.7438979197892231 0.6682932626723589 0.0
  outer loop
    vertex 46.82366915053399 109.03262539532854 0.9999999999999999
    vertex 46.47475005108223 109.42101804681056 0.0
    vertex 46.47475005108223 109.42101804681056 0.9999999999999999
  endloop
endfacet
facet normal 0.5455831887537902 0.838056671203831 0.0
  outer loop
    vertex 46.82366915053399 109.03262539532854 0.9999999999999999
    vertex 47.26122253516137 108.74777381065931 0.0
    vertex 46.82366915053399 109.03262539532854 0.0
  endloop
endfacet
facet normal 0.5455831887537902 0.838056671203831 0.0
  outer loop
    vertex 47.26122253516137 108.74777381065931 0.0
    vertex 46.82366915053399 109.03262539532854 0.9999999999999999
    vertex 47.26122253516137 108.74777381065931 0.9999999999999999
  endloop
endfacet
facet normal 0.3100878650236832 0.9507079025468622 0.0
  outer loop
    vertex 47.26122253516137 108.74777381065931 0.9999999999999999
    vertex 47.75759166489319 108.58587545755857 0.0
    vertex 47.26122253516137 108.74777381065931 0.0
  endloop
endfacet
facet normal 0.3100878650236832 0.9507079025468622 0.0
  outer loop
    vertex 47.75759166489319 108.58587545755857 0.0
    vertex 47.26122253516137 108.74777381065931 0.9999999999999999
    vertex 47.75759166489319 108.58587545755857 0.9999999999999999
  endloop
endfacet
facet normal -0.0 -0.0 1.0
  outer loop
    vertex 56.124277140731486 89.55197356340408 7.0
    vertex 48.124277140731486 90.55197356340406 7.0
    vertex 48.124277140731486 89.55197356340408 7.0
  endloop
endfacet
facet normal -0.0 -0.0 1.0
  outer loop
    vertex 48.124277140731486 90.55197356340406 7.0
    vertex 56.124277140731486 89.55197356340408 7.0
    vertex 50.02022574950983 95.91158982161807 7.0
  endloop
endfacet
facet normal -0.0 -0.0 1.0
  outer loop
    vertex 48.124277140731486 90.55197356340406 7.0
    vertex 50.02022574950983 95.91158982161807 7.0
    vertex 49.53844801501563 96.52902430505935 7.0
  endloop
endfacet
facet normal -0.0 -0.0 1.0
  outer loop
    vertex 48.124277140731486 90.55197356340406 7.0
    vertex 49.53844801501563 96.52902430505935 7.0
    vertex 49.2328902621543 97.25011347185018 7.0
  endloop
endfacet
facet normal -0.0 -0.0 1.0
  outer loop
    vertex 48.124277140731486 90.55197356340406 7.0
    vertex 49.2328902621543 97.25011347185018 7.0
    vertex 49.12437574682525 98.02571628692996 7.0
  endloop
endfacet
facet normal -0.0 -0.0 1.0
  outer loop
    vertex 50.02022574950983 95.91158982161807 7.0
    vertex 56.124277140731486 89.55197356340408 7.0
    vertex 50.64539110920645 95.43988716121412 7.0
  endloop
endfacet
facet normal -0.0 -0.0 1.0
  outer loop
    vertex 50.64539110920645 95.43988716121412 7.0
    vertex 56.124277140731486 89.55197356340408 7.0
    vertex 51.37134010797678 95.14606208062852 7.0
  endloop
endfacet
facet normal -0.0 -0.0 1.0
  outer loop
    vertex 51.37134010797678 95.14606208062852 7.0
    vertex 56.124277140731486 89.55197356340408 7.0
    vertex 52.14860052124207 95.05013827353432 7.0
  endloop
endfacet
facet normal -0.0 -0.0 1.0
  outer loop
    vertex 52.14860052124207 95.05013827353432 7.0
    vertex 56.124277140731486 89.55197356340408 7.0
    vertex 52.92420333632184 95.15865278886336 7.0
  endloop
endfacet
facet normal -0.0 -0.0 1.0
  outer loop
    vertex 52.92420333632184 95.15865278886336 7.0
    vertex 56.124277140731486 89.55197356340408 7.0
    vertex 53.64529250311268 95.4642105417247 7.0
  endloop
endfacet
facet normal -0.0 -0.0 1.0
  outer loop
    vertex 53.64529250311268 95.4642105417247 7.0
    vertex 56.124277140731486 89.55197356340408 7.0
    vertex 54.262726986553965 95.94598827621888 7.0
  endloop
endfacet
facet normal -0.0 -0.0 1.0
  outer loop
    vertex 54.262726986553965 95.94598827621888 7.0
    vertex 56.124277140731486 89.55197356340408 7.0
    vertex 54.73442964695791 96.57115363591551 7.0
  endloop
endfacet
facet normal -0.0 -0.0 1.0
  outer loop
    vertex 54.73442964695791 96.57115363591551 7.0
    vertex 56.124277140731486 89.55197356340408 7.0
    vertex 55.028254727543505 97.29710263468584 7.0
  endloop
endfacet
facet normal -0.0 -0.0 1.0
  outer loop
    vertex 55.028254727543505 97.29710263468584 7.0
    vertex 56.124277140731486 89.55197356340408 7.0
    vertex 55.12417853463771 98.07436304795112 7.0
  endloop
endfacet
facet normal -0.0 -0.0 1.0
  outer loop
    vertex 48.124277140731486 90.55197356340406 7.0
    vertex 44.12427714073148 106.55197356340405 7.0
    vertex 44.12427714073148 105.55197356340405 7.0
  endloop
endfacet
facet normal -0.0 -0.0 1.0
  outer loop
    vertex 44.12427714073148 106.55197356340405 7.0
    vertex 48.124277140731486 90.55197356340406 7.0
    vertex 49.22029955391947 98.80297670019525 7.0
  endloop
endfacet
facet normal -0.0 -0.0 1.0
  outer loop
    vertex 44.12427714073148 106.55197356340405 7.0
    vertex 49.22029955391947 98.80297670019525 7.0
    vertex 49.51412463450505 99.52892569896558 7.0
  endloop
endfacet
facet normal -0.0 -0.0 1.0
  outer loop
    vertex 44.12427714073148 106.55197356340405 7.0
    vertex 49.51412463450505 99.52892569896558 7.0
    vertex 49.985827294909 100.1540910586622 7.0
  endloop
endfacet
facet normal -0.0 -0.0 1.0
  outer loop
    vertex 44.12427714073148 106.55197356340405 7.0
    vertex 49.985827294909 100.1540910586622 7.0
    vertex 50.603261778350294 100.63586879315639 7.0
  endloop
endfacet
facet normal -0.0 -0.0 1.0
  outer loop
    vertex 44.12427714073148 106.55197356340405 7.0
    vertex 50.603261778350294 100.63586879315639 7.0
    vertex 60.12427714073148 106.55197356340405 7.0
  endloop
endfacet
facet normal -0.0 -0.0 1.0
  outer loop
    vertex 49.22029955391947 98.80297670019525 7.0
    vertex 48.124277140731486 90.55197356340406 7.0
    vertex 49.12437574682525 98.02571628692996 7.0
  endloop
endfacet
facet normal -0.0 -0.0 1.0
  outer loop
    vertex 60.12427714073148 106.55197356340405 7.0
    vertex 50.603261778350294 100.63586879315639 7.0
    vertex 51.32435094514113 100.94142654601772 7.0
  endloop
endfacet
facet normal -0.0 -0.0 1.0
  outer loop
    vertex 60.12427714073148 106.55197356340405 7.0
    vertex 51.32435094514113 100.94142654601772 7.0
    vertex 52.099953760220906 101.04994106134677 7.0
  endloop
endfacet
facet normal -0.0 -0.0 1.0
  outer loop
    vertex 60.12427714073148 106.55197356340405 7.0
    vertex 52.099953760220906 101.04994106134677 7.0
    vertex 52.87721417348619 100.95401725425256 7.0
  endloop
endfacet
facet normal -0.0 -0.0 1.0
  outer loop
    vertex 60.12427714073148 106.55197356340405 7.0
    vertex 52.87721417348619 100.95401725425256 7.0
    vertex 53.603163172256515 100.66019217366697 7.0
  endloop
endfacet
facet normal -0.0 -0.0 1.0
  outer loop
    vertex 60.12427714073148 106.55197356340405 7.0
    vertex 53.603163172256515 100.66019217366697 7.0
    vertex 54.228328531953146 100.18848951326302 7.0
  endloop
endfacet
facet normal -0.0 -0.0 1.0
  outer loop
    vertex 60.12427714073148 106.55197356340405 7.0
    vertex 54.228328531953146 100.18848951326302 7.0
    vertex 54.71010626644733 99.57105502982174 7.0
  endloop
endfacet
facet normal -0.0 -0.0 1.0
  outer loop
    vertex 60.12427714073148 106.55197356340405 7.0
    vertex 54.71010626644733 99.57105502982174 7.0
    vertex 55.01566401930867 98.8499658630309 7.0
  endloop
endfacet
facet normal -0.0 -0.0 1.0
  outer loop
    vertex 60.12427714073148 106.55197356340405 7.0
    vertex 55.01566401930867 98.8499658630309 7.0
    vertex 55.12417853463771 98.07436304795112 7.0
  endloop
endfacet
facet normal -0.0 -0.0 1.0
  outer loop
    vertex 60.12427714073148 106.55197356340405 7.0
    vertex 55.12417853463771 98.07436304795112 7.0
    vertex 56.124277140731486 90.55197356340406 7.0
  endloop
endfacet
facet normal -0.0 -0.0 1.0
  outer loop
    vertex 56.124277140731486 90.55197356340406 7.0
    vertex 55.12417853463771 98.07436304795112 7.0
    vertex 56.124277140731486 89.55197356340408 7.0
  endloop
endfacet
facet normal -0.0 -0.0 1.0
  outer loop
    vertex 60.12427714073148 106.55197356340405 7.0
    vertex 56.124277140731486 90.55197356340406 7.0
    vertex 60.12427714073148 105.55197356340405 7.0
  endloop
endfacet
facet normal 0.0 1.0 0.0
  outer loop
    vertex 44.12427714073148 106.55197356340405 7.0
    vertex 60.12427714073148 106.55197356340405 0.9999999999999999
    vertex 44.12427714073148 106.55197356340405 0.9999999999999999
  endloop
endfacet
facet normal 0.0 1.0 0.0
  outer loop
    vertex 60.12427714073148 106.55197356340405 0.9999999999999999
    vertex 44.12427714073148 106.55197356340405 7.0
    vertex 60.12427714073148 106.55197356340405 7.0
  endloop
endfacet
facet normal 0.0 0.0 -1.0
  outer loop
    vertex 48.124277140731486 90.55197356340406 0.0
    vertex 50.36715941821015 86.50724175046017 0.0
    vertex 48.124277140731486 81.55197356340406 0.0
  endloop
endfacet
facet normal 0.0 0.0 -1.0
  outer loop
    vertex 50.36715941821015 86.50724175046017 0.0
    vertex 48.124277140731486 90.55197356340406 0.0
    vertex 50.674273352708575 86.92946730738957 0.0
  endloop
endfacet
facet normal 0.0 0.0 -1.0
  outer loop
    vertex 50.674273352708575 86.92946730738957 0.0
    vertex 48.124277140731486 90.55197356340406 0.0
    vertex 51.0802026491162 87.25781894208242 0.0
  endloop
endfacet
facet normal 0.0 0.0 -1.0
  outer loop
    vertex 51.0802026491162 87.25781894208242 0.0
    vertex 48.124277140731486 90.55197356340406 0.0
    vertex 56.124277140731486 90.55197356340406 0.0
  endloop
endfacet
facet normal 0.0 0.0 -1.0
  outer loop
    vertex 48.124277140731486 81.55197356340406 0.0
    vertex 50.36715941821015 86.50724175046017 0.0
    vertex 50.17979015272722 86.01991624523819 0.0
  endloop
endfacet
facet normal 0.0 0.0 -1.0
  outer loop
    vertex 48.124277140731486 81.55197356340406 0.0
    vertex 50.17979015272722 86.01991624523819 0.0
    vertex 50.124934462060104 85.5007012195611 0.0
  endloop
endfacet
facet normal 0.0 0.0 -1.0
  outer loop
    vertex 51.0802026491162 87.25781894208242 0.0
    vertex 56.124277140731486 90.55197356340406 0.0
    vertex 51.55728389671273 87.46992003326112 0.0
  endloop
endfacet
facet normal 0.0 0.0 -1.0
  outer loop
    vertex 51.55728389671273 87.46992003326112 0.0
    vertex 56.124277140731486 90.55197356340406 0.0
    vertex 52.073004796888505 87.55131624207546 0.0
  endloop
endfacet
facet normal 0.0 0.0 -1.0
  outer loop
    vertex 52.073004796888505 87.55131624207546 0.0
    vertex 56.124277140731486 90.55197356340406 0.0
    vertex 52.59221982256562 87.49646055140833 0.0
  endloop
endfacet
facet normal 0.0 0.0 -1.0
  outer loop
    vertex 52.59221982256562 87.49646055140833 0.0
    vertex 56.124277140731486 90.55197356340406 0.0
    vertex 53.079545327787585 87.3090912859254 0.0
  endloop
endfacet
facet normal 0.0 0.0 -1.0
  outer loop
    vertex 53.079545327787585 87.3090912859254 0.0
    vertex 56.124277140731486 90.55197356340406 0.0
    vertex 53.501770884717 87.00197735142697 0.0
  endloop
endfacet
facet normal 0.0 0.0 -1.0
  outer loop
    vertex 53.501770884717 87.00197735142697 0.0
    vertex 56.124277140731486 90.55197356340406 0.0
    vertex 53.83012251940984 86.59604805501935 0.0
  endloop
endfacet
facet normal 0.0 0.0 -1.0
  outer loop
    vertex 53.83012251940984 86.59604805501935 0.0
    vertex 56.124277140731486 90.55197356340406 0.0
    vertex 54.04222361058853 86.11896680742282 0.0
  endloop
endfacet
facet normal 0.0 0.0 -1.0
  outer loop
    vertex 54.04222361058853 86.11896680742282 0.0
    vertex 56.124277140731486 90.55197356340406 0.0
    vertex 54.12361981940287 85.60324590724704 0.0
  endloop
endfacet
facet normal 0.0 0.0 -1.0
  outer loop
    vertex 48.124277140731486 81.55197356340406 0.0
    vertex 51.16900895367538 83.79485584088273 0.0
    vertex 56.124277140731486 81.55197356340406 0.0
  endloop
endfacet
facet normal 0.0 0.0 -1.0
  outer loop
    vertex 51.16900895367538 83.79485584088273 0.0
    vertex 48.124277140731486 81.55197356340406 0.0
    vertex 50.74678339674597 84.10196977538115 0.0
  endloop
endfacet
facet normal 0.0 0.0 -1.0
  outer loop
    vertex 50.74678339674597 84.10196977538115 0.0
    vertex 48.124277140731486 81.55197356340406 0.0
    vertex 50.41843176205313 84.50789907178878 0.0
  endloop
endfacet
facet normal 0.0 0.0 -1.0
  outer loop
    vertex 50.41843176205313 84.50789907178878 0.0
    vertex 48.124277140731486 81.55197356340406 0.0
    vertex 50.206330670874436 84.98498031938531 0.0
  endloop
endfacet
facet normal 0.0 0.0 -1.0
  outer loop
    vertex 50.206330670874436 84.98498031938531 0.0
    vertex 48.124277140731486 81.55197356340406 0.0
    vertex 50.124934462060104 85.5007012195611 0.0
  endloop
endfacet
facet normal 0.0 0.0 -1.0
  outer loop
    vertex 56.124277140731486 81.55197356340406 0.0
    vertex 51.16900895367538 83.79485584088273 0.0
    vertex 51.65633445889735 83.6074865753998 0.0
  endloop
endfacet
facet normal 0.0 0.0 -1.0
  outer loop
    vertex 56.124277140731486 81.55197356340406 0.0
    vertex 51.65633445889735 83.6074865753998 0.0
    vertex 52.17554948457446 83.55263088473268 0.0
  endloop
endfacet
facet normal 0.0 0.0 -1.0
  outer loop
    vertex 56.124277140731486 81.55197356340406 0.0
    vertex 52.17554948457446 83.55263088473268 0.0
    vertex 52.69127038475023 83.63402709354702 0.0
  endloop
endfacet
facet normal 0.0 0.0 -1.0
  outer loop
    vertex 56.124277140731486 81.55197356340406 0.0
    vertex 52.69127038475023 83.63402709354702 0.0
    vertex 53.16835163234676 83.84612818472571 0.0
  endloop
endfacet
facet normal 0.0 0.0 -1.0
  outer loop
    vertex 56.124277140731486 81.55197356340406 0.0
    vertex 53.16835163234676 83.84612818472571 0.0
    vertex 53.5742809287544 84.17447981941855 0.0
  endloop
endfacet
facet normal 0.0 0.0 -1.0
  outer loop
    vertex 56.124277140731486 81.55197356340406 0.0
    vertex 53.5742809287544 84.17447981941855 0.0
    vertex 53.881394863252815 84.59670537634796 0.0
  endloop
endfacet
facet normal 0.0 0.0 -1.0
  outer loop
    vertex 56.124277140731486 81.55197356340406 0.0
    vertex 53.881394863252815 84.59670537634796 0.0
    vertex 54.06876412873575 85.08403088156993 0.0
  endloop
endfacet
facet normal 0.0 0.0 -1.0
  outer loop
    vertex 56.124277140731486 81.55197356340406 0.0
    vertex 54.06876412873575 85.08403088156993 0.0
    vertex 54.12361981940287 85.60324590724704 0.0
  endloop
endfacet
facet normal 0.0 0.0 -1.0
  outer loop
    vertex 56.124277140731486 81.55197356340406 0.0
    vertex 54.12361981940287 85.60324590724704 0.0
    vertex 56.124277140731486 90.55197356340406 0.0
  endloop
endfacet
facet normal -1.0 0.0 0.0
  outer loop
    vertex 48.124277140731486 90.55197356340406 7.0
    vertex 48.124277140731486 89.55197356340408 0.9999999999999999
    vertex 48.124277140731486 89.55197356340408 7.0
  endloop
endfacet
facet normal -1.0 0.0 0.0
  outer loop
    vertex 48.124277140731486 89.55197356340408 0.9999999999999999
    vertex 48.124277140731486 81.55197356340406 0.0
    vertex 48.124277140731486 81.55197356340406 0.9999999999999999
  endloop
endfacet
facet normal -1.0 0.0 0.0
  outer loop
    vertex 48.124277140731486 81.55197356340406 0.0
    vertex 48.124277140731486 89.55197356340408 0.9999999999999999
    vertex 48.124277140731486 90.55197356340406 0.0
  endloop
endfacet
facet normal -1.0 0.0 0.0
  outer loop
    vertex 48.124277140731486 90.55197356340406 0.0
    vertex 48.124277140731486 89.55197356340408 0.9999999999999999
    vertex 48.124277140731486 90.55197356340406 7.0
  endloop
endfacet
facet normal -1.0 0.0 0.0
  outer loop
    vertex 48.124277140731486 90.55197356340406 0.0
    vertex 48.124277140731486 90.55197356340406 7.0
    vertex 48.124277140731486 90.55197356340406 6.0
  endloop
endfacet
facet normal -0.0 1.0 -0.0
  outer loop
    vertex 48.124277140731486 90.55197356340406 6.0
    vertex 56.124277140731486 90.55197356340406 0.0
    vertex 48.124277140731486 90.55197356340406 0.0
  endloop
endfacet
facet normal -0.0 1.0 -0.0
  outer loop
    vertex 56.124277140731486 90.55197356340406 0.0
    vertex 48.124277140731486 90.55197356340406 6.0
    vertex 56.124277140731486 90.55197356340406 6.0
  endloop
endfacet
facet normal 0.0 -1.0 0.0
  outer loop
    vertex 56.124277140731486 89.55197356340408 7.0
    vertex 48.124277140731486 89.55197356340408 0.9999999999999999
    vertex 56.124277140731486 89.55197356340408 0.9999999999999999
  endloop
endfacet
facet normal 0.0 -1.0 0.0
  outer loop
    vertex 48.124277140731486 89.55197356340408 0.9999999999999999
    vertex 56.124277140731486 89.55197356340408 7.0
    vertex 48.124277140731486 89.55197356340408 7.0
  endloop
endfacet
facet normal 0.0 0.0 -1.0
  outer loop
    vertex 48.124277140731486 89.55197356340408 0.9999999999999999
    vertex 50.36715941821015 86.50724175046017 0.9999999999999999
    vertex 48.124277140731486 81.55197356340406 0.9999999999999999
  endloop
endfacet
facet normal 0.0 0.0 -1.0
  outer loop
    vertex 50.36715941821015 86.50724175046017 0.9999999999999999
    vertex 48.124277140731486 89.55197356340408 0.9999999999999999
    vertex 50.674273352708575 86.92946730738957 0.9999999999999999
  endloop
endfacet
facet normal 0.0 0.0 -1.0
  outer loop
    vertex 50.674273352708575 86.92946730738957 0.9999999999999999
    vertex 48.124277140731486 89.55197356340408 0.9999999999999999
    vertex 51.0802026491162 87.25781894208242 0.9999999999999999
  endloop
endfacet
facet normal 0.0 0.0 -1.0
  outer loop
    vertex 51.0802026491162 87.25781894208242 0.9999999999999999
    vertex 48.124277140731486 89.55197356340408 0.9999999999999999
    vertex 56.124277140731486 89.55197356340408 0.9999999999999999
  endloop
endfacet
facet normal 0.0 0.0 -1.0
  outer loop
    vertex 48.124277140731486 81.55197356340406 0.9999999999999999
    vertex 50.36715941821015 86.50724175046017 0.9999999999999999
    vertex 50.17979015272722 86.01991624523819 0.9999999999999999
  endloop
endfacet
facet normal 0.0 0.0 -1.0
  outer loop
    vertex 48.124277140731486 81.55197356340406 0.9999999999999999
    vertex 50.17979015272722 86.01991624523819 0.9999999999999999
    vertex 50.124934462060104 85.5007012195611 0.9999999999999999
  endloop
endfacet
facet normal 0.0 0.0 -1.0
  outer loop
    vertex 51.0802026491162 87.25781894208242 0.9999999999999999
    vertex 56.124277140731486 89.55197356340408 0.9999999999999999
    vertex 51.55728389671273 87.46992003326112 0.9999999999999999
  endloop
endfacet
facet normal 0.0 0.0 -1.0
  outer loop
    vertex 51.55728389671273 87.46992003326112 0.9999999999999999
    vertex 56.124277140731486 89.55197356340408 0.9999999999999999
    vertex 52.073004796888505 87.55131624207546 0.9999999999999999
  endloop
endfacet
facet normal 0.0 0.0 -1.0
  outer loop
    vertex 52.073004796888505 87.55131624207546 0.9999999999999999
    vertex 56.124277140731486 89.55197356340408 0.9999999999999999
    vertex 52.59221982256562 87.49646055140833 0.9999999999999999
  endloop
endfacet
facet normal 0.0 0.0 -1.0
  outer loop
    vertex 52.59221982256562 87.49646055140833 0.9999999999999999
    vertex 56.124277140731486 89.55197356340408 0.9999999999999999
    vertex 53.079545327787585 87.3090912859254 0.9999999999999999
  endloop
endfacet
facet normal 0.0 0.0 -1.0
  outer loop
    vertex 53.079545327787585 87.3090912859254 0.9999999999999999
    vertex 56.124277140731486 89.55197356340408 0.9999999999999999
    vertex 53.501770884717 87.00197735142697 0.9999999999999999
  endloop
endfacet
facet normal 0.0 0.0 -1.0
  outer loop
    vertex 53.501770884717 87.00197735142697 0.9999999999999999
    vertex 56.124277140731486 89.55197356340408 0.9999999999999999
    vertex 53.83012251940984 86.59604805501935 0.9999999999999999
  endloop
endfacet
facet normal 0.0 0.0 -1.0
  outer loop
    vertex 53.83012251940984 86.59604805501935 0.9999999999999999
    vertex 56.124277140731486 89.55197356340408 0.9999999999999999
    vertex 54.04222361058853 86.11896680742282 0.9999999999999999
  endloop
endfacet
facet normal 0.0 0.0 -1.0
  outer loop
    vertex 54.04222361058853 86.11896680742282 0.9999999999999999
    vertex 56.124277140731486 89.55197356340408 0.9999999999999999
    vertex 54.12361981940287 85.60324590724704 0.9999999999999999
  endloop
endfacet
facet normal 0.0 0.0 -1.0
  outer loop
    vertex 48.124277140731486 81.55197356340406 0.9999999999999999
    vertex 51.16900895367538 83.79485584088273 0.9999999999999999
    vertex 56.124277140731486 81.55197356340406 0.9999999999999999
  endloop
endfacet
facet normal 0.0 0.0 -1.0
  outer loop
    vertex 51.16900895367538 83.79485584088273 0.9999999999999999
    vertex 48.124277140731486 81.55197356340406 0.9999999999999999
    vertex 50.74678339674597 84.10196977538115 0.9999999999999999
  endloop
endfacet
facet normal 0.0 0.0 -1.0
  outer loop
    vertex 50.74678339674597 84.10196977538115 0.9999999999999999
    vertex 48.124277140731486 81.55197356340406 0.9999999999999999
    vertex 50.41843176205313 84.50789907178878 0.9999999999999999
  endloop
endfacet
facet normal 0.0 0.0 -1.0
  outer loop
    vertex 50.41843176205313 84.50789907178878 0.9999999999999999
    vertex 48.124277140731486 81.55197356340406 0.9999999999999999
    vertex 50.206330670874436 84.98498031938531 0.9999999999999999
  endloop
endfacet
facet normal 0.0 0.0 -1.0
  outer loop
    vertex 50.206330670874436 84.98498031938531 0.9999999999999999
    vertex 48.124277140731486 81.55197356340406 0.9999999999999999
    vertex 50.124934462060104 85.5007012195611 0.9999999999999999
  endloop
endfacet
facet normal 0.0 0.0 -1.0
  outer loop
    vertex 56.124277140731486 81.55197356340406 0.9999999999999999
    vertex 51.16900895367538 83.79485584088273 0.9999999999999999
    vertex 51.65633445889735 83.6074865753998 0.9999999999999999
  endloop
endfacet
facet normal 0.0 0.0 -1.0
  outer loop
    vertex 56.124277140731486 81.55197356340406 0.9999999999999999
    vertex 51.65633445889735 83.6074865753998 0.9999999999999999
    vertex 52.17554948457446 83.55263088473268 0.9999999999999999
  endloop
endfacet
facet normal 0.0 0.0 -1.0
  outer loop
    vertex 56.124277140731486 81.55197356340406 0.9999999999999999
    vertex 52.17554948457446 83.55263088473268 0.9999999999999999
    vertex 52.69127038475023 83.63402709354702 0.9999999999999999
  endloop
endfacet
facet normal 0.0 0.0 -1.0
  outer loop
    vertex 56.124277140731486 81.55197356340406 0.9999999999999999
    vertex 52.69127038475023 83.63402709354702 0.9999999999999999
    vertex 53.16835163234676 83.84612818472571 0.9999999999999999
  endloop
endfacet
facet normal 0.0 0.0 -1.0
  outer loop
    vertex 56.124277140731486 81.55197356340406 0.9999999999999999
    vertex 53.16835163234676 83.84612818472571 0.9999999999999999
    vertex 53.5742809287544 84.17447981941855 0.9999999999999999
  endloop
endfacet
facet normal 0.0 0.0 -1.0
  outer loop
    vertex 56.124277140731486 81.55197356340406 0.9999999999999999
    vertex 53.5742809287544 84.17447981941855 0.9999999999999999
    vertex 53.881394863252815 84.59670537634796 0.9999999999999999
  endloop
endfacet
facet normal 0.0 0.0 -1.0
  outer loop
    vertex 56.124277140731486 81.55197356340406 0.9999999999999999
    vertex 53.881394863252815 84.59670537634796 0.9999999999999999
    vertex 54.06876412873575 85.08403088156993 0.9999999999999999
  endloop
endfacet
facet normal 0.0 0.0 -1.0
  outer loop
    vertex 56.124277140731486 81.55197356340406 0.9999999999999999
    vertex 54.06876412873575 85.08403088156993 0.9999999999999999
    vertex 54.12361981940287 85.60324590724704 0.9999999999999999
  endloop
endfacet
facet normal 0.0 0.0 -1.0
  outer loop
    vertex 56.124277140731486 81.55197356340406 0.9999999999999999
    vertex 54.12361981940287 85.60324590724704 0.9999999999999999
    vertex 56.124277140731486 89.55197356340408 0.9999999999999999
  endloop
endfacet
facet normal 0.0 1.0 0.0
  outer loop
    vertex 48.124277140731486 81.55197356340406 0.9999999999999999
    vertex 56.124277140731486 81.55197356340406 0.0
    vertex 48.124277140731486 81.55197356340406 0.0
  endloop
endfacet
facet normal 0.0 1.0 0.0
  outer loop
    vertex 56.124277140731486 81.55197356340406 0.0
    vertex 48.124277140731486 81.55197356340406 0.9999999999999999
    vertex 56.124277140731486 81.55197356340406 0.9999999999999999
  endloop
endfacet
facet normal 0.35887292484378375 0.9333864279140061 0.0
  outer loop
    vertex 52.59221982256562 87.49646055140833 0.9999999999999999
    vertex 53.079545327787585 87.3090912859254 0.0
    vertex 52.59221982256562 87.49646055140833 0.0
  endloop
endfacet
facet normal 0.35887292484378375 0.9333864279140061 0.0
  outer loop
    vertex 53.079545327787585 87.3090912859254 0.0
    vertex 52.59221982256562 87.49646055140833 0.9999999999999999
    vertex 53.079545327787585 87.3090912859254 0.9999999999999999
  endloop
endfacet
facet normal 0.10506644247815607 0.9944652043510543 0.0
  outer loop
    vertex 52.073004796888505 87.55131624207546 0.9999999999999999
    vertex 52.59221982256562 87.49646055140833 0.0
    vertex 52.073004796888505 87.55131624207546 0.0
  endloop
endfacet
facet normal 0.10506644247815607 0.9944652043510543 0.0
  outer loop
    vertex 52.59221982256562 87.49646055140833 0.0
    vertex 52.073004796888505 87.55131624207546 0.9999999999999999
    vertex 52.59221982256562 87.49646055140833 0.9999999999999999
  endloop
endfacet
facet normal -0.15590014431186677 0.9877728205430333 -0.0
  outer loop
    vertex 51.55728389671273 87.46992003326112 0.9999999999999999
    vertex 52.073004796888505 87.55131624207546 0.0
    vertex 51.55728389671273 87.46992003326112 0.0
  endloop
endfacet
facet normal -0.15590014431186677 0.9877728205430333 -0.0
  outer loop
    vertex 52.073004796888505 87.55131624207546 0.0
    vertex 51.55728389671273 87.46992003326112 0.9999999999999999
    vertex 52.073004796888505 87.55131624207546 0.9999999999999999
  endloop
endfacet
facet normal -0.40624239390419603 0.9137653513867704 -0.0
  outer loop
    vertex 51.0802026491162 87.25781894208242 0.9999999999999999
    vertex 51.55728389671273 87.46992003326112 0.0
    vertex 51.0802026491162 87.25781894208242 0.0
  endloop
endfacet
facet normal -0.40624239390419603 0.9137653513867704 -0.0
  outer loop
    vertex 51.55728389671273 87.46992003326112 0.0
    vertex 51.0802026491162 87.25781894208242 0.9999999999999999
    vertex 51.55728389671273 87.46992003326112 0.9999999999999999
  endloop
endfacet
facet normal -0.6288998956992498 0.7774862836021438 -0.0
  outer loop
    vertex 50.674273352708575 86.92946730738957 0.9999999999999999
    vertex 51.0802026491162 87.25781894208242 0.0
    vertex 50.674273352708575 86.92946730738957 0.0
  endloop
endfacet
facet normal -0.6288998956992498 0.7774862836021438 -0.0
  outer loop
    vertex 51.0802026491162 87.25781894208242 0.0
    vertex 50.674273352708575 86.92946730738957 0.9999999999999999
    vertex 51.0802026491162 87.25781894208242 0.9999999999999999
  endloop
endfacet
facet normal -0.8086989089086206 0.5882228104468633 -0.0
  outer loop
    vertex 50.674273352708575 86.92946730738957 0.9999999999999999
    vertex 50.36715941821015 86.50724175046017 0.0
    vertex 50.36715941821015 86.50724175046017 0.9999999999999999
  endloop
endfacet
facet normal -0.8086989089086206 0.5882228104468633 -0.0
  outer loop
    vertex 50.36715941821015 86.50724175046017 0.0
    vertex 50.674273352708575 86.92946730738957 0.9999999999999999
    vertex 50.674273352708575 86.92946730738957 0.0
  endloop
endfacet
facet normal -0.9333864279140061 0.35887292484378375 -0.0
  outer loop
    vertex 50.36715941821015 86.50724175046017 0.9999999999999999
    vertex 50.17979015272722 86.01991624523819 0.0
    vertex 50.17979015272722 86.01991624523819 0.9999999999999999
  endloop
endfacet
facet normal -0.9333864279140061 0.35887292484378375 -0.0
  outer loop
    vertex 50.17979015272722 86.01991624523819 0.0
    vertex 50.36715941821015 86.50724175046017 0.9999999999999999
    vertex 50.36715941821015 86.50724175046017 0.0
  endloop
endfacet
facet normal -0.9944652043510555 0.1050664424781454 -0.0
  outer loop
    vertex 50.17979015272722 86.01991624523819 0.9999999999999999
    vertex 50.124934462060104 85.5007012195611 0.0
    vertex 50.124934462060104 85.5007012195611 0.9999999999999999
  endloop
endfacet
facet normal -0.9944652043510555 0.1050664424781454 -0.0
  outer loop
    vertex 50.124934462060104 85.5007012195611 0.0
    vertex 50.17979015272722 86.01991624523819 0.9999999999999999
    vertex 50.17979015272722 86.01991624523819 0.0
  endloop
endfacet
facet normal -0.9877728205430348 -0.1559001443118562 -0.0
  outer loop
    vertex 50.124934462060104 85.5007012195611 0.9999999999999999
    vertex 50.206330670874436 84.98498031938531 0.0
    vertex 50.206330670874436 84.98498031938531 0.9999999999999999
  endloop
endfacet
facet normal -0.9877728205430348 -0.1559001443118562 -0.0
  outer loop
    vertex 50.206330670874436 84.98498031938531 0.0
    vertex 50.124934462060104 85.5007012195611 0.9999999999999999
    vertex 50.124934462060104 85.5007012195611 0.0
  endloop
endfacet
facet normal -0.9137653513867704 -0.40624239390419603 -0.0
  outer loop
    vertex 50.206330670874436 84.98498031938531 0.9999999999999999
    vertex 50.41843176205313 84.50789907178878 0.0
    vertex 50.41843176205313 84.50789907178878 0.9999999999999999
  endloop
endfacet
facet normal -0.9137653513867704 -0.40624239390419603 -0.0
  outer loop
    vertex 50.41843176205313 84.50789907178878 0.0
    vertex 50.206330670874436 84.98498031938531 0.9999999999999999
    vertex 50.206330670874436 84.98498031938531 0.0
  endloop
endfacet
facet normal -0.777486283602148 -0.6288998956992444 -0.0
  outer loop
    vertex 50.41843176205313 84.50789907178878 0.9999999999999999
    vertex 50.74678339674597 84.10196977538115 0.0
    vertex 50.74678339674597 84.10196977538115 0.9999999999999999
  endloop
endfacet
facet normal -0.777486283602148 -0.6288998956992444 -0.0
  outer loop
    vertex 50.74678339674597 84.10196977538115 0.0
    vertex 50.41843176205313 84.50789907178878 0.9999999999999999
    vertex 50.41843176205313 84.50789907178878 0.0
  endloop
endfacet
facet normal -0.5882228104468563 -0.808698908908626 -0.0
  outer loop
    vertex 51.16900895367538 83.79485584088273 0.9999999999999999
    vertex 50.74678339674597 84.10196977538115 0.0
    vertex 51.16900895367538 83.79485584088273 0.0
  endloop
endfacet
facet normal -0.5882228104468563 -0.808698908908626 -0.0
  outer loop
    vertex 50.74678339674597 84.10196977538115 0.0
    vertex 51.16900895367538 83.79485584088273 0.9999999999999999
    vertex 50.74678339674597 84.10196977538115 0.9999999999999999
  endloop
endfacet
facet normal -0.35887292484378375 -0.9333864279140061 -0.0
  outer loop
    vertex 51.65633445889735 83.6074865753998 0.9999999999999999
    vertex 51.16900895367538 83.79485584088273 0.0
    vertex 51.65633445889735 83.6074865753998 0.0
  endloop
endfacet
facet normal -0.35887292484378375 -0.9333864279140061 -0.0
  outer loop
    vertex 51.16900895367538 83.79485584088273 0.0
    vertex 51.65633445889735 83.6074865753998 0.9999999999999999
    vertex 51.16900895367538 83.79485584088273 0.9999999999999999
  endloop
endfacet
facet normal -0.10506644247815607 -0.9944652043510543 -0.0
  outer loop
    vertex 52.17554948457446 83.55263088473268 0.9999999999999999
    vertex 51.65633445889735 83.6074865753998 0.0
    vertex 52.17554948457446 83.55263088473268 0.0
  endloop
endfacet
facet normal -0.10506644247815607 -0.9944652043510543 -0.0
  outer loop
    vertex 51.65633445889735 83.6074865753998 0.0
    vertex 52.17554948457446 83.55263088473268 0.9999999999999999
    vertex 51.65633445889735 83.6074865753998 0.9999999999999999
  endloop
endfacet
facet normal 0.15590014431186677 -0.9877728205430333 -0.0
  outer loop
    vertex 52.69127038475023 83.63402709354702 0.9999999999999999
    vertex 52.17554948457446 83.55263088473268 0.0
    vertex 52.69127038475023 83.63402709354702 0.0
  endloop
endfacet
facet normal 0.15590014431186677 -0.9877728205430333 -0.0
  outer loop
    vertex 52.17554948457446 83.55263088473268 0.0
    vertex 52.69127038475023 83.63402709354702 0.9999999999999999
    vertex 52.17554948457446 83.55263088473268 0.9999999999999999
  endloop
endfacet
facet normal 0.40624239390419603 -0.9137653513867704 -0.0
  outer loop
    vertex 53.16835163234676 83.84612818472571 0.9999999999999999
    vertex 52.69127038475023 83.63402709354702 0.0
    vertex 53.16835163234676 83.84612818472571 0.0
  endloop
endfacet
facet normal 0.40624239390419603 -0.9137653513867704 -0.0
  outer loop
    vertex 52.69127038475023 83.63402709354702 0.0
    vertex 53.16835163234676 83.84612818472571 0.9999999999999999
    vertex 52.69127038475023 83.63402709354702 0.9999999999999999
  endloop
endfacet
facet normal 0.6288998956992444 -0.777486283602148 -0.0
  outer loop
    vertex 53.5742809287544 84.17447981941855 0.9999999999999999
    vertex 53.16835163234676 83.84612818472571 0.0
    vertex 53.5742809287544 84.17447981941855 0.0
  endloop
endfacet
facet normal 0.6288998956992444 -0.777486283602148 -0.0
  outer loop
    vertex 53.16835163234676 83.84612818472571 0.0
    vertex 53.5742809287544 84.17447981941855 0.9999999999999999
    vertex 53.16835163234676 83.84612818472571 0.9999999999999999
  endloop
endfacet
facet normal 0.808698908908626 -0.5882228104468563 -0.0
  outer loop
    vertex 53.881394863252815 84.59670537634796 0.0
    vertex 53.5742809287544 84.17447981941855 0.9999999999999999
    vertex 53.5742809287544 84.17447981941855 0.0
  endloop
endfacet
facet normal 0.808698908908626 -0.5882228104468563 -0.0
  outer loop
    vertex 53.5742809287544 84.17447981941855 0.9999999999999999
    vertex 53.881394863252815 84.59670537634796 0.0
    vertex 53.881394863252815 84.59670537634796 0.9999999999999999
  endloop
endfacet
facet normal 0.9333864279140061 -0.35887292484378375 -0.0
  outer loop
    vertex 54.06876412873575 85.08403088156993 0.0
    vertex 53.881394863252815 84.59670537634796 0.9999999999999999
    vertex 53.881394863252815 84.59670537634796 0.0
  endloop
endfacet
facet normal 0.9333864279140061 -0.35887292484378375 -0.0
  outer loop
    vertex 53.881394863252815 84.59670537634796 0.9999999999999999
    vertex 54.06876412873575 85.08403088156993 0.0
    vertex 54.06876412873575 85.08403088156993 0.9999999999999999
  endloop
endfacet
facet normal 0.9944652043510543 -0.10506644247815607 -0.0
  outer loop
    vertex 54.12361981940287 85.60324590724704 0.0
    vertex 54.06876412873575 85.08403088156993 0.9999999999999999
    vertex 54.06876412873575 85.08403088156993 0.0
  endloop
endfacet
facet normal 0.9944652043510543 -0.10506644247815607 -0.0
  outer loop
    vertex 54.06876412873575 85.08403088156993 0.9999999999999999
    vertex 54.12361981940287 85.60324590724704 0.0
    vertex 54.12361981940287 85.60324590724704 0.9999999999999999
  endloop
endfacet
facet normal 0.9877728205430333 0.15590014431186677 0.0
  outer loop
    vertex 54.04222361058853 86.11896680742282 0.0
    vertex 54.12361981940287 85.60324590724704 0.9999999999999999
    vertex 54.12361981940287 85.60324590724704 0.0
  endloop
endfacet
facet normal 0.9877728205430333 0.15590014431186677 0.0
  outer loop
    vertex 54.12361981940287 85.60324590724704 0.9999999999999999
    vertex 54.04222361058853 86.11896680742282 0.0
    vertex 54.04222361058853 86.11896680742282 0.9999999999999999
  endloop
endfacet
facet normal 0.9137653513867704 0.40624239390419603 0.0
  outer loop
    vertex 53.83012251940984 86.59604805501935 0.0
    vertex 54.04222361058853 86.11896680742282 0.9999999999999999
    vertex 54.04222361058853 86.11896680742282 0.0
  endloop
endfacet
facet normal 0.9137653513867704 0.40624239390419603 0.0
  outer loop
    vertex 54.04222361058853 86.11896680742282 0.9999999999999999
    vertex 53.83012251940984 86.59604805501935 0.0
    vertex 53.83012251940984 86.59604805501935 0.9999999999999999
  endloop
endfacet
facet normal 0.7774862836021393 0.628899895699255 0.0
  outer loop
    vertex 53.501770884717 87.00197735142697 0.0
    vertex 53.83012251940984 86.59604805501935 0.9999999999999999
    vertex 53.83012251940984 86.59604805501935 0.0
  endloop
endfacet
facet normal 0.7774862836021393 0.628899895699255 0.0
  outer loop
    vertex 53.83012251940984 86.59604805501935 0.9999999999999999
    vertex 53.501770884717 87.00197735142697 0.0
    vertex 53.501770884717 87.00197735142697 0.9999999999999999
  endloop
endfacet
facet normal 0.5882228104468705 0.8086989089086156 0.0
  outer loop
    vertex 53.079545327787585 87.3090912859254 0.9999999999999999
    vertex 53.501770884717 87.00197735142697 0.0
    vertex 53.079545327787585 87.3090912859254 0.0
  endloop
endfacet
facet normal 0.5882228104468705 0.8086989089086156 0.0
  outer loop
    vertex 53.501770884717 87.00197735142697 0.0
    vertex 53.079545327787585 87.3090912859254 0.9999999999999999
    vertex 53.501770884717 87.00197735142697 0.9999999999999999
  endloop
endfacet
facet normal 0.0 0.0 -1.0
  outer loop
    vertex 60.12427714073148 105.55197356340405 6.0
    vertex 48.124277140731486 90.55197356340406 6.0
    vertex 44.12427714073148 105.55197356340405 6.0
  endloop
endfacet
facet normal 0.0 0.0 -1.0
  outer loop
    vertex 48.124277140731486 90.55197356340406 6.0
    vertex 60.12427714073148 105.55197356340405 6.0
    vertex 56.124277140731486 90.55197356340406 6.0
  endloop
endfacet
facet normal -0.9662349396012463 -0.25766265056033294 -4.0979755089251226e-30
  outer loop
    vertex 44.12427714073148 105.55197356340405 7.0
    vertex 48.124277140731486 90.55197356340406 6.0
    vertex 48.124277140731486 90.55197356340406 7.0
  endloop
endfacet
facet normal -0.9662349396012463 -0.25766265056033294 -4.0979755089251226e-30
  outer loop
    vertex 48.124277140731486 90.55197356340406 6.0
    vertex 44.12427714073148 105.55197356340405 7.0
    vertex 44.12427714073148 105.55197356340405 6.0
  endloop
endfacet
facet normal 0.9662349396012465 -0.2576626505603322 4.0979755089251114e-30
  outer loop
    vertex 60.12427714073148 105.55197356340405 6.0
    vertex 56.124277140731486 90.55197356340406 7.0
    vertex 56.124277140731486 90.55197356340406 6.0
  endloop
endfacet
facet normal 0.9662349396012465 -0.2576626505603322 4.0979755089251114e-30
  outer loop
    vertex 56.124277140731486 90.55197356340406 7.0
    vertex 60.12427714073148 105.55197356340405 6.0
    vertex 60.12427714073148 105.55197356340405 7.0
  endloop
endfacet
facet normal 1.0 -0.0 -0.0
  outer loop
    vertex 56.124277140731486 90.55197356340406 0.0
    vertex 56.124277140731486 81.55197356340406 0.9999999999999999
    vertex 56.124277140731486 81.55197356340406 0.0
  endloop
endfacet
facet normal 1.0 -0.0 -0.0
  outer loop
    vertex 56.124277140731486 81.55197356340406 0.9999999999999999
    vertex 56.124277140731486 90.55197356340406 0.0
    vertex 56.124277140731486 89.55197356340408 0.9999999999999999
  endloop
endfacet
facet normal 1.0 -0.0 -0.0
  outer loop
    vertex 56.124277140731486 89.55197356340408 0.9999999999999999
    vertex 56.124277140731486 90.55197356340406 0.0
    vertex 56.124277140731486 89.55197356340408 7.0
  endloop
endfacet
facet normal 1.0 -0.0 -0.0
  outer loop
    vertex 56.124277140731486 89.55197356340408 7.0
    vertex 56.124277140731486 90.55197356340406 0.0
    vertex 56.124277140731486 90.55197356340406 7.0
  endloop
endfacet
facet normal 1.0 -0.0 -0.0
  outer loop
    vertex 56.124277140731486 90.55197356340406 7.0
    vertex 56.124277140731486 90.55197356340406 0.0
    vertex 56.124277140731486 90.55197356340406 6.0
  endloop
endfacet
facet normal 0.0 0.0 -1.0
  outer loop
    vertex 32.149018847008826 119.04455266336576 60.0
    vertex 49.985827294909 100.1540910586622 60.0
    vertex 32.149018847008826 79.04455266336576 60.0
  endloop
endfacet
facet normal 0.0 0.0 -1.0
  outer loop
    vertex 49.985827294909 100.1540910586622 60.0
    vertex 32.149018847008826 119.04455266336576 60.0
    vertex 72.14901884700883 119.04455266336576 60.0
  endloop
endfacet
facet normal 0.0 0.0 -1.0
  outer loop
    vertex 32.149018847008826 79.04455266336576 60.0
    vertex 49.985827294909 100.1540910586622 60.0
    vertex 49.51412463450505 99.52892569896558 60.0
  endloop
endfacet
facet normal 0.0 0.0 -1.0
  outer loop
    vertex 32.149018847008826 79.04455266336576 60.0
    vertex 49.51412463450505 99.52892569896558 60.0
    vertex 49.22029955391947 98.80297670019525 60.0
  endloop
endfacet
facet normal 0.0 0.0 -1.0
  outer loop
    vertex 32.149018847008826 79.04455266336576 60.0
    vertex 49.22029955391947 98.80297670019525 60.0
    vertex 49.12437574682525 98.02571628692996 60.0
  endloop
endfacet
facet normal 0.0 0.0 -1.0
  outer loop
    vertex 49.985827294909 100.1540910586622 60.0
    vertex 72.14901884700883 119.04455266336576 60.0
    vertex 50.603261778350294 100.63586879315639 60.0
  endloop
endfacet
facet normal 0.0 0.0 -1.0
  outer loop
    vertex 50.603261778350294 100.63586879315639 60.0
    vertex 72.14901884700883 119.04455266336576 60.0
    vertex 51.32435094514113 100.94142654601772 60.0
  endloop
endfacet
facet normal 0.0 0.0 -1.0
  outer loop
    vertex 51.32435094514113 100.94142654601772 60.0
    vertex 72.14901884700883 119.04455266336576 60.0
    vertex 52.099953760220906 101.04994106134677 60.0
  endloop
endfacet
facet normal 0.0 0.0 -1.0
  outer loop
    vertex 52.099953760220906 101.04994106134677 60.0
    vertex 72.14901884700883 119.04455266336576 60.0
    vertex 52.87721417348619 100.95401725425256 60.0
  endloop
endfacet
facet normal 0.0 0.0 -1.0
  outer loop
    vertex 52.87721417348619 100.95401725425256 60.0
    vertex 72.14901884700883 119.04455266336576 60.0
    vertex 53.603163172256515 100.66019217366697 60.0
  endloop
endfacet
facet normal 0.0 0.0 -1.0
  outer loop
    vertex 53.603163172256515 100.66019217366697 60.0
    vertex 72.14901884700883 119.04455266336576 60.0
    vertex 54.228328531953146 100.18848951326302 60.0
  endloop
endfacet
facet normal 0.0 0.0 -1.0
  outer loop
    vertex 54.228328531953146 100.18848951326302 60.0
    vertex 72.14901884700883 119.04455266336576 60.0
    vertex 54.71010626644733 99.57105502982174 60.0
  endloop
endfacet
facet normal 0.0 0.0 -1.0
  outer loop
    vertex 54.71010626644733 99.57105502982174 60.0
    vertex 72.14901884700883 119.04455266336576 60.0
    vertex 55.01566401930867 98.8499658630309 60.0
  endloop
endfacet
facet normal 0.0 0.0 -1.0
  outer loop
    vertex 55.01566401930867 98.8499658630309 60.0
    vertex 72.14901884700883 119.04455266336576 60.0
    vertex 55.12417853463771 98.07436304795112 60.0
  endloop
endfacet
facet normal 0.0 0.0 -1.0
  outer loop
    vertex 32.149018847008826 79.04455266336576 60.0
    vertex 50.02022574950983 95.91158982161807 60.0
    vertex 72.14901884700883 79.04455266336576 60.0
  endloop
endfacet
facet normal 0.0 0.0 -1.0
  outer loop
    vertex 50.02022574950983 95.91158982161807 60.0
    vertex 32.149018847008826 79.04455266336576 60.0
    vertex 49.53844801501563 96.52902430505935 60.0
  endloop
endfacet
facet normal 0.0 0.0 -1.0
  outer loop
    vertex 49.53844801501563 96.52902430505935 60.0
    vertex 32.149018847008826 79.04455266336576 60.0
    vertex 49.2328902621543 97.25011347185018 60.0
  endloop
endfacet
facet normal 0.0 0.0 -1.0
  outer loop
    vertex 49.2328902621543 97.25011347185018 60.0
    vertex 32.149018847008826 79.04455266336576 60.0
    vertex 49.12437574682525 98.02571628692996 60.0
  endloop
endfacet
facet normal 0.0 0.0 -1.0
  outer loop
    vertex 72.14901884700883 79.04455266336576 60.0
    vertex 50.02022574950983 95.91158982161807 60.0
    vertex 50.64539110920645 95.43988716121412 60.0
  endloop
endfacet
facet normal 0.0 0.0 -1.0
  outer loop
    vertex 72.14901884700883 79.04455266336576 60.0
    vertex 50.64539110920645 95.43988716121412 60.0
    vertex 51.37134010797678 95.14606208062852 60.0
  endloop
endfacet
facet normal 0.0 0.0 -1.0
  outer loop
    vertex 72.14901884700883 79.04455266336576 60.0
    vertex 51.37134010797678 95.14606208062852 60.0
    vertex 52.14860052124207 95.05013827353432 60.0
  endloop
endfacet
facet normal 0.0 0.0 -1.0
  outer loop
    vertex 72.14901884700883 79.04455266336576 60.0
    vertex 52.14860052124207 95.05013827353432 60.0
    vertex 52.92420333632184 95.15865278886336 60.0
  endloop
endfacet
facet normal 0.0 0.0 -1.0
  outer loop
    vertex 72.14901884700883 79.04455266336576 60.0
    vertex 52.92420333632184 95.15865278886336 60.0
    vertex 53.64529250311268 95.4642105417247 60.0
  endloop
endfacet
facet normal 0.0 0.0 -1.0
  outer loop
    vertex 72.14901884700883 79.04455266336576 60.0
    vertex 53.64529250311268 95.4642105417247 60.0
    vertex 54.262726986553965 95.94598827621888 60.0
  endloop
endfacet
facet normal 0.0 0.0 -1.0
  outer loop
    vertex 72.14901884700883 79.04455266336576 60.0
    vertex 54.262726986553965 95.94598827621888 60.0
    vertex 54.73442964695791 96.57115363591551 60.0
  endloop
endfacet
facet normal 0.0 0.0 -1.0
  outer loop
    vertex 72.14901884700883 79.04455266336576 60.0
    vertex 54.73442964695791 96.57115363591551 60.0
    vertex 55.028254727543505 97.29710263468584 60.0
  endloop
endfacet
facet normal 0.0 0.0 -1.0
  outer loop
    vertex 72.14901884700883 79.04455266336576 60.0
    vertex 55.028254727543505 97.29710263468584 60.0
    vertex 55.12417853463771 98.07436304795112 60.0
  endloop
endfacet
facet normal 0.0 0.0 -1.0
  outer loop
    vertex 72.14901884700883 79.04455266336576 60.0
    vertex 55.12417853463771 98.07436304795112 60.0
    vertex 72.14901884700883 119.04455266336576 60.0
  endloop
endfacet
facet normal 0.37518022958722036 0.9269518840408496 0.0
  outer loop
    vertex 52.87721417348619 100.95401725425256 60.0
    vertex 53.603163172256515 100.66019217366697 7.0
    vertex 52.87721417348619 100.95401725425256 7.0
  endloop
endfacet
facet normal 0.37518022958722036 0.9269518840408496 0.0
  outer loop
    vertex 53.603163172256515 100.66019217366697 7.0
    vertex 52.87721417348619 100.95401725425256 60.0
    vertex 53.603163172256515 100.66019217366697 60.0
  endloop
endfacet
facet normal 0.7883915518406319 0.6151737648716176 0.0
  outer loop
    vertex 54.228328531953146 100.18848951326302 7.0
    vertex 54.71010626644733 99.57105502982174 60.0
    vertex 54.71010626644733 99.57105502982174 7.0
  endloop
endfacet
facet normal 0.7883915518406319 0.6151737648716176 0.0
  outer loop
    vertex 54.71010626644733 99.57105502982174 60.0
    vertex 54.228328531953146 100.18848951326302 7.0
    vertex 54.228328531953146 100.18848951326302 60.0
  endloop
endfacet
facet normal 0.6151737648716176 -0.7883915518406319 0.0
  outer loop
    vertex 54.262726986553965 95.94598827621888 60.0
    vertex 53.64529250311268 95.4642105417247 7.0
    vertex 54.262726986553965 95.94598827621888 7.0
  endloop
endfacet
facet normal 0.6151737648716176 -0.7883915518406319 0.0
  outer loop
    vertex 53.64529250311268 95.4642105417247 7.0
    vertex 54.262726986553965 95.94598827621888 60.0
    vertex 53.64529250311268 95.4642105417247 60.0
  endloop
endfacet
facet normal -0.9207464475471792 -0.3901614785306847 -0.0
  outer loop
    vertex 49.2328902621543 97.25011347185018 60.0
    vertex 49.53844801501563 96.52902430505935 7.0
    vertex 49.53844801501563 96.52902430505935 60.0
  endloop
endfacet
facet normal -0.9207464475471792 -0.3901614785306847 -0.0
  outer loop
    vertex 49.53844801501563 96.52902430505935 7.0
    vertex 49.2328902621543 97.25011347185018 60.0
    vertex 49.2328902621543 97.25011347185018 7.0
  endloop
endfacet
facet normal 0.13856033220021882 -0.9903539944588324 0.0
  outer loop
    vertex 52.92420333632184 95.15865278886336 60.0
    vertex 52.14860052124207 95.05013827353432 7.0
    vertex 52.92420333632184 95.15865278886336 7.0
  endloop
endfacet
facet normal 0.13856033220021882 -0.9903539944588324 0.0
  outer loop
    vertex 52.14860052124207 95.05013827353432 7.0
    vertex 52.92420333632184 95.15865278886336 60.0
    vertex 52.14860052124207 95.05013827353432 60.0
  endloop
endfacet
facet normal 0.12248347178790787 0.9924705532854771 0.0
  outer loop
    vertex 52.099953760220906 101.04994106134677 60.0
    vertex 52.87721417348619 100.95401725425256 7.0
    vertex 52.099953760220906 101.04994106134677 7.0
  endloop
endfacet
facet normal 0.12248347178790787 0.9924705532854771 0.0
  outer loop
    vertex 52.87721417348619 100.95401725425256 7.0
    vertex 52.099953760220906 101.04994106134677 60.0
    vertex 52.87721417348619 100.95401725425256 60.0
  endloop
endfacet
facet normal -0.6151737648716141 0.7883915518406348 0.0
  outer loop
    vertex 49.985827294909 100.1540910586622 60.0
    vertex 50.603261778350294 100.63586879315639 7.0
    vertex 49.985827294909 100.1540910586622 7.0
  endloop
endfacet
facet normal -0.6151737648716141 0.7883915518406348 0.0
  outer loop
    vertex 50.603261778350294 100.63586879315639 7.0
    vertex 49.985827294909 100.1540910586622 60.0
    vertex 50.603261778350294 100.63586879315639 60.0
  endloop
endfacet
facet normal 0.6023090747547871 0.7982629757592622 0.0
  outer loop
    vertex 53.603163172256515 100.66019217366697 60.0
    vertex 54.228328531953146 100.18848951326302 7.0
    vertex 53.603163172256515 100.66019217366697 7.0
  endloop
endfacet
facet normal 0.6023090747547871 0.7982629757592622 0.0
  outer loop
    vertex 54.228328531953146 100.18848951326302 7.0
    vertex 53.603163172256515 100.66019217366697 60.0
    vertex 54.228328531953146 100.18848951326302 60.0
  endloop
endfacet
facet normal 0.9903539944588324 0.13856033220021882 0.0
  outer loop
    vertex 55.01566401930867 98.8499658630309 7.0
    vertex 55.12417853463771 98.07436304795112 60.0
    vertex 55.12417853463771 98.07436304795112 7.0
  endloop
endfacet
facet normal 0.9903539944588324 0.13856033220021882 0.0
  outer loop
    vertex 55.12417853463771 98.07436304795112 60.0
    vertex 55.01566401930867 98.8499658630309 7.0
    vertex 55.01566401930867 98.8499658630309 60.0
  endloop
endfacet
facet normal -0.7883915518406285 -0.615173764871622 -0.0
  outer loop
    vertex 49.53844801501563 96.52902430505935 60.0
    vertex 50.02022574950983 95.91158982161807 7.0
    vertex 50.02022574950983 95.91158982161807 60.0
  endloop
endfacet
facet normal -0.7883915518406285 -0.615173764871622 -0.0
  outer loop
    vertex 50.02022574950983 95.91158982161807 7.0
    vertex 49.53844801501563 96.52902430505935 60.0
    vertex 49.53844801501563 96.52902430505935 7.0
  endloop
endfacet
facet normal -0.13856033220021882 0.9903539944588324 0.0
  outer loop
    vertex 51.32435094514113 100.94142654601772 60.0
    vertex 52.099953760220906 101.04994106134677 7.0
    vertex 51.32435094514113 100.94142654601772 7.0
  endloop
endfacet
facet normal -0.13856033220021882 0.9903539944588324 0.0
  outer loop
    vertex 52.099953760220906 101.04994106134677 7.0
    vertex 51.32435094514113 100.94142654601772 60.0
    vertex 52.099953760220906 101.04994106134677 60.0
  endloop
endfacet
facet normal -0.12248347178790787 -0.9924705532854771 -0.0
  outer loop
    vertex 52.14860052124207 95.05013827353432 60.0
    vertex 51.37134010797678 95.14606208062852 7.0
    vertex 52.14860052124207 95.05013827353432 7.0
  endloop
endfacet
facet normal -0.12248347178790787 -0.9924705532854771 -0.0
  outer loop
    vertex 51.37134010797678 95.14606208062852 7.0
    vertex 52.14860052124207 95.05013827353432 60.0
    vertex 51.37134010797678 95.14606208062852 60.0
  endloop
endfacet
facet normal -0.9269518840408496 0.37518022958722036 0.0
  outer loop
    vertex 49.51412463450505 99.52892569896558 60.0
    vertex 49.22029955391947 98.80297670019525 7.0
    vertex 49.22029955391947 98.80297670019525 60.0
  endloop
endfacet
facet normal -0.9269518840408496 0.37518022958722036 0.0
  outer loop
    vertex 49.22029955391947 98.80297670019525 7.0
    vertex 49.51412463450505 99.52892569896558 60.0
    vertex 49.51412463450505 99.52892569896558 7.0
  endloop
endfacet
facet normal -0.3901614785306847 0.9207464475471792 0.0
  outer loop
    vertex 50.603261778350294 100.63586879315639 60.0
    vertex 51.32435094514113 100.94142654601772 7.0
    vertex 50.603261778350294 100.63586879315639 7.0
  endloop
endfacet
facet normal -0.3901614785306847 0.9207464475471792 0.0
  outer loop
    vertex 51.32435094514113 100.94142654601772 7.0
    vertex 50.603261778350294 100.63586879315639 60.0
    vertex 51.32435094514113 100.94142654601772 60.0
  endloop
endfacet
facet normal -0.9924705532854762 0.12248347178791497 0.0
  outer loop
    vertex 49.22029955391947 98.80297670019525 60.0
    vertex 49.12437574682525 98.02571628692996 7.0
    vertex 49.12437574682525 98.02571628692996 60.0
  endloop
endfacet
facet normal -0.9924705532854762 0.12248347178791497 0.0
  outer loop
    vertex 49.12437574682525 98.02571628692996 7.0
    vertex 49.22029955391947 98.80297670019525 60.0
    vertex 49.22029955391947 98.80297670019525 7.0
  endloop
endfacet
facet normal -0.9903539944588315 -0.1385603322002259 -0.0
  outer loop
    vertex 49.12437574682525 98.02571628692996 60.0
    vertex 49.2328902621543 97.25011347185018 7.0
    vertex 49.2328902621543 97.25011347185018 60.0
  endloop
endfacet
facet normal -0.9903539944588315 -0.1385603322002259 -0.0
  outer loop
    vertex 49.2328902621543 97.25011347185018 7.0
    vertex 49.12437574682525 98.02571628692996 60.0
    vertex 49.12437574682525 98.02571628692996 7.0
  endloop
endfacet
facet normal 0.9207464475471792 0.3901614785306847 0.0
  outer loop
    vertex 54.71010626644733 99.57105502982174 7.0
    vertex 55.01566401930867 98.8499658630309 60.0
    vertex 55.01566401930867 98.8499658630309 7.0
  endloop
endfacet
facet normal 0.9207464475471792 0.3901614785306847 0.0
  outer loop
    vertex 55.01566401930867 98.8499658630309 60.0
    vertex 54.71010626644733 99.57105502982174 7.0
    vertex 54.71010626644733 99.57105502982174 60.0
  endloop
endfacet
facet normal -0.6023090747547906 -0.7982629757592595 -0.0
  outer loop
    vertex 50.64539110920645 95.43988716121412 60.0
    vertex 50.02022574950983 95.91158982161807 7.0
    vertex 50.64539110920645 95.43988716121412 7.0
  endloop
endfacet
facet normal -0.6023090747547906 -0.7982629757592595 -0.0
  outer loop
    vertex 50.02022574950983 95.91158982161807 7.0
    vertex 50.64539110920645 95.43988716121412 60.0
    vertex 50.02022574950983 95.91158982161807 60.0
  endloop
endfacet
facet normal -0.7982629757592656 0.6023090747547826 0.0
  outer loop
    vertex 49.985827294909 100.1540910586622 60.0
    vertex 49.51412463450505 99.52892569896558 7.0
    vertex 49.51412463450505 99.52892569896558 60.0
  endloop
endfacet
facet normal -0.7982629757592656 0.6023090747547826 0.0
  outer loop
    vertex 49.51412463450505 99.52892569896558 7.0
    vertex 49.985827294909 100.1540910586622 60.0
    vertex 49.985827294909 100.1540910586622 7.0
  endloop
endfacet
facet normal -0.37518022958722036 -0.9269518840408496 -0.0
  outer loop
    vertex 51.37134010797678 95.14606208062852 60.0
    vertex 50.64539110920645 95.43988716121412 7.0
    vertex 51.37134010797678 95.14606208062852 7.0
  endloop
endfacet
facet normal -0.37518022958722036 -0.9269518840408496 -0.0
  outer loop
    vertex 50.64539110920645 95.43988716121412 7.0
    vertex 51.37134010797678 95.14606208062852 60.0
    vertex 50.64539110920645 95.43988716121412 60.0
  endloop
endfacet
facet normal 0.3901614785306847 -0.9207464475471792 0.0
  outer loop
    vertex 53.64529250311268 95.4642105417247 60.0
    vertex 52.92420333632184 95.15865278886336 7.0
    vertex 53.64529250311268 95.4642105417247 7.0
  endloop
endfacet
facet normal 0.3901614785306847 -0.9207464475471792 0.0
  outer loop
    vertex 52.92420333632184 95.15865278886336 7.0
    vertex 53.64529250311268 95.4642105417247 60.0
    vertex 52.92420333632184 95.15865278886336 60.0
  endloop
endfacet
facet normal 0.7982629757592622 -0.6023090747547871 0.0
  outer loop
    vertex 54.73442964695791 96.57115363591551 7.0
    vertex 54.262726986553965 95.94598827621888 60.0
    vertex 54.262726986553965 95.94598827621888 7.0
  endloop
endfacet
facet normal 0.7982629757592622 -0.6023090747547871 0.0
  outer loop
    vertex 54.262726986553965 95.94598827621888 60.0
    vertex 54.73442964695791 96.57115363591551 7.0
    vertex 54.73442964695791 96.57115363591551 60.0
  endloop
endfacet
facet normal 0.9269518840408496 -0.37518022958722036 0.0
  outer loop
    vertex 55.028254727543505 97.29710263468584 7.0
    vertex 54.73442964695791 96.57115363591551 60.0
    vertex 54.73442964695791 96.57115363591551 7.0
  endloop
endfacet
facet normal 0.9269518840408496 -0.37518022958722036 0.0
  outer loop
    vertex 54.73442964695791 96.57115363591551 60.0
    vertex 55.028254727543505 97.29710263468584 7.0
    vertex 55.028254727543505 97.29710263468584 60.0
  endloop
endfacet
facet normal 0.9924705532854771 -0.12248347178790787 0.0
  outer loop
    vertex 55.12417853463771 98.07436304795112 7.0
    vertex 55.028254727543505 97.29710263468584 60.0
    vertex 55.028254727543505 97.29710263468584 7.0
  endloop
endfacet
facet normal 0.9924705532854771 -0.12248347178790787 0.0
  outer loop
    vertex 55.028254727543505 97.29710263468584 60.0
    vertex 55.12417853463771 98.07436304795112 7.0
    vertex 55.12417853463771 98.07436304795112 60.0
  endloop
endfacet
facet normal -0.0 -0.0 1.0
  outer loop
    vertex 32.149018847008826 79.04455266336576 61.0
    vertex 72.14901884700883 119.04455266336576 61.0
    vertex 32.149018847008826 119.04455266336576 61.0
  endloop
endfacet
facet normal -0.0 -0.0 1.0
  outer loop
    vertex 72.14901884700883 119.04455266336576 61.0
    vertex 32.149018847008826 79.04455266336576 61.0
    vertex 72.14901884700883 79.04455266336576 61.0
  endloop
endfacet
facet normal 0.0 1.0 0.0
  outer loop
    vertex 32.149018847008826 119.04455266336576 61.0
    vertex 72.14901884700883 119.04455266336576 60.0
    vertex 32.149018847008826 119.04455266336576 60.0
  endloop
endfacet
facet normal 0.0 1.0 0.0
  outer loop
    vertex 72.14901884700883 119.04455266336576 60.0
    vertex 32.149018847008826 119.04455266336576 61.0
    vertex 72.14901884700883 119.04455266336576 61.0
  endloop
endfacet
facet normal -1.0 -1.409983241273949e-16 -0.0
  outer loop
    vertex 32.149018847008826 119.04455266336576 61.0
    vertex 32.149018847008826 79.04455266336576 60.0
    vertex 32.149018847008826 79.04455266336576 61.0
  endloop
endfacet
facet normal -1.0 -1.409983241273949e-16 -0.0
  outer loop
    vertex 32.149018847008826 79.04455266336576 60.0
    vertex 32.149018847008826 119.04455266336576 61.0
    vertex 32.149018847008826 119.04455266336576 60.0
  endloop
endfacet
facet normal 0.0 -1.0 0.0
  outer loop
    vertex 72.14901884700883 79.04455266336576 61.0
    vertex 32.149018847008826 79.04455266336576 60.0
    vertex 72.14901884700883 79.04455266336576 60.0
  endloop
endfacet
facet normal 0.0 -1.0 0.0
  outer loop
    vertex 32.149018847008826 79.04455266336576 60.0
    vertex 72.14901884700883 79.04455266336576 61.0
    vertex 32.149018847008826 79.04455266336576 61.0
  endloop
endfacet
facet normal 1.0 -0.0 0.0
  outer loop
    vertex 72.14901884700883 119.04455266336576 60.0
    vertex 72.14901884700883 79.04455266336576 61.0
    vertex 72.14901884700883 79.04455266336576 60.0
  endloop
endfacet
facet normal 1.0 -0.0 0.0
  outer loop
    vertex 72.14901884700883 79.04455266336576 61.0
    vertex 72.14901884700883 119.04455266336576 60.0
    vertex 72.14901884700883 119.04455266336576 61.0
  endloop
endfacet
endsolid CameraStand
