solid SonicBracket_V2
facet normal -6.35056042878852e-32 -1.3799947306468282e-33 -1.0
  outer loop
    vertex 14.694787220737362 137.81724062405226 2.5046333740767123e-30
    vertex 17.74623006222237 133.94224062405226 6.572692425845428e-31
    vertex 14.694787220737362 127.81724062405225 2.5046333740767123e-30
  endloop
endfacet
facet normal -6.35056042878852e-32 -1.3799947306468282e-33 -1.0
  outer loop
    vertex 17.74623006222237 133.94224062405226 6.572692425845428e-31
    vertex 14.694787220737362 137.81724062405226 2.5046333740767123e-30
    vertex 18.103796963067627 134.40823088172198 6.572692425845428e-31
  endloop
endfacet
facet normal -6.35056042878852e-32 -1.3799947306468282e-33 -1.0
  outer loop
    vertex 18.103796963067627 134.40823088172198 6.572692425845428e-31
    vertex 14.694787220737362 137.81724062405226 2.5046333740767123e-30
    vertex 18.56978722073736 134.76579778256726 6.572692425845428e-31
  endloop
endfacet
facet normal -6.35056042878852e-32 -1.3799947306468282e-33 -1.0
  outer loop
    vertex 18.56978722073736 134.76579778256726 6.572692425845428e-31
    vertex 14.694787220737362 137.81724062405226 2.5046333740767123e-30
    vertex 19.11244436925669 134.99057373320267 6.572692425845428e-31
  endloop
endfacet
facet normal -6.35056042878852e-32 -1.3799947306468282e-33 -1.0
  outer loop
    vertex 19.11244436925669 134.99057373320267 6.572692425845428e-31
    vertex 14.694787220737362 137.81724062405226 2.5046333740767123e-30
    vertex 19.69478722073736 135.06724062405226 6.572692425845428e-31
  endloop
endfacet
facet normal -6.35056042878852e-32 -1.3799947306468282e-33 -1.0
  outer loop
    vertex 19.69478722073736 135.06724062405226 6.572692425845428e-31
    vertex 14.694787220737362 137.81724062405226 2.5046333740767123e-30
    vertex 51.794535220737295 137.81724062405226 2.5046333740767123e-30
  endloop
endfacet
facet normal -6.35056042878852e-32 -1.3799947306468282e-33 -1.0
  outer loop
    vertex 14.694787220737362 127.81724062405225 2.5046333740767123e-30
    vertex 17.74623006222237 133.94224062405226 6.572692425845428e-31
    vertex 17.521454111586955 133.39958347553295 6.572692425845428e-31
  endloop
endfacet
facet normal -6.35056042878852e-32 -1.3799947306468282e-33 -1.0
  outer loop
    vertex 14.694787220737362 127.81724062405225 2.5046333740767123e-30
    vertex 17.521454111586955 133.39958347553295 6.572692425845428e-31
    vertex 17.44478722073736 132.81724062405226 6.572692425845428e-31
  endloop
endfacet
facet normal -6.35056042878852e-32 -1.3799947306468282e-33 -1.0
  outer loop
    vertex 19.69478722073736 135.06724062405226 6.572692425845428e-31
    vertex 51.794535220737295 137.81724062405226 2.5046333740767123e-30
    vertex 20.277130072218032 134.99057373320267 6.572692425845428e-31
  endloop
endfacet
facet normal -6.35056042878852e-32 -1.3799947306468282e-33 -1.0
  outer loop
    vertex 20.277130072218032 134.99057373320267 6.572692425845428e-31
    vertex 51.794535220737295 137.81724062405226 2.5046333740767123e-30
    vertex 20.81978722073736 134.76579778256726 6.572692425845428e-31
  endloop
endfacet
facet normal -6.35056042878852e-32 -1.3799947306468282e-33 -1.0
  outer loop
    vertex 20.81978722073736 134.76579778256726 6.572692425845428e-31
    vertex 51.794535220737295 137.81724062405226 2.5046333740767123e-30
    vertex 21.285777478407095 134.40823088172198 6.572692425845428e-31
  endloop
endfacet
facet normal -6.35056042878852e-32 -1.3799947306468282e-33 -1.0
  outer loop
    vertex 21.285777478407095 134.40823088172198 6.572692425845428e-31
    vertex 51.794535220737295 137.81724062405226 2.5046333740767123e-30
    vertex 21.643344379252348 133.94224062405226 6.572692425845428e-31
  endloop
endfacet
facet normal -6.35056042878852e-32 -1.3799947306468282e-33 -1.0
  outer loop
    vertex 21.643344379252348 133.94224062405226 6.572692425845428e-31
    vertex 51.794535220737295 137.81724062405226 2.5046333740767123e-30
    vertex 21.868120329887766 133.39958347553295 6.572692425845428e-31
  endloop
endfacet
facet normal -6.35056042878852e-32 -1.3799947306468282e-33 -1.0
  outer loop
    vertex 21.868120329887766 133.39958347553295 6.572692425845428e-31
    vertex 51.794535220737295 137.81724062405226 2.5046333740767123e-30
    vertex 21.944787220737364 132.81724062405226 6.572692425845428e-31
  endloop
endfacet
facet normal -6.35056042878852e-32 -1.3799947306468282e-33 -1.0
  outer loop
    vertex 21.944787220737364 132.81724062405226 6.572692425845428e-31
    vertex 51.794535220737295 137.81724062405226 2.5046333740767123e-30
    vertex 45.14786628973973 134.8088371103514 3.0761184651229896e-31
  endloop
endfacet
facet normal -6.35056042878852e-32 -1.3799947306468282e-33 -1.0
  outer loop
    vertex 21.944787220737364 132.81724062405226 6.572692425845428e-31
    vertex 45.14786628973973 134.8088371103514 3.0761184651229896e-31
    vertex 44.66807615459068 134.47001203005652 3.0761184651229896e-31
  endloop
endfacet
facet normal -6.35056042878852e-32 -1.3799947306468282e-33 -1.0
  outer loop
    vertex 21.944787220737364 132.81724062405226 6.572692425845428e-31
    vertex 44.66807615459068 134.47001203005652 3.0761184651229896e-31
    vertex 44.29232885559019 134.0185533097763 3.0761184651229896e-31
  endloop
endfacet
facet normal -6.35056042878852e-32 -1.3799947306468282e-33 -1.0
  outer loop
    vertex 21.944787220737364 132.81724062405226 6.572692425845428e-31
    vertex 44.29232885559019 134.0185533097763 3.0761184651229896e-31
    vertex 40.613480646359946 127.81724062405225 2.5046333740767123e-30
  endloop
endfacet
facet normal -6.35056042878852e-32 -1.3799947306468282e-33 -1.0
  outer loop
    vertex 40.613480646359946 127.81724062405225 2.5046333740767123e-30
    vertex 44.29232885559019 134.0185533097763 3.0761184651229896e-31
    vertex 44.046230950213385 133.48522711522713 3.0761184651229896e-31
  endloop
endfacet
facet normal -6.35056042878852e-32 -1.3799947306468282e-33 -1.0
  outer loop
    vertex 40.613480646359946 127.81724062405225 2.5046333740767123e-30
    vertex 44.046230950213385 133.48522711522713 3.0761184651229896e-31
    vertex 43.94655360401567 132.90637874520422 3.0761184651229896e-31
  endloop
endfacet
facet normal -6.35056042878852e-32 -1.3799947306468282e-33 -1.0
  outer loop
    vertex 45.14786628973973 134.8088371103514 3.0761184651229896e-31
    vertex 51.794535220737295 137.81724062405226 2.5046333740767123e-30
    vertex 45.69900235621763 135.0119381813738 3.0761184651229896e-31
  endloop
endfacet
facet normal -6.35056042878852e-32 -1.3799947306468282e-33 -1.0
  outer loop
    vertex 45.69900235621763 135.0119381813738 3.0761184651229896e-31
    vertex 51.794535220737295 137.81724062405226 2.5046333740767123e-30
    vertex 46.28392534188932 135.06547424077397 3.0761184651229896e-31
  endloop
endfacet
facet normal -6.35056042878852e-32 -1.3799947306468282e-33 -1.0
  outer loop
    vertex 46.28392534188932 135.06547424077397 3.0761184651229896e-31
    vertex 51.794535220737295 137.81724062405226 2.5046333740767123e-30
    vertex 46.862773711912226 134.96579689457624 3.0761184651229896e-31
  endloop
endfacet
facet normal -6.35056042878852e-32 -1.3799947306468282e-33 -1.0
  outer loop
    vertex 46.862773711912226 134.96579689457624 3.0761184651229896e-31
    vertex 51.794535220737295 137.81724062405226 2.5046333740767123e-30
    vertex 47.39609990646142 134.71969898919943 3.0761184651229896e-31
  endloop
endfacet
facet normal -6.35056042878852e-32 -1.3799947306468282e-33 -1.0
  outer loop
    vertex 47.39609990646142 134.71969898919943 3.0761184651229896e-31
    vertex 51.794535220737295 137.81724062405226 2.5046333740767123e-30
    vertex 47.84755862674161 134.34395169019894 3.0761184651229896e-31
  endloop
endfacet
facet normal -6.35056042878852e-32 -1.3799947306468282e-33 -1.0
  outer loop
    vertex 47.84755862674161 134.34395169019894 3.0761184651229896e-31
    vertex 51.794535220737295 137.81724062405226 2.5046333740767123e-30
    vertex 48.1863837070365 133.8641615550499 3.0761184651229896e-31
  endloop
endfacet
facet normal -6.35056042878852e-32 -1.3799947306468282e-33 -1.0
  outer loop
    vertex 48.1863837070365 133.8641615550499 3.0761184651229896e-31
    vertex 51.794535220737295 137.81724062405226 2.5046333740767123e-30
    vertex 48.38948477805891 133.31302548857198 3.0761184651229896e-31
  endloop
endfacet
facet normal -6.35056042878852e-32 -1.3799947306468282e-33 -1.0
  outer loop
    vertex 48.38948477805891 133.31302548857198 3.0761184651229896e-31
    vertex 51.794535220737295 137.81724062405226 2.5046333740767123e-30
    vertex 48.44302083745906 132.7281025029003 3.0761184651229896e-31
  endloop
endfacet
facet normal -6.35056042878852e-32 -1.3799947306468282e-33 -1.0
  outer loop
    vertex 81.06546106016047 82.81724062405225 1.7109191080798488e-30
    vertex 83.06546106016047 86.18721962405223 -1.1448701836712794e-30
    vertex 99.06546106016046 82.81724062405225 -1.1448701836712796e-30
  endloop
endfacet
facet normal -6.35056042878852e-32 -1.3799947306468282e-33 -1.0
  outer loop
    vertex 83.06546106016047 86.18721962405223 -1.1448701836712794e-30
    vertex 81.06546106016047 82.81724062405225 1.7109191080798488e-30
    vertex 83.06546106016047 89.18721962405223 -1.1448701836712796e-30
  endloop
endfacet
facet normal -6.35056042878852e-32 -1.3799947306468282e-33 -1.0
  outer loop
    vertex 99.06546106016046 82.81724062405225 -1.1448701836712796e-30
    vertex 83.06546106016047 86.18721962405223 -1.1448701836712794e-30
    vertex 99.43607382668965 86.18721962405222 -3.446422511155423e-30
  endloop
endfacet
facet normal -6.35056042878852e-32 -1.3799947306468282e-33 -1.0
  outer loop
    vertex 40.613480646359946 127.81724062405225 2.5046333740767123e-30
    vertex 44.54201581473311 131.2905295579056 3.0761184651229896e-31
    vertex 81.06546106016047 82.81724062405225 1.7109191080798488e-30
  endloop
endfacet
facet normal -6.35056042878852e-32 -1.3799947306468282e-33 -1.0
  outer loop
    vertex 44.54201581473311 131.2905295579056 3.0761184651229896e-31
    vertex 40.613480646359946 127.81724062405225 2.5046333740767123e-30
    vertex 44.20319073443823 131.77031969305463 3.0761184651229896e-31
  endloop
endfacet
facet normal -6.35056042878852e-32 -1.3799947306468282e-33 -1.0
  outer loop
    vertex 44.20319073443823 131.77031969305463 3.0761184651229896e-31
    vertex 40.613480646359946 127.81724062405225 2.5046333740767123e-30
    vertex 44.00008966341582 132.32145575953254 3.0761184651229896e-31
  endloop
endfacet
facet normal -6.35056042878852e-32 -1.3799947306468282e-33 -1.0
  outer loop
    vertex 44.00008966341582 132.32145575953254 3.0761184651229896e-31
    vertex 40.613480646359946 127.81724062405225 2.5046333740767123e-30
    vertex 43.94655360401567 132.90637874520422 3.0761184651229896e-31
  endloop
endfacet
facet normal -6.35056042878852e-32 -1.3799947306468282e-33 -1.0
  outer loop
    vertex 81.06546106016047 82.81724062405225 1.7109191080798488e-30
    vertex 44.54201581473311 131.2905295579056 3.0761184651229896e-31
    vertex 44.993474535013306 130.9147822589051 3.0761184651229896e-31
  endloop
endfacet
facet normal -6.35056042878852e-32 -1.3799947306468282e-33 -1.0
  outer loop
    vertex 81.06546106016047 82.81724062405225 1.7109191080798488e-30
    vertex 44.993474535013306 130.9147822589051 3.0761184651229896e-31
    vertex 45.5268007295625 130.66868435352828 3.0761184651229896e-31
  endloop
endfacet
facet normal -6.35056042878852e-32 -1.3799947306468282e-33 -1.0
  outer loop
    vertex 81.06546106016047 82.81724062405225 1.7109191080798488e-30
    vertex 45.5268007295625 130.66868435352828 3.0761184651229896e-31
    vertex 46.1056490995854 130.56900700733055 3.0761184651229896e-31
  endloop
endfacet
facet normal -6.35056042878852e-32 -1.3799947306468282e-33 -1.0
  outer loop
    vertex 81.06546106016047 82.81724062405225 1.7109191080798488e-30
    vertex 46.1056490995854 130.56900700733055 3.0761184651229896e-31
    vertex 46.69057208525709 130.6225430667307 3.0761184651229896e-31
  endloop
endfacet
facet normal -6.35056042878852e-32 -1.3799947306468282e-33 -1.0
  outer loop
    vertex 81.06546106016047 82.81724062405225 1.7109191080798488e-30
    vertex 46.69057208525709 130.6225430667307 3.0761184651229896e-31
    vertex 47.241708151735 130.82564413775313 3.0761184651229896e-31
  endloop
endfacet
facet normal -6.35056042878852e-32 -1.3799947306468282e-33 -1.0
  outer loop
    vertex 81.06546106016047 82.81724062405225 1.7109191080798488e-30
    vertex 47.241708151735 130.82564413775313 3.0761184651229896e-31
    vertex 47.72149828688405 131.164469218048 3.0761184651229896e-31
  endloop
endfacet
facet normal -6.35056042878852e-32 -1.3799947306468282e-33 -1.0
  outer loop
    vertex 81.06546106016047 82.81724062405225 1.7109191080798488e-30
    vertex 47.72149828688405 131.164469218048 3.0761184651229896e-31
    vertex 48.09724558588454 131.6159279383282 3.0761184651229896e-31
  endloop
endfacet
facet normal -6.35056042878852e-32 -1.3799947306468282e-33 -1.0
  outer loop
    vertex 81.06546106016047 82.81724062405225 1.7109191080798488e-30
    vertex 48.09724558588454 131.6159279383282 3.0761184651229896e-31
    vertex 48.34334349126134 132.14925413287742 3.0761184651229896e-31
  endloop
endfacet
facet normal -6.35056042878852e-32 -1.3799947306468282e-33 -1.0
  outer loop
    vertex 81.06546106016047 82.81724062405225 1.7109191080798488e-30
    vertex 48.34334349126134 132.14925413287742 3.0761184651229896e-31
    vertex 48.44302083745906 132.7281025029003 3.0761184651229896e-31
  endloop
endfacet
facet normal -6.35056042878852e-32 -1.3799947306468282e-33 -1.0
  outer loop
    vertex 81.06546106016047 82.81724062405225 1.7109191080798488e-30
    vertex 48.44302083745906 132.7281025029003 3.0761184651229896e-31
    vertex 51.794535220737295 137.81724062405226 2.5046333740767123e-30
  endloop
endfacet
facet normal -6.35056042878852e-32 -1.3799947306468282e-33 -1.0
  outer loop
    vertex 81.06546106016047 82.81724062405225 1.7109191080798488e-30
    vertex 51.794535220737295 137.81724062405226 2.5046333740767123e-30
    vertex 83.06546106016047 89.18721962405223 -1.1448701836712796e-30
  endloop
endfacet
facet normal -6.35056042878852e-32 -1.3799947306468282e-33 -1.0
  outer loop
    vertex 83.06546106016047 89.18721962405223 -1.1448701836712796e-30
    vertex 51.794535220737295 137.81724062405226 2.5046333740767123e-30
    vertex 84.06546106016047 91.31724062405223 1.453246817056396e-30
  endloop
endfacet
facet normal -6.35056042878852e-32 -1.3799947306468282e-33 -1.0
  outer loop
    vertex 83.06546106016047 89.18721962405223 -1.1448701836712796e-30
    vertex 84.06546106016047 91.31724062405223 1.453246817056396e-30
    vertex 99.76599822668965 89.18721962405222 -3.843726435079786e-30
  endloop
endfacet
facet normal -6.35056042878852e-32 -1.3799947306468282e-33 -1.0
  outer loop
    vertex 99.76599822668965 89.18721962405222 -3.843726435079786e-30
    vertex 84.06546106016047 91.31724062405223 1.453246817056396e-30
    vertex 100.00024686016044 91.31724062405222 -1.5417273166697115e-30
  endloop
endfacet
facet normal -6.35056042878852e-32 -1.3799947306468282e-33 -1.0
  outer loop
    vertex 14.694787220737362 127.81724062405225 2.5046333740767123e-30
    vertex 19.69478722073736 130.56724062405226 6.572692425845428e-31
    vertex 40.613480646359946 127.81724062405225 2.5046333740767123e-30
  endloop
endfacet
facet normal -6.35056042878852e-32 -1.3799947306468282e-33 -1.0
  outer loop
    vertex 19.69478722073736 130.56724062405226 6.572692425845428e-31
    vertex 14.694787220737362 127.81724062405225 2.5046333740767123e-30
    vertex 19.11244436925669 130.64390751490185 6.572692425845428e-31
  endloop
endfacet
facet normal -6.35056042878852e-32 -1.3799947306468282e-33 -1.0
  outer loop
    vertex 19.11244436925669 130.64390751490185 6.572692425845428e-31
    vertex 14.694787220737362 127.81724062405225 2.5046333740767123e-30
    vertex 18.56978722073736 130.8686834655373 6.572692425845428e-31
  endloop
endfacet
facet normal -6.35056042878852e-32 -1.3799947306468282e-33 -1.0
  outer loop
    vertex 18.56978722073736 130.8686834655373 6.572692425845428e-31
    vertex 14.694787220737362 127.81724062405225 2.5046333740767123e-30
    vertex 18.103796963067627 131.22625036638254 6.572692425845428e-31
  endloop
endfacet
facet normal -6.35056042878852e-32 -1.3799947306468282e-33 -1.0
  outer loop
    vertex 18.103796963067627 131.22625036638254 6.572692425845428e-31
    vertex 14.694787220737362 127.81724062405225 2.5046333740767123e-30
    vertex 17.746230062222374 131.69224062405226 6.572692425845428e-31
  endloop
endfacet
facet normal -6.35056042878852e-32 -1.3799947306468282e-33 -1.0
  outer loop
    vertex 17.746230062222374 131.69224062405226 6.572692425845428e-31
    vertex 14.694787220737362 127.81724062405225 2.5046333740767123e-30
    vertex 17.52145411158696 132.23489777257157 6.572692425845428e-31
  endloop
endfacet
facet normal -6.35056042878852e-32 -1.3799947306468282e-33 -1.0
  outer loop
    vertex 17.52145411158696 132.23489777257157 6.572692425845428e-31
    vertex 14.694787220737362 127.81724062405225 2.5046333740767123e-30
    vertex 17.44478722073736 132.81724062405226 6.572692425845428e-31
  endloop
endfacet
facet normal -6.35056042878852e-32 -1.3799947306468282e-33 -1.0
  outer loop
    vertex 40.613480646359946 127.81724062405225 2.5046333740767123e-30
    vertex 19.69478722073736 130.56724062405226 6.572692425845428e-31
    vertex 20.277130072218036 130.64390751490185 6.572692425845428e-31
  endloop
endfacet
facet normal -6.35056042878852e-32 -1.3799947306468282e-33 -1.0
  outer loop
    vertex 40.613480646359946 127.81724062405225 2.5046333740767123e-30
    vertex 20.277130072218036 130.64390751490185 6.572692425845428e-31
    vertex 20.81978722073736 130.8686834655373 6.572692425845428e-31
  endloop
endfacet
facet normal -6.35056042878852e-32 -1.3799947306468282e-33 -1.0
  outer loop
    vertex 40.613480646359946 127.81724062405225 2.5046333740767123e-30
    vertex 20.81978722073736 130.8686834655373 6.572692425845428e-31
    vertex 21.285777478407095 131.22625036638254 6.572692425845428e-31
  endloop
endfacet
facet normal -6.35056042878852e-32 -1.3799947306468282e-33 -1.0
  outer loop
    vertex 40.613480646359946 127.81724062405225 2.5046333740767123e-30
    vertex 21.285777478407095 131.22625036638254 6.572692425845428e-31
    vertex 21.64334437925235 131.69224062405226 6.572692425845428e-31
  endloop
endfacet
facet normal -6.35056042878852e-32 -1.3799947306468282e-33 -1.0
  outer loop
    vertex 40.613480646359946 127.81724062405225 2.5046333740767123e-30
    vertex 21.64334437925235 131.69224062405226 6.572692425845428e-31
    vertex 21.868120329887766 132.23489777257157 6.572692425845428e-31
  endloop
endfacet
facet normal -6.35056042878852e-32 -1.3799947306468282e-33 -1.0
  outer loop
    vertex 40.613480646359946 127.81724062405225 2.5046333740767123e-30
    vertex 21.868120329887766 132.23489777257157 6.572692425845428e-31
    vertex 21.944787220737364 132.81724062405226 6.572692425845428e-31
  endloop
endfacet
facet normal 6.35056042878852e-32 1.3799947306468282e-33 1.0
  outer loop
    vertex 14.694787220737362 127.81724062405225 3.0
    vertex 17.746230062222374 131.69224062405226 3.0
    vertex 14.694787220737362 137.81724062405226 3.0
  endloop
endfacet
facet normal 6.35056042878852e-32 1.3799947306468282e-33 1.0
  outer loop
    vertex 17.746230062222374 131.69224062405226 3.0
    vertex 14.694787220737362 127.81724062405225 3.0
    vertex 18.103796963067627 131.22625036638254 3.0
  endloop
endfacet
facet normal 6.35056042878852e-32 1.3799947306468282e-33 1.0
  outer loop
    vertex 18.103796963067627 131.22625036638254 3.0
    vertex 14.694787220737362 127.81724062405225 3.0
    vertex 18.56978722073736 130.8686834655373 3.0
  endloop
endfacet
facet normal 6.35056042878852e-32 1.3799947306468282e-33 1.0
  outer loop
    vertex 18.56978722073736 130.8686834655373 3.0
    vertex 14.694787220737362 127.81724062405225 3.0
    vertex 19.11244436925669 130.64390751490185 3.0
  endloop
endfacet
facet normal 6.35056042878852e-32 1.3799947306468282e-33 1.0
  outer loop
    vertex 19.11244436925669 130.64390751490185 3.0
    vertex 14.694787220737362 127.81724062405225 3.0
    vertex 19.69478722073736 130.56724062405226 3.0
  endloop
endfacet
facet normal 6.35056042878852e-32 1.3799947306468282e-33 1.0
  outer loop
    vertex 19.69478722073736 130.56724062405226 3.0
    vertex 14.694787220737362 127.81724062405225 3.0
    vertex 40.613480646359946 127.81724062405225 3.0
  endloop
endfacet
facet normal 6.35056042878852e-32 1.3799947306468282e-33 1.0
  outer loop
    vertex 14.694787220737362 137.81724062405226 3.0
    vertex 17.746230062222374 131.69224062405226 3.0
    vertex 17.52145411158696 132.23489777257157 3.0
  endloop
endfacet
facet normal 6.35056042878852e-32 1.3799947306468282e-33 1.0
  outer loop
    vertex 14.694787220737362 137.81724062405226 3.0
    vertex 17.52145411158696 132.23489777257157 3.0
    vertex 17.44478722073736 132.81724062405226 3.0
  endloop
endfacet
facet normal 6.35056042878852e-32 1.3799947306468282e-33 1.0
  outer loop
    vertex 19.69478722073736 130.56724062405226 3.0
    vertex 40.613480646359946 127.81724062405225 3.0
    vertex 20.277130072218036 130.64390751490185 3.0
  endloop
endfacet
facet normal 6.35056042878852e-32 1.3799947306468282e-33 1.0
  outer loop
    vertex 20.277130072218036 130.64390751490185 3.0
    vertex 40.613480646359946 127.81724062405225 3.0
    vertex 20.81978722073736 130.8686834655373 3.0
  endloop
endfacet
facet normal 6.35056042878852e-32 1.3799947306468282e-33 1.0
  outer loop
    vertex 20.81978722073736 130.8686834655373 3.0
    vertex 40.613480646359946 127.81724062405225 3.0
    vertex 21.285777478407095 131.22625036638254 3.0
  endloop
endfacet
facet normal 6.35056042878852e-32 1.3799947306468282e-33 1.0
  outer loop
    vertex 21.285777478407095 131.22625036638254 3.0
    vertex 40.613480646359946 127.81724062405225 3.0
    vertex 21.64334437925235 131.69224062405226 3.0
  endloop
endfacet
facet normal 6.35056042878852e-32 1.3799947306468282e-33 1.0
  outer loop
    vertex 21.64334437925235 131.69224062405226 3.0
    vertex 40.613480646359946 127.81724062405225 3.0
    vertex 21.868120329887766 132.23489777257157 3.0
  endloop
endfacet
facet normal 6.35056042878852e-32 1.3799947306468282e-33 1.0
  outer loop
    vertex 21.868120329887766 132.23489777257157 3.0
    vertex 40.613480646359946 127.81724062405225 3.0
    vertex 21.944787220737364 132.81724062405226 3.0
  endloop
endfacet
facet normal 6.35056042878852e-32 1.3799947306468282e-33 1.0
  outer loop
    vertex 99.06546106016046 82.81724062405225 3.0
    vertex 83.06546106016047 86.18721962405223 3.0
    vertex 81.06546106016047 82.81724062405225 3.0
  endloop
endfacet
facet normal 6.35056042878852e-32 1.3799947306468282e-33 1.0
  outer loop
    vertex 83.06546106016047 86.18721962405223 3.0
    vertex 99.06546106016046 82.81724062405225 3.0
    vertex 99.43607382668965 86.18721962405222 3.0
  endloop
endfacet
facet normal 6.35056042878852e-32 1.3799947306468282e-33 1.0
  outer loop
    vertex 40.613480646359946 127.81724062405225 3.0
    vertex 44.00008966341582 132.32145575953254 3.0
    vertex 43.94655360401567 132.90637874520422 3.0
  endloop
endfacet
facet normal 6.35056042878852e-32 1.3799947306468282e-33 1.0
  outer loop
    vertex 44.00008966341582 132.32145575953254 3.0
    vertex 40.613480646359946 127.81724062405225 3.0
    vertex 44.20319073443823 131.77031969305463 3.0
  endloop
endfacet
facet normal 6.35056042878852e-32 1.3799947306468282e-33 1.0
  outer loop
    vertex 44.20319073443823 131.77031969305463 3.0
    vertex 40.613480646359946 127.81724062405225 3.0
    vertex 44.54201581473311 131.2905295579056 3.0
  endloop
endfacet
facet normal 6.35056042878852e-32 1.3799947306468282e-33 1.0
  outer loop
    vertex 44.54201581473311 131.2905295579056 3.0
    vertex 40.613480646359946 127.81724062405225 3.0
    vertex 81.06546106016047 82.81724062405225 3.0
  endloop
endfacet
facet normal 6.35056042878852e-32 1.3799947306468282e-33 1.0
  outer loop
    vertex 44.54201581473311 131.2905295579056 3.0
    vertex 81.06546106016047 82.81724062405225 3.0
    vertex 44.993474535013306 130.9147822589051 3.0
  endloop
endfacet
facet normal 6.35056042878852e-32 1.3799947306468282e-33 1.0
  outer loop
    vertex 44.993474535013306 130.9147822589051 3.0
    vertex 81.06546106016047 82.81724062405225 3.0
    vertex 45.5268007295625 130.66868435352828 3.0
  endloop
endfacet
facet normal 6.35056042878852e-32 1.3799947306468282e-33 1.0
  outer loop
    vertex 45.5268007295625 130.66868435352828 3.0
    vertex 81.06546106016047 82.81724062405225 3.0
    vertex 46.1056490995854 130.56900700733055 3.0
  endloop
endfacet
facet normal 6.35056042878852e-32 1.3799947306468282e-33 1.0
  outer loop
    vertex 46.1056490995854 130.56900700733055 3.0
    vertex 81.06546106016047 82.81724062405225 3.0
    vertex 46.69057208525709 130.6225430667307 3.0
  endloop
endfacet
facet normal 6.35056042878852e-32 1.3799947306468282e-33 1.0
  outer loop
    vertex 46.69057208525709 130.6225430667307 3.0
    vertex 81.06546106016047 82.81724062405225 3.0
    vertex 47.241708151735 130.82564413775313 3.0
  endloop
endfacet
facet normal 6.35056042878852e-32 1.3799947306468282e-33 1.0
  outer loop
    vertex 47.241708151735 130.82564413775313 3.0
    vertex 81.06546106016047 82.81724062405225 3.0
    vertex 47.72149828688405 131.164469218048 3.0
  endloop
endfacet
facet normal 6.35056042878852e-32 1.3799947306468282e-33 1.0
  outer loop
    vertex 47.72149828688405 131.164469218048 3.0
    vertex 81.06546106016047 82.81724062405225 3.0
    vertex 48.09724558588454 131.6159279383282 3.0
  endloop
endfacet
facet normal 6.35056042878852e-32 1.3799947306468282e-33 1.0
  outer loop
    vertex 48.09724558588454 131.6159279383282 3.0
    vertex 81.06546106016047 82.81724062405225 3.0
    vertex 48.34334349126134 132.14925413287742 3.0
  endloop
endfacet
facet normal 6.35056042878852e-32 1.3799947306468282e-33 1.0
  outer loop
    vertex 48.34334349126134 132.14925413287742 3.0
    vertex 81.06546106016047 82.81724062405225 3.0
    vertex 48.44302083745906 132.7281025029003 3.0
  endloop
endfacet
facet normal 6.35056042878852e-32 1.3799947306468282e-33 1.0
  outer loop
    vertex 48.44302083745906 132.7281025029003 3.0
    vertex 81.06546106016047 82.81724062405225 3.0
    vertex 51.794535220737295 137.81724062405226 3.0
  endloop
endfacet
facet normal 6.35056042878852e-32 1.3799947306468282e-33 1.0
  outer loop
    vertex 51.794535220737295 137.81724062405226 3.0
    vertex 81.06546106016047 82.81724062405225 3.0
    vertex 83.06546106016047 89.18721962405223 3.0
  endloop
endfacet
facet normal 6.35056042878852e-32 1.3799947306468282e-33 1.0
  outer loop
    vertex 51.794535220737295 137.81724062405226 3.0
    vertex 83.06546106016047 89.18721962405223 3.0
    vertex 84.06546106016047 91.31724062405223 3.0
  endloop
endfacet
facet normal 6.35056042878852e-32 1.3799947306468282e-33 1.0
  outer loop
    vertex 83.06546106016047 89.18721962405223 3.0
    vertex 81.06546106016047 82.81724062405225 3.0
    vertex 83.06546106016047 86.18721962405223 3.0
  endloop
endfacet
facet normal 6.35056042878852e-32 1.3799947306468282e-33 1.0
  outer loop
    vertex 84.06546106016047 91.31724062405223 3.0
    vertex 83.06546106016047 89.18721962405223 3.0
    vertex 99.76599822668965 89.18721962405222 3.0
  endloop
endfacet
facet normal 6.35056042878852e-32 1.3799947306468282e-33 1.0
  outer loop
    vertex 84.06546106016047 91.31724062405223 3.0
    vertex 99.76599822668965 89.18721962405222 3.0
    vertex 100.00024686016044 91.31724062405222 3.0
  endloop
endfacet
facet normal 6.35056042878852e-32 1.3799947306468282e-33 1.0
  outer loop
    vertex 14.694787220737362 137.81724062405226 3.0
    vertex 19.69478722073736 135.06724062405226 3.0
    vertex 51.794535220737295 137.81724062405226 3.0
  endloop
endfacet
facet normal 6.35056042878852e-32 1.3799947306468282e-33 1.0
  outer loop
    vertex 19.69478722073736 135.06724062405226 3.0
    vertex 14.694787220737362 137.81724062405226 3.0
    vertex 19.11244436925669 134.99057373320267 3.0
  endloop
endfacet
facet normal 6.35056042878852e-32 1.3799947306468282e-33 1.0
  outer loop
    vertex 19.11244436925669 134.99057373320267 3.0
    vertex 14.694787220737362 137.81724062405226 3.0
    vertex 18.56978722073736 134.76579778256726 3.0
  endloop
endfacet
facet normal 6.35056042878852e-32 1.3799947306468282e-33 1.0
  outer loop
    vertex 18.56978722073736 134.76579778256726 3.0
    vertex 14.694787220737362 137.81724062405226 3.0
    vertex 18.103796963067627 134.40823088172198 3.0
  endloop
endfacet
facet normal 6.35056042878852e-32 1.3799947306468282e-33 1.0
  outer loop
    vertex 18.103796963067627 134.40823088172198 3.0
    vertex 14.694787220737362 137.81724062405226 3.0
    vertex 17.74623006222237 133.94224062405226 3.0
  endloop
endfacet
facet normal 6.35056042878852e-32 1.3799947306468282e-33 1.0
  outer loop
    vertex 17.74623006222237 133.94224062405226 3.0
    vertex 14.694787220737362 137.81724062405226 3.0
    vertex 17.521454111586955 133.39958347553295 3.0
  endloop
endfacet
facet normal 6.35056042878852e-32 1.3799947306468282e-33 1.0
  outer loop
    vertex 17.521454111586955 133.39958347553295 3.0
    vertex 14.694787220737362 137.81724062405226 3.0
    vertex 17.44478722073736 132.81724062405226 3.0
  endloop
endfacet
facet normal 6.35056042878852e-32 1.3799947306468282e-33 1.0
  outer loop
    vertex 51.794535220737295 137.81724062405226 3.0
    vertex 19.69478722073736 135.06724062405226 3.0
    vertex 20.277130072218032 134.99057373320267 3.0
  endloop
endfacet
facet normal 6.35056042878852e-32 1.3799947306468282e-33 1.0
  outer loop
    vertex 51.794535220737295 137.81724062405226 3.0
    vertex 20.277130072218032 134.99057373320267 3.0
    vertex 20.81978722073736 134.76579778256726 3.0
  endloop
endfacet
facet normal 6.35056042878852e-32 1.3799947306468282e-33 1.0
  outer loop
    vertex 51.794535220737295 137.81724062405226 3.0
    vertex 20.81978722073736 134.76579778256726 3.0
    vertex 21.285777478407095 134.40823088172198 3.0
  endloop
endfacet
facet normal 6.35056042878852e-32 1.3799947306468282e-33 1.0
  outer loop
    vertex 51.794535220737295 137.81724062405226 3.0
    vertex 21.285777478407095 134.40823088172198 3.0
    vertex 21.643344379252348 133.94224062405226 3.0
  endloop
endfacet
facet normal 6.35056042878852e-32 1.3799947306468282e-33 1.0
  outer loop
    vertex 51.794535220737295 137.81724062405226 3.0
    vertex 21.643344379252348 133.94224062405226 3.0
    vertex 21.868120329887766 133.39958347553295 3.0
  endloop
endfacet
facet normal 6.35056042878852e-32 1.3799947306468282e-33 1.0
  outer loop
    vertex 51.794535220737295 137.81724062405226 3.0
    vertex 21.868120329887766 133.39958347553295 3.0
    vertex 21.944787220737364 132.81724062405226 3.0
  endloop
endfacet
facet normal 6.35056042878852e-32 1.3799947306468282e-33 1.0
  outer loop
    vertex 51.794535220737295 137.81724062405226 3.0
    vertex 21.944787220737364 132.81724062405226 3.0
    vertex 45.14786628973973 134.8088371103514 3.0
  endloop
endfacet
facet normal 6.35056042878852e-32 1.3799947306468282e-33 1.0
  outer loop
    vertex 45.14786628973973 134.8088371103514 3.0
    vertex 21.944787220737364 132.81724062405226 3.0
    vertex 44.66807615459068 134.47001203005652 3.0
  endloop
endfacet
facet normal 6.35056042878852e-32 1.3799947306468282e-33 1.0
  outer loop
    vertex 44.66807615459068 134.47001203005652 3.0
    vertex 21.944787220737364 132.81724062405226 3.0
    vertex 44.29232885559019 134.0185533097763 3.0
  endloop
endfacet
facet normal 6.35056042878852e-32 1.3799947306468282e-33 1.0
  outer loop
    vertex 44.29232885559019 134.0185533097763 3.0
    vertex 21.944787220737364 132.81724062405226 3.0
    vertex 40.613480646359946 127.81724062405225 3.0
  endloop
endfacet
facet normal 6.35056042878852e-32 1.3799947306468282e-33 1.0
  outer loop
    vertex 44.29232885559019 134.0185533097763 3.0
    vertex 40.613480646359946 127.81724062405225 3.0
    vertex 44.046230950213385 133.48522711522713 3.0
  endloop
endfacet
facet normal 6.35056042878852e-32 1.3799947306468282e-33 1.0
  outer loop
    vertex 44.046230950213385 133.48522711522713 3.0
    vertex 40.613480646359946 127.81724062405225 3.0
    vertex 43.94655360401567 132.90637874520422 3.0
  endloop
endfacet
facet normal 6.35056042878852e-32 1.3799947306468282e-33 1.0
  outer loop
    vertex 51.794535220737295 137.81724062405226 3.0
    vertex 45.14786628973973 134.8088371103514 3.0
    vertex 45.69900235621763 135.0119381813738 3.0
  endloop
endfacet
facet normal 6.35056042878852e-32 1.3799947306468282e-33 1.0
  outer loop
    vertex 51.794535220737295 137.81724062405226 3.0
    vertex 45.69900235621763 135.0119381813738 3.0
    vertex 46.28392534188932 135.06547424077397 3.0
  endloop
endfacet
facet normal 6.35056042878852e-32 1.3799947306468282e-33 1.0
  outer loop
    vertex 51.794535220737295 137.81724062405226 3.0
    vertex 46.28392534188932 135.06547424077397 3.0
    vertex 46.862773711912226 134.96579689457624 3.0
  endloop
endfacet
facet normal 6.35056042878852e-32 1.3799947306468282e-33 1.0
  outer loop
    vertex 51.794535220737295 137.81724062405226 3.0
    vertex 46.862773711912226 134.96579689457624 3.0
    vertex 47.39609990646142 134.71969898919943 3.0
  endloop
endfacet
facet normal 6.35056042878852e-32 1.3799947306468282e-33 1.0
  outer loop
    vertex 51.794535220737295 137.81724062405226 3.0
    vertex 47.39609990646142 134.71969898919943 3.0
    vertex 47.84755862674161 134.34395169019894 3.0
  endloop
endfacet
facet normal 6.35056042878852e-32 1.3799947306468282e-33 1.0
  outer loop
    vertex 51.794535220737295 137.81724062405226 3.0
    vertex 47.84755862674161 134.34395169019894 3.0
    vertex 48.1863837070365 133.8641615550499 3.0
  endloop
endfacet
facet normal 6.35056042878852e-32 1.3799947306468282e-33 1.0
  outer loop
    vertex 51.794535220737295 137.81724062405226 3.0
    vertex 48.1863837070365 133.8641615550499 3.0
    vertex 48.38948477805891 133.31302548857198 3.0
  endloop
endfacet
facet normal 6.35056042878852e-32 1.3799947306468282e-33 1.0
  outer loop
    vertex 51.794535220737295 137.81724062405226 3.0
    vertex 48.38948477805891 133.31302548857198 3.0
    vertex 48.44302083745906 132.7281025029003 3.0
  endloop
endfacet
facet normal 1.0 -5.886337933389801e-78 -6.350560428788521e-32
  outer loop
    vertex 83.06546106016047 89.18721962405223 -1.1448701836712796e-30
    vertex 83.06546106016047 86.18721962405223 3.0
    vertex 83.06546106016047 86.18721962405223 -1.1448701836712794e-30
  endloop
endfacet
facet normal 1.0 -5.886337933389801e-78 -6.350560428788521e-32
  outer loop
    vertex 83.06546106016047 86.18721962405223 3.0
    vertex 83.06546106016047 89.18721962405223 -1.1448701836712796e-30
    vertex 83.06546106016047 89.18721962405223 3.0
  endloop
endfacet
facet normal 6.890313814797473e-16 1.0 -1.3799947306468718e-33
  outer loop
    vertex 83.06546106016047 86.18721962405223 -1.1448701836712794e-30
    vertex 99.43607382668965 86.18721962405222 3.0
    vertex 99.43607382668965 86.18721962405222 -3.446422511155423e-30
  endloop
endfacet
facet normal 6.890313814797473e-16 1.0 -1.3799947306468718e-33
  outer loop
    vertex 99.43607382668965 86.18721962405222 3.0
    vertex 83.06546106016047 86.18721962405223 -1.1448701836712794e-30
    vertex 83.06546106016047 86.18721962405223 3.0
  endloop
endfacet
facet normal 0.9940070780733404 -0.10931572960969703 -6.297416502864436e-32
  outer loop
    vertex 99.43607382668965 86.18721962405222 -3.446422511155423e-30
    vertex 99.06546106016046 82.81724062405225 3.0
    vertex 99.06546106016046 82.81724062405225 -1.1448701836712796e-30
  endloop
endfacet
facet normal 0.9940070780733404 -0.10931572960969703 -6.297416502864436e-32
  outer loop
    vertex 99.06546106016046 82.81724062405225 3.0
    vertex 99.43607382668965 86.18721962405222 -3.446422511155423e-30
    vertex 99.43607382668965 86.18721962405222 3.0
  endloop
endfacet
facet normal 2.1894300969189984e-64 -1.0 1.3799947306468284e-33
  outer loop
    vertex 99.06546106016046 82.81724062405225 3.0
    vertex 81.06546106016047 82.81724062405225 1.7109191080798488e-30
    vertex 99.06546106016046 82.81724062405225 -1.1448701836712796e-30
  endloop
endfacet
facet normal 2.1894300969189984e-64 -1.0 1.3799947306468284e-33
  outer loop
    vertex 81.06546106016047 82.81724062405225 1.7109191080798488e-30
    vertex 99.06546106016046 82.81724062405225 3.0
    vertex 81.06546106016047 82.81724062405225 3.0
  endloop
endfacet
facet normal -0.7436886204668356 -0.6685261668686836 4.8150957832348404e-32
  outer loop
    vertex 40.613480646359946 127.81724062405225 3.0
    vertex 81.06546106016047 82.81724062405225 1.7109191080798488e-30
    vertex 81.06546106016047 82.81724062405225 3.0
  endloop
endfacet
facet normal -0.7436886204668356 -0.6685261668686836 4.8150957832348404e-32
  outer loop
    vertex 81.06546106016047 82.81724062405225 1.7109191080798488e-30
    vertex 40.613480646359946 127.81724062405225 3.0
    vertex 40.613480646359946 127.81724062405225 2.5046333740767123e-30
  endloop
endfacet
facet normal 0.0 -1.0 1.3799947306468282e-33
  outer loop
    vertex 40.613480646359946 127.81724062405225 3.0
    vertex 14.694787220737362 127.81724062405225 2.5046333740767123e-30
    vertex 40.613480646359946 127.81724062405225 2.5046333740767123e-30
  endloop
endfacet
facet normal 0.0 -1.0 1.3799947306468282e-33
  outer loop
    vertex 14.694787220737362 127.81724062405225 2.5046333740767123e-30
    vertex 40.613480646359946 127.81724062405225 3.0
    vertex 14.694787220737362 127.81724062405225 3.0
  endloop
endfacet
facet normal -1.0 0.0 6.35056042878852e-32
  outer loop
    vertex 14.694787220737362 137.81724062405226 3.0
    vertex 14.694787220737362 127.81724062405225 2.5046333740767123e-30
    vertex 14.694787220737362 127.81724062405225 3.0
  endloop
endfacet
facet normal -1.0 0.0 6.35056042878852e-32
  outer loop
    vertex 14.694787220737362 127.81724062405225 2.5046333740767123e-30
    vertex 14.694787220737362 137.81724062405226 3.0
    vertex 14.694787220737362 137.81724062405226 2.5046333740767123e-30
  endloop
endfacet
facet normal 0.0 1.0 -1.3799947306468284e-33
  outer loop
    vertex 14.694787220737362 137.81724062405226 3.0
    vertex 51.794535220737295 137.81724062405226 2.5046333740767123e-30
    vertex 14.694787220737362 137.81724062405226 2.5046333740767123e-30
  endloop
endfacet
facet normal 0.0 1.0 -1.3799947306468284e-33
  outer loop
    vertex 51.794535220737295 137.81724062405226 2.5046333740767123e-30
    vertex 14.694787220737362 137.81724062405226 3.0
    vertex 51.794535220737295 137.81724062405226 3.0
  endloop
endfacet
facet normal 0.8215416077278187 0.5701485655265572 -5.295929826250835e-32
  outer loop
    vertex 51.794535220737295 137.81724062405226 2.5046333740767123e-30
    vertex 84.06546106016047 91.31724062405223 3.0
    vertex 84.06546106016047 91.31724062405223 1.453246817056396e-30
  endloop
endfacet
facet normal 0.8215416077278187 0.5701485655265572 -5.295929826250835e-32
  outer loop
    vertex 84.06546106016047 91.31724062405223 3.0
    vertex 51.794535220737295 137.81724062405226 2.5046333740767123e-30
    vertex 51.794535220737295 137.81724062405226 3.0
  endloop
endfacet
facet normal 7.078768470293219e-16 1.0 -1.3799947306468733e-33
  outer loop
    vertex 84.06546106016047 91.31724062405223 1.453246817056396e-30
    vertex 100.00024686016044 91.31724062405222 3.0
    vertex 100.00024686016044 91.31724062405222 -1.5417273166697115e-30
  endloop
endfacet
facet normal 7.078768470293219e-16 1.0 -1.3799947306468733e-33
  outer loop
    vertex 100.00024686016044 91.31724062405222 3.0
    vertex 84.06546106016047 91.31724062405223 1.453246817056396e-30
    vertex 84.06546106016047 91.31724062405223 3.0
  endloop
endfacet
facet normal 0.9940070780733405 -0.10931572960969632 -6.297416502864437e-32
  outer loop
    vertex 100.00024686016044 91.31724062405222 -1.5417273166697115e-30
    vertex 99.76599822668965 89.18721962405222 3.0
    vertex 99.76599822668965 89.18721962405222 -3.843726435079786e-30
  endloop
endfacet
facet normal 0.9940070780733405 -0.10931572960969632 -6.297416502864437e-32
  outer loop
    vertex 99.76599822668965 89.18721962405222 3.0
    vertex 100.00024686016044 91.31724062405222 -1.5417273166697115e-30
    vertex 100.00024686016044 91.31724062405222 3.0
  endloop
endfacet
facet normal -6.889401846444779e-16 -1.0 -5.711437618184699e-32
  outer loop
    vertex 99.76599822668965 89.18721962405222 3.0
    vertex 83.06546106016047 89.18721962405223 -1.1448701836712796e-30
    vertex 99.76599822668965 89.18721962405222 -3.843726435079786e-30
  endloop
endfacet
facet normal -6.889401846444779e-16 -1.0 -5.711437618184699e-32
  outer loop
    vertex 83.06546106016047 89.18721962405223 -1.1448701836712796e-30
    vertex 99.76599822668965 89.18721962405222 3.0
    vertex 83.06546106016047 89.18721962405223 3.0
  endloop
endfacet
facet normal -0.9238795325112846 0.3826834323650951 5.814342688116833e-32
  outer loop
    vertex 21.868120329887766 132.23489777257157 3.0
    vertex 21.64334437925235 131.69224062405226 6.572692425845428e-31
    vertex 21.64334437925235 131.69224062405226 3.0
  endloop
endfacet
facet normal -0.9238795325112846 0.3826834323650951 5.814342688116833e-32
  outer loop
    vertex 21.64334437925235 131.69224062405226 6.572692425845428e-31
    vertex 21.868120329887766 132.23489777257157 3.0
    vertex 21.868120329887766 132.23489777257157 6.572692425845428e-31
  endloop
endfacet
facet normal -0.9914448613738103 0.1305261922200525 6.278217958218732e-32
  outer loop
    vertex 21.944787220737364 132.81724062405226 3.0
    vertex 21.868120329887766 132.23489777257157 6.572692425845428e-31
    vertex 21.868120329887766 132.23489777257157 3.0
  endloop
endfacet
facet normal -0.9914448613738103 0.1305261922200525 6.278217958218732e-32
  outer loop
    vertex 21.868120329887766 132.23489777257157 6.572692425845428e-31
    vertex 21.944787220737364 132.81724062405226 3.0
    vertex 21.944787220737364 132.81724062405226 6.572692425845428e-31
  endloop
endfacet
facet normal -0.9914448613738103 -0.1305261922200525 6.314243049713746e-32
  outer loop
    vertex 21.868120329887766 133.39958347553295 3.0
    vertex 21.944787220737364 132.81724062405226 6.572692425845428e-31
    vertex 21.944787220737364 132.81724062405226 3.0
  endloop
endfacet
facet normal -0.9914448613738103 -0.1305261922200525 6.314243049713746e-32
  outer loop
    vertex 21.944787220737364 132.81724062405226 6.572692425845428e-31
    vertex 21.868120329887766 133.39958347553295 3.0
    vertex 21.868120329887766 133.39958347553295 6.572692425845428e-31
  endloop
endfacet
facet normal -0.923879532511283 -0.3826834323650993 5.919962912150758e-32
  outer loop
    vertex 21.643344379252348 133.94224062405226 3.0
    vertex 21.868120329887766 133.39958347553295 6.572692425845428e-31
    vertex 21.868120329887766 133.39958347553295 3.0
  endloop
endfacet
facet normal -0.923879532511283 -0.3826834323650993 5.919962912150758e-32
  outer loop
    vertex 21.868120329887766 133.39958347553295 6.572692425845428e-31
    vertex 21.643344379252348 133.94224062405226 3.0
    vertex 21.643344379252348 133.94224062405226 6.572692425845428e-31
  endloop
endfacet
facet normal -0.7933533402912365 -0.6087614290087189 5.122247085326026e-32
  outer loop
    vertex 21.285777478407095 134.40823088172198 3.0
    vertex 21.643344379252348 133.94224062405226 6.572692425845428e-31
    vertex 21.643344379252348 133.94224062405226 3.0
  endloop
endfacet
facet normal -0.7933533402912365 -0.6087614290087189 5.122247085326026e-32
  outer loop
    vertex 21.643344379252348 133.94224062405226 6.572692425845428e-31
    vertex 21.285777478407095 134.40823088172198 3.0
    vertex 21.285777478407095 134.40823088172198 6.572692425845428e-31
  endloop
endfacet
facet normal -0.6087614290087257 -0.7933533402912315 3.9754585845498607e-32
  outer loop
    vertex 21.285777478407095 134.40823088172198 3.0
    vertex 20.81978722073736 134.76579778256726 6.572692425845428e-31
    vertex 21.285777478407095 134.40823088172198 6.572692425845428e-31
  endloop
endfacet
facet normal -0.6087614290087257 -0.7933533402912315 3.9754585845498607e-32
  outer loop
    vertex 20.81978722073736 134.76579778256726 6.572692425845428e-31
    vertex 21.285777478407095 134.40823088172198 3.0
    vertex 20.81978722073736 134.76579778256726 3.0
  endloop
endfacet
facet normal -0.3826834323650908 -0.9238795325112865 2.557749150992516e-32
  outer loop
    vertex 20.81978722073736 134.76579778256726 3.0
    vertex 20.277130072218032 134.99057373320267 6.572692425845428e-31
    vertex 20.81978722073736 134.76579778256726 6.572692425845428e-31
  endloop
endfacet
facet normal -0.3826834323650908 -0.9238795325112865 2.557749150992516e-32
  outer loop
    vertex 20.277130072218032 134.99057373320267 6.572692425845428e-31
    vertex 20.81978722073736 134.76579778256726 3.0
    vertex 20.277130072218032 134.99057373320267 3.0
  endloop
endfacet
facet normal -0.13052619222006379 -0.9914448613738088 9.657333396754541e-33
  outer loop
    vertex 20.277130072218032 134.99057373320267 3.0
    vertex 19.69478722073736 135.06724062405226 6.572692425845428e-31
    vertex 20.277130072218032 134.99057373320267 6.572692425845428e-31
  endloop
endfacet
facet normal -0.13052619222006379 -0.9914448613738088 9.657333396754541e-33
  outer loop
    vertex 19.69478722073736 135.06724062405226 6.572692425845428e-31
    vertex 20.277130072218032 134.99057373320267 3.0
    vertex 19.69478722073736 135.06724062405226 3.0
  endloop
endfacet
facet normal 0.13052619222006318 -0.9914448613738089 -6.92095602790904e-33
  outer loop
    vertex 19.69478722073736 135.06724062405226 3.0
    vertex 19.11244436925669 134.99057373320267 6.572692425845428e-31
    vertex 19.69478722073736 135.06724062405226 6.572692425845428e-31
  endloop
endfacet
facet normal 0.13052619222006318 -0.9914448613738089 -6.92095602790904e-33
  outer loop
    vertex 19.11244436925669 134.99057373320267 6.572692425845428e-31
    vertex 19.69478722073736 135.06724062405226 3.0
    vertex 19.11244436925669 134.99057373320267 3.0
  endloop
endfacet
facet normal 0.3826834323650908 -0.9238795325112865 -2.3027593736689102e-32
  outer loop
    vertex 19.11244436925669 134.99057373320267 3.0
    vertex 18.56978722073736 134.76579778256726 6.572692425845428e-31
    vertex 19.11244436925669 134.99057373320267 6.572692425845428e-31
  endloop
endfacet
facet normal 0.3826834323650908 -0.9238795325112865 -2.3027593736689102e-32
  outer loop
    vertex 18.56978722073736 134.76579778256726 6.572692425845428e-31
    vertex 19.11244436925669 134.99057373320267 3.0
    vertex 18.56978722073736 134.76579778256726 3.0
  endloop
endfacet
facet normal 0.6087614290087279 -0.7933533402912296 -3.756493898721283e-32
  outer loop
    vertex 18.56978722073736 134.76579778256726 3.0
    vertex 18.103796963067627 134.40823088172198 6.572692425845428e-31
    vertex 18.56978722073736 134.76579778256726 6.572692425845428e-31
  endloop
endfacet
facet normal 0.6087614290087279 -0.7933533402912296 -3.756493898721283e-32
  outer loop
    vertex 18.103796963067627 134.40823088172198 6.572692425845428e-31
    vertex 18.56978722073736 134.76579778256726 3.0
    vertex 18.103796963067627 134.40823088172198 3.0
  endloop
endfacet
facet normal 0.7933533402912343 -0.6087614290087219 -4.954229572475399e-32
  outer loop
    vertex 18.103796963067627 134.40823088172198 6.572692425845428e-31
    vertex 17.74623006222237 133.94224062405226 3.0
    vertex 17.74623006222237 133.94224062405226 6.572692425845428e-31
  endloop
endfacet
facet normal 0.7933533402912343 -0.6087614290087219 -4.954229572475399e-32
  outer loop
    vertex 17.74623006222237 133.94224062405226 3.0
    vertex 18.103796963067627 134.40823088172198 6.572692425845428e-31
    vertex 18.103796963067627 134.40823088172198 3.0
  endloop
endfacet
facet normal 0.923879532511283 -0.3826834323650993 -5.814342688116822e-32
  outer loop
    vertex 17.74623006222237 133.94224062405226 6.572692425845428e-31
    vertex 17.521454111586955 133.39958347553295 3.0
    vertex 17.521454111586955 133.39958347553295 6.572692425845428e-31
  endloop
endfacet
facet normal 0.923879532511283 -0.3826834323650993 -5.814342688116822e-32
  outer loop
    vertex 17.521454111586955 133.39958347553295 3.0
    vertex 17.74623006222237 133.94224062405226 6.572692425845428e-31
    vertex 17.74623006222237 133.94224062405226 3.0
  endloop
endfacet
facet normal 0.9914448613738109 -0.13052619222004777 -6.278217958218738e-32
  outer loop
    vertex 17.521454111586955 133.39958347553295 6.572692425845428e-31
    vertex 17.44478722073736 132.81724062405226 3.0
    vertex 17.44478722073736 132.81724062405226 6.572692425845428e-31
  endloop
endfacet
facet normal 0.9914448613738109 -0.13052619222004777 -6.278217958218738e-32
  outer loop
    vertex 17.44478722073736 132.81724062405226 3.0
    vertex 17.521454111586955 133.39958347553295 6.572692425845428e-31
    vertex 17.521454111586955 133.39958347553295 3.0
  endloop
endfacet
facet normal 0.9914448613738103 0.1305261922200525 -6.314243049713746e-32
  outer loop
    vertex 17.44478722073736 132.81724062405226 6.572692425845428e-31
    vertex 17.52145411158696 132.23489777257157 3.0
    vertex 17.52145411158696 132.23489777257157 6.572692425845428e-31
  endloop
endfacet
facet normal 0.9914448613738103 0.1305261922200525 -6.314243049713746e-32
  outer loop
    vertex 17.52145411158696 132.23489777257157 3.0
    vertex 17.44478722073736 132.81724062405226 6.572692425845428e-31
    vertex 17.44478722073736 132.81724062405226 3.0
  endloop
endfacet
facet normal 0.923879532511283 0.3826834323650993 -5.919962912150758e-32
  outer loop
    vertex 17.52145411158696 132.23489777257157 6.572692425845428e-31
    vertex 17.746230062222374 131.69224062405226 3.0
    vertex 17.746230062222374 131.69224062405226 6.572692425845428e-31
  endloop
endfacet
facet normal 0.923879532511283 0.3826834323650993 -5.919962912150758e-32
  outer loop
    vertex 17.746230062222374 131.69224062405226 3.0
    vertex 17.52145411158696 132.23489777257157 6.572692425845428e-31
    vertex 17.52145411158696 132.23489777257157 3.0
  endloop
endfacet
facet normal 0.7933533402912365 0.6087614290087189 -5.122247085326026e-32
  outer loop
    vertex 17.746230062222374 131.69224062405226 6.572692425845428e-31
    vertex 18.103796963067627 131.22625036638254 3.0
    vertex 18.103796963067627 131.22625036638254 6.572692425845428e-31
  endloop
endfacet
facet normal 0.7933533402912365 0.6087614290087189 -5.122247085326026e-32
  outer loop
    vertex 18.103796963067627 131.22625036638254 3.0
    vertex 17.746230062222374 131.69224062405226 6.572692425845428e-31
    vertex 17.746230062222374 131.69224062405226 3.0
  endloop
endfacet
facet normal 0.6087614290087279 0.7933533402912296 -3.9754585845498744e-32
  outer loop
    vertex 18.103796963067627 131.22625036638254 3.0
    vertex 18.56978722073736 130.8686834655373 6.572692425845428e-31
    vertex 18.103796963067627 131.22625036638254 6.572692425845428e-31
  endloop
endfacet
facet normal 0.6087614290087279 0.7933533402912296 -3.9754585845498744e-32
  outer loop
    vertex 18.56978722073736 130.8686834655373 6.572692425845428e-31
    vertex 18.103796963067627 131.22625036638254 3.0
    vertex 18.56978722073736 130.8686834655373 3.0
  endloop
endfacet
facet normal 0.382683432365089 0.9238795325112872 -2.5577491509925055e-32
  outer loop
    vertex 18.56978722073736 130.8686834655373 3.0
    vertex 19.11244436925669 130.64390751490185 6.572692425845428e-31
    vertex 18.56978722073736 130.8686834655373 6.572692425845428e-31
  endloop
endfacet
facet normal 0.382683432365089 0.9238795325112872 -2.5577491509925055e-32
  outer loop
    vertex 19.11244436925669 130.64390751490185 6.572692425845428e-31
    vertex 18.56978722073736 130.8686834655373 3.0
    vertex 19.11244436925669 130.64390751490185 3.0
  endloop
endfacet
facet normal 0.13052619222006379 0.9914448613738088 -9.657333396754541e-33
  outer loop
    vertex 19.11244436925669 130.64390751490185 3.0
    vertex 19.69478722073736 130.56724062405226 6.572692425845428e-31
    vertex 19.11244436925669 130.64390751490185 6.572692425845428e-31
  endloop
endfacet
facet normal 0.13052619222006379 0.9914448613738088 -9.657333396754541e-33
  outer loop
    vertex 19.69478722073736 130.56724062405226 6.572692425845428e-31
    vertex 19.11244436925669 130.64390751490185 3.0
    vertex 19.69478722073736 130.56724062405226 3.0
  endloop
endfacet
facet normal -0.13052619222006318 0.9914448613738089 6.92095602790904e-33
  outer loop
    vertex 19.69478722073736 130.56724062405226 3.0
    vertex 20.277130072218036 130.64390751490185 6.572692425845428e-31
    vertex 19.69478722073736 130.56724062405226 6.572692425845428e-31
  endloop
endfacet
facet normal -0.13052619222006318 0.9914448613738089 6.92095602790904e-33
  outer loop
    vertex 20.277130072218036 130.64390751490185 6.572692425845428e-31
    vertex 19.69478722073736 130.56724062405226 3.0
    vertex 20.277130072218036 130.64390751490185 3.0
  endloop
endfacet
facet normal -0.3826834323650908 0.9238795325112865 2.3027593736689102e-32
  outer loop
    vertex 20.277130072218036 130.64390751490185 3.0
    vertex 20.81978722073736 130.8686834655373 6.572692425845428e-31
    vertex 20.277130072218036 130.64390751490185 6.572692425845428e-31
  endloop
endfacet
facet normal -0.3826834323650908 0.9238795325112865 2.3027593736689102e-32
  outer loop
    vertex 20.81978722073736 130.8686834655373 6.572692425845428e-31
    vertex 20.277130072218036 130.64390751490185 3.0
    vertex 20.81978722073736 130.8686834655373 3.0
  endloop
endfacet
facet normal -0.6087614290087279 0.7933533402912296 3.756493898721283e-32
  outer loop
    vertex 20.81978722073736 130.8686834655373 3.0
    vertex 21.285777478407095 131.22625036638254 6.572692425845428e-31
    vertex 20.81978722073736 130.8686834655373 6.572692425845428e-31
  endloop
endfacet
facet normal -0.6087614290087279 0.7933533402912296 3.756493898721283e-32
  outer loop
    vertex 21.285777478407095 131.22625036638254 6.572692425845428e-31
    vertex 20.81978722073736 130.8686834655373 3.0
    vertex 21.285777478407095 131.22625036638254 3.0
  endloop
endfacet
facet normal -0.7933533402912343 0.6087614290087219 4.954229572475399e-32
  outer loop
    vertex 21.64334437925235 131.69224062405226 3.0
    vertex 21.285777478407095 131.22625036638254 6.572692425845428e-31
    vertex 21.285777478407095 131.22625036638254 3.0
  endloop
endfacet
facet normal -0.7933533402912343 0.6087614290087219 4.954229572475399e-32
  outer loop
    vertex 21.285777478407095 131.22625036638254 6.572692425845428e-31
    vertex 21.64334437925235 131.69224062405226 3.0
    vertex 21.64334437925235 131.69224062405226 6.572692425845428e-31
  endloop
endfacet
facet normal -0.9854954697470927 0.16970173572464492 6.235029782818078e-32
  outer loop
    vertex 48.44302083745906 132.7281025029003 3.0
    vertex 48.34334349126134 132.14925413287742 3.0761184651229896e-31
    vertex 48.34334349126134 132.14925413287742 3.0
  endloop
endfacet
facet normal -0.9854954697470927 0.16970173572464492 6.235029782818078e-32
  outer loop
    vertex 48.34334349126134 132.14925413287742 3.0761184651229896e-31
    vertex 48.44302083745906 132.7281025029003 3.0
    vertex 48.44302083745906 132.7281025029003 3.0761184651229896e-31
  endloop
endfacet
facet normal -0.9958375671120855 -0.09114570713030296 6.336704706759131e-32
  outer loop
    vertex 48.38948477805891 133.31302548857198 3.0
    vertex 48.44302083745906 132.7281025029003 3.0761184651229896e-31
    vertex 48.44302083745906 132.7281025029003 3.0
  endloop
endfacet
facet normal -0.9958375671120855 -0.09114570713030296 6.336704706759131e-32
  outer loop
    vertex 48.44302083745906 132.7281025029003 3.0761184651229896e-31
    vertex 48.38948477805891 133.31302548857198 3.0
    vertex 48.38948477805891 133.31302548857198 3.0761184651229896e-31
  endloop
endfacet
facet normal -0.9383149799777805 -0.34578172066969914 6.006543676834202e-32
  outer loop
    vertex 48.1863837070365 133.8641615550499 3.0
    vertex 48.38948477805891 133.31302548857198 3.0761184651229896e-31
    vertex 48.38948477805891 133.31302548857198 3.0
  endloop
endfacet
facet normal -0.9383149799777805 -0.34578172066969914 6.006543676834202e-32
  outer loop
    vertex 48.38948477805891 133.31302548857198 3.0761184651229896e-31
    vertex 48.1863837070365 133.8641615550499 3.0
    vertex 48.1863837070365 133.8641615550499 3.0761184651229896e-31
  endloop
endfacet
facet normal -0.8168477775968085 -0.5768532813767768 5.267046621615765e-32
  outer loop
    vertex 47.84755862674161 134.34395169019894 3.0
    vertex 48.1863837070365 133.8641615550499 3.0761184651229896e-31
    vertex 48.1863837070365 133.8641615550499 3.0
  endloop
endfacet
facet normal -0.8168477775968085 -0.5768532813767768 5.267046621615765e-32
  outer loop
    vertex 48.1863837070365 133.8641615550499 3.0761184651229896e-31
    vertex 47.84755862674161 134.34395169019894 3.0
    vertex 47.84755862674161 134.34395169019894 3.0761184651229896e-31
  endloop
endfacet
facet normal -0.6397137490774057 -0.7686132442531354 4.16860904334039e-32
  outer loop
    vertex 47.84755862674161 134.34395169019894 3.0
    vertex 47.39609990646142 134.71969898919943 3.0761184651229896e-31
    vertex 47.84755862674161 134.34395169019894 3.0761184651229896e-31
  endloop
endfacet
facet normal -0.6397137490774057 -0.7686132442531354 4.16860904334039e-32
  outer loop
    vertex 47.39609990646142 134.71969898919943 3.0761184651229896e-31
    vertex 47.84755862674161 134.34395169019894 3.0
    vertex 47.39609990646142 134.71969898919943 3.0
  endloop
endfacet
facet normal -0.41898428573530677 -0.907993484727107 2.786087647713367e-32
  outer loop
    vertex 47.39609990646142 134.71969898919943 3.0
    vertex 46.862773711912226 134.96579689457624 3.0761184651229896e-31
    vertex 47.39609990646142 134.71969898919943 3.0761184651229896e-31
  endloop
endfacet
facet normal -0.41898428573530677 -0.907993484727107 2.786087647713367e-32
  outer loop
    vertex 46.862773711912226 134.96579689457624 3.0761184651229896e-31
    vertex 47.39609990646142 134.71969898919943 3.0
    vertex 46.862773711912226 134.96579689457624 3.0
  endloop
endfacet
facet normal -0.16970173572462144 -0.9854954697470967 1.2136989831222394e-32
  outer loop
    vertex 46.862773711912226 134.96579689457624 3.0
    vertex 46.28392534188932 135.06547424077397 3.0761184651229896e-31
    vertex 46.862773711912226 134.96579689457624 3.0761184651229896e-31
  endloop
endfacet
facet normal -0.16970173572462144 -0.9854954697470967 1.2136989831222394e-32
  outer loop
    vertex 46.28392534188932 135.06547424077397 3.0761184651229896e-31
    vertex 46.862773711912226 134.96579689457624 3.0
    vertex 46.28392534188932 135.06547424077397 3.0
  endloop
endfacet
facet normal 0.09114570713028479 -0.9958375671120872 -4.414012614360505e-33
  outer loop
    vertex 46.28392534188932 135.06547424077397 3.0
    vertex 45.69900235621763 135.0119381813738 3.0761184651229896e-31
    vertex 46.28392534188932 135.06547424077397 3.0761184651229896e-31
  endloop
endfacet
facet normal 0.09114570713028479 -0.9958375671120872 -4.414012614360505e-33
  outer loop
    vertex 45.69900235621763 135.0119381813738 3.0761184651229896e-31
    vertex 46.28392534188932 135.06547424077397 3.0
    vertex 45.69900235621763 135.0119381813738 3.0
  endloop
endfacet
facet normal 0.34578172066972446 -0.938314979977771 -2.0664207394779268e-32
  outer loop
    vertex 45.69900235621763 135.0119381813738 3.0
    vertex 45.14786628973973 134.8088371103514 3.0761184651229896e-31
    vertex 45.69900235621763 135.0119381813738 3.0761184651229896e-31
  endloop
endfacet
facet normal 0.34578172066972446 -0.938314979977771 -2.0664207394779268e-32
  outer loop
    vertex 45.14786628973973 134.8088371103514 3.0761184651229896e-31
    vertex 45.69900235621763 135.0119381813738 3.0
    vertex 45.14786628973973 134.8088371103514 3.0
  endloop
endfacet
facet normal 0.5768532813767641 -0.8168477775968176 -3.550617059045669e-32
  outer loop
    vertex 45.14786628973973 134.8088371103514 3.0
    vertex 44.66807615459068 134.47001203005652 3.0761184651229896e-31
    vertex 45.14786628973973 134.8088371103514 3.0761184651229896e-31
  endloop
endfacet
facet normal 0.5768532813767641 -0.8168477775968176 -3.550617059045669e-32
  outer loop
    vertex 44.66807615459068 134.47001203005652 3.0761184651229896e-31
    vertex 45.14786628973973 134.8088371103514 3.0
    vertex 44.66807615459068 134.47001203005652 3.0
  endloop
endfacet
facet normal 0.7686132442531488 -0.6397137490773896 -4.7928446937118996e-32
  outer loop
    vertex 44.66807615459068 134.47001203005652 3.0761184651229896e-31
    vertex 44.29232885559019 134.0185533097763 3.0
    vertex 44.29232885559019 134.0185533097763 3.0761184651229896e-31
  endloop
endfacet
facet normal 0.7686132442531488 -0.6397137490773896 -4.7928446937118996e-32
  outer loop
    vertex 44.29232885559019 134.0185533097763 3.0
    vertex 44.66807615459068 134.47001203005652 3.0761184651229896e-31
    vertex 44.66807615459068 134.47001203005652 3.0
  endloop
endfacet
facet normal 0.9079934847271036 -0.41898428573531404 -5.70844788305188e-32
  outer loop
    vertex 44.29232885559019 134.0185533097763 3.0761184651229896e-31
    vertex 44.046230950213385 133.48522711522713 3.0
    vertex 44.046230950213385 133.48522711522713 3.0761184651229896e-31
  endloop
endfacet
facet normal 0.9079934847271036 -0.41898428573531404 -5.70844788305188e-32
  outer loop
    vertex 44.046230950213385 133.48522711522713 3.0
    vertex 44.29232885559019 134.0185533097763 3.0761184651229896e-31
    vertex 44.29232885559019 134.0185533097763 3.0
  endloop
endfacet
facet normal 0.9854954697470939 -0.16970173572463848 -6.235029782818087e-32
  outer loop
    vertex 44.046230950213385 133.48522711522713 3.0761184651229896e-31
    vertex 43.94655360401567 132.90637874520422 3.0
    vertex 43.94655360401567 132.90637874520422 3.0761184651229896e-31
  endloop
endfacet
facet normal 0.9854954697470939 -0.16970173572463848 -6.235029782818087e-32
  outer loop
    vertex 43.94655360401567 132.90637874520422 3.0
    vertex 44.046230950213385 133.48522711522713 3.0761184651229896e-31
    vertex 44.046230950213385 133.48522711522713 3.0
  endloop
endfacet
facet normal 0.9958375671120855 0.09114570713030296 -6.336704706759131e-32
  outer loop
    vertex 43.94655360401567 132.90637874520422 3.0761184651229896e-31
    vertex 44.00008966341582 132.32145575953254 3.0
    vertex 44.00008966341582 132.32145575953254 3.0761184651229896e-31
  endloop
endfacet
facet normal 0.9958375671120855 0.09114570713030296 -6.336704706759131e-32
  outer loop
    vertex 44.00008966341582 132.32145575953254 3.0
    vertex 43.94655360401567 132.90637874520422 3.0761184651229896e-31
    vertex 43.94655360401567 132.90637874520422 3.0
  endloop
endfacet
facet normal 0.9383149799777805 0.34578172066969914 -6.006543676834202e-32
  outer loop
    vertex 44.00008966341582 132.32145575953254 3.0761184651229896e-31
    vertex 44.20319073443823 131.77031969305463 3.0
    vertex 44.20319073443823 131.77031969305463 3.0761184651229896e-31
  endloop
endfacet
facet normal 0.9383149799777805 0.34578172066969914 -6.006543676834202e-32
  outer loop
    vertex 44.20319073443823 131.77031969305463 3.0
    vertex 44.00008966341582 132.32145575953254 3.0761184651229896e-31
    vertex 44.00008966341582 132.32145575953254 3.0
  endloop
endfacet
facet normal 0.8168477775968085 0.5768532813767768 -5.267046621615765e-32
  outer loop
    vertex 44.20319073443823 131.77031969305463 3.0761184651229896e-31
    vertex 44.54201581473311 131.2905295579056 3.0
    vertex 44.54201581473311 131.2905295579056 3.0761184651229896e-31
  endloop
endfacet
facet normal 0.8168477775968085 0.5768532813767768 -5.267046621615765e-32
  outer loop
    vertex 44.54201581473311 131.2905295579056 3.0
    vertex 44.20319073443823 131.77031969305463 3.0761184651229896e-31
    vertex 44.20319073443823 131.77031969305463 3.0
  endloop
endfacet
facet normal 0.6397137490773831 0.7686132442531544 -4.168609043340249e-32
  outer loop
    vertex 44.54201581473311 131.2905295579056 3.0
    vertex 44.993474535013306 130.9147822589051 3.0761184651229896e-31
    vertex 44.54201581473311 131.2905295579056 3.0761184651229896e-31
  endloop
endfacet
facet normal 0.6397137490773831 0.7686132442531544 -4.168609043340249e-32
  outer loop
    vertex 44.993474535013306 130.9147822589051 3.0761184651229896e-31
    vertex 44.54201581473311 131.2905295579056 3.0
    vertex 44.993474535013306 130.9147822589051 3.0
  endloop
endfacet
facet normal 0.41898428573533847 0.9079934847270924 -2.7860876477135667e-32
  outer loop
    vertex 44.993474535013306 130.9147822589051 3.0
    vertex 45.5268007295625 130.66868435352828 3.0761184651229896e-31
    vertex 44.993474535013306 130.9147822589051 3.0761184651229896e-31
  endloop
endfacet
facet normal 0.41898428573533847 0.9079934847270924 -2.7860876477135667e-32
  outer loop
    vertex 45.5268007295625 130.66868435352828 3.0761184651229896e-31
    vertex 44.993474535013306 130.9147822589051 3.0
    vertex 45.5268007295625 130.66868435352828 3.0
  endloop
endfacet
facet normal 0.16970173572462144 0.9854954697470967 -1.2136989831222394e-32
  outer loop
    vertex 45.5268007295625 130.66868435352828 3.0
    vertex 46.1056490995854 130.56900700733055 3.0761184651229896e-31
    vertex 45.5268007295625 130.66868435352828 3.0761184651229896e-31
  endloop
endfacet
facet normal 0.16970173572462144 0.9854954697470967 -1.2136989831222394e-32
  outer loop
    vertex 46.1056490995854 130.56900700733055 3.0761184651229896e-31
    vertex 45.5268007295625 130.66868435352828 3.0
    vertex 46.1056490995854 130.56900700733055 3.0
  endloop
endfacet
facet normal -0.09114570713028564 0.9958375671120869 4.414012614360559e-33
  outer loop
    vertex 46.1056490995854 130.56900700733055 3.0
    vertex 46.69057208525709 130.6225430667307 3.0761184651229896e-31
    vertex 46.1056490995854 130.56900700733055 3.0761184651229896e-31
  endloop
endfacet
facet normal -0.09114570713028564 0.9958375671120869 4.414012614360559e-33
  outer loop
    vertex 46.69057208525709 130.6225430667307 3.0761184651229896e-31
    vertex 46.1056490995854 130.56900700733055 3.0
    vertex 46.69057208525709 130.6225430667307 3.0
  endloop
endfacet
facet normal -0.34578172066972135 0.9383149799777721 2.0664207394779068e-32
  outer loop
    vertex 46.69057208525709 130.6225430667307 3.0
    vertex 47.241708151735 130.82564413775313 3.0761184651229896e-31
    vertex 46.69057208525709 130.6225430667307 3.0761184651229896e-31
  endloop
endfacet
facet normal -0.34578172066972135 0.9383149799777721 2.0664207394779068e-32
  outer loop
    vertex 47.241708151735 130.82564413775313 3.0761184651229896e-31
    vertex 46.69057208525709 130.6225430667307 3.0
    vertex 47.241708151735 130.82564413775313 3.0
  endloop
endfacet
facet normal -0.5768532813767641 0.8168477775968176 3.550617059045669e-32
  outer loop
    vertex 47.241708151735 130.82564413775313 3.0
    vertex 47.72149828688405 131.164469218048 3.0761184651229896e-31
    vertex 47.241708151735 130.82564413775313 3.0761184651229896e-31
  endloop
endfacet
facet normal -0.5768532813767641 0.8168477775968176 3.550617059045669e-32
  outer loop
    vertex 47.72149828688405 131.164469218048 3.0761184651229896e-31
    vertex 47.241708151735 130.82564413775313 3.0
    vertex 47.72149828688405 131.164469218048 3.0
  endloop
endfacet
facet normal -0.7686132442531488 0.6397137490773896 4.7928446937118996e-32
  outer loop
    vertex 48.09724558588454 131.6159279383282 3.0
    vertex 47.72149828688405 131.164469218048 3.0761184651229896e-31
    vertex 47.72149828688405 131.164469218048 3.0
  endloop
endfacet
facet normal -0.7686132442531488 0.6397137490773896 4.7928446937118996e-32
  outer loop
    vertex 47.72149828688405 131.164469218048 3.0761184651229896e-31
    vertex 48.09724558588454 131.6159279383282 3.0
    vertex 48.09724558588454 131.6159279383282 3.0761184651229896e-31
  endloop
endfacet
facet normal -0.9079934847271104 0.4189842857352995 5.708447883051926e-32
  outer loop
    vertex 48.34334349126134 132.14925413287742 3.0
    vertex 48.09724558588454 131.6159279383282 3.0761184651229896e-31
    vertex 48.09724558588454 131.6159279383282 3.0
  endloop
endfacet
facet normal -0.9079934847271104 0.4189842857352995 5.708447883051926e-32
  outer loop
    vertex 48.09724558588454 131.6159279383282 3.0761184651229896e-31
    vertex 48.34334349126134 132.14925413287742 3.0
    vertex 48.34334349126134 132.14925413287742 3.0761184651229896e-31
  endloop
endfacet
endsolid SonicBracket_V2
