solid SupportTest
facet normal 0.0 0.0 -1.0
  outer loop
    vertex 11.597298229421952 7.606502977905588 0.0
    vertex 8.597298229421952 4.606502977905588 0.0
    vertex 8.597298229421952 7.606502977905588 0.0
  endloop
endfacet
facet normal 0.0 0.0 -1.0
  outer loop
    vertex 8.597298229421952 4.606502977905588 0.0
    vertex 11.597298229421952 7.606502977905588 0.0
    vertex 11.597298229421952 4.606502977905588 0.0
  endloop
endfacet
facet normal -0.0 -0.0 1.0
  outer loop
    vertex 14.597298229421952 4.606502977905588 20.0
    vertex 11.597298229421952 7.606502977905588 20.0
    vertex 11.597298229421952 4.606502977905588 20.0
  endloop
endfacet
facet normal -0.0 -0.0 1.0
  outer loop
    vertex 11.597298229421952 7.606502977905588 20.0
    vertex 14.597298229421952 4.606502977905588 20.0
    vertex 14.597298229421952 7.606502977905588 20.0
  endloop
endfacet
facet normal -0.0 -0.0 1.0
  outer loop
    vertex 11.597298229421952 -7.3934970220944125 20.0
    vertex 8.597298229421952 4.606502977905588 20.0
    vertex 8.597298229421952 -7.3934970220944125 20.0
  endloop
endfacet
facet normal -0.0 -0.0 1.0
  outer loop
    vertex 8.597298229421952 4.606502977905588 20.0
    vertex 11.597298229421952 -7.3934970220944125 20.0
    vertex 8.597298229421952 7.606502977905588 20.0
  endloop
endfacet
facet normal -0.0 -0.0 1.0
  outer loop
    vertex 8.597298229421952 7.606502977905588 20.0
    vertex 11.597298229421952 -7.3934970220944125 20.0
    vertex 8.597298229421952 13.606502977905588 20.0
  endloop
endfacet
facet normal -0.0 -0.0 1.0
  outer loop
    vertex 8.597298229421952 13.606502977905588 20.0
    vertex 11.597298229421952 -7.3934970220944125 20.0
    vertex 11.597298229421952 13.606502977905588 20.0
  endloop
endfacet
facet normal -0.0 -0.0 1.0
  outer loop
    vertex 11.597298229421952 13.606502977905588 20.0
    vertex 11.597298229421952 -7.3934970220944125 20.0
    vertex 11.597298229421952 4.606502977905588 20.0
  endloop
endfacet
facet normal -0.0 -0.0 1.0
  outer loop
    vertex 11.597298229421952 13.606502977905588 20.0
    vertex 11.597298229421952 4.606502977905588 20.0
    vertex 11.597298229421952 7.606502977905588 20.0
  endloop
endfacet
facet normal -0.0 -0.0 1.0
  outer loop
    vertex 8.597298229421952 4.606502977905588 20.0
    vertex -0.4027017705780479 7.606502977905588 20.0
    vertex -0.4027017705780479 4.606502977905588 20.0
  endloop
endfacet
facet normal -0.0 -0.0 1.0
  outer loop
    vertex -0.4027017705780479 7.606502977905588 20.0
    vertex 8.597298229421952 4.606502977905588 20.0
    vertex 8.597298229421952 7.606502977905588 20.0
  endloop
endfacet
facet normal -1.0 0.0 0.0
  outer loop
    vertex 8.597298229421952 13.606502977905588 20.0
    vertex 8.597298229421952 7.606502977905588 17.0
    vertex 8.597298229421952 7.606502977905588 20.0
  endloop
endfacet
facet normal -1.0 0.0 0.0
  outer loop
    vertex 8.597298229421952 7.606502977905588 17.0
    vertex 8.597298229421952 13.606502977905588 20.0
    vertex 8.597298229421952 13.606502977905588 17.0
  endloop
endfacet
facet normal -0.0 1.0 -0.0
  outer loop
    vertex 11.597298229421952 7.606502977905588 20.0
    vertex 14.597298229421952 7.606502977905588 17.0
    vertex 11.597298229421952 7.606502977905588 17.0
  endloop
endfacet
facet normal -0.0 1.0 -0.0
  outer loop
    vertex 14.597298229421952 7.606502977905588 17.0
    vertex 11.597298229421952 7.606502977905588 20.0
    vertex 14.597298229421952 7.606502977905588 20.0
  endloop
endfacet
facet normal 0.0 -1.0 0.0
  outer loop
    vertex 8.597298229421952 4.606502977905588 20.0
    vertex -0.4027017705780479 4.606502977905588 17.0
    vertex 8.597298229421952 4.606502977905588 17.0
  endloop
endfacet
facet normal 0.0 -1.0 0.0
  outer loop
    vertex -0.4027017705780479 4.606502977905588 17.0
    vertex 8.597298229421952 4.606502977905588 20.0
    vertex -0.4027017705780479 4.606502977905588 20.0
  endloop
endfacet
facet normal 0.0 -1.0 0.0
  outer loop
    vertex 11.597298229421952 4.606502977905588 17.0
    vertex 8.597298229421952 4.606502977905588 0.0
    vertex 11.597298229421952 4.606502977905588 0.0
  endloop
endfacet
facet normal 0.0 -1.0 0.0
  outer loop
    vertex 8.597298229421952 4.606502977905588 0.0
    vertex 11.597298229421952 4.606502977905588 17.0
    vertex 8.597298229421952 4.606502977905588 17.0
  endloop
endfacet
facet normal -0.0 1.0 -0.0
  outer loop
    vertex 8.597298229421952 7.606502977905588 17.0
    vertex 11.597298229421952 7.606502977905588 0.0
    vertex 8.597298229421952 7.606502977905588 0.0
  endloop
endfacet
facet normal -0.0 1.0 -0.0
  outer loop
    vertex 11.597298229421952 7.606502977905588 0.0
    vertex 8.597298229421952 7.606502977905588 17.0
    vertex 11.597298229421952 7.606502977905588 17.0
  endloop
endfacet
facet normal -1.0 0.0 0.0
  outer loop
    vertex 8.597298229421952 7.606502977905588 17.0
    vertex 8.597298229421952 4.606502977905588 0.0
    vertex 8.597298229421952 4.606502977905588 17.0
  endloop
endfacet
facet normal -1.0 0.0 0.0
  outer loop
    vertex 8.597298229421952 4.606502977905588 0.0
    vertex 8.597298229421952 7.606502977905588 17.0
    vertex 8.597298229421952 7.606502977905588 0.0
  endloop
endfacet
facet normal 1.0 -0.0 -0.0
  outer loop
    vertex 11.597298229421952 7.606502977905588 0.0
    vertex 11.597298229421952 4.606502977905588 17.0
    vertex 11.597298229421952 4.606502977905588 0.0
  endloop
endfacet
facet normal 1.0 -0.0 -0.0
  outer loop
    vertex 11.597298229421952 4.606502977905588 17.0
    vertex 11.597298229421952 7.606502977905588 0.0
    vertex 11.597298229421952 7.606502977905588 17.0
  endloop
endfacet
facet normal -0.0 -0.0 1.0
  outer loop
    vertex 11.597298229421952 4.606502977905588 17.0
    vertex 8.597298229421952 7.606502977905588 17.0
    vertex 8.597298229421952 4.606502977905588 17.0
  endloop
endfacet
facet normal -0.0 -0.0 1.0
  outer loop
    vertex 8.597298229421952 7.606502977905588 17.0
    vertex 11.597298229421952 4.606502977905588 17.0
    vertex 11.597298229421952 7.606502977905588 17.0
  endloop
endfacet
facet normal 1.0 0.0 0.0
  outer loop
    vertex 14.597298229421952 7.606502977905588 17.0
    vertex 14.597298229421952 4.606502977905588 20.0
    vertex 14.597298229421952 4.606502977905588 17.0
  endloop
endfacet
facet normal 1.0 0.0 0.0
  outer loop
    vertex 14.597298229421952 4.606502977905588 20.0
    vertex 14.597298229421952 7.606502977905588 17.0
    vertex 14.597298229421952 7.606502977905588 20.0
  endloop
endfacet
facet normal 0.0 0.0 -1.0
  outer loop
    vertex 14.597298229421952 7.606502977905588 17.0
    vertex 11.597298229421952 4.606502977905588 17.0
    vertex 11.597298229421952 7.606502977905588 17.0
  endloop
endfacet
facet normal 0.0 0.0 -1.0
  outer loop
    vertex 11.597298229421952 4.606502977905588 17.0
    vertex 14.597298229421952 7.606502977905588 17.0
    vertex 14.597298229421952 4.606502977905588 17.0
  endloop
endfacet
facet normal 0.0 1.0 0.0
  outer loop
    vertex 8.597298229421952 13.606502977905588 20.0
    vertex 11.597298229421952 13.606502977905588 17.0
    vertex 8.597298229421952 13.606502977905588 17.0
  endloop
endfacet
facet normal 0.0 1.0 0.0
  outer loop
    vertex 11.597298229421952 13.606502977905588 17.0
    vertex 8.597298229421952 13.606502977905588 20.0
    vertex 11.597298229421952 13.606502977905588 20.0
  endloop
endfacet
facet normal 1.0 0.0 0.0
  outer loop
    vertex 11.597298229421952 13.606502977905588 17.0
    vertex 11.597298229421952 7.606502977905588 20.0
    vertex 11.597298229421952 7.606502977905588 17.0
  endloop
endfacet
facet normal 1.0 0.0 0.0
  outer loop
    vertex 11.597298229421952 7.606502977905588 20.0
    vertex 11.597298229421952 13.606502977905588 17.0
    vertex 11.597298229421952 13.606502977905588 20.0
  endloop
endfacet
facet normal -0.0 -0.0 -1.0
  outer loop
    vertex 11.597298229421952 13.606502977905588 17.0
    vertex 8.597298229421952 7.606502977905588 17.0
    vertex 8.597298229421952 13.606502977905588 17.0
  endloop
endfacet
facet normal -0.0 -0.0 -1.0
  outer loop
    vertex 8.597298229421952 7.606502977905588 17.0
    vertex 11.597298229421952 13.606502977905588 17.0
    vertex 11.597298229421952 7.606502977905588 17.0
  endloop
endfacet
facet normal -1.0 0.0 0.0
  outer loop
    vertex -0.4027017705780479 7.606502977905588 20.0
    vertex -0.4027017705780479 4.606502977905588 17.0
    vertex -0.4027017705780479 4.606502977905588 20.0
  endloop
endfacet
facet normal -1.0 0.0 0.0
  outer loop
    vertex -0.4027017705780479 4.606502977905588 17.0
    vertex -0.4027017705780479 7.606502977905588 20.0
    vertex -0.4027017705780479 7.606502977905588 17.0
  endloop
endfacet
facet normal 0.0 1.0 0.0
  outer loop
    vertex -0.4027017705780479 7.606502977905588 20.0
    vertex 8.597298229421952 7.606502977905588 17.0
    vertex -0.4027017705780479 7.606502977905588 17.0
  endloop
endfacet
facet normal 0.0 1.0 0.0
  outer loop
    vertex 8.597298229421952 7.606502977905588 17.0
    vertex -0.4027017705780479 7.606502977905588 20.0
    vertex 8.597298229421952 7.606502977905588 20.0
  endloop
endfacet
facet normal -0.0 -0.0 -1.0
  outer loop
    vertex 8.597298229421952 7.606502977905588 17.0
    vertex -0.4027017705780479 4.606502977905588 17.0
    vertex -0.4027017705780479 7.606502977905588 17.0
  endloop
endfacet
facet normal -0.0 -0.0 -1.0
  outer loop
    vertex -0.4027017705780479 4.606502977905588 17.0
    vertex 8.597298229421952 7.606502977905588 17.0
    vertex 8.597298229421952 4.606502977905588 17.0
  endloop
endfacet
facet normal 0.0 -1.0 0.0
  outer loop
    vertex 14.597298229421952 4.606502977905588 20.0
    vertex 11.597298229421952 4.606502977905588 17.0
    vertex 14.597298229421952 4.606502977905588 17.0
  endloop
endfacet
facet normal 0.0 -1.0 0.0
  outer loop
    vertex 11.597298229421952 4.606502977905588 17.0
    vertex 14.597298229421952 4.606502977905588 20.0
    vertex 11.597298229421952 4.606502977905588 20.0
  endloop
endfacet
facet normal 0.0 -1.0 0.0
  outer loop
    vertex 11.597298229421952 -7.3934970220944125 20.0
    vertex 8.597298229421952 -7.3934970220944125 17.0
    vertex 11.597298229421952 -7.3934970220944125 17.0
  endloop
endfacet
facet normal 0.0 -1.0 0.0
  outer loop
    vertex 8.597298229421952 -7.3934970220944125 17.0
    vertex 11.597298229421952 -7.3934970220944125 20.0
    vertex 8.597298229421952 -7.3934970220944125 20.0
  endloop
endfacet
facet normal 0.0 0.0 -1.0
  outer loop
    vertex 11.597298229421952 4.606502977905588 17.0
    vertex 8.597298229421952 -7.3934970220944125 17.0
    vertex 8.597298229421952 4.606502977905588 17.0
  endloop
endfacet
facet normal 0.0 0.0 -1.0
  outer loop
    vertex 8.597298229421952 -7.3934970220944125 17.0
    vertex 11.597298229421952 4.606502977905588 17.0
    vertex 11.597298229421952 -7.3934970220944125 17.0
  endloop
endfacet
facet normal 1.0 0.0 -0.0
  outer loop
    vertex 11.597298229421952 4.606502977905588 17.0
    vertex 11.597298229421952 -7.3934970220944125 20.0
    vertex 11.597298229421952 -7.3934970220944125 17.0
  endloop
endfacet
facet normal 1.0 0.0 -0.0
  outer loop
    vertex 11.597298229421952 -7.3934970220944125 20.0
    vertex 11.597298229421952 4.606502977905588 17.0
    vertex 11.597298229421952 4.606502977905588 20.0
  endloop
endfacet
facet normal -1.0 -0.0 -0.0
  outer loop
    vertex 8.597298229421952 4.606502977905588 20.0
    vertex 8.597298229421952 -7.3934970220944125 17.0
    vertex 8.597298229421952 -7.3934970220944125 20.0
  endloop
endfacet
facet normal -1.0 -0.0 -0.0
  outer loop
    vertex 8.597298229421952 -7.3934970220944125 17.0
    vertex 8.597298229421952 4.606502977905588 20.0
    vertex 8.597298229421952 4.606502977905588 17.0
  endloop
endfacet
endsolid SupportTest
