G04 #@! TF.GenerationSoftware,KiCad,Pcbnew,(5.1.5)-3*
G04 #@! TF.CreationDate,2020-02-27T11:18:57-07:00*
G04 #@! TF.ProjectId,matildaboard,6d617469-6c64-4616-926f-6172642e6b69,rev?*
G04 #@! TF.SameCoordinates,Original*
G04 #@! TF.FileFunction,Copper,L2,Bot*
G04 #@! TF.FilePolarity,Positive*
%FSLAX46Y46*%
G04 Gerber Fmt 4.6, Leading zero omitted, Abs format (unit mm)*
G04 Created by KiCad (PCBNEW (5.1.5)-3) date 2020-02-27 11:18:57*
%MOMM*%
%LPD*%
G04 APERTURE LIST*
%ADD10C,0.700000*%
%ADD11C,4.400000*%
%ADD12C,2.000000*%
%ADD13R,1.700000X1.700000*%
%ADD14O,1.700000X1.700000*%
%ADD15C,0.254000*%
G04 APERTURE END LIST*
D10*
X141882726Y-106021274D03*
X140716000Y-105538000D03*
X139549274Y-106021274D03*
X139066000Y-107188000D03*
X139549274Y-108354726D03*
X140716000Y-108838000D03*
X141882726Y-108354726D03*
X142366000Y-107188000D03*
D11*
X140716000Y-107188000D03*
D10*
X169695726Y-48236274D03*
X168529000Y-47753000D03*
X167362274Y-48236274D03*
X166879000Y-49403000D03*
X167362274Y-50569726D03*
X168529000Y-51053000D03*
X169695726Y-50569726D03*
X170179000Y-49403000D03*
D11*
X168529000Y-49403000D03*
D12*
X147828000Y-87884000D03*
X147828000Y-90424000D03*
X147828000Y-92964000D03*
X147828000Y-95504000D03*
X147828000Y-98044000D03*
X147828000Y-100584000D03*
X147828000Y-103124000D03*
X147828000Y-105664000D03*
X161544000Y-103124000D03*
X161544000Y-100584000D03*
X161544000Y-98044000D03*
X161544000Y-95504000D03*
X161544000Y-92964000D03*
X161544000Y-90424000D03*
X157988000Y-87884000D03*
X152908000Y-87884000D03*
D13*
X120650000Y-49530000D03*
D14*
X123190000Y-49530000D03*
X125730000Y-49530000D03*
X128270000Y-49530000D03*
X130810000Y-49530000D03*
X133350000Y-49530000D03*
X135890000Y-49530000D03*
X138430000Y-49530000D03*
X140970000Y-49530000D03*
D13*
X167640000Y-95250000D03*
D14*
X167640000Y-97790000D03*
X167640000Y-100330000D03*
X167640000Y-102870000D03*
D12*
X132588000Y-92964000D03*
X130048000Y-92964000D03*
X127508000Y-92964000D03*
X124968000Y-92964000D03*
X122428000Y-92964000D03*
X147828000Y-49530000D03*
X162052000Y-49530000D03*
X147828000Y-76962000D03*
X162052000Y-76962000D03*
D15*
G36*
X170053000Y-92717032D02*
G01*
X170053000Y-106572415D01*
X147338646Y-110358140D01*
X143276238Y-108415249D01*
X143442052Y-108014939D01*
X143551000Y-107467223D01*
X143551000Y-106908777D01*
X143442052Y-106361061D01*
X143228344Y-105845124D01*
X142918088Y-105380793D01*
X142523207Y-104985912D01*
X142058876Y-104675656D01*
X141542939Y-104461948D01*
X140995223Y-104353000D01*
X140436777Y-104353000D01*
X139889061Y-104461948D01*
X139373124Y-104675656D01*
X138908793Y-104985912D01*
X138513912Y-105380793D01*
X138203656Y-105845124D01*
X138153834Y-105965404D01*
X118237000Y-96439962D01*
X118237000Y-92802967D01*
X120793000Y-92802967D01*
X120793000Y-93125033D01*
X120855832Y-93440912D01*
X120979082Y-93738463D01*
X121158013Y-94006252D01*
X121385748Y-94233987D01*
X121653537Y-94412918D01*
X121951088Y-94536168D01*
X122266967Y-94599000D01*
X122589033Y-94599000D01*
X122904912Y-94536168D01*
X123202463Y-94412918D01*
X123470252Y-94233987D01*
X123697987Y-94006252D01*
X123698000Y-94006233D01*
X123698013Y-94006252D01*
X123925748Y-94233987D01*
X124193537Y-94412918D01*
X124491088Y-94536168D01*
X124806967Y-94599000D01*
X125129033Y-94599000D01*
X125444912Y-94536168D01*
X125742463Y-94412918D01*
X126010252Y-94233987D01*
X126144826Y-94099413D01*
X126552192Y-94099413D01*
X126647956Y-94363814D01*
X126937571Y-94504704D01*
X127249108Y-94586384D01*
X127570595Y-94605718D01*
X127889675Y-94561961D01*
X128194088Y-94456795D01*
X128368044Y-94363814D01*
X128463808Y-94099413D01*
X127508000Y-93143605D01*
X126552192Y-94099413D01*
X126144826Y-94099413D01*
X126237987Y-94006252D01*
X126310720Y-93897400D01*
X126372587Y-93919808D01*
X127328395Y-92964000D01*
X127687605Y-92964000D01*
X128643413Y-93919808D01*
X128705280Y-93897400D01*
X128778013Y-94006252D01*
X129005748Y-94233987D01*
X129273537Y-94412918D01*
X129571088Y-94536168D01*
X129886967Y-94599000D01*
X130209033Y-94599000D01*
X130524912Y-94536168D01*
X130822463Y-94412918D01*
X131090252Y-94233987D01*
X131317987Y-94006252D01*
X131318000Y-94006233D01*
X131318013Y-94006252D01*
X131545748Y-94233987D01*
X131813537Y-94412918D01*
X132111088Y-94536168D01*
X132426967Y-94599000D01*
X132749033Y-94599000D01*
X133064912Y-94536168D01*
X133362463Y-94412918D01*
X133630252Y-94233987D01*
X133857987Y-94006252D01*
X134036918Y-93738463D01*
X134160168Y-93440912D01*
X134223000Y-93125033D01*
X134223000Y-92802967D01*
X146193000Y-92802967D01*
X146193000Y-93125033D01*
X146255832Y-93440912D01*
X146379082Y-93738463D01*
X146558013Y-94006252D01*
X146785748Y-94233987D01*
X146785767Y-94234000D01*
X146785748Y-94234013D01*
X146558013Y-94461748D01*
X146379082Y-94729537D01*
X146255832Y-95027088D01*
X146193000Y-95342967D01*
X146193000Y-95665033D01*
X146255832Y-95980912D01*
X146379082Y-96278463D01*
X146558013Y-96546252D01*
X146785748Y-96773987D01*
X146785767Y-96774000D01*
X146785748Y-96774013D01*
X146558013Y-97001748D01*
X146379082Y-97269537D01*
X146255832Y-97567088D01*
X146193000Y-97882967D01*
X146193000Y-98205033D01*
X146255832Y-98520912D01*
X146379082Y-98818463D01*
X146558013Y-99086252D01*
X146785748Y-99313987D01*
X146785767Y-99314000D01*
X146785748Y-99314013D01*
X146558013Y-99541748D01*
X146379082Y-99809537D01*
X146255832Y-100107088D01*
X146193000Y-100422967D01*
X146193000Y-100745033D01*
X146255832Y-101060912D01*
X146379082Y-101358463D01*
X146558013Y-101626252D01*
X146785748Y-101853987D01*
X146785767Y-101854000D01*
X146785748Y-101854013D01*
X146558013Y-102081748D01*
X146379082Y-102349537D01*
X146255832Y-102647088D01*
X146193000Y-102962967D01*
X146193000Y-103285033D01*
X146255832Y-103600912D01*
X146379082Y-103898463D01*
X146558013Y-104166252D01*
X146785748Y-104393987D01*
X146785767Y-104394000D01*
X146785748Y-104394013D01*
X146558013Y-104621748D01*
X146379082Y-104889537D01*
X146255832Y-105187088D01*
X146193000Y-105502967D01*
X146193000Y-105825033D01*
X146255832Y-106140912D01*
X146379082Y-106438463D01*
X146558013Y-106706252D01*
X146785748Y-106933987D01*
X147053537Y-107112918D01*
X147351088Y-107236168D01*
X147666967Y-107299000D01*
X147989033Y-107299000D01*
X148304912Y-107236168D01*
X148602463Y-107112918D01*
X148870252Y-106933987D01*
X149097987Y-106706252D01*
X149276918Y-106438463D01*
X149400168Y-106140912D01*
X149463000Y-105825033D01*
X149463000Y-105502967D01*
X149400168Y-105187088D01*
X149276918Y-104889537D01*
X149097987Y-104621748D01*
X148870252Y-104394013D01*
X148870233Y-104394000D01*
X148870252Y-104393987D01*
X149097987Y-104166252D01*
X149276918Y-103898463D01*
X149400168Y-103600912D01*
X149463000Y-103285033D01*
X149463000Y-102962967D01*
X149400168Y-102647088D01*
X149276918Y-102349537D01*
X149097987Y-102081748D01*
X148870252Y-101854013D01*
X148870233Y-101854000D01*
X148870252Y-101853987D01*
X149097987Y-101626252D01*
X149276918Y-101358463D01*
X149400168Y-101060912D01*
X149463000Y-100745033D01*
X149463000Y-100422967D01*
X149400168Y-100107088D01*
X149276918Y-99809537D01*
X149097987Y-99541748D01*
X148870252Y-99314013D01*
X148870233Y-99314000D01*
X148870252Y-99313987D01*
X149097987Y-99086252D01*
X149276918Y-98818463D01*
X149400168Y-98520912D01*
X149463000Y-98205033D01*
X149463000Y-97882967D01*
X149400168Y-97567088D01*
X149276918Y-97269537D01*
X149097987Y-97001748D01*
X148870252Y-96774013D01*
X148870233Y-96774000D01*
X148870252Y-96773987D01*
X149097987Y-96546252D01*
X149276918Y-96278463D01*
X149400168Y-95980912D01*
X149463000Y-95665033D01*
X149463000Y-95342967D01*
X149400168Y-95027088D01*
X149276918Y-94729537D01*
X149097987Y-94461748D01*
X148870252Y-94234013D01*
X148870233Y-94234000D01*
X148870252Y-94233987D01*
X149097987Y-94006252D01*
X149276918Y-93738463D01*
X149400168Y-93440912D01*
X149463000Y-93125033D01*
X149463000Y-92802967D01*
X149400168Y-92487088D01*
X149276918Y-92189537D01*
X149097987Y-91921748D01*
X148870252Y-91694013D01*
X148761400Y-91621280D01*
X148783808Y-91559413D01*
X147828000Y-90603605D01*
X146872192Y-91559413D01*
X146894600Y-91621280D01*
X146785748Y-91694013D01*
X146558013Y-91921748D01*
X146379082Y-92189537D01*
X146255832Y-92487088D01*
X146193000Y-92802967D01*
X134223000Y-92802967D01*
X134160168Y-92487088D01*
X134036918Y-92189537D01*
X133857987Y-91921748D01*
X133630252Y-91694013D01*
X133362463Y-91515082D01*
X133064912Y-91391832D01*
X132749033Y-91329000D01*
X132426967Y-91329000D01*
X132111088Y-91391832D01*
X131813537Y-91515082D01*
X131545748Y-91694013D01*
X131318013Y-91921748D01*
X131318000Y-91921767D01*
X131317987Y-91921748D01*
X131090252Y-91694013D01*
X130822463Y-91515082D01*
X130524912Y-91391832D01*
X130209033Y-91329000D01*
X129886967Y-91329000D01*
X129571088Y-91391832D01*
X129273537Y-91515082D01*
X129005748Y-91694013D01*
X128778013Y-91921748D01*
X128705280Y-92030600D01*
X128643413Y-92008192D01*
X127687605Y-92964000D01*
X127328395Y-92964000D01*
X126372587Y-92008192D01*
X126310720Y-92030600D01*
X126237987Y-91921748D01*
X126144826Y-91828587D01*
X126552192Y-91828587D01*
X127508000Y-92784395D01*
X128463808Y-91828587D01*
X128368044Y-91564186D01*
X128078429Y-91423296D01*
X127766892Y-91341616D01*
X127445405Y-91322282D01*
X127126325Y-91366039D01*
X126821912Y-91471205D01*
X126647956Y-91564186D01*
X126552192Y-91828587D01*
X126144826Y-91828587D01*
X126010252Y-91694013D01*
X125742463Y-91515082D01*
X125444912Y-91391832D01*
X125129033Y-91329000D01*
X124806967Y-91329000D01*
X124491088Y-91391832D01*
X124193537Y-91515082D01*
X123925748Y-91694013D01*
X123698013Y-91921748D01*
X123698000Y-91921767D01*
X123697987Y-91921748D01*
X123470252Y-91694013D01*
X123202463Y-91515082D01*
X122904912Y-91391832D01*
X122589033Y-91329000D01*
X122266967Y-91329000D01*
X121951088Y-91391832D01*
X121653537Y-91515082D01*
X121385748Y-91694013D01*
X121158013Y-91921748D01*
X120979082Y-92189537D01*
X120855832Y-92487088D01*
X120793000Y-92802967D01*
X118237000Y-92802967D01*
X118237000Y-90486595D01*
X146186282Y-90486595D01*
X146230039Y-90805675D01*
X146335205Y-91110088D01*
X146428186Y-91284044D01*
X146692587Y-91379808D01*
X147648395Y-90424000D01*
X148007605Y-90424000D01*
X148963413Y-91379808D01*
X149227814Y-91284044D01*
X149368704Y-90994429D01*
X149450384Y-90682892D01*
X149469718Y-90361405D01*
X149456219Y-90262967D01*
X159909000Y-90262967D01*
X159909000Y-90585033D01*
X159971832Y-90900912D01*
X160095082Y-91198463D01*
X160274013Y-91466252D01*
X160501748Y-91693987D01*
X160501767Y-91694000D01*
X160501748Y-91694013D01*
X160274013Y-91921748D01*
X160095082Y-92189537D01*
X159971832Y-92487088D01*
X159909000Y-92802967D01*
X159909000Y-93125033D01*
X159971832Y-93440912D01*
X160095082Y-93738463D01*
X160274013Y-94006252D01*
X160501748Y-94233987D01*
X160501767Y-94234000D01*
X160501748Y-94234013D01*
X160274013Y-94461748D01*
X160095082Y-94729537D01*
X159971832Y-95027088D01*
X159909000Y-95342967D01*
X159909000Y-95665033D01*
X159971832Y-95980912D01*
X160095082Y-96278463D01*
X160274013Y-96546252D01*
X160501748Y-96773987D01*
X160501767Y-96774000D01*
X160501748Y-96774013D01*
X160274013Y-97001748D01*
X160095082Y-97269537D01*
X159971832Y-97567088D01*
X159909000Y-97882967D01*
X159909000Y-98205033D01*
X159971832Y-98520912D01*
X160095082Y-98818463D01*
X160274013Y-99086252D01*
X160501748Y-99313987D01*
X160501767Y-99314000D01*
X160501748Y-99314013D01*
X160274013Y-99541748D01*
X160095082Y-99809537D01*
X159971832Y-100107088D01*
X159909000Y-100422967D01*
X159909000Y-100745033D01*
X159971832Y-101060912D01*
X160095082Y-101358463D01*
X160274013Y-101626252D01*
X160501748Y-101853987D01*
X160501767Y-101854000D01*
X160501748Y-101854013D01*
X160274013Y-102081748D01*
X160095082Y-102349537D01*
X159971832Y-102647088D01*
X159909000Y-102962967D01*
X159909000Y-103285033D01*
X159971832Y-103600912D01*
X160095082Y-103898463D01*
X160274013Y-104166252D01*
X160501748Y-104393987D01*
X160769537Y-104572918D01*
X161067088Y-104696168D01*
X161382967Y-104759000D01*
X161705033Y-104759000D01*
X162020912Y-104696168D01*
X162318463Y-104572918D01*
X162586252Y-104393987D01*
X162813987Y-104166252D01*
X162992918Y-103898463D01*
X163116168Y-103600912D01*
X163179000Y-103285033D01*
X163179000Y-102962967D01*
X163116168Y-102647088D01*
X162992918Y-102349537D01*
X162813987Y-102081748D01*
X162586252Y-101854013D01*
X162586233Y-101854000D01*
X162586252Y-101853987D01*
X162813987Y-101626252D01*
X162992918Y-101358463D01*
X163116168Y-101060912D01*
X163179000Y-100745033D01*
X163179000Y-100422967D01*
X163116168Y-100107088D01*
X162992918Y-99809537D01*
X162813987Y-99541748D01*
X162586252Y-99314013D01*
X162586233Y-99314000D01*
X162586252Y-99313987D01*
X162813987Y-99086252D01*
X162992918Y-98818463D01*
X163116168Y-98520912D01*
X163179000Y-98205033D01*
X163179000Y-97882967D01*
X163116168Y-97567088D01*
X162992918Y-97269537D01*
X162813987Y-97001748D01*
X162586252Y-96774013D01*
X162586233Y-96774000D01*
X162586252Y-96773987D01*
X162813987Y-96546252D01*
X162992918Y-96278463D01*
X163116168Y-95980912D01*
X163179000Y-95665033D01*
X163179000Y-95342967D01*
X163116168Y-95027088D01*
X162992918Y-94729537D01*
X162813987Y-94461748D01*
X162752239Y-94400000D01*
X166151928Y-94400000D01*
X166151928Y-96100000D01*
X166164188Y-96224482D01*
X166200498Y-96344180D01*
X166259463Y-96454494D01*
X166338815Y-96551185D01*
X166435506Y-96630537D01*
X166545820Y-96689502D01*
X166618380Y-96711513D01*
X166486525Y-96843368D01*
X166324010Y-97086589D01*
X166212068Y-97356842D01*
X166155000Y-97643740D01*
X166155000Y-97936260D01*
X166212068Y-98223158D01*
X166324010Y-98493411D01*
X166486525Y-98736632D01*
X166693368Y-98943475D01*
X166867760Y-99060000D01*
X166693368Y-99176525D01*
X166486525Y-99383368D01*
X166324010Y-99626589D01*
X166212068Y-99896842D01*
X166155000Y-100183740D01*
X166155000Y-100476260D01*
X166212068Y-100763158D01*
X166324010Y-101033411D01*
X166486525Y-101276632D01*
X166693368Y-101483475D01*
X166867760Y-101600000D01*
X166693368Y-101716525D01*
X166486525Y-101923368D01*
X166324010Y-102166589D01*
X166212068Y-102436842D01*
X166155000Y-102723740D01*
X166155000Y-103016260D01*
X166212068Y-103303158D01*
X166324010Y-103573411D01*
X166486525Y-103816632D01*
X166693368Y-104023475D01*
X166936589Y-104185990D01*
X167206842Y-104297932D01*
X167493740Y-104355000D01*
X167786260Y-104355000D01*
X168073158Y-104297932D01*
X168343411Y-104185990D01*
X168586632Y-104023475D01*
X168793475Y-103816632D01*
X168955990Y-103573411D01*
X169067932Y-103303158D01*
X169125000Y-103016260D01*
X169125000Y-102723740D01*
X169067932Y-102436842D01*
X168955990Y-102166589D01*
X168793475Y-101923368D01*
X168586632Y-101716525D01*
X168412240Y-101600000D01*
X168586632Y-101483475D01*
X168793475Y-101276632D01*
X168955990Y-101033411D01*
X169067932Y-100763158D01*
X169125000Y-100476260D01*
X169125000Y-100183740D01*
X169067932Y-99896842D01*
X168955990Y-99626589D01*
X168793475Y-99383368D01*
X168586632Y-99176525D01*
X168412240Y-99060000D01*
X168586632Y-98943475D01*
X168793475Y-98736632D01*
X168955990Y-98493411D01*
X169067932Y-98223158D01*
X169125000Y-97936260D01*
X169125000Y-97643740D01*
X169067932Y-97356842D01*
X168955990Y-97086589D01*
X168793475Y-96843368D01*
X168661620Y-96711513D01*
X168734180Y-96689502D01*
X168844494Y-96630537D01*
X168941185Y-96551185D01*
X169020537Y-96454494D01*
X169079502Y-96344180D01*
X169115812Y-96224482D01*
X169128072Y-96100000D01*
X169128072Y-94400000D01*
X169115812Y-94275518D01*
X169079502Y-94155820D01*
X169020537Y-94045506D01*
X168941185Y-93948815D01*
X168844494Y-93869463D01*
X168734180Y-93810498D01*
X168614482Y-93774188D01*
X168490000Y-93761928D01*
X166790000Y-93761928D01*
X166665518Y-93774188D01*
X166545820Y-93810498D01*
X166435506Y-93869463D01*
X166338815Y-93948815D01*
X166259463Y-94045506D01*
X166200498Y-94155820D01*
X166164188Y-94275518D01*
X166151928Y-94400000D01*
X162752239Y-94400000D01*
X162586252Y-94234013D01*
X162586233Y-94234000D01*
X162586252Y-94233987D01*
X162813987Y-94006252D01*
X162992918Y-93738463D01*
X163116168Y-93440912D01*
X163179000Y-93125033D01*
X163179000Y-92802967D01*
X163116168Y-92487088D01*
X162992918Y-92189537D01*
X162813987Y-91921748D01*
X162586252Y-91694013D01*
X162586233Y-91694000D01*
X162586252Y-91693987D01*
X162813987Y-91466252D01*
X162992918Y-91198463D01*
X163116168Y-90900912D01*
X163179000Y-90585033D01*
X163179000Y-90262967D01*
X163116168Y-89947088D01*
X162992918Y-89649537D01*
X162813987Y-89381748D01*
X162586252Y-89154013D01*
X162318463Y-88975082D01*
X162020912Y-88851832D01*
X161705033Y-88789000D01*
X161382967Y-88789000D01*
X161067088Y-88851832D01*
X160769537Y-88975082D01*
X160501748Y-89154013D01*
X160274013Y-89381748D01*
X160095082Y-89649537D01*
X159971832Y-89947088D01*
X159909000Y-90262967D01*
X149456219Y-90262967D01*
X149425961Y-90042325D01*
X149320795Y-89737912D01*
X149227814Y-89563956D01*
X148963413Y-89468192D01*
X148007605Y-90424000D01*
X147648395Y-90424000D01*
X146692587Y-89468192D01*
X146428186Y-89563956D01*
X146287296Y-89853571D01*
X146205616Y-90165108D01*
X146186282Y-90486595D01*
X118237000Y-90486595D01*
X118237000Y-87722967D01*
X146193000Y-87722967D01*
X146193000Y-88045033D01*
X146255832Y-88360912D01*
X146379082Y-88658463D01*
X146558013Y-88926252D01*
X146785748Y-89153987D01*
X146894600Y-89226720D01*
X146872192Y-89288587D01*
X147828000Y-90244395D01*
X148783808Y-89288587D01*
X148761400Y-89226720D01*
X148870252Y-89153987D01*
X149097987Y-88926252D01*
X149276918Y-88658463D01*
X149400168Y-88360912D01*
X149463000Y-88045033D01*
X149463000Y-87722967D01*
X151273000Y-87722967D01*
X151273000Y-88045033D01*
X151335832Y-88360912D01*
X151459082Y-88658463D01*
X151638013Y-88926252D01*
X151865748Y-89153987D01*
X152133537Y-89332918D01*
X152431088Y-89456168D01*
X152746967Y-89519000D01*
X153069033Y-89519000D01*
X153384912Y-89456168D01*
X153682463Y-89332918D01*
X153950252Y-89153987D01*
X154177987Y-88926252D01*
X154356918Y-88658463D01*
X154480168Y-88360912D01*
X154543000Y-88045033D01*
X154543000Y-87722967D01*
X156353000Y-87722967D01*
X156353000Y-88045033D01*
X156415832Y-88360912D01*
X156539082Y-88658463D01*
X156718013Y-88926252D01*
X156945748Y-89153987D01*
X157213537Y-89332918D01*
X157511088Y-89456168D01*
X157826967Y-89519000D01*
X158149033Y-89519000D01*
X158464912Y-89456168D01*
X158762463Y-89332918D01*
X159030252Y-89153987D01*
X159257987Y-88926252D01*
X159436918Y-88658463D01*
X159560168Y-88360912D01*
X159623000Y-88045033D01*
X159623000Y-87722967D01*
X159560168Y-87407088D01*
X159436918Y-87109537D01*
X159257987Y-86841748D01*
X159030252Y-86614013D01*
X158762463Y-86435082D01*
X158464912Y-86311832D01*
X158149033Y-86249000D01*
X157826967Y-86249000D01*
X157511088Y-86311832D01*
X157213537Y-86435082D01*
X156945748Y-86614013D01*
X156718013Y-86841748D01*
X156539082Y-87109537D01*
X156415832Y-87407088D01*
X156353000Y-87722967D01*
X154543000Y-87722967D01*
X154480168Y-87407088D01*
X154356918Y-87109537D01*
X154177987Y-86841748D01*
X153950252Y-86614013D01*
X153682463Y-86435082D01*
X153384912Y-86311832D01*
X153069033Y-86249000D01*
X152746967Y-86249000D01*
X152431088Y-86311832D01*
X152133537Y-86435082D01*
X151865748Y-86614013D01*
X151638013Y-86841748D01*
X151459082Y-87109537D01*
X151335832Y-87407088D01*
X151273000Y-87722967D01*
X149463000Y-87722967D01*
X149400168Y-87407088D01*
X149276918Y-87109537D01*
X149097987Y-86841748D01*
X148870252Y-86614013D01*
X148602463Y-86435082D01*
X148304912Y-86311832D01*
X147989033Y-86249000D01*
X147666967Y-86249000D01*
X147351088Y-86311832D01*
X147053537Y-86435082D01*
X146785748Y-86614013D01*
X146558013Y-86841748D01*
X146379082Y-87109537D01*
X146255832Y-87407088D01*
X146193000Y-87722967D01*
X118237000Y-87722967D01*
X118237000Y-76800967D01*
X146193000Y-76800967D01*
X146193000Y-77123033D01*
X146255832Y-77438912D01*
X146379082Y-77736463D01*
X146558013Y-78004252D01*
X146785748Y-78231987D01*
X147053537Y-78410918D01*
X147351088Y-78534168D01*
X147666967Y-78597000D01*
X147989033Y-78597000D01*
X148304912Y-78534168D01*
X148602463Y-78410918D01*
X148870252Y-78231987D01*
X149097987Y-78004252D01*
X149276918Y-77736463D01*
X149400168Y-77438912D01*
X149463000Y-77123033D01*
X149463000Y-76800967D01*
X160417000Y-76800967D01*
X160417000Y-77123033D01*
X160479832Y-77438912D01*
X160603082Y-77736463D01*
X160782013Y-78004252D01*
X161009748Y-78231987D01*
X161277537Y-78410918D01*
X161575088Y-78534168D01*
X161890967Y-78597000D01*
X162213033Y-78597000D01*
X162528912Y-78534168D01*
X162826463Y-78410918D01*
X163094252Y-78231987D01*
X163321987Y-78004252D01*
X163500918Y-77736463D01*
X163624168Y-77438912D01*
X163687000Y-77123033D01*
X163687000Y-76800967D01*
X163624168Y-76485088D01*
X163500918Y-76187537D01*
X163321987Y-75919748D01*
X163094252Y-75692013D01*
X162826463Y-75513082D01*
X162528912Y-75389832D01*
X162213033Y-75327000D01*
X161890967Y-75327000D01*
X161575088Y-75389832D01*
X161277537Y-75513082D01*
X161009748Y-75692013D01*
X160782013Y-75919748D01*
X160603082Y-76187537D01*
X160479832Y-76485088D01*
X160417000Y-76800967D01*
X149463000Y-76800967D01*
X149400168Y-76485088D01*
X149276918Y-76187537D01*
X149097987Y-75919748D01*
X148870252Y-75692013D01*
X148602463Y-75513082D01*
X148304912Y-75389832D01*
X147989033Y-75327000D01*
X147666967Y-75327000D01*
X147351088Y-75389832D01*
X147053537Y-75513082D01*
X146785748Y-75692013D01*
X146558013Y-75919748D01*
X146379082Y-76187537D01*
X146255832Y-76485088D01*
X146193000Y-76800967D01*
X118237000Y-76800967D01*
X118237000Y-48680000D01*
X119161928Y-48680000D01*
X119161928Y-50380000D01*
X119174188Y-50504482D01*
X119210498Y-50624180D01*
X119269463Y-50734494D01*
X119348815Y-50831185D01*
X119445506Y-50910537D01*
X119555820Y-50969502D01*
X119675518Y-51005812D01*
X119800000Y-51018072D01*
X121500000Y-51018072D01*
X121624482Y-51005812D01*
X121744180Y-50969502D01*
X121854494Y-50910537D01*
X121951185Y-50831185D01*
X122030537Y-50734494D01*
X122089502Y-50624180D01*
X122111513Y-50551620D01*
X122243368Y-50683475D01*
X122486589Y-50845990D01*
X122756842Y-50957932D01*
X123043740Y-51015000D01*
X123336260Y-51015000D01*
X123623158Y-50957932D01*
X123893411Y-50845990D01*
X124136632Y-50683475D01*
X124343475Y-50476632D01*
X124460000Y-50302240D01*
X124576525Y-50476632D01*
X124783368Y-50683475D01*
X125026589Y-50845990D01*
X125296842Y-50957932D01*
X125583740Y-51015000D01*
X125876260Y-51015000D01*
X126163158Y-50957932D01*
X126433411Y-50845990D01*
X126676632Y-50683475D01*
X126883475Y-50476632D01*
X127005195Y-50294466D01*
X127074822Y-50411355D01*
X127269731Y-50627588D01*
X127503080Y-50801641D01*
X127765901Y-50926825D01*
X127913110Y-50971476D01*
X128143000Y-50850155D01*
X128143000Y-49657000D01*
X128123000Y-49657000D01*
X128123000Y-49403000D01*
X128143000Y-49403000D01*
X128143000Y-48209845D01*
X128397000Y-48209845D01*
X128397000Y-49403000D01*
X128417000Y-49403000D01*
X128417000Y-49657000D01*
X128397000Y-49657000D01*
X128397000Y-50850155D01*
X128626890Y-50971476D01*
X128774099Y-50926825D01*
X129036920Y-50801641D01*
X129270269Y-50627588D01*
X129465178Y-50411355D01*
X129534805Y-50294466D01*
X129656525Y-50476632D01*
X129863368Y-50683475D01*
X130106589Y-50845990D01*
X130376842Y-50957932D01*
X130663740Y-51015000D01*
X130956260Y-51015000D01*
X131243158Y-50957932D01*
X131513411Y-50845990D01*
X131756632Y-50683475D01*
X131963475Y-50476632D01*
X132080000Y-50302240D01*
X132196525Y-50476632D01*
X132403368Y-50683475D01*
X132646589Y-50845990D01*
X132916842Y-50957932D01*
X133203740Y-51015000D01*
X133496260Y-51015000D01*
X133783158Y-50957932D01*
X134053411Y-50845990D01*
X134296632Y-50683475D01*
X134503475Y-50476632D01*
X134620000Y-50302240D01*
X134736525Y-50476632D01*
X134943368Y-50683475D01*
X135186589Y-50845990D01*
X135456842Y-50957932D01*
X135743740Y-51015000D01*
X136036260Y-51015000D01*
X136323158Y-50957932D01*
X136593411Y-50845990D01*
X136836632Y-50683475D01*
X137043475Y-50476632D01*
X137160000Y-50302240D01*
X137276525Y-50476632D01*
X137483368Y-50683475D01*
X137726589Y-50845990D01*
X137996842Y-50957932D01*
X138283740Y-51015000D01*
X138576260Y-51015000D01*
X138863158Y-50957932D01*
X139133411Y-50845990D01*
X139376632Y-50683475D01*
X139583475Y-50476632D01*
X139700000Y-50302240D01*
X139816525Y-50476632D01*
X140023368Y-50683475D01*
X140266589Y-50845990D01*
X140536842Y-50957932D01*
X140823740Y-51015000D01*
X141116260Y-51015000D01*
X141403158Y-50957932D01*
X141673411Y-50845990D01*
X141916632Y-50683475D01*
X142123475Y-50476632D01*
X142285990Y-50233411D01*
X142397932Y-49963158D01*
X142455000Y-49676260D01*
X142455000Y-49383740D01*
X142452062Y-49368967D01*
X146193000Y-49368967D01*
X146193000Y-49691033D01*
X146255832Y-50006912D01*
X146379082Y-50304463D01*
X146558013Y-50572252D01*
X146785748Y-50799987D01*
X147053537Y-50978918D01*
X147351088Y-51102168D01*
X147666967Y-51165000D01*
X147989033Y-51165000D01*
X148304912Y-51102168D01*
X148602463Y-50978918D01*
X148870252Y-50799987D01*
X149097987Y-50572252D01*
X149276918Y-50304463D01*
X149400168Y-50006912D01*
X149463000Y-49691033D01*
X149463000Y-49368967D01*
X160417000Y-49368967D01*
X160417000Y-49691033D01*
X160479832Y-50006912D01*
X160603082Y-50304463D01*
X160782013Y-50572252D01*
X161009748Y-50799987D01*
X161277537Y-50978918D01*
X161575088Y-51102168D01*
X161890967Y-51165000D01*
X162213033Y-51165000D01*
X162528912Y-51102168D01*
X162826463Y-50978918D01*
X163094252Y-50799987D01*
X163321987Y-50572252D01*
X163500918Y-50304463D01*
X163624168Y-50006912D01*
X163687000Y-49691033D01*
X163687000Y-49368967D01*
X163624168Y-49053088D01*
X163500918Y-48755537D01*
X163321987Y-48487748D01*
X163094252Y-48260013D01*
X162826463Y-48081082D01*
X162528912Y-47957832D01*
X162213033Y-47895000D01*
X161890967Y-47895000D01*
X161575088Y-47957832D01*
X161277537Y-48081082D01*
X161009748Y-48260013D01*
X160782013Y-48487748D01*
X160603082Y-48755537D01*
X160479832Y-49053088D01*
X160417000Y-49368967D01*
X149463000Y-49368967D01*
X149400168Y-49053088D01*
X149276918Y-48755537D01*
X149097987Y-48487748D01*
X148870252Y-48260013D01*
X148602463Y-48081082D01*
X148304912Y-47957832D01*
X147989033Y-47895000D01*
X147666967Y-47895000D01*
X147351088Y-47957832D01*
X147053537Y-48081082D01*
X146785748Y-48260013D01*
X146558013Y-48487748D01*
X146379082Y-48755537D01*
X146255832Y-49053088D01*
X146193000Y-49368967D01*
X142452062Y-49368967D01*
X142397932Y-49096842D01*
X142285990Y-48826589D01*
X142123475Y-48583368D01*
X141916632Y-48376525D01*
X141673411Y-48214010D01*
X141403158Y-48102068D01*
X141116260Y-48045000D01*
X140823740Y-48045000D01*
X140536842Y-48102068D01*
X140266589Y-48214010D01*
X140023368Y-48376525D01*
X139816525Y-48583368D01*
X139700000Y-48757760D01*
X139583475Y-48583368D01*
X139376632Y-48376525D01*
X139133411Y-48214010D01*
X138863158Y-48102068D01*
X138576260Y-48045000D01*
X138283740Y-48045000D01*
X137996842Y-48102068D01*
X137726589Y-48214010D01*
X137483368Y-48376525D01*
X137276525Y-48583368D01*
X137160000Y-48757760D01*
X137043475Y-48583368D01*
X136836632Y-48376525D01*
X136593411Y-48214010D01*
X136323158Y-48102068D01*
X136036260Y-48045000D01*
X135743740Y-48045000D01*
X135456842Y-48102068D01*
X135186589Y-48214010D01*
X134943368Y-48376525D01*
X134736525Y-48583368D01*
X134620000Y-48757760D01*
X134503475Y-48583368D01*
X134296632Y-48376525D01*
X134053411Y-48214010D01*
X133783158Y-48102068D01*
X133496260Y-48045000D01*
X133203740Y-48045000D01*
X132916842Y-48102068D01*
X132646589Y-48214010D01*
X132403368Y-48376525D01*
X132196525Y-48583368D01*
X132080000Y-48757760D01*
X131963475Y-48583368D01*
X131756632Y-48376525D01*
X131513411Y-48214010D01*
X131243158Y-48102068D01*
X130956260Y-48045000D01*
X130663740Y-48045000D01*
X130376842Y-48102068D01*
X130106589Y-48214010D01*
X129863368Y-48376525D01*
X129656525Y-48583368D01*
X129534805Y-48765534D01*
X129465178Y-48648645D01*
X129270269Y-48432412D01*
X129036920Y-48258359D01*
X128774099Y-48133175D01*
X128626890Y-48088524D01*
X128397000Y-48209845D01*
X128143000Y-48209845D01*
X127913110Y-48088524D01*
X127765901Y-48133175D01*
X127503080Y-48258359D01*
X127269731Y-48432412D01*
X127074822Y-48648645D01*
X127005195Y-48765534D01*
X126883475Y-48583368D01*
X126676632Y-48376525D01*
X126433411Y-48214010D01*
X126163158Y-48102068D01*
X125876260Y-48045000D01*
X125583740Y-48045000D01*
X125296842Y-48102068D01*
X125026589Y-48214010D01*
X124783368Y-48376525D01*
X124576525Y-48583368D01*
X124460000Y-48757760D01*
X124343475Y-48583368D01*
X124136632Y-48376525D01*
X123893411Y-48214010D01*
X123623158Y-48102068D01*
X123336260Y-48045000D01*
X123043740Y-48045000D01*
X122756842Y-48102068D01*
X122486589Y-48214010D01*
X122243368Y-48376525D01*
X122111513Y-48508380D01*
X122089502Y-48435820D01*
X122030537Y-48325506D01*
X121951185Y-48228815D01*
X121854494Y-48149463D01*
X121744180Y-48090498D01*
X121624482Y-48054188D01*
X121500000Y-48041928D01*
X119800000Y-48041928D01*
X119675518Y-48054188D01*
X119555820Y-48090498D01*
X119445506Y-48149463D01*
X119348815Y-48228815D01*
X119269463Y-48325506D01*
X119210498Y-48435820D01*
X119174188Y-48555518D01*
X119161928Y-48680000D01*
X118237000Y-48680000D01*
X118237000Y-47117000D01*
X164986330Y-47117000D01*
X170053000Y-92717032D01*
G37*
X170053000Y-92717032D02*
X170053000Y-106572415D01*
X147338646Y-110358140D01*
X143276238Y-108415249D01*
X143442052Y-108014939D01*
X143551000Y-107467223D01*
X143551000Y-106908777D01*
X143442052Y-106361061D01*
X143228344Y-105845124D01*
X142918088Y-105380793D01*
X142523207Y-104985912D01*
X142058876Y-104675656D01*
X141542939Y-104461948D01*
X140995223Y-104353000D01*
X140436777Y-104353000D01*
X139889061Y-104461948D01*
X139373124Y-104675656D01*
X138908793Y-104985912D01*
X138513912Y-105380793D01*
X138203656Y-105845124D01*
X138153834Y-105965404D01*
X118237000Y-96439962D01*
X118237000Y-92802967D01*
X120793000Y-92802967D01*
X120793000Y-93125033D01*
X120855832Y-93440912D01*
X120979082Y-93738463D01*
X121158013Y-94006252D01*
X121385748Y-94233987D01*
X121653537Y-94412918D01*
X121951088Y-94536168D01*
X122266967Y-94599000D01*
X122589033Y-94599000D01*
X122904912Y-94536168D01*
X123202463Y-94412918D01*
X123470252Y-94233987D01*
X123697987Y-94006252D01*
X123698000Y-94006233D01*
X123698013Y-94006252D01*
X123925748Y-94233987D01*
X124193537Y-94412918D01*
X124491088Y-94536168D01*
X124806967Y-94599000D01*
X125129033Y-94599000D01*
X125444912Y-94536168D01*
X125742463Y-94412918D01*
X126010252Y-94233987D01*
X126144826Y-94099413D01*
X126552192Y-94099413D01*
X126647956Y-94363814D01*
X126937571Y-94504704D01*
X127249108Y-94586384D01*
X127570595Y-94605718D01*
X127889675Y-94561961D01*
X128194088Y-94456795D01*
X128368044Y-94363814D01*
X128463808Y-94099413D01*
X127508000Y-93143605D01*
X126552192Y-94099413D01*
X126144826Y-94099413D01*
X126237987Y-94006252D01*
X126310720Y-93897400D01*
X126372587Y-93919808D01*
X127328395Y-92964000D01*
X127687605Y-92964000D01*
X128643413Y-93919808D01*
X128705280Y-93897400D01*
X128778013Y-94006252D01*
X129005748Y-94233987D01*
X129273537Y-94412918D01*
X129571088Y-94536168D01*
X129886967Y-94599000D01*
X130209033Y-94599000D01*
X130524912Y-94536168D01*
X130822463Y-94412918D01*
X131090252Y-94233987D01*
X131317987Y-94006252D01*
X131318000Y-94006233D01*
X131318013Y-94006252D01*
X131545748Y-94233987D01*
X131813537Y-94412918D01*
X132111088Y-94536168D01*
X132426967Y-94599000D01*
X132749033Y-94599000D01*
X133064912Y-94536168D01*
X133362463Y-94412918D01*
X133630252Y-94233987D01*
X133857987Y-94006252D01*
X134036918Y-93738463D01*
X134160168Y-93440912D01*
X134223000Y-93125033D01*
X134223000Y-92802967D01*
X146193000Y-92802967D01*
X146193000Y-93125033D01*
X146255832Y-93440912D01*
X146379082Y-93738463D01*
X146558013Y-94006252D01*
X146785748Y-94233987D01*
X146785767Y-94234000D01*
X146785748Y-94234013D01*
X146558013Y-94461748D01*
X146379082Y-94729537D01*
X146255832Y-95027088D01*
X146193000Y-95342967D01*
X146193000Y-95665033D01*
X146255832Y-95980912D01*
X146379082Y-96278463D01*
X146558013Y-96546252D01*
X146785748Y-96773987D01*
X146785767Y-96774000D01*
X146785748Y-96774013D01*
X146558013Y-97001748D01*
X146379082Y-97269537D01*
X146255832Y-97567088D01*
X146193000Y-97882967D01*
X146193000Y-98205033D01*
X146255832Y-98520912D01*
X146379082Y-98818463D01*
X146558013Y-99086252D01*
X146785748Y-99313987D01*
X146785767Y-99314000D01*
X146785748Y-99314013D01*
X146558013Y-99541748D01*
X146379082Y-99809537D01*
X146255832Y-100107088D01*
X146193000Y-100422967D01*
X146193000Y-100745033D01*
X146255832Y-101060912D01*
X146379082Y-101358463D01*
X146558013Y-101626252D01*
X146785748Y-101853987D01*
X146785767Y-101854000D01*
X146785748Y-101854013D01*
X146558013Y-102081748D01*
X146379082Y-102349537D01*
X146255832Y-102647088D01*
X146193000Y-102962967D01*
X146193000Y-103285033D01*
X146255832Y-103600912D01*
X146379082Y-103898463D01*
X146558013Y-104166252D01*
X146785748Y-104393987D01*
X146785767Y-104394000D01*
X146785748Y-104394013D01*
X146558013Y-104621748D01*
X146379082Y-104889537D01*
X146255832Y-105187088D01*
X146193000Y-105502967D01*
X146193000Y-105825033D01*
X146255832Y-106140912D01*
X146379082Y-106438463D01*
X146558013Y-106706252D01*
X146785748Y-106933987D01*
X147053537Y-107112918D01*
X147351088Y-107236168D01*
X147666967Y-107299000D01*
X147989033Y-107299000D01*
X148304912Y-107236168D01*
X148602463Y-107112918D01*
X148870252Y-106933987D01*
X149097987Y-106706252D01*
X149276918Y-106438463D01*
X149400168Y-106140912D01*
X149463000Y-105825033D01*
X149463000Y-105502967D01*
X149400168Y-105187088D01*
X149276918Y-104889537D01*
X149097987Y-104621748D01*
X148870252Y-104394013D01*
X148870233Y-104394000D01*
X148870252Y-104393987D01*
X149097987Y-104166252D01*
X149276918Y-103898463D01*
X149400168Y-103600912D01*
X149463000Y-103285033D01*
X149463000Y-102962967D01*
X149400168Y-102647088D01*
X149276918Y-102349537D01*
X149097987Y-102081748D01*
X148870252Y-101854013D01*
X148870233Y-101854000D01*
X148870252Y-101853987D01*
X149097987Y-101626252D01*
X149276918Y-101358463D01*
X149400168Y-101060912D01*
X149463000Y-100745033D01*
X149463000Y-100422967D01*
X149400168Y-100107088D01*
X149276918Y-99809537D01*
X149097987Y-99541748D01*
X148870252Y-99314013D01*
X148870233Y-99314000D01*
X148870252Y-99313987D01*
X149097987Y-99086252D01*
X149276918Y-98818463D01*
X149400168Y-98520912D01*
X149463000Y-98205033D01*
X149463000Y-97882967D01*
X149400168Y-97567088D01*
X149276918Y-97269537D01*
X149097987Y-97001748D01*
X148870252Y-96774013D01*
X148870233Y-96774000D01*
X148870252Y-96773987D01*
X149097987Y-96546252D01*
X149276918Y-96278463D01*
X149400168Y-95980912D01*
X149463000Y-95665033D01*
X149463000Y-95342967D01*
X149400168Y-95027088D01*
X149276918Y-94729537D01*
X149097987Y-94461748D01*
X148870252Y-94234013D01*
X148870233Y-94234000D01*
X148870252Y-94233987D01*
X149097987Y-94006252D01*
X149276918Y-93738463D01*
X149400168Y-93440912D01*
X149463000Y-93125033D01*
X149463000Y-92802967D01*
X149400168Y-92487088D01*
X149276918Y-92189537D01*
X149097987Y-91921748D01*
X148870252Y-91694013D01*
X148761400Y-91621280D01*
X148783808Y-91559413D01*
X147828000Y-90603605D01*
X146872192Y-91559413D01*
X146894600Y-91621280D01*
X146785748Y-91694013D01*
X146558013Y-91921748D01*
X146379082Y-92189537D01*
X146255832Y-92487088D01*
X146193000Y-92802967D01*
X134223000Y-92802967D01*
X134160168Y-92487088D01*
X134036918Y-92189537D01*
X133857987Y-91921748D01*
X133630252Y-91694013D01*
X133362463Y-91515082D01*
X133064912Y-91391832D01*
X132749033Y-91329000D01*
X132426967Y-91329000D01*
X132111088Y-91391832D01*
X131813537Y-91515082D01*
X131545748Y-91694013D01*
X131318013Y-91921748D01*
X131318000Y-91921767D01*
X131317987Y-91921748D01*
X131090252Y-91694013D01*
X130822463Y-91515082D01*
X130524912Y-91391832D01*
X130209033Y-91329000D01*
X129886967Y-91329000D01*
X129571088Y-91391832D01*
X129273537Y-91515082D01*
X129005748Y-91694013D01*
X128778013Y-91921748D01*
X128705280Y-92030600D01*
X128643413Y-92008192D01*
X127687605Y-92964000D01*
X127328395Y-92964000D01*
X126372587Y-92008192D01*
X126310720Y-92030600D01*
X126237987Y-91921748D01*
X126144826Y-91828587D01*
X126552192Y-91828587D01*
X127508000Y-92784395D01*
X128463808Y-91828587D01*
X128368044Y-91564186D01*
X128078429Y-91423296D01*
X127766892Y-91341616D01*
X127445405Y-91322282D01*
X127126325Y-91366039D01*
X126821912Y-91471205D01*
X126647956Y-91564186D01*
X126552192Y-91828587D01*
X126144826Y-91828587D01*
X126010252Y-91694013D01*
X125742463Y-91515082D01*
X125444912Y-91391832D01*
X125129033Y-91329000D01*
X124806967Y-91329000D01*
X124491088Y-91391832D01*
X124193537Y-91515082D01*
X123925748Y-91694013D01*
X123698013Y-91921748D01*
X123698000Y-91921767D01*
X123697987Y-91921748D01*
X123470252Y-91694013D01*
X123202463Y-91515082D01*
X122904912Y-91391832D01*
X122589033Y-91329000D01*
X122266967Y-91329000D01*
X121951088Y-91391832D01*
X121653537Y-91515082D01*
X121385748Y-91694013D01*
X121158013Y-91921748D01*
X120979082Y-92189537D01*
X120855832Y-92487088D01*
X120793000Y-92802967D01*
X118237000Y-92802967D01*
X118237000Y-90486595D01*
X146186282Y-90486595D01*
X146230039Y-90805675D01*
X146335205Y-91110088D01*
X146428186Y-91284044D01*
X146692587Y-91379808D01*
X147648395Y-90424000D01*
X148007605Y-90424000D01*
X148963413Y-91379808D01*
X149227814Y-91284044D01*
X149368704Y-90994429D01*
X149450384Y-90682892D01*
X149469718Y-90361405D01*
X149456219Y-90262967D01*
X159909000Y-90262967D01*
X159909000Y-90585033D01*
X159971832Y-90900912D01*
X160095082Y-91198463D01*
X160274013Y-91466252D01*
X160501748Y-91693987D01*
X160501767Y-91694000D01*
X160501748Y-91694013D01*
X160274013Y-91921748D01*
X160095082Y-92189537D01*
X159971832Y-92487088D01*
X159909000Y-92802967D01*
X159909000Y-93125033D01*
X159971832Y-93440912D01*
X160095082Y-93738463D01*
X160274013Y-94006252D01*
X160501748Y-94233987D01*
X160501767Y-94234000D01*
X160501748Y-94234013D01*
X160274013Y-94461748D01*
X160095082Y-94729537D01*
X159971832Y-95027088D01*
X159909000Y-95342967D01*
X159909000Y-95665033D01*
X159971832Y-95980912D01*
X160095082Y-96278463D01*
X160274013Y-96546252D01*
X160501748Y-96773987D01*
X160501767Y-96774000D01*
X160501748Y-96774013D01*
X160274013Y-97001748D01*
X160095082Y-97269537D01*
X159971832Y-97567088D01*
X159909000Y-97882967D01*
X159909000Y-98205033D01*
X159971832Y-98520912D01*
X160095082Y-98818463D01*
X160274013Y-99086252D01*
X160501748Y-99313987D01*
X160501767Y-99314000D01*
X160501748Y-99314013D01*
X160274013Y-99541748D01*
X160095082Y-99809537D01*
X159971832Y-100107088D01*
X159909000Y-100422967D01*
X159909000Y-100745033D01*
X159971832Y-101060912D01*
X160095082Y-101358463D01*
X160274013Y-101626252D01*
X160501748Y-101853987D01*
X160501767Y-101854000D01*
X160501748Y-101854013D01*
X160274013Y-102081748D01*
X160095082Y-102349537D01*
X159971832Y-102647088D01*
X159909000Y-102962967D01*
X159909000Y-103285033D01*
X159971832Y-103600912D01*
X160095082Y-103898463D01*
X160274013Y-104166252D01*
X160501748Y-104393987D01*
X160769537Y-104572918D01*
X161067088Y-104696168D01*
X161382967Y-104759000D01*
X161705033Y-104759000D01*
X162020912Y-104696168D01*
X162318463Y-104572918D01*
X162586252Y-104393987D01*
X162813987Y-104166252D01*
X162992918Y-103898463D01*
X163116168Y-103600912D01*
X163179000Y-103285033D01*
X163179000Y-102962967D01*
X163116168Y-102647088D01*
X162992918Y-102349537D01*
X162813987Y-102081748D01*
X162586252Y-101854013D01*
X162586233Y-101854000D01*
X162586252Y-101853987D01*
X162813987Y-101626252D01*
X162992918Y-101358463D01*
X163116168Y-101060912D01*
X163179000Y-100745033D01*
X163179000Y-100422967D01*
X163116168Y-100107088D01*
X162992918Y-99809537D01*
X162813987Y-99541748D01*
X162586252Y-99314013D01*
X162586233Y-99314000D01*
X162586252Y-99313987D01*
X162813987Y-99086252D01*
X162992918Y-98818463D01*
X163116168Y-98520912D01*
X163179000Y-98205033D01*
X163179000Y-97882967D01*
X163116168Y-97567088D01*
X162992918Y-97269537D01*
X162813987Y-97001748D01*
X162586252Y-96774013D01*
X162586233Y-96774000D01*
X162586252Y-96773987D01*
X162813987Y-96546252D01*
X162992918Y-96278463D01*
X163116168Y-95980912D01*
X163179000Y-95665033D01*
X163179000Y-95342967D01*
X163116168Y-95027088D01*
X162992918Y-94729537D01*
X162813987Y-94461748D01*
X162752239Y-94400000D01*
X166151928Y-94400000D01*
X166151928Y-96100000D01*
X166164188Y-96224482D01*
X166200498Y-96344180D01*
X166259463Y-96454494D01*
X166338815Y-96551185D01*
X166435506Y-96630537D01*
X166545820Y-96689502D01*
X166618380Y-96711513D01*
X166486525Y-96843368D01*
X166324010Y-97086589D01*
X166212068Y-97356842D01*
X166155000Y-97643740D01*
X166155000Y-97936260D01*
X166212068Y-98223158D01*
X166324010Y-98493411D01*
X166486525Y-98736632D01*
X166693368Y-98943475D01*
X166867760Y-99060000D01*
X166693368Y-99176525D01*
X166486525Y-99383368D01*
X166324010Y-99626589D01*
X166212068Y-99896842D01*
X166155000Y-100183740D01*
X166155000Y-100476260D01*
X166212068Y-100763158D01*
X166324010Y-101033411D01*
X166486525Y-101276632D01*
X166693368Y-101483475D01*
X166867760Y-101600000D01*
X166693368Y-101716525D01*
X166486525Y-101923368D01*
X166324010Y-102166589D01*
X166212068Y-102436842D01*
X166155000Y-102723740D01*
X166155000Y-103016260D01*
X166212068Y-103303158D01*
X166324010Y-103573411D01*
X166486525Y-103816632D01*
X166693368Y-104023475D01*
X166936589Y-104185990D01*
X167206842Y-104297932D01*
X167493740Y-104355000D01*
X167786260Y-104355000D01*
X168073158Y-104297932D01*
X168343411Y-104185990D01*
X168586632Y-104023475D01*
X168793475Y-103816632D01*
X168955990Y-103573411D01*
X169067932Y-103303158D01*
X169125000Y-103016260D01*
X169125000Y-102723740D01*
X169067932Y-102436842D01*
X168955990Y-102166589D01*
X168793475Y-101923368D01*
X168586632Y-101716525D01*
X168412240Y-101600000D01*
X168586632Y-101483475D01*
X168793475Y-101276632D01*
X168955990Y-101033411D01*
X169067932Y-100763158D01*
X169125000Y-100476260D01*
X169125000Y-100183740D01*
X169067932Y-99896842D01*
X168955990Y-99626589D01*
X168793475Y-99383368D01*
X168586632Y-99176525D01*
X168412240Y-99060000D01*
X168586632Y-98943475D01*
X168793475Y-98736632D01*
X168955990Y-98493411D01*
X169067932Y-98223158D01*
X169125000Y-97936260D01*
X169125000Y-97643740D01*
X169067932Y-97356842D01*
X168955990Y-97086589D01*
X168793475Y-96843368D01*
X168661620Y-96711513D01*
X168734180Y-96689502D01*
X168844494Y-96630537D01*
X168941185Y-96551185D01*
X169020537Y-96454494D01*
X169079502Y-96344180D01*
X169115812Y-96224482D01*
X169128072Y-96100000D01*
X169128072Y-94400000D01*
X169115812Y-94275518D01*
X169079502Y-94155820D01*
X169020537Y-94045506D01*
X168941185Y-93948815D01*
X168844494Y-93869463D01*
X168734180Y-93810498D01*
X168614482Y-93774188D01*
X168490000Y-93761928D01*
X166790000Y-93761928D01*
X166665518Y-93774188D01*
X166545820Y-93810498D01*
X166435506Y-93869463D01*
X166338815Y-93948815D01*
X166259463Y-94045506D01*
X166200498Y-94155820D01*
X166164188Y-94275518D01*
X166151928Y-94400000D01*
X162752239Y-94400000D01*
X162586252Y-94234013D01*
X162586233Y-94234000D01*
X162586252Y-94233987D01*
X162813987Y-94006252D01*
X162992918Y-93738463D01*
X163116168Y-93440912D01*
X163179000Y-93125033D01*
X163179000Y-92802967D01*
X163116168Y-92487088D01*
X162992918Y-92189537D01*
X162813987Y-91921748D01*
X162586252Y-91694013D01*
X162586233Y-91694000D01*
X162586252Y-91693987D01*
X162813987Y-91466252D01*
X162992918Y-91198463D01*
X163116168Y-90900912D01*
X163179000Y-90585033D01*
X163179000Y-90262967D01*
X163116168Y-89947088D01*
X162992918Y-89649537D01*
X162813987Y-89381748D01*
X162586252Y-89154013D01*
X162318463Y-88975082D01*
X162020912Y-88851832D01*
X161705033Y-88789000D01*
X161382967Y-88789000D01*
X161067088Y-88851832D01*
X160769537Y-88975082D01*
X160501748Y-89154013D01*
X160274013Y-89381748D01*
X160095082Y-89649537D01*
X159971832Y-89947088D01*
X159909000Y-90262967D01*
X149456219Y-90262967D01*
X149425961Y-90042325D01*
X149320795Y-89737912D01*
X149227814Y-89563956D01*
X148963413Y-89468192D01*
X148007605Y-90424000D01*
X147648395Y-90424000D01*
X146692587Y-89468192D01*
X146428186Y-89563956D01*
X146287296Y-89853571D01*
X146205616Y-90165108D01*
X146186282Y-90486595D01*
X118237000Y-90486595D01*
X118237000Y-87722967D01*
X146193000Y-87722967D01*
X146193000Y-88045033D01*
X146255832Y-88360912D01*
X146379082Y-88658463D01*
X146558013Y-88926252D01*
X146785748Y-89153987D01*
X146894600Y-89226720D01*
X146872192Y-89288587D01*
X147828000Y-90244395D01*
X148783808Y-89288587D01*
X148761400Y-89226720D01*
X148870252Y-89153987D01*
X149097987Y-88926252D01*
X149276918Y-88658463D01*
X149400168Y-88360912D01*
X149463000Y-88045033D01*
X149463000Y-87722967D01*
X151273000Y-87722967D01*
X151273000Y-88045033D01*
X151335832Y-88360912D01*
X151459082Y-88658463D01*
X151638013Y-88926252D01*
X151865748Y-89153987D01*
X152133537Y-89332918D01*
X152431088Y-89456168D01*
X152746967Y-89519000D01*
X153069033Y-89519000D01*
X153384912Y-89456168D01*
X153682463Y-89332918D01*
X153950252Y-89153987D01*
X154177987Y-88926252D01*
X154356918Y-88658463D01*
X154480168Y-88360912D01*
X154543000Y-88045033D01*
X154543000Y-87722967D01*
X156353000Y-87722967D01*
X156353000Y-88045033D01*
X156415832Y-88360912D01*
X156539082Y-88658463D01*
X156718013Y-88926252D01*
X156945748Y-89153987D01*
X157213537Y-89332918D01*
X157511088Y-89456168D01*
X157826967Y-89519000D01*
X158149033Y-89519000D01*
X158464912Y-89456168D01*
X158762463Y-89332918D01*
X159030252Y-89153987D01*
X159257987Y-88926252D01*
X159436918Y-88658463D01*
X159560168Y-88360912D01*
X159623000Y-88045033D01*
X159623000Y-87722967D01*
X159560168Y-87407088D01*
X159436918Y-87109537D01*
X159257987Y-86841748D01*
X159030252Y-86614013D01*
X158762463Y-86435082D01*
X158464912Y-86311832D01*
X158149033Y-86249000D01*
X157826967Y-86249000D01*
X157511088Y-86311832D01*
X157213537Y-86435082D01*
X156945748Y-86614013D01*
X156718013Y-86841748D01*
X156539082Y-87109537D01*
X156415832Y-87407088D01*
X156353000Y-87722967D01*
X154543000Y-87722967D01*
X154480168Y-87407088D01*
X154356918Y-87109537D01*
X154177987Y-86841748D01*
X153950252Y-86614013D01*
X153682463Y-86435082D01*
X153384912Y-86311832D01*
X153069033Y-86249000D01*
X152746967Y-86249000D01*
X152431088Y-86311832D01*
X152133537Y-86435082D01*
X151865748Y-86614013D01*
X151638013Y-86841748D01*
X151459082Y-87109537D01*
X151335832Y-87407088D01*
X151273000Y-87722967D01*
X149463000Y-87722967D01*
X149400168Y-87407088D01*
X149276918Y-87109537D01*
X149097987Y-86841748D01*
X148870252Y-86614013D01*
X148602463Y-86435082D01*
X148304912Y-86311832D01*
X147989033Y-86249000D01*
X147666967Y-86249000D01*
X147351088Y-86311832D01*
X147053537Y-86435082D01*
X146785748Y-86614013D01*
X146558013Y-86841748D01*
X146379082Y-87109537D01*
X146255832Y-87407088D01*
X146193000Y-87722967D01*
X118237000Y-87722967D01*
X118237000Y-76800967D01*
X146193000Y-76800967D01*
X146193000Y-77123033D01*
X146255832Y-77438912D01*
X146379082Y-77736463D01*
X146558013Y-78004252D01*
X146785748Y-78231987D01*
X147053537Y-78410918D01*
X147351088Y-78534168D01*
X147666967Y-78597000D01*
X147989033Y-78597000D01*
X148304912Y-78534168D01*
X148602463Y-78410918D01*
X148870252Y-78231987D01*
X149097987Y-78004252D01*
X149276918Y-77736463D01*
X149400168Y-77438912D01*
X149463000Y-77123033D01*
X149463000Y-76800967D01*
X160417000Y-76800967D01*
X160417000Y-77123033D01*
X160479832Y-77438912D01*
X160603082Y-77736463D01*
X160782013Y-78004252D01*
X161009748Y-78231987D01*
X161277537Y-78410918D01*
X161575088Y-78534168D01*
X161890967Y-78597000D01*
X162213033Y-78597000D01*
X162528912Y-78534168D01*
X162826463Y-78410918D01*
X163094252Y-78231987D01*
X163321987Y-78004252D01*
X163500918Y-77736463D01*
X163624168Y-77438912D01*
X163687000Y-77123033D01*
X163687000Y-76800967D01*
X163624168Y-76485088D01*
X163500918Y-76187537D01*
X163321987Y-75919748D01*
X163094252Y-75692013D01*
X162826463Y-75513082D01*
X162528912Y-75389832D01*
X162213033Y-75327000D01*
X161890967Y-75327000D01*
X161575088Y-75389832D01*
X161277537Y-75513082D01*
X161009748Y-75692013D01*
X160782013Y-75919748D01*
X160603082Y-76187537D01*
X160479832Y-76485088D01*
X160417000Y-76800967D01*
X149463000Y-76800967D01*
X149400168Y-76485088D01*
X149276918Y-76187537D01*
X149097987Y-75919748D01*
X148870252Y-75692013D01*
X148602463Y-75513082D01*
X148304912Y-75389832D01*
X147989033Y-75327000D01*
X147666967Y-75327000D01*
X147351088Y-75389832D01*
X147053537Y-75513082D01*
X146785748Y-75692013D01*
X146558013Y-75919748D01*
X146379082Y-76187537D01*
X146255832Y-76485088D01*
X146193000Y-76800967D01*
X118237000Y-76800967D01*
X118237000Y-48680000D01*
X119161928Y-48680000D01*
X119161928Y-50380000D01*
X119174188Y-50504482D01*
X119210498Y-50624180D01*
X119269463Y-50734494D01*
X119348815Y-50831185D01*
X119445506Y-50910537D01*
X119555820Y-50969502D01*
X119675518Y-51005812D01*
X119800000Y-51018072D01*
X121500000Y-51018072D01*
X121624482Y-51005812D01*
X121744180Y-50969502D01*
X121854494Y-50910537D01*
X121951185Y-50831185D01*
X122030537Y-50734494D01*
X122089502Y-50624180D01*
X122111513Y-50551620D01*
X122243368Y-50683475D01*
X122486589Y-50845990D01*
X122756842Y-50957932D01*
X123043740Y-51015000D01*
X123336260Y-51015000D01*
X123623158Y-50957932D01*
X123893411Y-50845990D01*
X124136632Y-50683475D01*
X124343475Y-50476632D01*
X124460000Y-50302240D01*
X124576525Y-50476632D01*
X124783368Y-50683475D01*
X125026589Y-50845990D01*
X125296842Y-50957932D01*
X125583740Y-51015000D01*
X125876260Y-51015000D01*
X126163158Y-50957932D01*
X126433411Y-50845990D01*
X126676632Y-50683475D01*
X126883475Y-50476632D01*
X127005195Y-50294466D01*
X127074822Y-50411355D01*
X127269731Y-50627588D01*
X127503080Y-50801641D01*
X127765901Y-50926825D01*
X127913110Y-50971476D01*
X128143000Y-50850155D01*
X128143000Y-49657000D01*
X128123000Y-49657000D01*
X128123000Y-49403000D01*
X128143000Y-49403000D01*
X128143000Y-48209845D01*
X128397000Y-48209845D01*
X128397000Y-49403000D01*
X128417000Y-49403000D01*
X128417000Y-49657000D01*
X128397000Y-49657000D01*
X128397000Y-50850155D01*
X128626890Y-50971476D01*
X128774099Y-50926825D01*
X129036920Y-50801641D01*
X129270269Y-50627588D01*
X129465178Y-50411355D01*
X129534805Y-50294466D01*
X129656525Y-50476632D01*
X129863368Y-50683475D01*
X130106589Y-50845990D01*
X130376842Y-50957932D01*
X130663740Y-51015000D01*
X130956260Y-51015000D01*
X131243158Y-50957932D01*
X131513411Y-50845990D01*
X131756632Y-50683475D01*
X131963475Y-50476632D01*
X132080000Y-50302240D01*
X132196525Y-50476632D01*
X132403368Y-50683475D01*
X132646589Y-50845990D01*
X132916842Y-50957932D01*
X133203740Y-51015000D01*
X133496260Y-51015000D01*
X133783158Y-50957932D01*
X134053411Y-50845990D01*
X134296632Y-50683475D01*
X134503475Y-50476632D01*
X134620000Y-50302240D01*
X134736525Y-50476632D01*
X134943368Y-50683475D01*
X135186589Y-50845990D01*
X135456842Y-50957932D01*
X135743740Y-51015000D01*
X136036260Y-51015000D01*
X136323158Y-50957932D01*
X136593411Y-50845990D01*
X136836632Y-50683475D01*
X137043475Y-50476632D01*
X137160000Y-50302240D01*
X137276525Y-50476632D01*
X137483368Y-50683475D01*
X137726589Y-50845990D01*
X137996842Y-50957932D01*
X138283740Y-51015000D01*
X138576260Y-51015000D01*
X138863158Y-50957932D01*
X139133411Y-50845990D01*
X139376632Y-50683475D01*
X139583475Y-50476632D01*
X139700000Y-50302240D01*
X139816525Y-50476632D01*
X140023368Y-50683475D01*
X140266589Y-50845990D01*
X140536842Y-50957932D01*
X140823740Y-51015000D01*
X141116260Y-51015000D01*
X141403158Y-50957932D01*
X141673411Y-50845990D01*
X141916632Y-50683475D01*
X142123475Y-50476632D01*
X142285990Y-50233411D01*
X142397932Y-49963158D01*
X142455000Y-49676260D01*
X142455000Y-49383740D01*
X142452062Y-49368967D01*
X146193000Y-49368967D01*
X146193000Y-49691033D01*
X146255832Y-50006912D01*
X146379082Y-50304463D01*
X146558013Y-50572252D01*
X146785748Y-50799987D01*
X147053537Y-50978918D01*
X147351088Y-51102168D01*
X147666967Y-51165000D01*
X147989033Y-51165000D01*
X148304912Y-51102168D01*
X148602463Y-50978918D01*
X148870252Y-50799987D01*
X149097987Y-50572252D01*
X149276918Y-50304463D01*
X149400168Y-50006912D01*
X149463000Y-49691033D01*
X149463000Y-49368967D01*
X160417000Y-49368967D01*
X160417000Y-49691033D01*
X160479832Y-50006912D01*
X160603082Y-50304463D01*
X160782013Y-50572252D01*
X161009748Y-50799987D01*
X161277537Y-50978918D01*
X161575088Y-51102168D01*
X161890967Y-51165000D01*
X162213033Y-51165000D01*
X162528912Y-51102168D01*
X162826463Y-50978918D01*
X163094252Y-50799987D01*
X163321987Y-50572252D01*
X163500918Y-50304463D01*
X163624168Y-50006912D01*
X163687000Y-49691033D01*
X163687000Y-49368967D01*
X163624168Y-49053088D01*
X163500918Y-48755537D01*
X163321987Y-48487748D01*
X163094252Y-48260013D01*
X162826463Y-48081082D01*
X162528912Y-47957832D01*
X162213033Y-47895000D01*
X161890967Y-47895000D01*
X161575088Y-47957832D01*
X161277537Y-48081082D01*
X161009748Y-48260013D01*
X160782013Y-48487748D01*
X160603082Y-48755537D01*
X160479832Y-49053088D01*
X160417000Y-49368967D01*
X149463000Y-49368967D01*
X149400168Y-49053088D01*
X149276918Y-48755537D01*
X149097987Y-48487748D01*
X148870252Y-48260013D01*
X148602463Y-48081082D01*
X148304912Y-47957832D01*
X147989033Y-47895000D01*
X147666967Y-47895000D01*
X147351088Y-47957832D01*
X147053537Y-48081082D01*
X146785748Y-48260013D01*
X146558013Y-48487748D01*
X146379082Y-48755537D01*
X146255832Y-49053088D01*
X146193000Y-49368967D01*
X142452062Y-49368967D01*
X142397932Y-49096842D01*
X142285990Y-48826589D01*
X142123475Y-48583368D01*
X141916632Y-48376525D01*
X141673411Y-48214010D01*
X141403158Y-48102068D01*
X141116260Y-48045000D01*
X140823740Y-48045000D01*
X140536842Y-48102068D01*
X140266589Y-48214010D01*
X140023368Y-48376525D01*
X139816525Y-48583368D01*
X139700000Y-48757760D01*
X139583475Y-48583368D01*
X139376632Y-48376525D01*
X139133411Y-48214010D01*
X138863158Y-48102068D01*
X138576260Y-48045000D01*
X138283740Y-48045000D01*
X137996842Y-48102068D01*
X137726589Y-48214010D01*
X137483368Y-48376525D01*
X137276525Y-48583368D01*
X137160000Y-48757760D01*
X137043475Y-48583368D01*
X136836632Y-48376525D01*
X136593411Y-48214010D01*
X136323158Y-48102068D01*
X136036260Y-48045000D01*
X135743740Y-48045000D01*
X135456842Y-48102068D01*
X135186589Y-48214010D01*
X134943368Y-48376525D01*
X134736525Y-48583368D01*
X134620000Y-48757760D01*
X134503475Y-48583368D01*
X134296632Y-48376525D01*
X134053411Y-48214010D01*
X133783158Y-48102068D01*
X133496260Y-48045000D01*
X133203740Y-48045000D01*
X132916842Y-48102068D01*
X132646589Y-48214010D01*
X132403368Y-48376525D01*
X132196525Y-48583368D01*
X132080000Y-48757760D01*
X131963475Y-48583368D01*
X131756632Y-48376525D01*
X131513411Y-48214010D01*
X131243158Y-48102068D01*
X130956260Y-48045000D01*
X130663740Y-48045000D01*
X130376842Y-48102068D01*
X130106589Y-48214010D01*
X129863368Y-48376525D01*
X129656525Y-48583368D01*
X129534805Y-48765534D01*
X129465178Y-48648645D01*
X129270269Y-48432412D01*
X129036920Y-48258359D01*
X128774099Y-48133175D01*
X128626890Y-48088524D01*
X128397000Y-48209845D01*
X128143000Y-48209845D01*
X127913110Y-48088524D01*
X127765901Y-48133175D01*
X127503080Y-48258359D01*
X127269731Y-48432412D01*
X127074822Y-48648645D01*
X127005195Y-48765534D01*
X126883475Y-48583368D01*
X126676632Y-48376525D01*
X126433411Y-48214010D01*
X126163158Y-48102068D01*
X125876260Y-48045000D01*
X125583740Y-48045000D01*
X125296842Y-48102068D01*
X125026589Y-48214010D01*
X124783368Y-48376525D01*
X124576525Y-48583368D01*
X124460000Y-48757760D01*
X124343475Y-48583368D01*
X124136632Y-48376525D01*
X123893411Y-48214010D01*
X123623158Y-48102068D01*
X123336260Y-48045000D01*
X123043740Y-48045000D01*
X122756842Y-48102068D01*
X122486589Y-48214010D01*
X122243368Y-48376525D01*
X122111513Y-48508380D01*
X122089502Y-48435820D01*
X122030537Y-48325506D01*
X121951185Y-48228815D01*
X121854494Y-48149463D01*
X121744180Y-48090498D01*
X121624482Y-48054188D01*
X121500000Y-48041928D01*
X119800000Y-48041928D01*
X119675518Y-48054188D01*
X119555820Y-48090498D01*
X119445506Y-48149463D01*
X119348815Y-48228815D01*
X119269463Y-48325506D01*
X119210498Y-48435820D01*
X119174188Y-48555518D01*
X119161928Y-48680000D01*
X118237000Y-48680000D01*
X118237000Y-47117000D01*
X164986330Y-47117000D01*
X170053000Y-92717032D01*
M02*
