M48
; DRILL file {KiCad (5.1.5)-3} date 2/27/2020 11:19:33 AM
; FORMAT={-:-/ absolute / inch / decimal}
; #@! TF.CreationDate,2020-02-27T11:19:33-07:00
; #@! TF.GenerationSoftware,Kicad,Pcbnew,(5.1.5)-3
; #@! TF.FileFunction,Plated,1,2,PTH
FMAT,2
INCH
T1C0.0157
T2C0.0394
T3C0.0866
%
G90
G05
T1
X6.57Y-1.945
X6.5891Y-1.8991
X6.5891Y-1.9909
X6.635Y-1.88
X6.635Y-2.01
X6.6809Y-1.8991
X6.6809Y-1.9909
X6.7Y-1.945
X5.475Y-4.22
X5.4941Y-4.1741
X5.4941Y-4.2659
X5.54Y-4.155
X5.54Y-4.285
X5.5859Y-4.1741
X5.5859Y-4.2659
X5.605Y-4.22
T2
X6.6Y-3.75
X6.6Y-3.85
X6.6Y-3.95
X6.6Y-4.05
X4.75Y-1.95
X4.85Y-1.95
X4.95Y-1.95
X5.05Y-1.95
X5.15Y-1.95
X5.25Y-1.95
X5.35Y-1.95
X5.45Y-1.95
X5.55Y-1.95
X4.82Y-3.66
X4.92Y-3.66
X5.02Y-3.66
X5.12Y-3.66
X5.22Y-3.66
X5.82Y-3.46
X5.82Y-3.56
X5.82Y-3.66
X5.82Y-3.76
X5.82Y-3.86
X5.82Y-3.96
X5.82Y-4.06
X5.82Y-4.16
X6.02Y-3.46
X6.22Y-3.46
X6.36Y-3.56
X6.36Y-3.66
X6.36Y-3.76
X6.36Y-3.86
X6.36Y-3.96
X6.36Y-4.06
X5.82Y-1.95
X5.82Y-3.03
X6.38Y-1.95
X6.38Y-3.03
T3
X6.635Y-1.945
X5.54Y-4.22
T0
M30
