G04 #@! TF.GenerationSoftware,KiCad,Pcbnew,(5.1.5)-3*
G04 #@! TF.CreationDate,2020-02-27T11:18:58-07:00*
G04 #@! TF.ProjectId,matildaboard,6d617469-6c64-4616-926f-6172642e6b69,rev?*
G04 #@! TF.SameCoordinates,Original*
G04 #@! TF.FileFunction,Soldermask,Bot*
G04 #@! TF.FilePolarity,Negative*
%FSLAX46Y46*%
G04 Gerber Fmt 4.6, Leading zero omitted, Abs format (unit mm)*
G04 Created by KiCad (PCBNEW (5.1.5)-3) date 2020-02-27 11:18:58*
%MOMM*%
%LPD*%
G04 APERTURE LIST*
%ADD10C,0.100000*%
G04 APERTURE END LIST*
D10*
G36*
X140991880Y-104947776D02*
G01*
X141372593Y-105023504D01*
X141782249Y-105193189D01*
X142150929Y-105439534D01*
X142464466Y-105753071D01*
X142710811Y-106121751D01*
X142880496Y-106531407D01*
X142967000Y-106966296D01*
X142967000Y-107409704D01*
X142880496Y-107844593D01*
X142710811Y-108254249D01*
X142464466Y-108622929D01*
X142150929Y-108936466D01*
X141782249Y-109182811D01*
X141372593Y-109352496D01*
X140991880Y-109428224D01*
X140937705Y-109439000D01*
X140494295Y-109439000D01*
X140440120Y-109428224D01*
X140059407Y-109352496D01*
X139649751Y-109182811D01*
X139281071Y-108936466D01*
X138967534Y-108622929D01*
X138721189Y-108254249D01*
X138551504Y-107844593D01*
X138465000Y-107409704D01*
X138465000Y-106966296D01*
X138551504Y-106531407D01*
X138721189Y-106121751D01*
X138967534Y-105753071D01*
X139281071Y-105439534D01*
X139649751Y-105193189D01*
X140059407Y-105023504D01*
X140440120Y-104947776D01*
X140494295Y-104937000D01*
X140937705Y-104937000D01*
X140991880Y-104947776D01*
G37*
G36*
X148134564Y-104653389D02*
G01*
X148325833Y-104732615D01*
X148325835Y-104732616D01*
X148497973Y-104847635D01*
X148644365Y-104994027D01*
X148739897Y-105137000D01*
X148759385Y-105166167D01*
X148838611Y-105357436D01*
X148879000Y-105560484D01*
X148879000Y-105767516D01*
X148838611Y-105970564D01*
X148801247Y-106060769D01*
X148759384Y-106161835D01*
X148644365Y-106333973D01*
X148497973Y-106480365D01*
X148325835Y-106595384D01*
X148325834Y-106595385D01*
X148325833Y-106595385D01*
X148134564Y-106674611D01*
X147931516Y-106715000D01*
X147724484Y-106715000D01*
X147521436Y-106674611D01*
X147330167Y-106595385D01*
X147330166Y-106595385D01*
X147330165Y-106595384D01*
X147158027Y-106480365D01*
X147011635Y-106333973D01*
X146896616Y-106161835D01*
X146854753Y-106060769D01*
X146817389Y-105970564D01*
X146777000Y-105767516D01*
X146777000Y-105560484D01*
X146817389Y-105357436D01*
X146896615Y-105166167D01*
X146916104Y-105137000D01*
X147011635Y-104994027D01*
X147158027Y-104847635D01*
X147330165Y-104732616D01*
X147330167Y-104732615D01*
X147521436Y-104653389D01*
X147724484Y-104613000D01*
X147931516Y-104613000D01*
X148134564Y-104653389D01*
G37*
G36*
X148134564Y-102113389D02*
G01*
X148325833Y-102192615D01*
X148325835Y-102192616D01*
X148497973Y-102307635D01*
X148644365Y-102454027D01*
X148746705Y-102607189D01*
X148759385Y-102626167D01*
X148838611Y-102817436D01*
X148879000Y-103020484D01*
X148879000Y-103227516D01*
X148838611Y-103430564D01*
X148759385Y-103621833D01*
X148759384Y-103621835D01*
X148644365Y-103793973D01*
X148497973Y-103940365D01*
X148325835Y-104055384D01*
X148325834Y-104055385D01*
X148325833Y-104055385D01*
X148134564Y-104134611D01*
X147931516Y-104175000D01*
X147724484Y-104175000D01*
X147521436Y-104134611D01*
X147330167Y-104055385D01*
X147330166Y-104055385D01*
X147330165Y-104055384D01*
X147158027Y-103940365D01*
X147011635Y-103793973D01*
X146896616Y-103621835D01*
X146896615Y-103621833D01*
X146817389Y-103430564D01*
X146777000Y-103227516D01*
X146777000Y-103020484D01*
X146817389Y-102817436D01*
X146896615Y-102626167D01*
X146909296Y-102607189D01*
X147011635Y-102454027D01*
X147158027Y-102307635D01*
X147330165Y-102192616D01*
X147330167Y-102192615D01*
X147521436Y-102113389D01*
X147724484Y-102073000D01*
X147931516Y-102073000D01*
X148134564Y-102113389D01*
G37*
G36*
X161850564Y-102113389D02*
G01*
X162041833Y-102192615D01*
X162041835Y-102192616D01*
X162213973Y-102307635D01*
X162360365Y-102454027D01*
X162462705Y-102607189D01*
X162475385Y-102626167D01*
X162554611Y-102817436D01*
X162595000Y-103020484D01*
X162595000Y-103227516D01*
X162554611Y-103430564D01*
X162475385Y-103621833D01*
X162475384Y-103621835D01*
X162360365Y-103793973D01*
X162213973Y-103940365D01*
X162041835Y-104055384D01*
X162041834Y-104055385D01*
X162041833Y-104055385D01*
X161850564Y-104134611D01*
X161647516Y-104175000D01*
X161440484Y-104175000D01*
X161237436Y-104134611D01*
X161046167Y-104055385D01*
X161046166Y-104055385D01*
X161046165Y-104055384D01*
X160874027Y-103940365D01*
X160727635Y-103793973D01*
X160612616Y-103621835D01*
X160612615Y-103621833D01*
X160533389Y-103430564D01*
X160493000Y-103227516D01*
X160493000Y-103020484D01*
X160533389Y-102817436D01*
X160612615Y-102626167D01*
X160625296Y-102607189D01*
X160727635Y-102454027D01*
X160874027Y-102307635D01*
X161046165Y-102192616D01*
X161046167Y-102192615D01*
X161237436Y-102113389D01*
X161440484Y-102073000D01*
X161647516Y-102073000D01*
X161850564Y-102113389D01*
G37*
G36*
X167753512Y-101973927D02*
G01*
X167902812Y-102003624D01*
X168066784Y-102071544D01*
X168214354Y-102170147D01*
X168339853Y-102295646D01*
X168438456Y-102443216D01*
X168506376Y-102607188D01*
X168541000Y-102781259D01*
X168541000Y-102958741D01*
X168506376Y-103132812D01*
X168438456Y-103296784D01*
X168339853Y-103444354D01*
X168214354Y-103569853D01*
X168066784Y-103668456D01*
X167902812Y-103736376D01*
X167753512Y-103766073D01*
X167728742Y-103771000D01*
X167551258Y-103771000D01*
X167526488Y-103766073D01*
X167377188Y-103736376D01*
X167213216Y-103668456D01*
X167065646Y-103569853D01*
X166940147Y-103444354D01*
X166841544Y-103296784D01*
X166773624Y-103132812D01*
X166739000Y-102958741D01*
X166739000Y-102781259D01*
X166773624Y-102607188D01*
X166841544Y-102443216D01*
X166940147Y-102295646D01*
X167065646Y-102170147D01*
X167213216Y-102071544D01*
X167377188Y-102003624D01*
X167526488Y-101973927D01*
X167551258Y-101969000D01*
X167728742Y-101969000D01*
X167753512Y-101973927D01*
G37*
G36*
X161850564Y-99573389D02*
G01*
X162041833Y-99652615D01*
X162041835Y-99652616D01*
X162213973Y-99767635D01*
X162360365Y-99914027D01*
X162462705Y-100067189D01*
X162475385Y-100086167D01*
X162554611Y-100277436D01*
X162595000Y-100480484D01*
X162595000Y-100687516D01*
X162554611Y-100890564D01*
X162475385Y-101081833D01*
X162475384Y-101081835D01*
X162360365Y-101253973D01*
X162213973Y-101400365D01*
X162041835Y-101515384D01*
X162041834Y-101515385D01*
X162041833Y-101515385D01*
X161850564Y-101594611D01*
X161647516Y-101635000D01*
X161440484Y-101635000D01*
X161237436Y-101594611D01*
X161046167Y-101515385D01*
X161046166Y-101515385D01*
X161046165Y-101515384D01*
X160874027Y-101400365D01*
X160727635Y-101253973D01*
X160612616Y-101081835D01*
X160612615Y-101081833D01*
X160533389Y-100890564D01*
X160493000Y-100687516D01*
X160493000Y-100480484D01*
X160533389Y-100277436D01*
X160612615Y-100086167D01*
X160625296Y-100067189D01*
X160727635Y-99914027D01*
X160874027Y-99767635D01*
X161046165Y-99652616D01*
X161046167Y-99652615D01*
X161237436Y-99573389D01*
X161440484Y-99533000D01*
X161647516Y-99533000D01*
X161850564Y-99573389D01*
G37*
G36*
X148134564Y-99573389D02*
G01*
X148325833Y-99652615D01*
X148325835Y-99652616D01*
X148497973Y-99767635D01*
X148644365Y-99914027D01*
X148746705Y-100067189D01*
X148759385Y-100086167D01*
X148838611Y-100277436D01*
X148879000Y-100480484D01*
X148879000Y-100687516D01*
X148838611Y-100890564D01*
X148759385Y-101081833D01*
X148759384Y-101081835D01*
X148644365Y-101253973D01*
X148497973Y-101400365D01*
X148325835Y-101515384D01*
X148325834Y-101515385D01*
X148325833Y-101515385D01*
X148134564Y-101594611D01*
X147931516Y-101635000D01*
X147724484Y-101635000D01*
X147521436Y-101594611D01*
X147330167Y-101515385D01*
X147330166Y-101515385D01*
X147330165Y-101515384D01*
X147158027Y-101400365D01*
X147011635Y-101253973D01*
X146896616Y-101081835D01*
X146896615Y-101081833D01*
X146817389Y-100890564D01*
X146777000Y-100687516D01*
X146777000Y-100480484D01*
X146817389Y-100277436D01*
X146896615Y-100086167D01*
X146909296Y-100067189D01*
X147011635Y-99914027D01*
X147158027Y-99767635D01*
X147330165Y-99652616D01*
X147330167Y-99652615D01*
X147521436Y-99573389D01*
X147724484Y-99533000D01*
X147931516Y-99533000D01*
X148134564Y-99573389D01*
G37*
G36*
X167753512Y-99433927D02*
G01*
X167902812Y-99463624D01*
X168066784Y-99531544D01*
X168214354Y-99630147D01*
X168339853Y-99755646D01*
X168438456Y-99903216D01*
X168506376Y-100067188D01*
X168541000Y-100241259D01*
X168541000Y-100418741D01*
X168506376Y-100592812D01*
X168438456Y-100756784D01*
X168339853Y-100904354D01*
X168214354Y-101029853D01*
X168066784Y-101128456D01*
X167902812Y-101196376D01*
X167753512Y-101226073D01*
X167728742Y-101231000D01*
X167551258Y-101231000D01*
X167526488Y-101226073D01*
X167377188Y-101196376D01*
X167213216Y-101128456D01*
X167065646Y-101029853D01*
X166940147Y-100904354D01*
X166841544Y-100756784D01*
X166773624Y-100592812D01*
X166739000Y-100418741D01*
X166739000Y-100241259D01*
X166773624Y-100067188D01*
X166841544Y-99903216D01*
X166940147Y-99755646D01*
X167065646Y-99630147D01*
X167213216Y-99531544D01*
X167377188Y-99463624D01*
X167526488Y-99433927D01*
X167551258Y-99429000D01*
X167728742Y-99429000D01*
X167753512Y-99433927D01*
G37*
G36*
X161850564Y-97033389D02*
G01*
X162041833Y-97112615D01*
X162041835Y-97112616D01*
X162213973Y-97227635D01*
X162360365Y-97374027D01*
X162462705Y-97527189D01*
X162475385Y-97546167D01*
X162554611Y-97737436D01*
X162595000Y-97940484D01*
X162595000Y-98147516D01*
X162554611Y-98350564D01*
X162475385Y-98541833D01*
X162475384Y-98541835D01*
X162360365Y-98713973D01*
X162213973Y-98860365D01*
X162041835Y-98975384D01*
X162041834Y-98975385D01*
X162041833Y-98975385D01*
X161850564Y-99054611D01*
X161647516Y-99095000D01*
X161440484Y-99095000D01*
X161237436Y-99054611D01*
X161046167Y-98975385D01*
X161046166Y-98975385D01*
X161046165Y-98975384D01*
X160874027Y-98860365D01*
X160727635Y-98713973D01*
X160612616Y-98541835D01*
X160612615Y-98541833D01*
X160533389Y-98350564D01*
X160493000Y-98147516D01*
X160493000Y-97940484D01*
X160533389Y-97737436D01*
X160612615Y-97546167D01*
X160625296Y-97527189D01*
X160727635Y-97374027D01*
X160874027Y-97227635D01*
X161046165Y-97112616D01*
X161046167Y-97112615D01*
X161237436Y-97033389D01*
X161440484Y-96993000D01*
X161647516Y-96993000D01*
X161850564Y-97033389D01*
G37*
G36*
X148134564Y-97033389D02*
G01*
X148325833Y-97112615D01*
X148325835Y-97112616D01*
X148497973Y-97227635D01*
X148644365Y-97374027D01*
X148746705Y-97527189D01*
X148759385Y-97546167D01*
X148838611Y-97737436D01*
X148879000Y-97940484D01*
X148879000Y-98147516D01*
X148838611Y-98350564D01*
X148759385Y-98541833D01*
X148759384Y-98541835D01*
X148644365Y-98713973D01*
X148497973Y-98860365D01*
X148325835Y-98975384D01*
X148325834Y-98975385D01*
X148325833Y-98975385D01*
X148134564Y-99054611D01*
X147931516Y-99095000D01*
X147724484Y-99095000D01*
X147521436Y-99054611D01*
X147330167Y-98975385D01*
X147330166Y-98975385D01*
X147330165Y-98975384D01*
X147158027Y-98860365D01*
X147011635Y-98713973D01*
X146896616Y-98541835D01*
X146896615Y-98541833D01*
X146817389Y-98350564D01*
X146777000Y-98147516D01*
X146777000Y-97940484D01*
X146817389Y-97737436D01*
X146896615Y-97546167D01*
X146909296Y-97527189D01*
X147011635Y-97374027D01*
X147158027Y-97227635D01*
X147330165Y-97112616D01*
X147330167Y-97112615D01*
X147521436Y-97033389D01*
X147724484Y-96993000D01*
X147931516Y-96993000D01*
X148134564Y-97033389D01*
G37*
G36*
X167753512Y-96893927D02*
G01*
X167902812Y-96923624D01*
X168066784Y-96991544D01*
X168214354Y-97090147D01*
X168339853Y-97215646D01*
X168438456Y-97363216D01*
X168506376Y-97527188D01*
X168541000Y-97701259D01*
X168541000Y-97878741D01*
X168506376Y-98052812D01*
X168438456Y-98216784D01*
X168339853Y-98364354D01*
X168214354Y-98489853D01*
X168066784Y-98588456D01*
X167902812Y-98656376D01*
X167753512Y-98686073D01*
X167728742Y-98691000D01*
X167551258Y-98691000D01*
X167526488Y-98686073D01*
X167377188Y-98656376D01*
X167213216Y-98588456D01*
X167065646Y-98489853D01*
X166940147Y-98364354D01*
X166841544Y-98216784D01*
X166773624Y-98052812D01*
X166739000Y-97878741D01*
X166739000Y-97701259D01*
X166773624Y-97527188D01*
X166841544Y-97363216D01*
X166940147Y-97215646D01*
X167065646Y-97090147D01*
X167213216Y-96991544D01*
X167377188Y-96923624D01*
X167526488Y-96893927D01*
X167551258Y-96889000D01*
X167728742Y-96889000D01*
X167753512Y-96893927D01*
G37*
G36*
X148134564Y-94493389D02*
G01*
X148325833Y-94572615D01*
X148325835Y-94572616D01*
X148497973Y-94687635D01*
X148644365Y-94834027D01*
X148759385Y-95006167D01*
X148838611Y-95197436D01*
X148879000Y-95400484D01*
X148879000Y-95607516D01*
X148838611Y-95810564D01*
X148759385Y-96001833D01*
X148759384Y-96001835D01*
X148644365Y-96173973D01*
X148497973Y-96320365D01*
X148325835Y-96435384D01*
X148325834Y-96435385D01*
X148325833Y-96435385D01*
X148134564Y-96514611D01*
X147931516Y-96555000D01*
X147724484Y-96555000D01*
X147521436Y-96514611D01*
X147330167Y-96435385D01*
X147330166Y-96435385D01*
X147330165Y-96435384D01*
X147158027Y-96320365D01*
X147011635Y-96173973D01*
X146896616Y-96001835D01*
X146896615Y-96001833D01*
X146817389Y-95810564D01*
X146777000Y-95607516D01*
X146777000Y-95400484D01*
X146817389Y-95197436D01*
X146896615Y-95006167D01*
X147011635Y-94834027D01*
X147158027Y-94687635D01*
X147330165Y-94572616D01*
X147330167Y-94572615D01*
X147521436Y-94493389D01*
X147724484Y-94453000D01*
X147931516Y-94453000D01*
X148134564Y-94493389D01*
G37*
G36*
X161850564Y-94493389D02*
G01*
X162041833Y-94572615D01*
X162041835Y-94572616D01*
X162213973Y-94687635D01*
X162360365Y-94834027D01*
X162475385Y-95006167D01*
X162554611Y-95197436D01*
X162595000Y-95400484D01*
X162595000Y-95607516D01*
X162554611Y-95810564D01*
X162475385Y-96001833D01*
X162475384Y-96001835D01*
X162360365Y-96173973D01*
X162213973Y-96320365D01*
X162041835Y-96435384D01*
X162041834Y-96435385D01*
X162041833Y-96435385D01*
X161850564Y-96514611D01*
X161647516Y-96555000D01*
X161440484Y-96555000D01*
X161237436Y-96514611D01*
X161046167Y-96435385D01*
X161046166Y-96435385D01*
X161046165Y-96435384D01*
X160874027Y-96320365D01*
X160727635Y-96173973D01*
X160612616Y-96001835D01*
X160612615Y-96001833D01*
X160533389Y-95810564D01*
X160493000Y-95607516D01*
X160493000Y-95400484D01*
X160533389Y-95197436D01*
X160612615Y-95006167D01*
X160727635Y-94834027D01*
X160874027Y-94687635D01*
X161046165Y-94572616D01*
X161046167Y-94572615D01*
X161237436Y-94493389D01*
X161440484Y-94453000D01*
X161647516Y-94453000D01*
X161850564Y-94493389D01*
G37*
G36*
X168541000Y-96151000D02*
G01*
X166739000Y-96151000D01*
X166739000Y-94349000D01*
X168541000Y-94349000D01*
X168541000Y-96151000D01*
G37*
G36*
X122734564Y-91953389D02*
G01*
X122925833Y-92032615D01*
X122925835Y-92032616D01*
X123097973Y-92147635D01*
X123244365Y-92294027D01*
X123359385Y-92466167D01*
X123438611Y-92657436D01*
X123479000Y-92860484D01*
X123479000Y-93067516D01*
X123438611Y-93270564D01*
X123359385Y-93461833D01*
X123359384Y-93461835D01*
X123244365Y-93633973D01*
X123097973Y-93780365D01*
X122925835Y-93895384D01*
X122925834Y-93895385D01*
X122925833Y-93895385D01*
X122734564Y-93974611D01*
X122531516Y-94015000D01*
X122324484Y-94015000D01*
X122121436Y-93974611D01*
X121930167Y-93895385D01*
X121930166Y-93895385D01*
X121930165Y-93895384D01*
X121758027Y-93780365D01*
X121611635Y-93633973D01*
X121496616Y-93461835D01*
X121496615Y-93461833D01*
X121417389Y-93270564D01*
X121377000Y-93067516D01*
X121377000Y-92860484D01*
X121417389Y-92657436D01*
X121496615Y-92466167D01*
X121611635Y-92294027D01*
X121758027Y-92147635D01*
X121930165Y-92032616D01*
X121930167Y-92032615D01*
X122121436Y-91953389D01*
X122324484Y-91913000D01*
X122531516Y-91913000D01*
X122734564Y-91953389D01*
G37*
G36*
X127814564Y-91953389D02*
G01*
X128005833Y-92032615D01*
X128005835Y-92032616D01*
X128177973Y-92147635D01*
X128324365Y-92294027D01*
X128439385Y-92466167D01*
X128518611Y-92657436D01*
X128559000Y-92860484D01*
X128559000Y-93067516D01*
X128518611Y-93270564D01*
X128439385Y-93461833D01*
X128439384Y-93461835D01*
X128324365Y-93633973D01*
X128177973Y-93780365D01*
X128005835Y-93895384D01*
X128005834Y-93895385D01*
X128005833Y-93895385D01*
X127814564Y-93974611D01*
X127611516Y-94015000D01*
X127404484Y-94015000D01*
X127201436Y-93974611D01*
X127010167Y-93895385D01*
X127010166Y-93895385D01*
X127010165Y-93895384D01*
X126838027Y-93780365D01*
X126691635Y-93633973D01*
X126576616Y-93461835D01*
X126576615Y-93461833D01*
X126497389Y-93270564D01*
X126457000Y-93067516D01*
X126457000Y-92860484D01*
X126497389Y-92657436D01*
X126576615Y-92466167D01*
X126691635Y-92294027D01*
X126838027Y-92147635D01*
X127010165Y-92032616D01*
X127010167Y-92032615D01*
X127201436Y-91953389D01*
X127404484Y-91913000D01*
X127611516Y-91913000D01*
X127814564Y-91953389D01*
G37*
G36*
X130354564Y-91953389D02*
G01*
X130545833Y-92032615D01*
X130545835Y-92032616D01*
X130717973Y-92147635D01*
X130864365Y-92294027D01*
X130979385Y-92466167D01*
X131058611Y-92657436D01*
X131099000Y-92860484D01*
X131099000Y-93067516D01*
X131058611Y-93270564D01*
X130979385Y-93461833D01*
X130979384Y-93461835D01*
X130864365Y-93633973D01*
X130717973Y-93780365D01*
X130545835Y-93895384D01*
X130545834Y-93895385D01*
X130545833Y-93895385D01*
X130354564Y-93974611D01*
X130151516Y-94015000D01*
X129944484Y-94015000D01*
X129741436Y-93974611D01*
X129550167Y-93895385D01*
X129550166Y-93895385D01*
X129550165Y-93895384D01*
X129378027Y-93780365D01*
X129231635Y-93633973D01*
X129116616Y-93461835D01*
X129116615Y-93461833D01*
X129037389Y-93270564D01*
X128997000Y-93067516D01*
X128997000Y-92860484D01*
X129037389Y-92657436D01*
X129116615Y-92466167D01*
X129231635Y-92294027D01*
X129378027Y-92147635D01*
X129550165Y-92032616D01*
X129550167Y-92032615D01*
X129741436Y-91953389D01*
X129944484Y-91913000D01*
X130151516Y-91913000D01*
X130354564Y-91953389D01*
G37*
G36*
X161850564Y-91953389D02*
G01*
X162041833Y-92032615D01*
X162041835Y-92032616D01*
X162213973Y-92147635D01*
X162360365Y-92294027D01*
X162475385Y-92466167D01*
X162554611Y-92657436D01*
X162595000Y-92860484D01*
X162595000Y-93067516D01*
X162554611Y-93270564D01*
X162475385Y-93461833D01*
X162475384Y-93461835D01*
X162360365Y-93633973D01*
X162213973Y-93780365D01*
X162041835Y-93895384D01*
X162041834Y-93895385D01*
X162041833Y-93895385D01*
X161850564Y-93974611D01*
X161647516Y-94015000D01*
X161440484Y-94015000D01*
X161237436Y-93974611D01*
X161046167Y-93895385D01*
X161046166Y-93895385D01*
X161046165Y-93895384D01*
X160874027Y-93780365D01*
X160727635Y-93633973D01*
X160612616Y-93461835D01*
X160612615Y-93461833D01*
X160533389Y-93270564D01*
X160493000Y-93067516D01*
X160493000Y-92860484D01*
X160533389Y-92657436D01*
X160612615Y-92466167D01*
X160727635Y-92294027D01*
X160874027Y-92147635D01*
X161046165Y-92032616D01*
X161046167Y-92032615D01*
X161237436Y-91953389D01*
X161440484Y-91913000D01*
X161647516Y-91913000D01*
X161850564Y-91953389D01*
G37*
G36*
X148134564Y-91953389D02*
G01*
X148325833Y-92032615D01*
X148325835Y-92032616D01*
X148497973Y-92147635D01*
X148644365Y-92294027D01*
X148759385Y-92466167D01*
X148838611Y-92657436D01*
X148879000Y-92860484D01*
X148879000Y-93067516D01*
X148838611Y-93270564D01*
X148759385Y-93461833D01*
X148759384Y-93461835D01*
X148644365Y-93633973D01*
X148497973Y-93780365D01*
X148325835Y-93895384D01*
X148325834Y-93895385D01*
X148325833Y-93895385D01*
X148134564Y-93974611D01*
X147931516Y-94015000D01*
X147724484Y-94015000D01*
X147521436Y-93974611D01*
X147330167Y-93895385D01*
X147330166Y-93895385D01*
X147330165Y-93895384D01*
X147158027Y-93780365D01*
X147011635Y-93633973D01*
X146896616Y-93461835D01*
X146896615Y-93461833D01*
X146817389Y-93270564D01*
X146777000Y-93067516D01*
X146777000Y-92860484D01*
X146817389Y-92657436D01*
X146896615Y-92466167D01*
X147011635Y-92294027D01*
X147158027Y-92147635D01*
X147330165Y-92032616D01*
X147330167Y-92032615D01*
X147521436Y-91953389D01*
X147724484Y-91913000D01*
X147931516Y-91913000D01*
X148134564Y-91953389D01*
G37*
G36*
X125274564Y-91953389D02*
G01*
X125465833Y-92032615D01*
X125465835Y-92032616D01*
X125637973Y-92147635D01*
X125784365Y-92294027D01*
X125899385Y-92466167D01*
X125978611Y-92657436D01*
X126019000Y-92860484D01*
X126019000Y-93067516D01*
X125978611Y-93270564D01*
X125899385Y-93461833D01*
X125899384Y-93461835D01*
X125784365Y-93633973D01*
X125637973Y-93780365D01*
X125465835Y-93895384D01*
X125465834Y-93895385D01*
X125465833Y-93895385D01*
X125274564Y-93974611D01*
X125071516Y-94015000D01*
X124864484Y-94015000D01*
X124661436Y-93974611D01*
X124470167Y-93895385D01*
X124470166Y-93895385D01*
X124470165Y-93895384D01*
X124298027Y-93780365D01*
X124151635Y-93633973D01*
X124036616Y-93461835D01*
X124036615Y-93461833D01*
X123957389Y-93270564D01*
X123917000Y-93067516D01*
X123917000Y-92860484D01*
X123957389Y-92657436D01*
X124036615Y-92466167D01*
X124151635Y-92294027D01*
X124298027Y-92147635D01*
X124470165Y-92032616D01*
X124470167Y-92032615D01*
X124661436Y-91953389D01*
X124864484Y-91913000D01*
X125071516Y-91913000D01*
X125274564Y-91953389D01*
G37*
G36*
X132894564Y-91953389D02*
G01*
X133085833Y-92032615D01*
X133085835Y-92032616D01*
X133257973Y-92147635D01*
X133404365Y-92294027D01*
X133519385Y-92466167D01*
X133598611Y-92657436D01*
X133639000Y-92860484D01*
X133639000Y-93067516D01*
X133598611Y-93270564D01*
X133519385Y-93461833D01*
X133519384Y-93461835D01*
X133404365Y-93633973D01*
X133257973Y-93780365D01*
X133085835Y-93895384D01*
X133085834Y-93895385D01*
X133085833Y-93895385D01*
X132894564Y-93974611D01*
X132691516Y-94015000D01*
X132484484Y-94015000D01*
X132281436Y-93974611D01*
X132090167Y-93895385D01*
X132090166Y-93895385D01*
X132090165Y-93895384D01*
X131918027Y-93780365D01*
X131771635Y-93633973D01*
X131656616Y-93461835D01*
X131656615Y-93461833D01*
X131577389Y-93270564D01*
X131537000Y-93067516D01*
X131537000Y-92860484D01*
X131577389Y-92657436D01*
X131656615Y-92466167D01*
X131771635Y-92294027D01*
X131918027Y-92147635D01*
X132090165Y-92032616D01*
X132090167Y-92032615D01*
X132281436Y-91953389D01*
X132484484Y-91913000D01*
X132691516Y-91913000D01*
X132894564Y-91953389D01*
G37*
G36*
X161850564Y-89413389D02*
G01*
X162041833Y-89492615D01*
X162041835Y-89492616D01*
X162213973Y-89607635D01*
X162360365Y-89754027D01*
X162475385Y-89926167D01*
X162554611Y-90117436D01*
X162595000Y-90320484D01*
X162595000Y-90527516D01*
X162554611Y-90730564D01*
X162475385Y-90921833D01*
X162475384Y-90921835D01*
X162360365Y-91093973D01*
X162213973Y-91240365D01*
X162041835Y-91355384D01*
X162041834Y-91355385D01*
X162041833Y-91355385D01*
X161850564Y-91434611D01*
X161647516Y-91475000D01*
X161440484Y-91475000D01*
X161237436Y-91434611D01*
X161046167Y-91355385D01*
X161046166Y-91355385D01*
X161046165Y-91355384D01*
X160874027Y-91240365D01*
X160727635Y-91093973D01*
X160612616Y-90921835D01*
X160612615Y-90921833D01*
X160533389Y-90730564D01*
X160493000Y-90527516D01*
X160493000Y-90320484D01*
X160533389Y-90117436D01*
X160612615Y-89926167D01*
X160727635Y-89754027D01*
X160874027Y-89607635D01*
X161046165Y-89492616D01*
X161046167Y-89492615D01*
X161237436Y-89413389D01*
X161440484Y-89373000D01*
X161647516Y-89373000D01*
X161850564Y-89413389D01*
G37*
G36*
X148134564Y-89413389D02*
G01*
X148325833Y-89492615D01*
X148325835Y-89492616D01*
X148497973Y-89607635D01*
X148644365Y-89754027D01*
X148759385Y-89926167D01*
X148838611Y-90117436D01*
X148879000Y-90320484D01*
X148879000Y-90527516D01*
X148838611Y-90730564D01*
X148759385Y-90921833D01*
X148759384Y-90921835D01*
X148644365Y-91093973D01*
X148497973Y-91240365D01*
X148325835Y-91355384D01*
X148325834Y-91355385D01*
X148325833Y-91355385D01*
X148134564Y-91434611D01*
X147931516Y-91475000D01*
X147724484Y-91475000D01*
X147521436Y-91434611D01*
X147330167Y-91355385D01*
X147330166Y-91355385D01*
X147330165Y-91355384D01*
X147158027Y-91240365D01*
X147011635Y-91093973D01*
X146896616Y-90921835D01*
X146896615Y-90921833D01*
X146817389Y-90730564D01*
X146777000Y-90527516D01*
X146777000Y-90320484D01*
X146817389Y-90117436D01*
X146896615Y-89926167D01*
X147011635Y-89754027D01*
X147158027Y-89607635D01*
X147330165Y-89492616D01*
X147330167Y-89492615D01*
X147521436Y-89413389D01*
X147724484Y-89373000D01*
X147931516Y-89373000D01*
X148134564Y-89413389D01*
G37*
G36*
X158294564Y-86873389D02*
G01*
X158485833Y-86952615D01*
X158485835Y-86952616D01*
X158657973Y-87067635D01*
X158804365Y-87214027D01*
X158919385Y-87386167D01*
X158998611Y-87577436D01*
X159039000Y-87780484D01*
X159039000Y-87987516D01*
X158998611Y-88190564D01*
X158919385Y-88381833D01*
X158919384Y-88381835D01*
X158804365Y-88553973D01*
X158657973Y-88700365D01*
X158485835Y-88815384D01*
X158485834Y-88815385D01*
X158485833Y-88815385D01*
X158294564Y-88894611D01*
X158091516Y-88935000D01*
X157884484Y-88935000D01*
X157681436Y-88894611D01*
X157490167Y-88815385D01*
X157490166Y-88815385D01*
X157490165Y-88815384D01*
X157318027Y-88700365D01*
X157171635Y-88553973D01*
X157056616Y-88381835D01*
X157056615Y-88381833D01*
X156977389Y-88190564D01*
X156937000Y-87987516D01*
X156937000Y-87780484D01*
X156977389Y-87577436D01*
X157056615Y-87386167D01*
X157171635Y-87214027D01*
X157318027Y-87067635D01*
X157490165Y-86952616D01*
X157490167Y-86952615D01*
X157681436Y-86873389D01*
X157884484Y-86833000D01*
X158091516Y-86833000D01*
X158294564Y-86873389D01*
G37*
G36*
X153214564Y-86873389D02*
G01*
X153405833Y-86952615D01*
X153405835Y-86952616D01*
X153577973Y-87067635D01*
X153724365Y-87214027D01*
X153839385Y-87386167D01*
X153918611Y-87577436D01*
X153959000Y-87780484D01*
X153959000Y-87987516D01*
X153918611Y-88190564D01*
X153839385Y-88381833D01*
X153839384Y-88381835D01*
X153724365Y-88553973D01*
X153577973Y-88700365D01*
X153405835Y-88815384D01*
X153405834Y-88815385D01*
X153405833Y-88815385D01*
X153214564Y-88894611D01*
X153011516Y-88935000D01*
X152804484Y-88935000D01*
X152601436Y-88894611D01*
X152410167Y-88815385D01*
X152410166Y-88815385D01*
X152410165Y-88815384D01*
X152238027Y-88700365D01*
X152091635Y-88553973D01*
X151976616Y-88381835D01*
X151976615Y-88381833D01*
X151897389Y-88190564D01*
X151857000Y-87987516D01*
X151857000Y-87780484D01*
X151897389Y-87577436D01*
X151976615Y-87386167D01*
X152091635Y-87214027D01*
X152238027Y-87067635D01*
X152410165Y-86952616D01*
X152410167Y-86952615D01*
X152601436Y-86873389D01*
X152804484Y-86833000D01*
X153011516Y-86833000D01*
X153214564Y-86873389D01*
G37*
G36*
X148134564Y-86873389D02*
G01*
X148325833Y-86952615D01*
X148325835Y-86952616D01*
X148497973Y-87067635D01*
X148644365Y-87214027D01*
X148759385Y-87386167D01*
X148838611Y-87577436D01*
X148879000Y-87780484D01*
X148879000Y-87987516D01*
X148838611Y-88190564D01*
X148759385Y-88381833D01*
X148759384Y-88381835D01*
X148644365Y-88553973D01*
X148497973Y-88700365D01*
X148325835Y-88815384D01*
X148325834Y-88815385D01*
X148325833Y-88815385D01*
X148134564Y-88894611D01*
X147931516Y-88935000D01*
X147724484Y-88935000D01*
X147521436Y-88894611D01*
X147330167Y-88815385D01*
X147330166Y-88815385D01*
X147330165Y-88815384D01*
X147158027Y-88700365D01*
X147011635Y-88553973D01*
X146896616Y-88381835D01*
X146896615Y-88381833D01*
X146817389Y-88190564D01*
X146777000Y-87987516D01*
X146777000Y-87780484D01*
X146817389Y-87577436D01*
X146896615Y-87386167D01*
X147011635Y-87214027D01*
X147158027Y-87067635D01*
X147330165Y-86952616D01*
X147330167Y-86952615D01*
X147521436Y-86873389D01*
X147724484Y-86833000D01*
X147931516Y-86833000D01*
X148134564Y-86873389D01*
G37*
G36*
X148134564Y-75951389D02*
G01*
X148325833Y-76030615D01*
X148325835Y-76030616D01*
X148497973Y-76145635D01*
X148644365Y-76292027D01*
X148759385Y-76464167D01*
X148838611Y-76655436D01*
X148879000Y-76858484D01*
X148879000Y-77065516D01*
X148838611Y-77268564D01*
X148759385Y-77459833D01*
X148759384Y-77459835D01*
X148644365Y-77631973D01*
X148497973Y-77778365D01*
X148325835Y-77893384D01*
X148325834Y-77893385D01*
X148325833Y-77893385D01*
X148134564Y-77972611D01*
X147931516Y-78013000D01*
X147724484Y-78013000D01*
X147521436Y-77972611D01*
X147330167Y-77893385D01*
X147330166Y-77893385D01*
X147330165Y-77893384D01*
X147158027Y-77778365D01*
X147011635Y-77631973D01*
X146896616Y-77459835D01*
X146896615Y-77459833D01*
X146817389Y-77268564D01*
X146777000Y-77065516D01*
X146777000Y-76858484D01*
X146817389Y-76655436D01*
X146896615Y-76464167D01*
X147011635Y-76292027D01*
X147158027Y-76145635D01*
X147330165Y-76030616D01*
X147330167Y-76030615D01*
X147521436Y-75951389D01*
X147724484Y-75911000D01*
X147931516Y-75911000D01*
X148134564Y-75951389D01*
G37*
G36*
X162358564Y-75951389D02*
G01*
X162549833Y-76030615D01*
X162549835Y-76030616D01*
X162721973Y-76145635D01*
X162868365Y-76292027D01*
X162983385Y-76464167D01*
X163062611Y-76655436D01*
X163103000Y-76858484D01*
X163103000Y-77065516D01*
X163062611Y-77268564D01*
X162983385Y-77459833D01*
X162983384Y-77459835D01*
X162868365Y-77631973D01*
X162721973Y-77778365D01*
X162549835Y-77893384D01*
X162549834Y-77893385D01*
X162549833Y-77893385D01*
X162358564Y-77972611D01*
X162155516Y-78013000D01*
X161948484Y-78013000D01*
X161745436Y-77972611D01*
X161554167Y-77893385D01*
X161554166Y-77893385D01*
X161554165Y-77893384D01*
X161382027Y-77778365D01*
X161235635Y-77631973D01*
X161120616Y-77459835D01*
X161120615Y-77459833D01*
X161041389Y-77268564D01*
X161001000Y-77065516D01*
X161001000Y-76858484D01*
X161041389Y-76655436D01*
X161120615Y-76464167D01*
X161235635Y-76292027D01*
X161382027Y-76145635D01*
X161554165Y-76030616D01*
X161554167Y-76030615D01*
X161745436Y-75951389D01*
X161948484Y-75911000D01*
X162155516Y-75911000D01*
X162358564Y-75951389D01*
G37*
G36*
X168804880Y-47162776D02*
G01*
X169185593Y-47238504D01*
X169595249Y-47408189D01*
X169963929Y-47654534D01*
X170277466Y-47968071D01*
X170523811Y-48336751D01*
X170693496Y-48746407D01*
X170780000Y-49181296D01*
X170780000Y-49624704D01*
X170693496Y-50059593D01*
X170523811Y-50469249D01*
X170277466Y-50837929D01*
X169963929Y-51151466D01*
X169595249Y-51397811D01*
X169185593Y-51567496D01*
X168804880Y-51643224D01*
X168750705Y-51654000D01*
X168307295Y-51654000D01*
X168253120Y-51643224D01*
X167872407Y-51567496D01*
X167462751Y-51397811D01*
X167094071Y-51151466D01*
X166780534Y-50837929D01*
X166534189Y-50469249D01*
X166364504Y-50059593D01*
X166278000Y-49624704D01*
X166278000Y-49181296D01*
X166364504Y-48746407D01*
X166534189Y-48336751D01*
X166780534Y-47968071D01*
X167094071Y-47654534D01*
X167462751Y-47408189D01*
X167872407Y-47238504D01*
X168253120Y-47162776D01*
X168307295Y-47152000D01*
X168750705Y-47152000D01*
X168804880Y-47162776D01*
G37*
G36*
X162358564Y-48519389D02*
G01*
X162549833Y-48598615D01*
X162549835Y-48598616D01*
X162721973Y-48713635D01*
X162868365Y-48860027D01*
X162932256Y-48955646D01*
X162983385Y-49032167D01*
X163062611Y-49223436D01*
X163103000Y-49426484D01*
X163103000Y-49633516D01*
X163062611Y-49836564D01*
X163012815Y-49956782D01*
X162983384Y-50027835D01*
X162868365Y-50199973D01*
X162721973Y-50346365D01*
X162549835Y-50461384D01*
X162549834Y-50461385D01*
X162549833Y-50461385D01*
X162358564Y-50540611D01*
X162155516Y-50581000D01*
X161948484Y-50581000D01*
X161745436Y-50540611D01*
X161554167Y-50461385D01*
X161554166Y-50461385D01*
X161554165Y-50461384D01*
X161382027Y-50346365D01*
X161235635Y-50199973D01*
X161120616Y-50027835D01*
X161091185Y-49956782D01*
X161041389Y-49836564D01*
X161001000Y-49633516D01*
X161001000Y-49426484D01*
X161041389Y-49223436D01*
X161120615Y-49032167D01*
X161171745Y-48955646D01*
X161235635Y-48860027D01*
X161382027Y-48713635D01*
X161554165Y-48598616D01*
X161554167Y-48598615D01*
X161745436Y-48519389D01*
X161948484Y-48479000D01*
X162155516Y-48479000D01*
X162358564Y-48519389D01*
G37*
G36*
X148134564Y-48519389D02*
G01*
X148325833Y-48598615D01*
X148325835Y-48598616D01*
X148497973Y-48713635D01*
X148644365Y-48860027D01*
X148708256Y-48955646D01*
X148759385Y-49032167D01*
X148838611Y-49223436D01*
X148879000Y-49426484D01*
X148879000Y-49633516D01*
X148838611Y-49836564D01*
X148788815Y-49956782D01*
X148759384Y-50027835D01*
X148644365Y-50199973D01*
X148497973Y-50346365D01*
X148325835Y-50461384D01*
X148325834Y-50461385D01*
X148325833Y-50461385D01*
X148134564Y-50540611D01*
X147931516Y-50581000D01*
X147724484Y-50581000D01*
X147521436Y-50540611D01*
X147330167Y-50461385D01*
X147330166Y-50461385D01*
X147330165Y-50461384D01*
X147158027Y-50346365D01*
X147011635Y-50199973D01*
X146896616Y-50027835D01*
X146867185Y-49956782D01*
X146817389Y-49836564D01*
X146777000Y-49633516D01*
X146777000Y-49426484D01*
X146817389Y-49223436D01*
X146896615Y-49032167D01*
X146947745Y-48955646D01*
X147011635Y-48860027D01*
X147158027Y-48713635D01*
X147330165Y-48598616D01*
X147330167Y-48598615D01*
X147521436Y-48519389D01*
X147724484Y-48479000D01*
X147931516Y-48479000D01*
X148134564Y-48519389D01*
G37*
G36*
X133463512Y-48633927D02*
G01*
X133612812Y-48663624D01*
X133776784Y-48731544D01*
X133924354Y-48830147D01*
X134049853Y-48955646D01*
X134148456Y-49103216D01*
X134216376Y-49267188D01*
X134251000Y-49441259D01*
X134251000Y-49618741D01*
X134216376Y-49792812D01*
X134148456Y-49956784D01*
X134049853Y-50104354D01*
X133924354Y-50229853D01*
X133776784Y-50328456D01*
X133612812Y-50396376D01*
X133463512Y-50426073D01*
X133438742Y-50431000D01*
X133261258Y-50431000D01*
X133236488Y-50426073D01*
X133087188Y-50396376D01*
X132923216Y-50328456D01*
X132775646Y-50229853D01*
X132650147Y-50104354D01*
X132551544Y-49956784D01*
X132483624Y-49792812D01*
X132449000Y-49618741D01*
X132449000Y-49441259D01*
X132483624Y-49267188D01*
X132551544Y-49103216D01*
X132650147Y-48955646D01*
X132775646Y-48830147D01*
X132923216Y-48731544D01*
X133087188Y-48663624D01*
X133236488Y-48633927D01*
X133261258Y-48629000D01*
X133438742Y-48629000D01*
X133463512Y-48633927D01*
G37*
G36*
X141083512Y-48633927D02*
G01*
X141232812Y-48663624D01*
X141396784Y-48731544D01*
X141544354Y-48830147D01*
X141669853Y-48955646D01*
X141768456Y-49103216D01*
X141836376Y-49267188D01*
X141871000Y-49441259D01*
X141871000Y-49618741D01*
X141836376Y-49792812D01*
X141768456Y-49956784D01*
X141669853Y-50104354D01*
X141544354Y-50229853D01*
X141396784Y-50328456D01*
X141232812Y-50396376D01*
X141083512Y-50426073D01*
X141058742Y-50431000D01*
X140881258Y-50431000D01*
X140856488Y-50426073D01*
X140707188Y-50396376D01*
X140543216Y-50328456D01*
X140395646Y-50229853D01*
X140270147Y-50104354D01*
X140171544Y-49956784D01*
X140103624Y-49792812D01*
X140069000Y-49618741D01*
X140069000Y-49441259D01*
X140103624Y-49267188D01*
X140171544Y-49103216D01*
X140270147Y-48955646D01*
X140395646Y-48830147D01*
X140543216Y-48731544D01*
X140707188Y-48663624D01*
X140856488Y-48633927D01*
X140881258Y-48629000D01*
X141058742Y-48629000D01*
X141083512Y-48633927D01*
G37*
G36*
X138543512Y-48633927D02*
G01*
X138692812Y-48663624D01*
X138856784Y-48731544D01*
X139004354Y-48830147D01*
X139129853Y-48955646D01*
X139228456Y-49103216D01*
X139296376Y-49267188D01*
X139331000Y-49441259D01*
X139331000Y-49618741D01*
X139296376Y-49792812D01*
X139228456Y-49956784D01*
X139129853Y-50104354D01*
X139004354Y-50229853D01*
X138856784Y-50328456D01*
X138692812Y-50396376D01*
X138543512Y-50426073D01*
X138518742Y-50431000D01*
X138341258Y-50431000D01*
X138316488Y-50426073D01*
X138167188Y-50396376D01*
X138003216Y-50328456D01*
X137855646Y-50229853D01*
X137730147Y-50104354D01*
X137631544Y-49956784D01*
X137563624Y-49792812D01*
X137529000Y-49618741D01*
X137529000Y-49441259D01*
X137563624Y-49267188D01*
X137631544Y-49103216D01*
X137730147Y-48955646D01*
X137855646Y-48830147D01*
X138003216Y-48731544D01*
X138167188Y-48663624D01*
X138316488Y-48633927D01*
X138341258Y-48629000D01*
X138518742Y-48629000D01*
X138543512Y-48633927D01*
G37*
G36*
X136003512Y-48633927D02*
G01*
X136152812Y-48663624D01*
X136316784Y-48731544D01*
X136464354Y-48830147D01*
X136589853Y-48955646D01*
X136688456Y-49103216D01*
X136756376Y-49267188D01*
X136791000Y-49441259D01*
X136791000Y-49618741D01*
X136756376Y-49792812D01*
X136688456Y-49956784D01*
X136589853Y-50104354D01*
X136464354Y-50229853D01*
X136316784Y-50328456D01*
X136152812Y-50396376D01*
X136003512Y-50426073D01*
X135978742Y-50431000D01*
X135801258Y-50431000D01*
X135776488Y-50426073D01*
X135627188Y-50396376D01*
X135463216Y-50328456D01*
X135315646Y-50229853D01*
X135190147Y-50104354D01*
X135091544Y-49956784D01*
X135023624Y-49792812D01*
X134989000Y-49618741D01*
X134989000Y-49441259D01*
X135023624Y-49267188D01*
X135091544Y-49103216D01*
X135190147Y-48955646D01*
X135315646Y-48830147D01*
X135463216Y-48731544D01*
X135627188Y-48663624D01*
X135776488Y-48633927D01*
X135801258Y-48629000D01*
X135978742Y-48629000D01*
X136003512Y-48633927D01*
G37*
G36*
X130923512Y-48633927D02*
G01*
X131072812Y-48663624D01*
X131236784Y-48731544D01*
X131384354Y-48830147D01*
X131509853Y-48955646D01*
X131608456Y-49103216D01*
X131676376Y-49267188D01*
X131711000Y-49441259D01*
X131711000Y-49618741D01*
X131676376Y-49792812D01*
X131608456Y-49956784D01*
X131509853Y-50104354D01*
X131384354Y-50229853D01*
X131236784Y-50328456D01*
X131072812Y-50396376D01*
X130923512Y-50426073D01*
X130898742Y-50431000D01*
X130721258Y-50431000D01*
X130696488Y-50426073D01*
X130547188Y-50396376D01*
X130383216Y-50328456D01*
X130235646Y-50229853D01*
X130110147Y-50104354D01*
X130011544Y-49956784D01*
X129943624Y-49792812D01*
X129909000Y-49618741D01*
X129909000Y-49441259D01*
X129943624Y-49267188D01*
X130011544Y-49103216D01*
X130110147Y-48955646D01*
X130235646Y-48830147D01*
X130383216Y-48731544D01*
X130547188Y-48663624D01*
X130696488Y-48633927D01*
X130721258Y-48629000D01*
X130898742Y-48629000D01*
X130923512Y-48633927D01*
G37*
G36*
X128383512Y-48633927D02*
G01*
X128532812Y-48663624D01*
X128696784Y-48731544D01*
X128844354Y-48830147D01*
X128969853Y-48955646D01*
X129068456Y-49103216D01*
X129136376Y-49267188D01*
X129171000Y-49441259D01*
X129171000Y-49618741D01*
X129136376Y-49792812D01*
X129068456Y-49956784D01*
X128969853Y-50104354D01*
X128844354Y-50229853D01*
X128696784Y-50328456D01*
X128532812Y-50396376D01*
X128383512Y-50426073D01*
X128358742Y-50431000D01*
X128181258Y-50431000D01*
X128156488Y-50426073D01*
X128007188Y-50396376D01*
X127843216Y-50328456D01*
X127695646Y-50229853D01*
X127570147Y-50104354D01*
X127471544Y-49956784D01*
X127403624Y-49792812D01*
X127369000Y-49618741D01*
X127369000Y-49441259D01*
X127403624Y-49267188D01*
X127471544Y-49103216D01*
X127570147Y-48955646D01*
X127695646Y-48830147D01*
X127843216Y-48731544D01*
X128007188Y-48663624D01*
X128156488Y-48633927D01*
X128181258Y-48629000D01*
X128358742Y-48629000D01*
X128383512Y-48633927D01*
G37*
G36*
X125843512Y-48633927D02*
G01*
X125992812Y-48663624D01*
X126156784Y-48731544D01*
X126304354Y-48830147D01*
X126429853Y-48955646D01*
X126528456Y-49103216D01*
X126596376Y-49267188D01*
X126631000Y-49441259D01*
X126631000Y-49618741D01*
X126596376Y-49792812D01*
X126528456Y-49956784D01*
X126429853Y-50104354D01*
X126304354Y-50229853D01*
X126156784Y-50328456D01*
X125992812Y-50396376D01*
X125843512Y-50426073D01*
X125818742Y-50431000D01*
X125641258Y-50431000D01*
X125616488Y-50426073D01*
X125467188Y-50396376D01*
X125303216Y-50328456D01*
X125155646Y-50229853D01*
X125030147Y-50104354D01*
X124931544Y-49956784D01*
X124863624Y-49792812D01*
X124829000Y-49618741D01*
X124829000Y-49441259D01*
X124863624Y-49267188D01*
X124931544Y-49103216D01*
X125030147Y-48955646D01*
X125155646Y-48830147D01*
X125303216Y-48731544D01*
X125467188Y-48663624D01*
X125616488Y-48633927D01*
X125641258Y-48629000D01*
X125818742Y-48629000D01*
X125843512Y-48633927D01*
G37*
G36*
X123303512Y-48633927D02*
G01*
X123452812Y-48663624D01*
X123616784Y-48731544D01*
X123764354Y-48830147D01*
X123889853Y-48955646D01*
X123988456Y-49103216D01*
X124056376Y-49267188D01*
X124091000Y-49441259D01*
X124091000Y-49618741D01*
X124056376Y-49792812D01*
X123988456Y-49956784D01*
X123889853Y-50104354D01*
X123764354Y-50229853D01*
X123616784Y-50328456D01*
X123452812Y-50396376D01*
X123303512Y-50426073D01*
X123278742Y-50431000D01*
X123101258Y-50431000D01*
X123076488Y-50426073D01*
X122927188Y-50396376D01*
X122763216Y-50328456D01*
X122615646Y-50229853D01*
X122490147Y-50104354D01*
X122391544Y-49956784D01*
X122323624Y-49792812D01*
X122289000Y-49618741D01*
X122289000Y-49441259D01*
X122323624Y-49267188D01*
X122391544Y-49103216D01*
X122490147Y-48955646D01*
X122615646Y-48830147D01*
X122763216Y-48731544D01*
X122927188Y-48663624D01*
X123076488Y-48633927D01*
X123101258Y-48629000D01*
X123278742Y-48629000D01*
X123303512Y-48633927D01*
G37*
G36*
X121551000Y-50431000D02*
G01*
X119749000Y-50431000D01*
X119749000Y-48629000D01*
X121551000Y-48629000D01*
X121551000Y-50431000D01*
G37*
M02*
