G04 #@! TF.GenerationSoftware,KiCad,Pcbnew,(5.1.5)-3*
G04 #@! TF.CreationDate,2020-02-27T11:18:57-07:00*
G04 #@! TF.ProjectId,matildaboard,6d617469-6c64-4616-926f-6172642e6b69,rev?*
G04 #@! TF.SameCoordinates,Original*
G04 #@! TF.FileFunction,Copper,L1,Top*
G04 #@! TF.FilePolarity,Positive*
%FSLAX46Y46*%
G04 Gerber Fmt 4.6, Leading zero omitted, Abs format (unit mm)*
G04 Created by KiCad (PCBNEW (5.1.5)-3) date 2020-02-27 11:18:57*
%MOMM*%
%LPD*%
G04 APERTURE LIST*
%ADD10C,0.700000*%
%ADD11C,4.400000*%
%ADD12C,2.000000*%
%ADD13R,1.700000X1.700000*%
%ADD14O,1.700000X1.700000*%
%ADD15C,0.700000*%
%ADD16C,0.254000*%
G04 APERTURE END LIST*
D10*
X141882726Y-106021274D03*
X140716000Y-105538000D03*
X139549274Y-106021274D03*
X139066000Y-107188000D03*
X139549274Y-108354726D03*
X140716000Y-108838000D03*
X141882726Y-108354726D03*
X142366000Y-107188000D03*
D11*
X140716000Y-107188000D03*
D10*
X169695726Y-48236274D03*
X168529000Y-47753000D03*
X167362274Y-48236274D03*
X166879000Y-49403000D03*
X167362274Y-50569726D03*
X168529000Y-51053000D03*
X169695726Y-50569726D03*
X170179000Y-49403000D03*
D11*
X168529000Y-49403000D03*
D12*
X147828000Y-87884000D03*
X147828000Y-90424000D03*
X147828000Y-92964000D03*
X147828000Y-95504000D03*
X147828000Y-98044000D03*
X147828000Y-100584000D03*
X147828000Y-103124000D03*
X147828000Y-105664000D03*
X161544000Y-103124000D03*
X161544000Y-100584000D03*
X161544000Y-98044000D03*
X161544000Y-95504000D03*
X161544000Y-92964000D03*
X161544000Y-90424000D03*
X157988000Y-87884000D03*
X152908000Y-87884000D03*
D13*
X120650000Y-49530000D03*
D14*
X123190000Y-49530000D03*
X125730000Y-49530000D03*
X128270000Y-49530000D03*
X130810000Y-49530000D03*
X133350000Y-49530000D03*
X135890000Y-49530000D03*
X138430000Y-49530000D03*
X140970000Y-49530000D03*
D13*
X167640000Y-95250000D03*
D14*
X167640000Y-97790000D03*
X167640000Y-100330000D03*
X167640000Y-102870000D03*
D12*
X132588000Y-92964000D03*
X130048000Y-92964000D03*
X127508000Y-92964000D03*
X124968000Y-92964000D03*
X122428000Y-92964000D03*
X147828000Y-49530000D03*
X162052000Y-49530000D03*
X147828000Y-76962000D03*
X162052000Y-76962000D03*
D15*
X144526000Y-53086000D02*
X140970000Y-49530000D01*
X147828000Y-95504000D02*
X144526000Y-92202000D01*
X144526000Y-92202000D02*
X144526000Y-53086000D01*
X142621000Y-53721000D02*
X138430000Y-49530000D01*
X147828000Y-98044000D02*
X142621000Y-92837000D01*
X142621000Y-92837000D02*
X142621000Y-53721000D01*
X140589000Y-54229000D02*
X135890000Y-49530000D01*
X147828000Y-100584000D02*
X140589000Y-93345000D01*
X140589000Y-93345000D02*
X140589000Y-54229000D01*
X138557000Y-54737000D02*
X133350000Y-49530000D01*
X147828000Y-103124000D02*
X138557000Y-93853000D01*
X138557000Y-93853000D02*
X138557000Y-54737000D01*
X137033000Y-55753000D02*
X130810000Y-49530000D01*
X147828000Y-105664000D02*
X137033000Y-94869000D01*
X137033000Y-94869000D02*
X137033000Y-55753000D01*
X167386000Y-103124000D02*
X167640000Y-102870000D01*
X161544000Y-103124000D02*
X167386000Y-103124000D01*
X167386000Y-100584000D02*
X167640000Y-100330000D01*
X161544000Y-100584000D02*
X167386000Y-100584000D01*
X167386000Y-98044000D02*
X167640000Y-97790000D01*
X161544000Y-98044000D02*
X167386000Y-98044000D01*
X167386000Y-95504000D02*
X167640000Y-95250000D01*
X161544000Y-95504000D02*
X167386000Y-95504000D01*
X120650000Y-91186000D02*
X122428000Y-92964000D01*
X120650000Y-49530000D02*
X120650000Y-91186000D01*
X123190000Y-91186000D02*
X124968000Y-92964000D01*
X123190000Y-49530000D02*
X123190000Y-91186000D01*
X157988000Y-87122000D02*
X157988000Y-87884000D01*
X147828000Y-76962000D02*
X157988000Y-87122000D01*
X151908001Y-86884001D02*
X152908000Y-87884000D01*
X146177999Y-81153999D02*
X151908001Y-86884001D01*
X147035999Y-75311999D02*
X146177999Y-76169999D01*
X146177999Y-76169999D02*
X146177999Y-81153999D01*
X160401999Y-75311999D02*
X147035999Y-75311999D01*
X162052000Y-76962000D02*
X160401999Y-75311999D01*
D16*
G36*
X170053000Y-92717032D02*
G01*
X170053000Y-106572415D01*
X147338646Y-110358140D01*
X143276238Y-108415249D01*
X143442052Y-108014939D01*
X143551000Y-107467223D01*
X143551000Y-106908777D01*
X143442052Y-106361061D01*
X143228344Y-105845124D01*
X142918088Y-105380793D01*
X142523207Y-104985912D01*
X142058876Y-104675656D01*
X141542939Y-104461948D01*
X140995223Y-104353000D01*
X140436777Y-104353000D01*
X139889061Y-104461948D01*
X139373124Y-104675656D01*
X138908793Y-104985912D01*
X138513912Y-105380793D01*
X138203656Y-105845124D01*
X138153834Y-105965404D01*
X118237000Y-96439962D01*
X118237000Y-48680000D01*
X119161928Y-48680000D01*
X119161928Y-50380000D01*
X119174188Y-50504482D01*
X119210498Y-50624180D01*
X119269463Y-50734494D01*
X119348815Y-50831185D01*
X119445506Y-50910537D01*
X119555820Y-50969502D01*
X119665000Y-51002621D01*
X119665001Y-91137610D01*
X119660235Y-91186000D01*
X119679253Y-91379093D01*
X119735576Y-91564766D01*
X119735577Y-91564767D01*
X119827041Y-91735884D01*
X119950131Y-91885870D01*
X119987711Y-91916711D01*
X120806433Y-92735434D01*
X120793000Y-92802967D01*
X120793000Y-93125033D01*
X120855832Y-93440912D01*
X120979082Y-93738463D01*
X121158013Y-94006252D01*
X121385748Y-94233987D01*
X121653537Y-94412918D01*
X121951088Y-94536168D01*
X122266967Y-94599000D01*
X122589033Y-94599000D01*
X122904912Y-94536168D01*
X123202463Y-94412918D01*
X123470252Y-94233987D01*
X123697987Y-94006252D01*
X123698000Y-94006233D01*
X123698013Y-94006252D01*
X123925748Y-94233987D01*
X124193537Y-94412918D01*
X124491088Y-94536168D01*
X124806967Y-94599000D01*
X125129033Y-94599000D01*
X125444912Y-94536168D01*
X125742463Y-94412918D01*
X126010252Y-94233987D01*
X126237987Y-94006252D01*
X126238000Y-94006233D01*
X126238013Y-94006252D01*
X126465748Y-94233987D01*
X126733537Y-94412918D01*
X127031088Y-94536168D01*
X127346967Y-94599000D01*
X127669033Y-94599000D01*
X127984912Y-94536168D01*
X128282463Y-94412918D01*
X128550252Y-94233987D01*
X128777987Y-94006252D01*
X128778000Y-94006233D01*
X128778013Y-94006252D01*
X129005748Y-94233987D01*
X129273537Y-94412918D01*
X129571088Y-94536168D01*
X129886967Y-94599000D01*
X130209033Y-94599000D01*
X130524912Y-94536168D01*
X130822463Y-94412918D01*
X131090252Y-94233987D01*
X131224826Y-94099413D01*
X131632192Y-94099413D01*
X131727956Y-94363814D01*
X132017571Y-94504704D01*
X132329108Y-94586384D01*
X132650595Y-94605718D01*
X132969675Y-94561961D01*
X133274088Y-94456795D01*
X133448044Y-94363814D01*
X133543808Y-94099413D01*
X132588000Y-93143605D01*
X131632192Y-94099413D01*
X131224826Y-94099413D01*
X131317987Y-94006252D01*
X131390720Y-93897400D01*
X131452587Y-93919808D01*
X132408395Y-92964000D01*
X132767605Y-92964000D01*
X133723413Y-93919808D01*
X133987814Y-93824044D01*
X134128704Y-93534429D01*
X134210384Y-93222892D01*
X134229718Y-92901405D01*
X134185961Y-92582325D01*
X134080795Y-92277912D01*
X133987814Y-92103956D01*
X133723413Y-92008192D01*
X132767605Y-92964000D01*
X132408395Y-92964000D01*
X131452587Y-92008192D01*
X131390720Y-92030600D01*
X131317987Y-91921748D01*
X131224826Y-91828587D01*
X131632192Y-91828587D01*
X132588000Y-92784395D01*
X133543808Y-91828587D01*
X133448044Y-91564186D01*
X133158429Y-91423296D01*
X132846892Y-91341616D01*
X132525405Y-91322282D01*
X132206325Y-91366039D01*
X131901912Y-91471205D01*
X131727956Y-91564186D01*
X131632192Y-91828587D01*
X131224826Y-91828587D01*
X131090252Y-91694013D01*
X130822463Y-91515082D01*
X130524912Y-91391832D01*
X130209033Y-91329000D01*
X129886967Y-91329000D01*
X129571088Y-91391832D01*
X129273537Y-91515082D01*
X129005748Y-91694013D01*
X128778013Y-91921748D01*
X128778000Y-91921767D01*
X128777987Y-91921748D01*
X128550252Y-91694013D01*
X128282463Y-91515082D01*
X127984912Y-91391832D01*
X127669033Y-91329000D01*
X127346967Y-91329000D01*
X127031088Y-91391832D01*
X126733537Y-91515082D01*
X126465748Y-91694013D01*
X126238013Y-91921748D01*
X126238000Y-91921767D01*
X126237987Y-91921748D01*
X126010252Y-91694013D01*
X125742463Y-91515082D01*
X125444912Y-91391832D01*
X125129033Y-91329000D01*
X124806967Y-91329000D01*
X124739434Y-91342433D01*
X124175000Y-90778000D01*
X124175000Y-50645107D01*
X124343475Y-50476632D01*
X124465195Y-50294466D01*
X124534822Y-50411355D01*
X124729731Y-50627588D01*
X124963080Y-50801641D01*
X125225901Y-50926825D01*
X125373110Y-50971476D01*
X125603000Y-50850155D01*
X125603000Y-49657000D01*
X125583000Y-49657000D01*
X125583000Y-49403000D01*
X125603000Y-49403000D01*
X125603000Y-48209845D01*
X125857000Y-48209845D01*
X125857000Y-49403000D01*
X125877000Y-49403000D01*
X125877000Y-49657000D01*
X125857000Y-49657000D01*
X125857000Y-50850155D01*
X126086890Y-50971476D01*
X126234099Y-50926825D01*
X126496920Y-50801641D01*
X126730269Y-50627588D01*
X126925178Y-50411355D01*
X126994805Y-50294466D01*
X127116525Y-50476632D01*
X127323368Y-50683475D01*
X127566589Y-50845990D01*
X127836842Y-50957932D01*
X128123740Y-51015000D01*
X128416260Y-51015000D01*
X128703158Y-50957932D01*
X128973411Y-50845990D01*
X129216632Y-50683475D01*
X129423475Y-50476632D01*
X129540000Y-50302240D01*
X129656525Y-50476632D01*
X129863368Y-50683475D01*
X130106589Y-50845990D01*
X130376842Y-50957932D01*
X130663740Y-51015000D01*
X130902000Y-51015000D01*
X136048001Y-56161002D01*
X136048000Y-94820620D01*
X136043235Y-94869000D01*
X136048000Y-94917379D01*
X136062253Y-95062093D01*
X136118576Y-95247766D01*
X136210040Y-95418884D01*
X136333130Y-95568870D01*
X136370716Y-95599716D01*
X146206433Y-105435433D01*
X146193000Y-105502967D01*
X146193000Y-105825033D01*
X146255832Y-106140912D01*
X146379082Y-106438463D01*
X146558013Y-106706252D01*
X146785748Y-106933987D01*
X147053537Y-107112918D01*
X147351088Y-107236168D01*
X147666967Y-107299000D01*
X147989033Y-107299000D01*
X148304912Y-107236168D01*
X148602463Y-107112918D01*
X148870252Y-106933987D01*
X149097987Y-106706252D01*
X149276918Y-106438463D01*
X149400168Y-106140912D01*
X149463000Y-105825033D01*
X149463000Y-105502967D01*
X149400168Y-105187088D01*
X149276918Y-104889537D01*
X149097987Y-104621748D01*
X148870252Y-104394013D01*
X148870233Y-104394000D01*
X148870252Y-104393987D01*
X149097987Y-104166252D01*
X149276918Y-103898463D01*
X149400168Y-103600912D01*
X149463000Y-103285033D01*
X149463000Y-102962967D01*
X149400168Y-102647088D01*
X149276918Y-102349537D01*
X149097987Y-102081748D01*
X148870252Y-101854013D01*
X148870233Y-101854000D01*
X148870252Y-101853987D01*
X149097987Y-101626252D01*
X149276918Y-101358463D01*
X149400168Y-101060912D01*
X149463000Y-100745033D01*
X149463000Y-100422967D01*
X149400168Y-100107088D01*
X149276918Y-99809537D01*
X149097987Y-99541748D01*
X148870252Y-99314013D01*
X148870233Y-99314000D01*
X148870252Y-99313987D01*
X149097987Y-99086252D01*
X149276918Y-98818463D01*
X149400168Y-98520912D01*
X149463000Y-98205033D01*
X149463000Y-97882967D01*
X149400168Y-97567088D01*
X149276918Y-97269537D01*
X149097987Y-97001748D01*
X148870252Y-96774013D01*
X148870233Y-96774000D01*
X148870252Y-96773987D01*
X149097987Y-96546252D01*
X149276918Y-96278463D01*
X149400168Y-95980912D01*
X149463000Y-95665033D01*
X149463000Y-95342967D01*
X149400168Y-95027088D01*
X149276918Y-94729537D01*
X149097987Y-94461748D01*
X148870252Y-94234013D01*
X148870233Y-94234000D01*
X148870252Y-94233987D01*
X149097987Y-94006252D01*
X149276918Y-93738463D01*
X149400168Y-93440912D01*
X149463000Y-93125033D01*
X149463000Y-92802967D01*
X149400168Y-92487088D01*
X149276918Y-92189537D01*
X149097987Y-91921748D01*
X148870252Y-91694013D01*
X148870233Y-91694000D01*
X148870252Y-91693987D01*
X149097987Y-91466252D01*
X149276918Y-91198463D01*
X149400168Y-90900912D01*
X149463000Y-90585033D01*
X149463000Y-90262967D01*
X159909000Y-90262967D01*
X159909000Y-90585033D01*
X159971832Y-90900912D01*
X160095082Y-91198463D01*
X160274013Y-91466252D01*
X160501748Y-91693987D01*
X160501767Y-91694000D01*
X160501748Y-91694013D01*
X160274013Y-91921748D01*
X160095082Y-92189537D01*
X159971832Y-92487088D01*
X159909000Y-92802967D01*
X159909000Y-93125033D01*
X159971832Y-93440912D01*
X160095082Y-93738463D01*
X160274013Y-94006252D01*
X160501748Y-94233987D01*
X160501767Y-94234000D01*
X160501748Y-94234013D01*
X160274013Y-94461748D01*
X160095082Y-94729537D01*
X159971832Y-95027088D01*
X159909000Y-95342967D01*
X159909000Y-95665033D01*
X159971832Y-95980912D01*
X160095082Y-96278463D01*
X160274013Y-96546252D01*
X160501748Y-96773987D01*
X160501767Y-96774000D01*
X160501748Y-96774013D01*
X160274013Y-97001748D01*
X160095082Y-97269537D01*
X159971832Y-97567088D01*
X159909000Y-97882967D01*
X159909000Y-98205033D01*
X159971832Y-98520912D01*
X160095082Y-98818463D01*
X160274013Y-99086252D01*
X160501748Y-99313987D01*
X160501767Y-99314000D01*
X160501748Y-99314013D01*
X160274013Y-99541748D01*
X160095082Y-99809537D01*
X159971832Y-100107088D01*
X159909000Y-100422967D01*
X159909000Y-100745033D01*
X159971832Y-101060912D01*
X160095082Y-101358463D01*
X160274013Y-101626252D01*
X160501748Y-101853987D01*
X160501767Y-101854000D01*
X160501748Y-101854013D01*
X160274013Y-102081748D01*
X160095082Y-102349537D01*
X159971832Y-102647088D01*
X159909000Y-102962967D01*
X159909000Y-103285033D01*
X159971832Y-103600912D01*
X160095082Y-103898463D01*
X160274013Y-104166252D01*
X160501748Y-104393987D01*
X160769537Y-104572918D01*
X161067088Y-104696168D01*
X161382967Y-104759000D01*
X161705033Y-104759000D01*
X162020912Y-104696168D01*
X162318463Y-104572918D01*
X162586252Y-104393987D01*
X162813987Y-104166252D01*
X162852242Y-104109000D01*
X166821365Y-104109000D01*
X166936589Y-104185990D01*
X167206842Y-104297932D01*
X167493740Y-104355000D01*
X167786260Y-104355000D01*
X168073158Y-104297932D01*
X168343411Y-104185990D01*
X168586632Y-104023475D01*
X168793475Y-103816632D01*
X168955990Y-103573411D01*
X169067932Y-103303158D01*
X169125000Y-103016260D01*
X169125000Y-102723740D01*
X169067932Y-102436842D01*
X168955990Y-102166589D01*
X168793475Y-101923368D01*
X168586632Y-101716525D01*
X168412240Y-101600000D01*
X168586632Y-101483475D01*
X168793475Y-101276632D01*
X168955990Y-101033411D01*
X169067932Y-100763158D01*
X169125000Y-100476260D01*
X169125000Y-100183740D01*
X169067932Y-99896842D01*
X168955990Y-99626589D01*
X168793475Y-99383368D01*
X168586632Y-99176525D01*
X168412240Y-99060000D01*
X168586632Y-98943475D01*
X168793475Y-98736632D01*
X168955990Y-98493411D01*
X169067932Y-98223158D01*
X169125000Y-97936260D01*
X169125000Y-97643740D01*
X169067932Y-97356842D01*
X168955990Y-97086589D01*
X168793475Y-96843368D01*
X168661620Y-96711513D01*
X168734180Y-96689502D01*
X168844494Y-96630537D01*
X168941185Y-96551185D01*
X169020537Y-96454494D01*
X169079502Y-96344180D01*
X169115812Y-96224482D01*
X169128072Y-96100000D01*
X169128072Y-94400000D01*
X169115812Y-94275518D01*
X169079502Y-94155820D01*
X169020537Y-94045506D01*
X168941185Y-93948815D01*
X168844494Y-93869463D01*
X168734180Y-93810498D01*
X168614482Y-93774188D01*
X168490000Y-93761928D01*
X166790000Y-93761928D01*
X166665518Y-93774188D01*
X166545820Y-93810498D01*
X166435506Y-93869463D01*
X166338815Y-93948815D01*
X166259463Y-94045506D01*
X166200498Y-94155820D01*
X166164188Y-94275518D01*
X166151928Y-94400000D01*
X166151928Y-94519000D01*
X162852242Y-94519000D01*
X162813987Y-94461748D01*
X162586252Y-94234013D01*
X162586233Y-94234000D01*
X162586252Y-94233987D01*
X162813987Y-94006252D01*
X162992918Y-93738463D01*
X163116168Y-93440912D01*
X163179000Y-93125033D01*
X163179000Y-92802967D01*
X163116168Y-92487088D01*
X162992918Y-92189537D01*
X162813987Y-91921748D01*
X162586252Y-91694013D01*
X162586233Y-91694000D01*
X162586252Y-91693987D01*
X162813987Y-91466252D01*
X162992918Y-91198463D01*
X163116168Y-90900912D01*
X163179000Y-90585033D01*
X163179000Y-90262967D01*
X163116168Y-89947088D01*
X162992918Y-89649537D01*
X162813987Y-89381748D01*
X162586252Y-89154013D01*
X162318463Y-88975082D01*
X162020912Y-88851832D01*
X161705033Y-88789000D01*
X161382967Y-88789000D01*
X161067088Y-88851832D01*
X160769537Y-88975082D01*
X160501748Y-89154013D01*
X160274013Y-89381748D01*
X160095082Y-89649537D01*
X159971832Y-89947088D01*
X159909000Y-90262967D01*
X149463000Y-90262967D01*
X149400168Y-89947088D01*
X149276918Y-89649537D01*
X149097987Y-89381748D01*
X148870252Y-89154013D01*
X148761400Y-89081280D01*
X148783808Y-89019413D01*
X147828000Y-88063605D01*
X146872192Y-89019413D01*
X146894600Y-89081280D01*
X146785748Y-89154013D01*
X146558013Y-89381748D01*
X146379082Y-89649537D01*
X146255832Y-89947088D01*
X146193000Y-90262967D01*
X146193000Y-90585033D01*
X146255832Y-90900912D01*
X146379082Y-91198463D01*
X146558013Y-91466252D01*
X146785748Y-91693987D01*
X146785767Y-91694000D01*
X146785748Y-91694013D01*
X146558013Y-91921748D01*
X146379082Y-92189537D01*
X146255832Y-92487088D01*
X146247247Y-92530247D01*
X145511000Y-91794000D01*
X145511000Y-87946595D01*
X146186282Y-87946595D01*
X146230039Y-88265675D01*
X146335205Y-88570088D01*
X146428186Y-88744044D01*
X146692587Y-88839808D01*
X147648395Y-87884000D01*
X148007605Y-87884000D01*
X148963413Y-88839808D01*
X149227814Y-88744044D01*
X149368704Y-88454429D01*
X149450384Y-88142892D01*
X149469718Y-87821405D01*
X149425961Y-87502325D01*
X149320795Y-87197912D01*
X149227814Y-87023956D01*
X148963413Y-86928192D01*
X148007605Y-87884000D01*
X147648395Y-87884000D01*
X146692587Y-86928192D01*
X146428186Y-87023956D01*
X146287296Y-87313571D01*
X146205616Y-87625108D01*
X146186282Y-87946595D01*
X145511000Y-87946595D01*
X145511000Y-86748587D01*
X146872192Y-86748587D01*
X147828000Y-87704395D01*
X148783808Y-86748587D01*
X148688044Y-86484186D01*
X148398429Y-86343296D01*
X148086892Y-86261616D01*
X147765405Y-86242282D01*
X147446325Y-86286039D01*
X147141912Y-86391205D01*
X146967956Y-86484186D01*
X146872192Y-86748587D01*
X145511000Y-86748587D01*
X145511000Y-81880845D01*
X145515710Y-81884710D01*
X151245710Y-87614711D01*
X151245716Y-87614716D01*
X151286433Y-87655433D01*
X151273000Y-87722967D01*
X151273000Y-88045033D01*
X151335832Y-88360912D01*
X151459082Y-88658463D01*
X151638013Y-88926252D01*
X151865748Y-89153987D01*
X152133537Y-89332918D01*
X152431088Y-89456168D01*
X152746967Y-89519000D01*
X153069033Y-89519000D01*
X153384912Y-89456168D01*
X153682463Y-89332918D01*
X153950252Y-89153987D01*
X154177987Y-88926252D01*
X154356918Y-88658463D01*
X154480168Y-88360912D01*
X154543000Y-88045033D01*
X154543000Y-87722967D01*
X154480168Y-87407088D01*
X154356918Y-87109537D01*
X154177987Y-86841748D01*
X153950252Y-86614013D01*
X153682463Y-86435082D01*
X153384912Y-86311832D01*
X153069033Y-86249000D01*
X152746967Y-86249000D01*
X152679433Y-86262433D01*
X152638716Y-86221716D01*
X152638711Y-86221710D01*
X147162999Y-80745999D01*
X147162999Y-78456259D01*
X147351088Y-78534168D01*
X147666967Y-78597000D01*
X147989033Y-78597000D01*
X148056567Y-78583567D01*
X156556487Y-87083488D01*
X156539082Y-87109537D01*
X156415832Y-87407088D01*
X156353000Y-87722967D01*
X156353000Y-88045033D01*
X156415832Y-88360912D01*
X156539082Y-88658463D01*
X156718013Y-88926252D01*
X156945748Y-89153987D01*
X157213537Y-89332918D01*
X157511088Y-89456168D01*
X157826967Y-89519000D01*
X158149033Y-89519000D01*
X158464912Y-89456168D01*
X158762463Y-89332918D01*
X159030252Y-89153987D01*
X159257987Y-88926252D01*
X159436918Y-88658463D01*
X159560168Y-88360912D01*
X159623000Y-88045033D01*
X159623000Y-87722967D01*
X159560168Y-87407088D01*
X159436918Y-87109537D01*
X159257987Y-86841748D01*
X159030252Y-86614013D01*
X158762463Y-86435082D01*
X158645731Y-86386730D01*
X149449567Y-77190567D01*
X149463000Y-77123033D01*
X149463000Y-76800967D01*
X149400168Y-76485088D01*
X149322259Y-76296999D01*
X159993999Y-76296999D01*
X160430433Y-76733434D01*
X160417000Y-76800967D01*
X160417000Y-77123033D01*
X160479832Y-77438912D01*
X160603082Y-77736463D01*
X160782013Y-78004252D01*
X161009748Y-78231987D01*
X161277537Y-78410918D01*
X161575088Y-78534168D01*
X161890967Y-78597000D01*
X162213033Y-78597000D01*
X162528912Y-78534168D01*
X162826463Y-78410918D01*
X163094252Y-78231987D01*
X163321987Y-78004252D01*
X163500918Y-77736463D01*
X163624168Y-77438912D01*
X163687000Y-77123033D01*
X163687000Y-76800967D01*
X163624168Y-76485088D01*
X163500918Y-76187537D01*
X163321987Y-75919748D01*
X163094252Y-75692013D01*
X162826463Y-75513082D01*
X162528912Y-75389832D01*
X162213033Y-75327000D01*
X161890967Y-75327000D01*
X161823434Y-75340433D01*
X161132715Y-74649715D01*
X161101869Y-74612129D01*
X160951883Y-74489039D01*
X160780766Y-74397575D01*
X160595093Y-74341252D01*
X160450379Y-74326999D01*
X160401999Y-74322234D01*
X160353619Y-74326999D01*
X147084378Y-74326999D01*
X147035998Y-74322234D01*
X146842904Y-74341252D01*
X146799690Y-74354361D01*
X146657232Y-74397575D01*
X146486115Y-74489039D01*
X146336129Y-74612129D01*
X146305283Y-74649715D01*
X145515715Y-75439283D01*
X145511000Y-75443153D01*
X145511000Y-53134377D01*
X145515765Y-53085999D01*
X145509376Y-53021130D01*
X145496747Y-52892906D01*
X145440424Y-52707233D01*
X145348960Y-52536116D01*
X145225870Y-52386130D01*
X145188284Y-52355284D01*
X142455000Y-49622000D01*
X142455000Y-49383740D01*
X142452062Y-49368967D01*
X146193000Y-49368967D01*
X146193000Y-49691033D01*
X146255832Y-50006912D01*
X146379082Y-50304463D01*
X146558013Y-50572252D01*
X146785748Y-50799987D01*
X147053537Y-50978918D01*
X147351088Y-51102168D01*
X147666967Y-51165000D01*
X147989033Y-51165000D01*
X148304912Y-51102168D01*
X148602463Y-50978918D01*
X148870252Y-50799987D01*
X149097987Y-50572252D01*
X149276918Y-50304463D01*
X149400168Y-50006912D01*
X149463000Y-49691033D01*
X149463000Y-49368967D01*
X160417000Y-49368967D01*
X160417000Y-49691033D01*
X160479832Y-50006912D01*
X160603082Y-50304463D01*
X160782013Y-50572252D01*
X161009748Y-50799987D01*
X161277537Y-50978918D01*
X161575088Y-51102168D01*
X161890967Y-51165000D01*
X162213033Y-51165000D01*
X162528912Y-51102168D01*
X162826463Y-50978918D01*
X163094252Y-50799987D01*
X163321987Y-50572252D01*
X163500918Y-50304463D01*
X163624168Y-50006912D01*
X163687000Y-49691033D01*
X163687000Y-49368967D01*
X163624168Y-49053088D01*
X163500918Y-48755537D01*
X163321987Y-48487748D01*
X163094252Y-48260013D01*
X162826463Y-48081082D01*
X162528912Y-47957832D01*
X162213033Y-47895000D01*
X161890967Y-47895000D01*
X161575088Y-47957832D01*
X161277537Y-48081082D01*
X161009748Y-48260013D01*
X160782013Y-48487748D01*
X160603082Y-48755537D01*
X160479832Y-49053088D01*
X160417000Y-49368967D01*
X149463000Y-49368967D01*
X149400168Y-49053088D01*
X149276918Y-48755537D01*
X149097987Y-48487748D01*
X148870252Y-48260013D01*
X148602463Y-48081082D01*
X148304912Y-47957832D01*
X147989033Y-47895000D01*
X147666967Y-47895000D01*
X147351088Y-47957832D01*
X147053537Y-48081082D01*
X146785748Y-48260013D01*
X146558013Y-48487748D01*
X146379082Y-48755537D01*
X146255832Y-49053088D01*
X146193000Y-49368967D01*
X142452062Y-49368967D01*
X142397932Y-49096842D01*
X142285990Y-48826589D01*
X142123475Y-48583368D01*
X141916632Y-48376525D01*
X141673411Y-48214010D01*
X141403158Y-48102068D01*
X141116260Y-48045000D01*
X140823740Y-48045000D01*
X140536842Y-48102068D01*
X140266589Y-48214010D01*
X140023368Y-48376525D01*
X139816525Y-48583368D01*
X139700000Y-48757760D01*
X139583475Y-48583368D01*
X139376632Y-48376525D01*
X139133411Y-48214010D01*
X138863158Y-48102068D01*
X138576260Y-48045000D01*
X138283740Y-48045000D01*
X137996842Y-48102068D01*
X137726589Y-48214010D01*
X137483368Y-48376525D01*
X137276525Y-48583368D01*
X137160000Y-48757760D01*
X137043475Y-48583368D01*
X136836632Y-48376525D01*
X136593411Y-48214010D01*
X136323158Y-48102068D01*
X136036260Y-48045000D01*
X135743740Y-48045000D01*
X135456842Y-48102068D01*
X135186589Y-48214010D01*
X134943368Y-48376525D01*
X134736525Y-48583368D01*
X134620000Y-48757760D01*
X134503475Y-48583368D01*
X134296632Y-48376525D01*
X134053411Y-48214010D01*
X133783158Y-48102068D01*
X133496260Y-48045000D01*
X133203740Y-48045000D01*
X132916842Y-48102068D01*
X132646589Y-48214010D01*
X132403368Y-48376525D01*
X132196525Y-48583368D01*
X132080000Y-48757760D01*
X131963475Y-48583368D01*
X131756632Y-48376525D01*
X131513411Y-48214010D01*
X131243158Y-48102068D01*
X130956260Y-48045000D01*
X130663740Y-48045000D01*
X130376842Y-48102068D01*
X130106589Y-48214010D01*
X129863368Y-48376525D01*
X129656525Y-48583368D01*
X129540000Y-48757760D01*
X129423475Y-48583368D01*
X129216632Y-48376525D01*
X128973411Y-48214010D01*
X128703158Y-48102068D01*
X128416260Y-48045000D01*
X128123740Y-48045000D01*
X127836842Y-48102068D01*
X127566589Y-48214010D01*
X127323368Y-48376525D01*
X127116525Y-48583368D01*
X126994805Y-48765534D01*
X126925178Y-48648645D01*
X126730269Y-48432412D01*
X126496920Y-48258359D01*
X126234099Y-48133175D01*
X126086890Y-48088524D01*
X125857000Y-48209845D01*
X125603000Y-48209845D01*
X125373110Y-48088524D01*
X125225901Y-48133175D01*
X124963080Y-48258359D01*
X124729731Y-48432412D01*
X124534822Y-48648645D01*
X124465195Y-48765534D01*
X124343475Y-48583368D01*
X124136632Y-48376525D01*
X123893411Y-48214010D01*
X123623158Y-48102068D01*
X123336260Y-48045000D01*
X123043740Y-48045000D01*
X122756842Y-48102068D01*
X122486589Y-48214010D01*
X122243368Y-48376525D01*
X122111513Y-48508380D01*
X122089502Y-48435820D01*
X122030537Y-48325506D01*
X121951185Y-48228815D01*
X121854494Y-48149463D01*
X121744180Y-48090498D01*
X121624482Y-48054188D01*
X121500000Y-48041928D01*
X119800000Y-48041928D01*
X119675518Y-48054188D01*
X119555820Y-48090498D01*
X119445506Y-48149463D01*
X119348815Y-48228815D01*
X119269463Y-48325506D01*
X119210498Y-48435820D01*
X119174188Y-48555518D01*
X119161928Y-48680000D01*
X118237000Y-48680000D01*
X118237000Y-47117000D01*
X164986330Y-47117000D01*
X170053000Y-92717032D01*
G37*
X170053000Y-92717032D02*
X170053000Y-106572415D01*
X147338646Y-110358140D01*
X143276238Y-108415249D01*
X143442052Y-108014939D01*
X143551000Y-107467223D01*
X143551000Y-106908777D01*
X143442052Y-106361061D01*
X143228344Y-105845124D01*
X142918088Y-105380793D01*
X142523207Y-104985912D01*
X142058876Y-104675656D01*
X141542939Y-104461948D01*
X140995223Y-104353000D01*
X140436777Y-104353000D01*
X139889061Y-104461948D01*
X139373124Y-104675656D01*
X138908793Y-104985912D01*
X138513912Y-105380793D01*
X138203656Y-105845124D01*
X138153834Y-105965404D01*
X118237000Y-96439962D01*
X118237000Y-48680000D01*
X119161928Y-48680000D01*
X119161928Y-50380000D01*
X119174188Y-50504482D01*
X119210498Y-50624180D01*
X119269463Y-50734494D01*
X119348815Y-50831185D01*
X119445506Y-50910537D01*
X119555820Y-50969502D01*
X119665000Y-51002621D01*
X119665001Y-91137610D01*
X119660235Y-91186000D01*
X119679253Y-91379093D01*
X119735576Y-91564766D01*
X119735577Y-91564767D01*
X119827041Y-91735884D01*
X119950131Y-91885870D01*
X119987711Y-91916711D01*
X120806433Y-92735434D01*
X120793000Y-92802967D01*
X120793000Y-93125033D01*
X120855832Y-93440912D01*
X120979082Y-93738463D01*
X121158013Y-94006252D01*
X121385748Y-94233987D01*
X121653537Y-94412918D01*
X121951088Y-94536168D01*
X122266967Y-94599000D01*
X122589033Y-94599000D01*
X122904912Y-94536168D01*
X123202463Y-94412918D01*
X123470252Y-94233987D01*
X123697987Y-94006252D01*
X123698000Y-94006233D01*
X123698013Y-94006252D01*
X123925748Y-94233987D01*
X124193537Y-94412918D01*
X124491088Y-94536168D01*
X124806967Y-94599000D01*
X125129033Y-94599000D01*
X125444912Y-94536168D01*
X125742463Y-94412918D01*
X126010252Y-94233987D01*
X126237987Y-94006252D01*
X126238000Y-94006233D01*
X126238013Y-94006252D01*
X126465748Y-94233987D01*
X126733537Y-94412918D01*
X127031088Y-94536168D01*
X127346967Y-94599000D01*
X127669033Y-94599000D01*
X127984912Y-94536168D01*
X128282463Y-94412918D01*
X128550252Y-94233987D01*
X128777987Y-94006252D01*
X128778000Y-94006233D01*
X128778013Y-94006252D01*
X129005748Y-94233987D01*
X129273537Y-94412918D01*
X129571088Y-94536168D01*
X129886967Y-94599000D01*
X130209033Y-94599000D01*
X130524912Y-94536168D01*
X130822463Y-94412918D01*
X131090252Y-94233987D01*
X131224826Y-94099413D01*
X131632192Y-94099413D01*
X131727956Y-94363814D01*
X132017571Y-94504704D01*
X132329108Y-94586384D01*
X132650595Y-94605718D01*
X132969675Y-94561961D01*
X133274088Y-94456795D01*
X133448044Y-94363814D01*
X133543808Y-94099413D01*
X132588000Y-93143605D01*
X131632192Y-94099413D01*
X131224826Y-94099413D01*
X131317987Y-94006252D01*
X131390720Y-93897400D01*
X131452587Y-93919808D01*
X132408395Y-92964000D01*
X132767605Y-92964000D01*
X133723413Y-93919808D01*
X133987814Y-93824044D01*
X134128704Y-93534429D01*
X134210384Y-93222892D01*
X134229718Y-92901405D01*
X134185961Y-92582325D01*
X134080795Y-92277912D01*
X133987814Y-92103956D01*
X133723413Y-92008192D01*
X132767605Y-92964000D01*
X132408395Y-92964000D01*
X131452587Y-92008192D01*
X131390720Y-92030600D01*
X131317987Y-91921748D01*
X131224826Y-91828587D01*
X131632192Y-91828587D01*
X132588000Y-92784395D01*
X133543808Y-91828587D01*
X133448044Y-91564186D01*
X133158429Y-91423296D01*
X132846892Y-91341616D01*
X132525405Y-91322282D01*
X132206325Y-91366039D01*
X131901912Y-91471205D01*
X131727956Y-91564186D01*
X131632192Y-91828587D01*
X131224826Y-91828587D01*
X131090252Y-91694013D01*
X130822463Y-91515082D01*
X130524912Y-91391832D01*
X130209033Y-91329000D01*
X129886967Y-91329000D01*
X129571088Y-91391832D01*
X129273537Y-91515082D01*
X129005748Y-91694013D01*
X128778013Y-91921748D01*
X128778000Y-91921767D01*
X128777987Y-91921748D01*
X128550252Y-91694013D01*
X128282463Y-91515082D01*
X127984912Y-91391832D01*
X127669033Y-91329000D01*
X127346967Y-91329000D01*
X127031088Y-91391832D01*
X126733537Y-91515082D01*
X126465748Y-91694013D01*
X126238013Y-91921748D01*
X126238000Y-91921767D01*
X126237987Y-91921748D01*
X126010252Y-91694013D01*
X125742463Y-91515082D01*
X125444912Y-91391832D01*
X125129033Y-91329000D01*
X124806967Y-91329000D01*
X124739434Y-91342433D01*
X124175000Y-90778000D01*
X124175000Y-50645107D01*
X124343475Y-50476632D01*
X124465195Y-50294466D01*
X124534822Y-50411355D01*
X124729731Y-50627588D01*
X124963080Y-50801641D01*
X125225901Y-50926825D01*
X125373110Y-50971476D01*
X125603000Y-50850155D01*
X125603000Y-49657000D01*
X125583000Y-49657000D01*
X125583000Y-49403000D01*
X125603000Y-49403000D01*
X125603000Y-48209845D01*
X125857000Y-48209845D01*
X125857000Y-49403000D01*
X125877000Y-49403000D01*
X125877000Y-49657000D01*
X125857000Y-49657000D01*
X125857000Y-50850155D01*
X126086890Y-50971476D01*
X126234099Y-50926825D01*
X126496920Y-50801641D01*
X126730269Y-50627588D01*
X126925178Y-50411355D01*
X126994805Y-50294466D01*
X127116525Y-50476632D01*
X127323368Y-50683475D01*
X127566589Y-50845990D01*
X127836842Y-50957932D01*
X128123740Y-51015000D01*
X128416260Y-51015000D01*
X128703158Y-50957932D01*
X128973411Y-50845990D01*
X129216632Y-50683475D01*
X129423475Y-50476632D01*
X129540000Y-50302240D01*
X129656525Y-50476632D01*
X129863368Y-50683475D01*
X130106589Y-50845990D01*
X130376842Y-50957932D01*
X130663740Y-51015000D01*
X130902000Y-51015000D01*
X136048001Y-56161002D01*
X136048000Y-94820620D01*
X136043235Y-94869000D01*
X136048000Y-94917379D01*
X136062253Y-95062093D01*
X136118576Y-95247766D01*
X136210040Y-95418884D01*
X136333130Y-95568870D01*
X136370716Y-95599716D01*
X146206433Y-105435433D01*
X146193000Y-105502967D01*
X146193000Y-105825033D01*
X146255832Y-106140912D01*
X146379082Y-106438463D01*
X146558013Y-106706252D01*
X146785748Y-106933987D01*
X147053537Y-107112918D01*
X147351088Y-107236168D01*
X147666967Y-107299000D01*
X147989033Y-107299000D01*
X148304912Y-107236168D01*
X148602463Y-107112918D01*
X148870252Y-106933987D01*
X149097987Y-106706252D01*
X149276918Y-106438463D01*
X149400168Y-106140912D01*
X149463000Y-105825033D01*
X149463000Y-105502967D01*
X149400168Y-105187088D01*
X149276918Y-104889537D01*
X149097987Y-104621748D01*
X148870252Y-104394013D01*
X148870233Y-104394000D01*
X148870252Y-104393987D01*
X149097987Y-104166252D01*
X149276918Y-103898463D01*
X149400168Y-103600912D01*
X149463000Y-103285033D01*
X149463000Y-102962967D01*
X149400168Y-102647088D01*
X149276918Y-102349537D01*
X149097987Y-102081748D01*
X148870252Y-101854013D01*
X148870233Y-101854000D01*
X148870252Y-101853987D01*
X149097987Y-101626252D01*
X149276918Y-101358463D01*
X149400168Y-101060912D01*
X149463000Y-100745033D01*
X149463000Y-100422967D01*
X149400168Y-100107088D01*
X149276918Y-99809537D01*
X149097987Y-99541748D01*
X148870252Y-99314013D01*
X148870233Y-99314000D01*
X148870252Y-99313987D01*
X149097987Y-99086252D01*
X149276918Y-98818463D01*
X149400168Y-98520912D01*
X149463000Y-98205033D01*
X149463000Y-97882967D01*
X149400168Y-97567088D01*
X149276918Y-97269537D01*
X149097987Y-97001748D01*
X148870252Y-96774013D01*
X148870233Y-96774000D01*
X148870252Y-96773987D01*
X149097987Y-96546252D01*
X149276918Y-96278463D01*
X149400168Y-95980912D01*
X149463000Y-95665033D01*
X149463000Y-95342967D01*
X149400168Y-95027088D01*
X149276918Y-94729537D01*
X149097987Y-94461748D01*
X148870252Y-94234013D01*
X148870233Y-94234000D01*
X148870252Y-94233987D01*
X149097987Y-94006252D01*
X149276918Y-93738463D01*
X149400168Y-93440912D01*
X149463000Y-93125033D01*
X149463000Y-92802967D01*
X149400168Y-92487088D01*
X149276918Y-92189537D01*
X149097987Y-91921748D01*
X148870252Y-91694013D01*
X148870233Y-91694000D01*
X148870252Y-91693987D01*
X149097987Y-91466252D01*
X149276918Y-91198463D01*
X149400168Y-90900912D01*
X149463000Y-90585033D01*
X149463000Y-90262967D01*
X159909000Y-90262967D01*
X159909000Y-90585033D01*
X159971832Y-90900912D01*
X160095082Y-91198463D01*
X160274013Y-91466252D01*
X160501748Y-91693987D01*
X160501767Y-91694000D01*
X160501748Y-91694013D01*
X160274013Y-91921748D01*
X160095082Y-92189537D01*
X159971832Y-92487088D01*
X159909000Y-92802967D01*
X159909000Y-93125033D01*
X159971832Y-93440912D01*
X160095082Y-93738463D01*
X160274013Y-94006252D01*
X160501748Y-94233987D01*
X160501767Y-94234000D01*
X160501748Y-94234013D01*
X160274013Y-94461748D01*
X160095082Y-94729537D01*
X159971832Y-95027088D01*
X159909000Y-95342967D01*
X159909000Y-95665033D01*
X159971832Y-95980912D01*
X160095082Y-96278463D01*
X160274013Y-96546252D01*
X160501748Y-96773987D01*
X160501767Y-96774000D01*
X160501748Y-96774013D01*
X160274013Y-97001748D01*
X160095082Y-97269537D01*
X159971832Y-97567088D01*
X159909000Y-97882967D01*
X159909000Y-98205033D01*
X159971832Y-98520912D01*
X160095082Y-98818463D01*
X160274013Y-99086252D01*
X160501748Y-99313987D01*
X160501767Y-99314000D01*
X160501748Y-99314013D01*
X160274013Y-99541748D01*
X160095082Y-99809537D01*
X159971832Y-100107088D01*
X159909000Y-100422967D01*
X159909000Y-100745033D01*
X159971832Y-101060912D01*
X160095082Y-101358463D01*
X160274013Y-101626252D01*
X160501748Y-101853987D01*
X160501767Y-101854000D01*
X160501748Y-101854013D01*
X160274013Y-102081748D01*
X160095082Y-102349537D01*
X159971832Y-102647088D01*
X159909000Y-102962967D01*
X159909000Y-103285033D01*
X159971832Y-103600912D01*
X160095082Y-103898463D01*
X160274013Y-104166252D01*
X160501748Y-104393987D01*
X160769537Y-104572918D01*
X161067088Y-104696168D01*
X161382967Y-104759000D01*
X161705033Y-104759000D01*
X162020912Y-104696168D01*
X162318463Y-104572918D01*
X162586252Y-104393987D01*
X162813987Y-104166252D01*
X162852242Y-104109000D01*
X166821365Y-104109000D01*
X166936589Y-104185990D01*
X167206842Y-104297932D01*
X167493740Y-104355000D01*
X167786260Y-104355000D01*
X168073158Y-104297932D01*
X168343411Y-104185990D01*
X168586632Y-104023475D01*
X168793475Y-103816632D01*
X168955990Y-103573411D01*
X169067932Y-103303158D01*
X169125000Y-103016260D01*
X169125000Y-102723740D01*
X169067932Y-102436842D01*
X168955990Y-102166589D01*
X168793475Y-101923368D01*
X168586632Y-101716525D01*
X168412240Y-101600000D01*
X168586632Y-101483475D01*
X168793475Y-101276632D01*
X168955990Y-101033411D01*
X169067932Y-100763158D01*
X169125000Y-100476260D01*
X169125000Y-100183740D01*
X169067932Y-99896842D01*
X168955990Y-99626589D01*
X168793475Y-99383368D01*
X168586632Y-99176525D01*
X168412240Y-99060000D01*
X168586632Y-98943475D01*
X168793475Y-98736632D01*
X168955990Y-98493411D01*
X169067932Y-98223158D01*
X169125000Y-97936260D01*
X169125000Y-97643740D01*
X169067932Y-97356842D01*
X168955990Y-97086589D01*
X168793475Y-96843368D01*
X168661620Y-96711513D01*
X168734180Y-96689502D01*
X168844494Y-96630537D01*
X168941185Y-96551185D01*
X169020537Y-96454494D01*
X169079502Y-96344180D01*
X169115812Y-96224482D01*
X169128072Y-96100000D01*
X169128072Y-94400000D01*
X169115812Y-94275518D01*
X169079502Y-94155820D01*
X169020537Y-94045506D01*
X168941185Y-93948815D01*
X168844494Y-93869463D01*
X168734180Y-93810498D01*
X168614482Y-93774188D01*
X168490000Y-93761928D01*
X166790000Y-93761928D01*
X166665518Y-93774188D01*
X166545820Y-93810498D01*
X166435506Y-93869463D01*
X166338815Y-93948815D01*
X166259463Y-94045506D01*
X166200498Y-94155820D01*
X166164188Y-94275518D01*
X166151928Y-94400000D01*
X166151928Y-94519000D01*
X162852242Y-94519000D01*
X162813987Y-94461748D01*
X162586252Y-94234013D01*
X162586233Y-94234000D01*
X162586252Y-94233987D01*
X162813987Y-94006252D01*
X162992918Y-93738463D01*
X163116168Y-93440912D01*
X163179000Y-93125033D01*
X163179000Y-92802967D01*
X163116168Y-92487088D01*
X162992918Y-92189537D01*
X162813987Y-91921748D01*
X162586252Y-91694013D01*
X162586233Y-91694000D01*
X162586252Y-91693987D01*
X162813987Y-91466252D01*
X162992918Y-91198463D01*
X163116168Y-90900912D01*
X163179000Y-90585033D01*
X163179000Y-90262967D01*
X163116168Y-89947088D01*
X162992918Y-89649537D01*
X162813987Y-89381748D01*
X162586252Y-89154013D01*
X162318463Y-88975082D01*
X162020912Y-88851832D01*
X161705033Y-88789000D01*
X161382967Y-88789000D01*
X161067088Y-88851832D01*
X160769537Y-88975082D01*
X160501748Y-89154013D01*
X160274013Y-89381748D01*
X160095082Y-89649537D01*
X159971832Y-89947088D01*
X159909000Y-90262967D01*
X149463000Y-90262967D01*
X149400168Y-89947088D01*
X149276918Y-89649537D01*
X149097987Y-89381748D01*
X148870252Y-89154013D01*
X148761400Y-89081280D01*
X148783808Y-89019413D01*
X147828000Y-88063605D01*
X146872192Y-89019413D01*
X146894600Y-89081280D01*
X146785748Y-89154013D01*
X146558013Y-89381748D01*
X146379082Y-89649537D01*
X146255832Y-89947088D01*
X146193000Y-90262967D01*
X146193000Y-90585033D01*
X146255832Y-90900912D01*
X146379082Y-91198463D01*
X146558013Y-91466252D01*
X146785748Y-91693987D01*
X146785767Y-91694000D01*
X146785748Y-91694013D01*
X146558013Y-91921748D01*
X146379082Y-92189537D01*
X146255832Y-92487088D01*
X146247247Y-92530247D01*
X145511000Y-91794000D01*
X145511000Y-87946595D01*
X146186282Y-87946595D01*
X146230039Y-88265675D01*
X146335205Y-88570088D01*
X146428186Y-88744044D01*
X146692587Y-88839808D01*
X147648395Y-87884000D01*
X148007605Y-87884000D01*
X148963413Y-88839808D01*
X149227814Y-88744044D01*
X149368704Y-88454429D01*
X149450384Y-88142892D01*
X149469718Y-87821405D01*
X149425961Y-87502325D01*
X149320795Y-87197912D01*
X149227814Y-87023956D01*
X148963413Y-86928192D01*
X148007605Y-87884000D01*
X147648395Y-87884000D01*
X146692587Y-86928192D01*
X146428186Y-87023956D01*
X146287296Y-87313571D01*
X146205616Y-87625108D01*
X146186282Y-87946595D01*
X145511000Y-87946595D01*
X145511000Y-86748587D01*
X146872192Y-86748587D01*
X147828000Y-87704395D01*
X148783808Y-86748587D01*
X148688044Y-86484186D01*
X148398429Y-86343296D01*
X148086892Y-86261616D01*
X147765405Y-86242282D01*
X147446325Y-86286039D01*
X147141912Y-86391205D01*
X146967956Y-86484186D01*
X146872192Y-86748587D01*
X145511000Y-86748587D01*
X145511000Y-81880845D01*
X145515710Y-81884710D01*
X151245710Y-87614711D01*
X151245716Y-87614716D01*
X151286433Y-87655433D01*
X151273000Y-87722967D01*
X151273000Y-88045033D01*
X151335832Y-88360912D01*
X151459082Y-88658463D01*
X151638013Y-88926252D01*
X151865748Y-89153987D01*
X152133537Y-89332918D01*
X152431088Y-89456168D01*
X152746967Y-89519000D01*
X153069033Y-89519000D01*
X153384912Y-89456168D01*
X153682463Y-89332918D01*
X153950252Y-89153987D01*
X154177987Y-88926252D01*
X154356918Y-88658463D01*
X154480168Y-88360912D01*
X154543000Y-88045033D01*
X154543000Y-87722967D01*
X154480168Y-87407088D01*
X154356918Y-87109537D01*
X154177987Y-86841748D01*
X153950252Y-86614013D01*
X153682463Y-86435082D01*
X153384912Y-86311832D01*
X153069033Y-86249000D01*
X152746967Y-86249000D01*
X152679433Y-86262433D01*
X152638716Y-86221716D01*
X152638711Y-86221710D01*
X147162999Y-80745999D01*
X147162999Y-78456259D01*
X147351088Y-78534168D01*
X147666967Y-78597000D01*
X147989033Y-78597000D01*
X148056567Y-78583567D01*
X156556487Y-87083488D01*
X156539082Y-87109537D01*
X156415832Y-87407088D01*
X156353000Y-87722967D01*
X156353000Y-88045033D01*
X156415832Y-88360912D01*
X156539082Y-88658463D01*
X156718013Y-88926252D01*
X156945748Y-89153987D01*
X157213537Y-89332918D01*
X157511088Y-89456168D01*
X157826967Y-89519000D01*
X158149033Y-89519000D01*
X158464912Y-89456168D01*
X158762463Y-89332918D01*
X159030252Y-89153987D01*
X159257987Y-88926252D01*
X159436918Y-88658463D01*
X159560168Y-88360912D01*
X159623000Y-88045033D01*
X159623000Y-87722967D01*
X159560168Y-87407088D01*
X159436918Y-87109537D01*
X159257987Y-86841748D01*
X159030252Y-86614013D01*
X158762463Y-86435082D01*
X158645731Y-86386730D01*
X149449567Y-77190567D01*
X149463000Y-77123033D01*
X149463000Y-76800967D01*
X149400168Y-76485088D01*
X149322259Y-76296999D01*
X159993999Y-76296999D01*
X160430433Y-76733434D01*
X160417000Y-76800967D01*
X160417000Y-77123033D01*
X160479832Y-77438912D01*
X160603082Y-77736463D01*
X160782013Y-78004252D01*
X161009748Y-78231987D01*
X161277537Y-78410918D01*
X161575088Y-78534168D01*
X161890967Y-78597000D01*
X162213033Y-78597000D01*
X162528912Y-78534168D01*
X162826463Y-78410918D01*
X163094252Y-78231987D01*
X163321987Y-78004252D01*
X163500918Y-77736463D01*
X163624168Y-77438912D01*
X163687000Y-77123033D01*
X163687000Y-76800967D01*
X163624168Y-76485088D01*
X163500918Y-76187537D01*
X163321987Y-75919748D01*
X163094252Y-75692013D01*
X162826463Y-75513082D01*
X162528912Y-75389832D01*
X162213033Y-75327000D01*
X161890967Y-75327000D01*
X161823434Y-75340433D01*
X161132715Y-74649715D01*
X161101869Y-74612129D01*
X160951883Y-74489039D01*
X160780766Y-74397575D01*
X160595093Y-74341252D01*
X160450379Y-74326999D01*
X160401999Y-74322234D01*
X160353619Y-74326999D01*
X147084378Y-74326999D01*
X147035998Y-74322234D01*
X146842904Y-74341252D01*
X146799690Y-74354361D01*
X146657232Y-74397575D01*
X146486115Y-74489039D01*
X146336129Y-74612129D01*
X146305283Y-74649715D01*
X145515715Y-75439283D01*
X145511000Y-75443153D01*
X145511000Y-53134377D01*
X145515765Y-53085999D01*
X145509376Y-53021130D01*
X145496747Y-52892906D01*
X145440424Y-52707233D01*
X145348960Y-52536116D01*
X145225870Y-52386130D01*
X145188284Y-52355284D01*
X142455000Y-49622000D01*
X142455000Y-49383740D01*
X142452062Y-49368967D01*
X146193000Y-49368967D01*
X146193000Y-49691033D01*
X146255832Y-50006912D01*
X146379082Y-50304463D01*
X146558013Y-50572252D01*
X146785748Y-50799987D01*
X147053537Y-50978918D01*
X147351088Y-51102168D01*
X147666967Y-51165000D01*
X147989033Y-51165000D01*
X148304912Y-51102168D01*
X148602463Y-50978918D01*
X148870252Y-50799987D01*
X149097987Y-50572252D01*
X149276918Y-50304463D01*
X149400168Y-50006912D01*
X149463000Y-49691033D01*
X149463000Y-49368967D01*
X160417000Y-49368967D01*
X160417000Y-49691033D01*
X160479832Y-50006912D01*
X160603082Y-50304463D01*
X160782013Y-50572252D01*
X161009748Y-50799987D01*
X161277537Y-50978918D01*
X161575088Y-51102168D01*
X161890967Y-51165000D01*
X162213033Y-51165000D01*
X162528912Y-51102168D01*
X162826463Y-50978918D01*
X163094252Y-50799987D01*
X163321987Y-50572252D01*
X163500918Y-50304463D01*
X163624168Y-50006912D01*
X163687000Y-49691033D01*
X163687000Y-49368967D01*
X163624168Y-49053088D01*
X163500918Y-48755537D01*
X163321987Y-48487748D01*
X163094252Y-48260013D01*
X162826463Y-48081082D01*
X162528912Y-47957832D01*
X162213033Y-47895000D01*
X161890967Y-47895000D01*
X161575088Y-47957832D01*
X161277537Y-48081082D01*
X161009748Y-48260013D01*
X160782013Y-48487748D01*
X160603082Y-48755537D01*
X160479832Y-49053088D01*
X160417000Y-49368967D01*
X149463000Y-49368967D01*
X149400168Y-49053088D01*
X149276918Y-48755537D01*
X149097987Y-48487748D01*
X148870252Y-48260013D01*
X148602463Y-48081082D01*
X148304912Y-47957832D01*
X147989033Y-47895000D01*
X147666967Y-47895000D01*
X147351088Y-47957832D01*
X147053537Y-48081082D01*
X146785748Y-48260013D01*
X146558013Y-48487748D01*
X146379082Y-48755537D01*
X146255832Y-49053088D01*
X146193000Y-49368967D01*
X142452062Y-49368967D01*
X142397932Y-49096842D01*
X142285990Y-48826589D01*
X142123475Y-48583368D01*
X141916632Y-48376525D01*
X141673411Y-48214010D01*
X141403158Y-48102068D01*
X141116260Y-48045000D01*
X140823740Y-48045000D01*
X140536842Y-48102068D01*
X140266589Y-48214010D01*
X140023368Y-48376525D01*
X139816525Y-48583368D01*
X139700000Y-48757760D01*
X139583475Y-48583368D01*
X139376632Y-48376525D01*
X139133411Y-48214010D01*
X138863158Y-48102068D01*
X138576260Y-48045000D01*
X138283740Y-48045000D01*
X137996842Y-48102068D01*
X137726589Y-48214010D01*
X137483368Y-48376525D01*
X137276525Y-48583368D01*
X137160000Y-48757760D01*
X137043475Y-48583368D01*
X136836632Y-48376525D01*
X136593411Y-48214010D01*
X136323158Y-48102068D01*
X136036260Y-48045000D01*
X135743740Y-48045000D01*
X135456842Y-48102068D01*
X135186589Y-48214010D01*
X134943368Y-48376525D01*
X134736525Y-48583368D01*
X134620000Y-48757760D01*
X134503475Y-48583368D01*
X134296632Y-48376525D01*
X134053411Y-48214010D01*
X133783158Y-48102068D01*
X133496260Y-48045000D01*
X133203740Y-48045000D01*
X132916842Y-48102068D01*
X132646589Y-48214010D01*
X132403368Y-48376525D01*
X132196525Y-48583368D01*
X132080000Y-48757760D01*
X131963475Y-48583368D01*
X131756632Y-48376525D01*
X131513411Y-48214010D01*
X131243158Y-48102068D01*
X130956260Y-48045000D01*
X130663740Y-48045000D01*
X130376842Y-48102068D01*
X130106589Y-48214010D01*
X129863368Y-48376525D01*
X129656525Y-48583368D01*
X129540000Y-48757760D01*
X129423475Y-48583368D01*
X129216632Y-48376525D01*
X128973411Y-48214010D01*
X128703158Y-48102068D01*
X128416260Y-48045000D01*
X128123740Y-48045000D01*
X127836842Y-48102068D01*
X127566589Y-48214010D01*
X127323368Y-48376525D01*
X127116525Y-48583368D01*
X126994805Y-48765534D01*
X126925178Y-48648645D01*
X126730269Y-48432412D01*
X126496920Y-48258359D01*
X126234099Y-48133175D01*
X126086890Y-48088524D01*
X125857000Y-48209845D01*
X125603000Y-48209845D01*
X125373110Y-48088524D01*
X125225901Y-48133175D01*
X124963080Y-48258359D01*
X124729731Y-48432412D01*
X124534822Y-48648645D01*
X124465195Y-48765534D01*
X124343475Y-48583368D01*
X124136632Y-48376525D01*
X123893411Y-48214010D01*
X123623158Y-48102068D01*
X123336260Y-48045000D01*
X123043740Y-48045000D01*
X122756842Y-48102068D01*
X122486589Y-48214010D01*
X122243368Y-48376525D01*
X122111513Y-48508380D01*
X122089502Y-48435820D01*
X122030537Y-48325506D01*
X121951185Y-48228815D01*
X121854494Y-48149463D01*
X121744180Y-48090498D01*
X121624482Y-48054188D01*
X121500000Y-48041928D01*
X119800000Y-48041928D01*
X119675518Y-48054188D01*
X119555820Y-48090498D01*
X119445506Y-48149463D01*
X119348815Y-48228815D01*
X119269463Y-48325506D01*
X119210498Y-48435820D01*
X119174188Y-48555518D01*
X119161928Y-48680000D01*
X118237000Y-48680000D01*
X118237000Y-47117000D01*
X164986330Y-47117000D01*
X170053000Y-92717032D01*
M02*
